<svg width="348" height="329" viewBox="0 0 348 329" fill="none" xmlns="http://www.w3.org/2000/svg">
<path d="M51.8506 158.175L0.992188 61.5439L72.9205 124.756C67.5925 118.217 53.7396 100.78 40.9524 83.3429C28.1651 65.9057 26.4214 47.9842 27.1479 41.2031C30.5385 47.9833 38.7727 64.7412 44.5851 77.5305C49.3427 87.9989 88.1742 115.729 117.252 135.144C115.889 134.179 114.433 133.139 112.881 132.022C94.717 118.944 35.14 47.742 30.0541 36.8412C26.4006 29.0104 21.6926 13.5662 19.1916 4.7099C16.7932 -0.120136 17.4443 0.489357 18.4294 1.96688C18.6518 2.78226 18.9074 3.70355 19.1916 4.7099C20.3314 7.00515 22.1598 10.5288 24.9683 15.7713C33.6869 32.046 66.3816 64.6922 81.6391 78.981L54.0302 36.8412C54.999 38.0521 62.8941 47.3035 86.7249 74.6217C110.556 101.94 166.403 129.113 191.348 139.285C225.98 156.237 298.296 195.229 310.502 215.572C325.759 241.001 352.642 292.586 345.376 313.656C338.111 334.726 243.659 326.008 223.316 322.375C207.041 319.469 159.864 294.524 138.31 282.415C140.732 284.836 141.071 290.261 123.052 292.586C100.529 295.492 45.3117 190.87 51.8506 179.245C57.0817 169.945 54.0302 161.323 51.8506 158.175Z" fill="#F2B42A"/>
<path d="M0.992188 61.5439L51.8506 158.175C54.0302 161.323 57.0817 169.945 51.8506 179.245C45.3117 190.87 100.529 295.493 123.052 292.586C141.071 290.261 140.732 284.836 138.31 282.415C159.864 294.524 207.041 319.469 223.316 322.375C243.659 326.008 338.111 334.726 345.376 313.656C352.642 292.586 325.759 241.001 310.502 215.572C298.296 195.229 225.98 156.237 191.348 139.285C166.403 129.113 110.556 101.94 86.7249 74.6217C62.8941 47.3035 54.999 38.0521 54.0302 36.8412L81.6391 78.981C66.3816 64.6922 33.6869 32.046 24.9683 15.7713C16.2497 -0.503387 16.9763 -0.212768 18.4294 1.96688C20.609 9.95805 25.9855 28.1206 30.0541 36.8412C35.14 47.742 94.717 118.944 112.881 132.022C127.412 142.484 133.466 146.068 134.677 146.553C107.068 128.874 50.3975 90.3198 44.5851 77.5305C38.7727 64.7412 30.5385 47.9833 27.1479 41.2031C26.4214 47.9842 28.1651 65.9057 40.9524 83.3429C53.7396 100.78 67.5925 118.217 72.9205 124.756L0.992188 61.5439Z" stroke="#F2B42A" stroke-width="1.4531"/>
<path d="M213.871 114.244L146.302 92.4473L189.168 129.501L328.665 263.186C331.572 267.788 336.076 268.417 330.845 234.124C325.614 199.831 298.15 168.493 285.073 157.11H294.518C295.002 155.899 293.791 149.845 285.073 135.314C274.174 117.15 238.573 108.431 229.128 106.978C221.572 105.816 215.808 111.338 213.871 114.244Z" fill="#CEBA62" stroke="#CEBA62" stroke-width="1.4531"/>
<path d="M225.792 245.023C210.098 220.611 216.831 191.259 222.159 179.634C279.557 182.54 326.055 245.023 339.859 265.367C350.903 281.641 346.883 308.475 343.492 319.858C337.922 320.584 320.242 320.875 294.087 316.225C261.392 310.413 245.409 275.538 225.792 245.023Z" fill="#FF7A49"/>
<path d="M319.947 304.6C301.347 300.532 271.995 272.39 259.644 258.828L274.175 262.46L271.268 247.203C276.603 251.827 285.386 259.454 288.296 262.03C285.188 258.054 284.84 240.542 285.073 231.945C285.073 234.125 285.799 240.228 288.706 247.203C291.612 254.178 328.666 293.218 346.829 311.866C345.618 311.139 338.547 308.669 319.947 304.6Z" fill="#D9D560"/>
<path d="M259.644 258.828C271.995 272.39 301.347 300.532 319.947 304.6C338.547 308.669 345.618 311.139 346.829 311.866C328.666 293.218 291.612 254.178 288.706 247.203C285.799 240.228 285.073 234.125 285.073 231.945C284.831 240.906 285.218 259.554 288.706 262.46C292.193 265.367 278.534 253.5 271.268 247.203L274.175 262.46L259.644 258.828Z" stroke="#D9D560" stroke-width="1.4531"/>
<path d="M181.903 266.819L146.302 234.851C146.302 280.623 181.903 290.068 198.613 300.967C211.982 309.685 240.027 310.896 252.378 310.412C251.167 309.443 244.241 304.745 226.222 293.701C208.204 282.657 180.45 249.866 168.825 234.851L181.903 266.819Z" fill="#FFDE2F"/>
</svg>
