<svg width="244" height="234" viewBox="0 0 244 234" fill="none" xmlns="http://www.w3.org/2000/svg">
<path d="M187.494 75.23C201.871 96.8761 229.813 148.265 226.561 180.651C223.309 213.038 217.626 226 215.191 228.433C191.534 209.506 138.037 161.977 113.3 123.275C90.4462 87.5199 69.5637 59.9403 57.0412 47.3678C49.3932 43.1065 43.0888 39.1732 47.1852 39.9642C49.2411 40.3611 52.6202 42.9293 57.0412 47.3678C61.162 49.6639 65.6728 52.0551 69.1569 53.8538C59.9087 44.1975 40.3395 24.9786 27.762 16.3975C21.009 12.588 18.1143 11.0596 22.8311 13.4204C24.2967 14.154 25.9574 15.1662 27.762 16.3975C41.9122 24.3798 73.003 42.3777 86.5047 55.5959C94.301 63.2286 99.9988 69.7671 103.973 74.8744C93.0791 58.6322 78.5537 37.9079 68.5274 26.1704C60.2686 20.8832 54.5698 16.6077 58.2522 16.9775C60.144 17.1675 63.8451 20.689 68.5274 26.1704C75.8267 30.8433 85.1257 36.3065 91.715 40.0511L59.5591 3.96287L122.157 35.0759C127.626 31.4861 143.668 27.3025 164.082 39.2861C184.496 51.2697 194.605 62.5571 197.109 66.7029C200.579 73.3798 203.513 84.4328 187.494 75.23Z" fill="#CEBA62"/>
<path d="M187.494 75.23C201.871 96.8761 229.813 148.265 226.561 180.651C223.309 213.038 217.626 226 215.191 228.433C191.534 209.506 138.037 161.977 113.3 123.275C82.378 74.897 55.0647 41.4856 47.1852 39.9642C40.8817 38.747 59.2065 48.7168 69.1569 53.8538C58.5818 42.812 34.5114 19.2667 22.8311 13.4204C8.23071 6.11263 66.5594 36.0695 86.5047 55.5959C102.461 71.2171 109.627 82.2552 111.215 85.8216C96.4514 63.1638 65.1891 17.6741 58.2522 16.9775C51.3152 16.2809 77.6704 32.0697 91.715 40.0511L59.5591 3.96287L122.157 35.0759C127.626 31.4862 143.668 27.3025 164.082 39.2861C184.496 51.2697 194.605 62.5571 197.109 66.7029C200.579 73.3798 203.513 84.4328 187.494 75.23Z" stroke="#CEBA62" stroke-width="1.4531"/>
<g filter="url(#filter0_f_141_7)">
<path d="M162.008 95.7056C165.545 108.961 177.793 142.125 198.487 168.738C224.354 202.004 228.398 212.633 221.163 226.511C218.992 230.674 212.695 238.121 188.272 219.557C167.241 203.571 148.817 176.164 140.584 156.352C133.997 140.502 127.562 121.211 126.504 114.776L138.636 146.663L128.174 98.1495L137.348 115.865C136 112.322 132.972 102.721 131.646 92.6566C130.32 82.5927 130.085 79.1128 130.134 78.6309C134.946 96.1522 146.998 134.652 156.709 148.478C166.42 162.305 173.183 171.065 175.35 173.717C165.79 157.422 145.631 120.64 141.473 103.866C137.857 89.2743 136.054 82.3059 135.408 79.9148C135.333 79.6446 135.262 79.3857 135.194 79.139C135.241 79.3021 135.312 79.5573 135.408 79.9148C137.317 86.7741 141.65 100.959 145.375 108.639C149.247 116.622 152.141 123.679 153.104 126.21C148.675 112.135 139.718 83.5364 139.314 81.7433C138.809 79.502 158.739 135.538 166.397 146.53C172.524 155.324 181.281 167.984 184.893 173.215L164.525 128.817L177.383 153.475L173.339 142.846L179.552 153.693L156.225 95.1248L171.972 127.375C168.554 117.782 161.776 98.0189 162.008 95.7056Z" fill="#FF7A49"/>
</g>
<defs>
<filter id="filter0_f_141_7" x="125.051" y="77.1778" width="100.759" height="155.833" filterUnits="userSpaceOnUse" color-interpolation-filters="sRGB">
<feFlood flood-opacity="0" result="BackgroundImageFix"/>
<feBlend mode="normal" in="SourceGraphic" in2="BackgroundImageFix" result="shape"/>
<feGaussianBlur stdDeviation="0.726549" result="effect1_foregroundBlur_141_7"/>
</filter>
</defs>
</svg>
