<svg width="385" height="158" viewBox="0 0 385 158" fill="none" xmlns="http://www.w3.org/2000/svg">
<path d="M115.939 70.383C116.028 70.383 116.095 70.2944 116.139 70.1171C116.228 69.8956 116.295 69.6518 116.34 69.386C116.384 69.0758 116.406 68.7877 116.406 68.5218C116.451 68.2116 116.495 67.9679 116.54 67.7907C117.029 64.9989 117.496 62.1185 117.941 59.1496C118.386 56.1362 118.831 53.2337 119.276 50.442C119.32 50.2204 119.365 50.021 119.409 49.8437C119.454 49.6665 119.498 49.4671 119.543 49.2455C119.676 48.7137 120.032 48.4479 120.611 48.4479C122.168 48.5365 123.725 48.5586 125.282 48.5143C126.839 48.47 128.396 48.4922 129.953 48.5808C130.754 48.6694 131.221 48.8467 131.354 49.1126C131.532 49.3341 131.555 49.8437 131.421 50.6414C130.932 53.1672 130.442 55.8925 129.953 58.8172C129.508 61.6976 129.041 64.4007 128.552 66.9266C128.018 69.8956 127.484 72.8424 126.95 75.7671C126.461 78.6918 125.971 81.6164 125.482 84.5411C125.348 85.2945 125.171 86.0699 124.948 86.8676C124.77 87.6209 124.614 88.3521 124.481 89.0611C124.303 89.7701 124.147 90.2133 124.014 90.3905C123.88 90.5234 123.458 90.6121 122.746 90.6564C121.189 90.7007 119.632 90.7007 118.075 90.6564C116.562 90.5678 115.027 90.5678 113.47 90.6564C112.758 90.7007 112.202 90.5678 111.802 90.2576C111.446 89.9474 111.157 89.4821 110.934 88.8617C110.356 87.488 109.778 86.1364 109.199 84.807C108.665 83.4333 108.109 82.0817 107.531 80.7523C106.953 79.4229 106.374 78.1157 105.796 76.8306C105.218 75.5012 104.639 74.1718 104.061 72.8424C103.972 72.7538 103.883 72.643 103.794 72.51C103.749 72.3328 103.638 72.2442 103.46 72.2442C103.327 72.2442 103.216 72.3328 103.127 72.51C103.038 72.6873 102.949 72.8424 102.86 72.9753C101.347 75.5898 99.968 78.2708 98.7223 81.0182C97.5211 83.7657 96.3422 86.5352 95.1855 89.327C95.0965 89.7701 94.9631 90.0582 94.7851 90.1911C94.6072 90.3683 94.4292 90.5234 94.2513 90.6564C94.0733 90.7893 93.8731 90.8558 93.6507 90.8558C92.3605 90.9444 91.0926 90.9444 89.8469 90.8558C88.6013 90.8115 87.3334 90.8336 86.0432 90.9223C85.4204 90.9223 85.02 90.6121 84.842 89.9917C84.3082 87.6431 83.7521 85.3166 83.1737 83.0123C82.6399 80.6637 82.106 78.3151 81.5721 75.9665C81.0828 73.6622 80.5712 71.3801 80.0373 69.1201C79.5479 66.8601 79.0363 64.6001 78.5025 62.3401C78.3245 61.5425 78.1466 60.6562 77.9686 59.6813C77.7906 58.7064 77.6127 57.7094 77.4347 56.6902C77.2568 55.6266 77.0566 54.6074 76.8342 53.6325C76.6562 52.6576 76.4782 51.7714 76.3003 50.9737C76.2558 50.7965 76.2113 50.6414 76.1668 50.5084C76.1223 50.3755 76.0779 50.2204 76.0334 50.0431C75.9444 49.4228 76.0334 49.0018 76.3003 48.7802C76.6117 48.5586 77.0788 48.47 77.7017 48.5143C78.1021 48.5586 78.7471 48.603 79.6369 48.6473C80.5267 48.6473 81.4609 48.6473 82.4397 48.6473C83.4629 48.6473 84.3971 48.6473 85.2424 48.6473C86.1322 48.603 86.7773 48.5586 87.1776 48.5143C87.5336 48.5143 87.756 48.5808 87.845 48.7137C87.9784 48.8467 88.0897 49.0461 88.1786 49.312C88.3566 49.9324 88.5123 50.6192 88.6458 51.3725C88.8237 52.1259 88.9794 52.9014 89.1129 53.699C89.2908 54.4966 89.4465 55.2943 89.58 56.0919C89.758 56.8453 89.9137 57.51 90.0471 58.086C90.492 59.7256 90.9146 61.3652 91.315 63.0048C91.7154 64.6001 92.1381 66.1954 92.583 67.7907C92.6274 67.9236 92.6719 68.0787 92.7164 68.256C92.8054 68.3889 92.9611 68.4554 93.1835 68.4554C93.317 68.4554 93.4727 68.2781 93.6507 67.9236C94.5849 66.3283 95.5192 64.7995 96.4534 63.3372C97.3877 61.8748 98.2774 60.3239 99.1227 58.6843C99.879 57.1333 101.102 55.4243 102.793 55.5572C103.727 55.6458 104.662 55.668 105.596 55.6237C106.53 55.5351 107.486 55.5129 108.465 55.5572C108.821 55.5572 109.088 56.6458 109.266 56.8231C109.444 57.0004 109.622 57.2662 109.8 57.6207C110.645 59.6148 111.513 61.5646 112.402 63.4701C113.292 65.3313 114.182 67.2367 115.072 69.1865C115.161 69.4081 115.272 69.674 115.405 69.9842C115.583 70.2501 115.761 70.383 115.939 70.383Z" fill="white"/>
<path d="M177.786 69.1865C177.563 71.225 177.23 73.1969 176.785 75.1024C176.34 77.0079 175.673 78.8247 174.783 80.5529C173.938 82.2368 172.848 83.81 171.513 85.2723C170.223 86.6903 168.644 87.9311 166.775 88.9946C165.307 89.8366 163.794 90.4791 162.237 90.9223C160.68 91.3654 159.056 91.587 157.366 91.587C154.608 91.587 152.138 91.2546 149.958 90.5899C147.823 89.8809 145.932 88.9946 144.286 87.9311C142.685 86.8233 141.306 85.6047 140.149 84.2753C139.037 82.9015 138.102 81.5721 137.346 80.287C136.634 78.9576 136.1 77.739 135.745 76.6312C135.389 75.5234 135.188 74.6371 135.144 73.9724C135.055 72.7759 134.966 71.5795 134.877 70.383C134.744 69.1865 134.788 67.9679 135.01 66.7271C135.455 64.5558 136.189 62.4287 137.213 60.346C138.28 58.2633 139.615 56.38 141.217 54.6961C142.863 53.0121 144.798 51.5941 147.022 50.442C149.247 49.2455 151.738 48.4922 154.496 48.182C156.142 47.9604 157.766 47.9826 159.368 48.2485C161.014 48.5143 162.615 48.9353 164.172 49.5114C166.842 50.5306 169.088 51.9708 170.912 53.8319C172.736 55.6488 174.227 57.8645 175.383 60.479C176.006 61.897 176.585 63.2929 177.119 64.6666C177.652 66.0403 177.875 67.5469 177.786 69.1865Z" fill="white"/>
<path d="M301.134 70.383C301.223 70.383 301.29 70.2944 301.335 70.1171C301.424 69.8956 301.49 69.6518 301.535 69.386C301.579 69.0758 301.601 68.7877 301.601 68.5218C301.646 68.2116 301.69 67.9679 301.735 67.7907C302.224 64.9989 302.691 62.1185 303.136 59.1496C303.581 56.1362 304.026 53.2337 304.471 50.442C304.515 50.2204 304.56 50.021 304.604 49.8437C304.649 49.6665 304.693 49.4671 304.738 49.2455C304.871 48.7137 305.227 48.4479 305.806 48.4479C307.363 48.5365 308.92 48.5586 310.477 48.5143C312.034 48.47 313.591 48.4922 315.148 48.5808C315.949 48.6694 316.416 48.8467 316.549 49.1126C316.727 49.3341 316.75 49.8437 316.616 50.6414C316.127 53.1672 315.637 55.8925 315.148 58.8172C314.703 61.6976 314.236 64.4007 313.747 66.9266C313.213 69.8956 312.679 72.8424 312.145 75.7671C311.656 78.6918 311.166 81.6164 310.677 84.5411C310.544 85.2945 310.366 86.0699 310.143 86.8676C309.965 87.6209 309.81 88.3521 309.676 89.0611C309.498 89.7701 309.342 90.2133 309.209 90.3905C309.076 90.5234 308.653 90.6121 307.941 90.6564C306.384 90.7007 304.827 90.7007 303.27 90.6564C301.757 90.5678 300.222 90.5678 298.665 90.6564C297.953 90.7007 297.397 90.5678 296.997 90.2576C296.641 89.9474 296.352 89.4821 296.129 88.8617C295.551 87.488 294.973 86.1364 294.394 84.807C293.861 83.4333 293.304 82.0817 292.726 80.7523C292.148 79.4229 291.569 78.1157 290.991 76.8306C290.413 75.5012 289.834 74.1718 289.256 72.8424C289.167 72.7538 289.078 72.643 288.989 72.51C288.945 72.3328 288.833 72.2442 288.655 72.2442C288.522 72.2442 288.411 72.3328 288.322 72.51C288.233 72.6873 288.144 72.8424 288.055 72.9753C286.542 75.5898 285.163 78.2708 283.917 81.0182C282.716 83.7657 281.537 86.5352 280.381 89.327C280.292 89.7701 280.158 90.0582 279.98 90.1911C279.802 90.3683 279.624 90.5234 279.446 90.6564C279.268 90.7893 279.068 90.8558 278.846 90.8558C277.556 90.9444 276.288 90.9444 275.042 90.8558C273.796 90.8115 272.528 90.8336 271.238 90.9223C270.615 90.9223 270.215 90.6121 270.037 89.9917C269.503 87.6431 268.947 85.3166 268.369 83.0123C267.835 80.6637 267.301 78.3151 266.767 75.9665C266.278 73.6622 265.766 71.3801 265.232 69.1201C264.743 66.8601 264.231 64.6001 263.698 62.3401C263.52 61.5425 263.342 60.6562 263.164 59.6813C262.986 58.7064 262.808 57.7094 262.63 56.6902C262.452 55.6266 262.252 54.6074 262.029 53.6325C261.851 52.6576 261.673 51.7714 261.495 50.9737C261.451 50.7965 261.406 50.6414 261.362 50.5084C261.317 50.3755 261.273 50.2204 261.228 50.0431C261.139 49.4228 261.228 49.0018 261.495 48.7802C261.807 48.5586 262.274 48.47 262.897 48.5143C263.297 48.5586 263.942 48.603 264.832 48.6473C265.722 48.6473 266.656 48.6473 267.635 48.6473C268.658 48.6473 269.592 48.6473 270.438 48.6473C271.327 48.603 271.972 48.5586 272.373 48.5143C272.729 48.5143 272.951 48.5808 273.04 48.7137C273.174 48.8467 273.285 49.0461 273.374 49.312C273.552 49.9324 273.707 50.6192 273.841 51.3725C274.019 52.1259 274.175 52.9014 274.308 53.699C274.486 54.4966 274.642 55.2943 274.775 56.0919C274.953 56.8453 275.109 57.51 275.242 58.086C275.687 59.7256 276.11 61.3652 276.51 63.0048C276.911 64.6001 277.333 66.1954 277.778 67.7907C277.823 67.9236 277.867 68.0787 277.911 68.256C278 68.3889 278.156 68.4554 278.379 68.4554C278.512 68.4554 278.668 68.2781 278.846 67.9236C279.78 66.3283 280.714 64.7995 281.649 63.3372C282.583 61.8748 283.473 60.3239 284.318 58.6843C285.074 57.1333 286.298 56.4243 287.988 56.5572C288.922 56.6458 289.857 56.668 290.791 56.6237C291.725 56.5351 292.682 56.5129 293.66 56.5572C294.016 56.5572 294.283 56.6458 294.461 56.8231C294.639 57.0004 294.817 57.2662 294.995 57.6207C295.84 59.6148 296.708 61.5646 297.598 63.4701C298.487 65.3313 299.377 67.2367 300.267 69.1865C300.356 69.4081 300.467 69.674 300.6 69.9842C300.778 70.2501 300.956 70.383 301.134 70.383Z" fill="white"/>
<path d="M361.981 69.1865C361.759 71.225 361.425 73.1969 360.98 75.1024C360.535 77.0079 359.868 78.8247 358.978 80.5529C358.133 82.2368 357.043 83.81 355.708 85.2723C354.418 86.6903 352.839 87.9311 350.97 88.9946C349.502 89.8366 347.989 90.4791 346.432 90.9223C344.875 91.3654 343.251 91.587 341.561 91.587C338.803 91.587 336.334 91.2546 334.154 90.5899C332.018 89.8809 330.127 88.9946 328.481 87.9311C326.88 86.8233 325.501 85.6047 324.344 84.2753C323.232 82.9015 322.297 81.5721 321.541 80.287C320.829 78.9576 320.296 77.739 319.94 76.6312C319.584 75.5234 319.384 74.6371 319.339 73.9724C319.25 72.7759 319.161 71.5795 319.072 70.383C318.939 69.1865 318.983 67.9679 319.206 66.7271C319.65 64.5558 320.385 62.4287 321.408 60.346C322.475 58.2633 323.81 56.38 325.412 54.6961C327.058 53.0121 328.993 51.5941 331.217 50.442C333.442 49.2455 335.933 48.4922 338.691 48.182C340.337 47.9604 341.961 47.9826 343.563 48.2485C345.209 48.5143 346.81 48.9353 348.368 49.5114C351.037 50.5306 353.283 51.9708 355.108 53.8319C356.932 55.6488 358.422 57.8645 359.579 60.479C360.201 61.897 360.78 63.2929 361.314 64.6666C361.847 66.0403 362.07 67.5469 361.981 69.1865Z" fill="white"/>
<path d="M197.723 28C200.527 28 203.33 28.0361 206.133 28.1083C208.936 28.1083 211.739 28.1444 214.542 28.2166C215.764 28.2889 217.022 28.2889 218.316 28.2166C219.681 28.0722 220.975 28.0722 222.197 28.2166C223.059 28.2889 223.706 28.5777 224.138 29.0832C224.569 29.5165 224.82 30.1303 224.892 30.9246C225.036 32.0801 225.036 33.3077 224.892 34.6075C224.82 35.9074 224.82 37.135 224.892 38.2904C224.964 38.5793 224.892 38.9042 224.677 39.2653C224.533 39.5542 224.389 39.843 224.245 40.1319C221.73 44.0314 219.502 48.0392 217.561 52.1554C215.692 56.2716 213.823 60.4239 211.955 64.6122C209.655 69.595 207.355 74.5777 205.055 79.5604C202.755 84.471 200.455 89.4176 198.155 94.4003C197.795 95.1224 197.364 95.7363 196.861 96.2418C196.358 96.7472 195.639 97 194.705 97H179.611C178.389 97 178.03 96.4584 178.533 95.3752C178.964 94.5086 179.395 93.6421 179.827 92.7755C180.33 91.9089 180.797 91.0424 181.228 90.1758C184.534 83.1711 187.805 76.2747 191.039 69.4867C194.345 62.6264 197.652 55.6939 200.958 48.6892C201.82 46.8838 202.144 45.8006 201.928 45.4396C201.713 45.0785 200.563 44.898 198.478 44.898C194.884 44.898 191.255 44.898 187.589 44.898C183.995 44.898 180.402 44.9341 176.808 45.0063C176.017 45.0063 175.406 44.898 174.975 44.6813C174.544 44.3925 174.292 43.8509 174.22 43.0565C174.077 40.9623 174.005 38.8681 174.005 36.7739C174.077 34.6075 174.077 32.4772 174.005 30.383C173.933 28.9388 174.687 28.1444 176.269 28H178.425C180.006 28 181.911 28.0361 184.139 28.1083C186.367 28.1083 188.487 28.1083 190.5 28.1083C192.512 28.1083 194.202 28.1083 195.567 28.1083C197.005 28.0361 197.723 28 197.723 28Z" fill="white"/>
<path d="M62.1203 88.8423C62.1693 90.0001 62.0557 90.7588 61.7796 91.1184C61.5495 91.4181 60.9509 91.6174 59.9839 91.7163L56.2031 91.8763C54.9937 91.9854 53.7589 92.0667 52.4986 92.12C51.7255 92.2107 51.2371 92.1444 51.0334 91.921C50.8298 91.6976 50.6841 91.1239 50.5964 90.1997C50.3937 86.5547 50.2164 82.9376 50.0645 79.3484C49.9127 75.7593 49.7354 72.1422 49.5326 68.4972C49.3985 66.4731 49.2557 64.2464 49.1044 61.817C48.9991 59.3278 48.8551 57.0721 48.6724 55.0501C48.4898 53.028 48.5359 51.8239 48.5359 51.8239C48.3286 46.922 47.7868 38.5594 47.7868 38.5594C47.7623 37.9805 47.8918 37.5981 48.1753 37.4121C48.4563 37.1682 48.7908 37.0381 49.1785 37.0217C50.6562 36.9592 51.7652 37.0161 53.5923 36.9388C54.697 36.8921 54.7643 36.8724 56.9643 36.7793C57.7908 36.8023 58.4562 37.0352 58.9605 37.4778C59.4648 37.9204 59.7584 38.5459 59.8411 39.3543C59.8411 39.3543 60.5632 50.3131 60.5875 50.8874L60.6612 52.6291L60.8448 56.9708C60.9257 58.8812 60.992 61.0242 61.044 63.3997L61.3599 70.8675C61.5161 73.4126 61.6202 75.8729 61.6721 78.2484L61.9403 84.5874L62.1203 88.8423Z" fill="white"/>
<path d="M245.393 89.3393C245.307 90.4965 245.105 91.2378 244.789 91.5633C244.525 91.8345 243.906 91.9628 242.933 91.9484L239.154 91.6663C237.939 91.6337 236.701 91.5705 235.442 91.4764C234.662 91.4764 234.184 91.3535 234.008 91.1076C233.831 90.8617 233.753 90.274 233.774 89.3447C233.998 85.6959 234.243 82.0779 234.511 78.4906C234.779 74.9034 235.025 71.2853 235.248 67.6366C235.351 65.6079 235.469 63.3767 235.602 60.943C235.787 58.4551 235.907 56.1949 235.962 54.1626C236.016 52.1303 236.202 50.9382 236.202 50.9382C236.568 46.0388 237.005 37.6587 237.005 37.6587C237.048 37.0801 237.222 36.7149 237.525 36.563C237.833 36.3533 238.181 36.2629 238.569 36.2918C240.045 36.4021 241.142 36.5881 242.968 36.7244C244.072 36.8068 244.141 36.7951 246.34 36.9592C247.159 37.0786 247.794 37.3877 248.244 37.8868C248.694 38.3858 248.913 39.0422 248.901 39.8558C248.901 39.8558 248.34 50.839 248.297 51.4129L248.167 53.1538L247.843 57.4932C247.701 59.4025 247.517 61.5415 247.291 63.9101L246.734 71.374C246.593 73.9234 246.409 76.3824 246.184 78.751L245.711 85.0866L245.393 89.3393Z" fill="white"/>
<path d="M48.4 63.5692C47.616 63.6349 47.5082 63.5355 46.7967 63.5619L39.9264 63.8169C39.4372 63.8351 39.0362 63.8277 38.7233 63.7948C38.4548 63.7602 38.2292 63.6795 38.0464 63.5527C37.908 63.4243 37.7894 63.2283 37.6906 62.9648C37.6362 62.6996 37.5777 62.3233 37.5151 61.8358C37.3766 60.5051 37.2604 59.1735 37.1664 57.8411L37.0154 53.7723C36.9989 53.3276 37.1216 53.0336 37.3834 52.8903C37.6436 52.7025 37.9516 52.6021 38.3073 52.5889C43.6386 52.2574 48.95 51.9934 54.2417 51.797C59.5334 51.6006 64.8506 51.4923 70.1933 51.4721C70.951 51.4885 71.5587 51.6663 72.0166 52.0056C72.4745 52.3448 72.7372 52.8249 72.8048 53.4458C72.9432 54.7765 73.0372 56.1089 73.0867 57.4429L73.3637 61.3067C73.3934 62.1071 72.9842 62.4786 72.136 62.421C71.245 62.4095 70.3762 62.3972 69.5297 62.3841C68.6831 62.371 67.8374 62.3802 66.9925 62.4115C65.2566 62.4314 63.5224 62.4958 61.7898 62.6046L48.4 63.5692Z" fill="white"/>
<path d="M233.987 69.2894C233.2 69.2709 233.104 69.1606 232.394 69.1108L225.535 68.6299C225.047 68.5957 224.649 68.5455 224.342 68.4793C224.078 68.4162 223.863 68.3119 223.694 68.1663C223.571 68.0238 223.474 67.8162 223.403 67.5437C223.378 67.2742 223.36 66.8938 223.35 66.4024C223.354 65.0645 223.381 63.7281 223.43 62.3933L223.715 58.3317C223.746 57.8878 223.899 57.6086 224.175 57.4941C224.454 57.3352 224.771 57.2682 225.126 57.2931C230.462 57.5334 235.771 57.8388 241.054 58.2091C246.336 58.5795 251.634 59.0402 256.949 59.5912C257.7 59.6885 258.285 59.9303 258.704 60.3165C259.123 60.7027 259.333 61.2081 259.334 61.8327C259.329 63.1706 259.28 64.5054 259.187 65.8371L259.049 69.7083C258.993 70.5074 258.547 70.8329 257.71 70.685C256.825 70.5784 255.963 70.4733 255.122 70.3698C254.282 70.2662 253.44 70.1849 252.597 70.1258C250.869 69.96 249.137 69.8386 247.403 69.7616L233.987 69.2894Z" fill="white"/>
<path d="M166 69.5793C166 69.0615 165.978 68.6731 165.935 68.4142C165.935 68.1122 165.913 67.8749 165.869 67.7023C165.826 67.5297 165.782 67.3786 165.739 67.2492C165.695 67.0766 165.652 66.8608 165.608 66.6019C165.477 65.9547 165.107 65.2643 164.497 64.5307C163.931 63.754 163.212 63.0421 162.341 62.3948C161.513 61.7044 160.577 61.1435 159.532 60.712C158.53 60.2373 157.55 60 156.591 60C154.631 60 152.976 60.3884 151.626 61.165C150.319 61.9417 149.252 62.9126 148.424 64.0777C147.64 65.1996 147.052 66.4293 146.66 67.767C146.268 69.1046 146.05 70.3344 146.007 71.4563C145.963 72.1899 146.137 73.0529 146.529 74.0453C146.965 74.9946 147.596 75.9223 148.424 76.8285C149.295 77.6915 150.341 78.4466 151.56 79.0939C152.823 79.6979 154.239 80 155.807 80C157.55 80 159.052 79.6548 160.316 78.9644C161.579 78.2309 162.624 77.3463 163.452 76.3107C164.323 75.2751 164.955 74.1532 165.347 72.945C165.782 71.7368 166 70.6149 166 69.5793Z" fill="black"/>
<path d="M350 69.5793C350 69.0615 349.977 68.6731 349.931 68.4142C349.931 68.1122 349.909 67.8749 349.863 67.7023C349.817 67.5297 349.771 67.3786 349.726 67.2492C349.68 67.0766 349.634 66.8608 349.588 66.6019C349.451 65.9547 349.062 65.2643 348.422 64.5307C347.828 63.754 347.073 63.0421 346.158 62.3948C345.289 61.7044 344.306 61.1435 343.208 60.712C342.156 60.2373 341.127 60 340.121 60C338.063 60 336.325 60.3884 334.907 61.165C333.535 61.9417 332.414 62.9126 331.545 64.0777C330.722 65.1996 330.105 66.4293 329.693 67.767C329.281 69.1046 329.053 70.3344 329.007 71.4563C328.961 72.1899 329.144 73.0529 329.556 74.0453C330.013 74.9946 330.676 75.9223 331.545 76.8285C332.46 77.6915 333.558 78.4466 334.838 79.0939C336.165 79.6979 337.651 80 339.298 80C341.127 80 342.705 79.6548 344.031 78.9644C345.358 78.2309 346.455 77.3463 347.324 76.3107C348.239 75.2751 348.902 74.1532 349.314 72.945C349.771 71.7368 350 70.6149 350 69.5793Z" fill="black"/>
<path d="M72 121.835L73.3613 117.035C74.3211 117.835 75.3686 118.449 76.5166 118.882C77.6646 119.309 78.8188 119.525 79.9794 119.525C80.8005 119.525 81.4282 119.399 81.8548 119.146C82.288 118.894 82.5006 118.527 82.5006 118.046C82.5006 117.258 81.6352 116.668 79.9037 116.277C79.3392 116.152 78.8814 116.037 78.5432 115.947C76.5798 115.43 75.1617 114.751 74.2713 113.908C73.3866 113.072 72.9413 111.978 72.9413 110.643C72.9413 108.911 73.6184 107.534 74.974 106.499C76.3285 105.465 78.1598 104.947 80.4747 104.947C81.6665 104.947 82.8777 105.079 84.107 105.344C85.3358 105.609 86.5969 106.018 87.8831 106.571L86.5219 110.901C85.6559 110.335 84.7718 109.903 83.8745 109.608C82.9778 109.314 82.0874 109.169 81.1895 109.169C80.4436 109.169 79.8789 109.283 79.4963 109.506C79.1135 109.729 78.9252 110.053 78.9252 110.474C78.9252 111.105 79.7844 111.641 81.5033 112.08C81.8986 112.182 82.193 112.26 82.388 112.308C84.6521 112.928 86.2266 113.662 87.1176 114.497C88.0023 115.339 88.4477 116.476 88.4477 117.907C88.4477 119.723 87.7198 121.196 86.2579 122.315C84.8034 123.44 82.8707 123.999 80.4747 123.999C78.844 123.999 77.3321 123.818 75.9334 123.463C74.5347 123.103 73.224 122.562 72.0003 121.834L72 121.835ZM119.108 123.314V109.964H116.323V105.526H119.108V100.222H125.545V105.526H128.33V109.964H125.545V123.314H119.108ZM176.574 105.526V114.607C176.574 116.615 176.405 118.107 176.066 119.075C175.733 120.043 175.162 120.903 174.366 121.655C173.544 122.442 172.522 123.032 171.299 123.417C170.069 123.808 168.632 124 166.977 124C165.333 124 163.903 123.808 162.686 123.417C161.463 123.032 160.427 122.442 159.568 121.655C158.772 120.927 158.207 120.073 157.875 119.093C157.542 118.112 157.379 116.615 157.379 114.607V105.526H163.626V115.015C163.626 116.501 163.883 117.577 164.397 118.245C164.913 118.906 165.746 119.237 166.901 119.237C168.068 119.237 168.902 118.912 169.41 118.263C169.918 117.607 170.175 116.525 170.175 115.016V105.526H176.574L176.574 105.526ZM221.601 114.438C221.601 113.055 221.218 111.96 220.453 111.16C219.694 110.361 218.646 109.964 217.329 109.964C216.006 109.964 214.965 110.361 214.205 111.16C213.446 111.96 213.07 113.055 213.07 114.438C213.07 115.833 213.446 116.927 214.199 117.721C214.952 118.515 215.993 118.912 217.329 118.912C218.646 118.912 219.694 118.515 220.453 117.715C221.218 116.915 221.601 115.821 221.601 114.438ZM227.409 96V123.314H221.38V120.427C220.547 121.624 219.612 122.52 218.57 123.109C217.529 123.705 216.375 123.999 215.102 123.999C212.493 123.999 210.417 123.133 208.873 121.408C207.33 119.682 206.558 117.354 206.558 114.432C206.558 111.599 207.33 109.308 208.867 107.564C210.403 105.821 212.404 104.948 214.876 104.948C216.444 104.948 217.724 105.219 218.709 105.76C219.693 106.301 220.572 107.209 221.343 108.478C221.268 108.057 221.218 107.576 221.18 107.041C221.143 106.506 221.123 105.922 221.123 105.303V96.0001L227.409 96ZM258.271 99.9687C258.271 99.0186 258.623 98.213 259.332 97.5451C260.034 96.8779 260.882 96.5408 261.878 96.5408C262.907 96.5408 263.766 96.8716 264.456 97.5274C265.152 98.1828 265.498 98.9947 265.498 99.9687C265.498 100.943 265.146 101.767 264.437 102.446C263.735 103.126 262.882 103.469 261.878 103.469C260.893 103.469 260.046 103.12 259.338 102.428C258.63 101.737 258.272 100.919 258.272 99.9687H258.271ZM258.61 123.314V105.525H265.159V123.314H258.61ZM309.489 114.462C309.489 113.139 309.138 112.093 308.442 111.328C307.746 110.565 306.798 110.18 305.613 110.18C304.414 110.18 303.467 110.565 302.771 111.328C302.081 112.093 301.736 113.139 301.736 114.462C301.736 115.791 302.081 116.837 302.765 117.595C303.449 118.353 304.402 118.731 305.613 118.731C306.811 118.731 307.758 118.353 308.454 117.595C309.144 116.837 309.489 115.791 309.489 114.462ZM316 114.462C316 115.742 315.737 116.964 315.217 118.112C314.696 119.267 313.943 120.301 312.946 121.215C311.942 122.129 310.819 122.826 309.577 123.296C308.329 123.765 307.012 123.999 305.613 123.999C304.189 123.999 302.859 123.765 301.617 123.296C300.369 122.826 299.259 122.129 298.28 121.215C297.295 120.319 296.549 119.297 296.035 118.142C295.52 116.981 295.263 115.755 295.263 114.462C295.263 113.163 295.52 111.936 296.028 110.781C296.536 109.633 297.283 108.599 298.28 107.678C299.246 106.776 300.35 106.091 301.599 105.634C302.84 105.176 304.176 104.948 305.613 104.948C307.049 104.948 308.386 105.176 309.621 105.634C310.857 106.091 311.967 106.776 312.946 107.678C313.956 108.611 314.715 109.651 315.229 110.8C315.743 111.948 316 113.175 316 114.462Z" fill="#FEFEFE"/>
</svg>
