<svg width="385" height="158" viewBox="0 0 385 158" fill="none" xmlns="http://www.w3.org/2000/svg">
<path d="M72 121.835L73.3613 117.035C74.3211 117.835 75.3686 118.449 76.5166 118.882C77.6646 119.309 78.8188 119.525 79.9794 119.525C80.8005 119.525 81.4282 119.399 81.8548 119.146C82.288 118.894 82.5006 118.527 82.5006 118.046C82.5006 117.258 81.6352 116.668 79.9037 116.277C79.3392 116.152 78.8814 116.037 78.5432 115.947C76.5798 115.43 75.1617 114.751 74.2713 113.908C73.3866 113.072 72.9413 111.978 72.9413 110.643C72.9413 108.911 73.6184 107.534 74.974 106.499C76.3285 105.465 78.1598 104.947 80.4747 104.947C81.6665 104.947 82.8777 105.079 84.107 105.344C85.3358 105.609 86.5969 106.018 87.8831 106.571L86.5219 110.901C85.6559 110.335 84.7718 109.903 83.8745 109.608C82.9778 109.314 82.0874 109.169 81.1895 109.169C80.4436 109.169 79.8789 109.283 79.4963 109.506C79.1135 109.729 78.9252 110.053 78.9252 110.474C78.9252 111.105 79.7844 111.641 81.5033 112.08C81.8986 112.182 82.193 112.26 82.388 112.308C84.6521 112.928 86.2266 113.662 87.1176 114.497C88.0023 115.339 88.4477 116.476 88.4477 117.907C88.4477 119.723 87.7198 121.196 86.2579 122.315C84.8034 123.44 82.8707 123.999 80.4747 123.999C78.844 123.999 77.3321 123.818 75.9334 123.463C74.5347 123.103 73.224 122.562 72.0003 121.834L72 121.835ZM119.108 123.314V109.964H116.323V105.526H119.108V100.222H125.545V105.526H128.33V109.964H125.545V123.314H119.108ZM176.574 105.526V114.607C176.574 116.615 176.405 118.107 176.066 119.075C175.733 120.043 175.162 120.903 174.366 121.655C173.544 122.442 172.522 123.032 171.299 123.417C170.069 123.808 168.632 124 166.977 124C165.333 124 163.903 123.808 162.686 123.417C161.463 123.032 160.427 122.442 159.568 121.655C158.772 120.927 158.207 120.073 157.875 119.093C157.542 118.112 157.379 116.615 157.379 114.607V105.526H163.626V115.015C163.626 116.501 163.883 117.577 164.397 118.245C164.913 118.906 165.746 119.237 166.901 119.237C168.068 119.237 168.902 118.912 169.41 118.263C169.918 117.607 170.175 116.525 170.175 115.016V105.526H176.574L176.574 105.526ZM221.601 114.438C221.601 113.055 221.218 111.96 220.453 111.16C219.694 110.361 218.646 109.964 217.329 109.964C216.006 109.964 214.965 110.361 214.205 111.16C213.446 111.96 213.07 113.055 213.07 114.438C213.07 115.833 213.446 116.927 214.199 117.721C214.952 118.515 215.993 118.912 217.329 118.912C218.646 118.912 219.694 118.515 220.453 117.715C221.218 116.915 221.601 115.821 221.601 114.438ZM227.409 96V123.314H221.38V120.427C220.547 121.624 219.612 122.52 218.57 123.109C217.529 123.705 216.375 123.999 215.102 123.999C212.493 123.999 210.417 123.133 208.873 121.408C207.33 119.682 206.558 117.354 206.558 114.432C206.558 111.599 207.33 109.308 208.867 107.564C210.403 105.821 212.404 104.948 214.876 104.948C216.444 104.948 217.724 105.219 218.709 105.76C219.693 106.301 220.572 107.209 221.343 108.478C221.268 108.057 221.218 107.576 221.18 107.041C221.143 106.506 221.123 105.922 221.123 105.303V96.0001L227.409 96ZM258.271 99.9687C258.271 99.0186 258.623 98.213 259.332 97.5451C260.034 96.8779 260.882 96.5408 261.878 96.5408C262.907 96.5408 263.766 96.8716 264.456 97.5274C265.152 98.1828 265.498 98.9947 265.498 99.9687C265.498 100.943 265.146 101.767 264.437 102.446C263.735 103.126 262.882 103.469 261.878 103.469C260.893 103.469 260.046 103.12 259.338 102.428C258.63 101.737 258.272 100.919 258.272 99.9687H258.271ZM258.61 123.314V105.525H265.159V123.314H258.61ZM309.489 114.462C309.489 113.139 309.138 112.093 308.442 111.328C307.746 110.565 306.798 110.18 305.613 110.18C304.414 110.18 303.467 110.565 302.771 111.328C302.081 112.093 301.736 113.139 301.736 114.462C301.736 115.791 302.081 116.837 302.765 117.595C303.449 118.353 304.402 118.731 305.613 118.731C306.811 118.731 307.758 118.353 308.454 117.595C309.144 116.837 309.489 115.791 309.489 114.462ZM316 114.462C316 115.742 315.737 116.964 315.217 118.112C314.696 119.267 313.943 120.301 312.946 121.215C311.942 122.129 310.819 122.826 309.577 123.296C308.329 123.765 307.012 123.999 305.613 123.999C304.189 123.999 302.859 123.765 301.617 123.296C300.369 122.826 299.259 122.129 298.28 121.215C297.295 120.319 296.549 119.297 296.035 118.142C295.52 116.981 295.263 115.755 295.263 114.462C295.263 113.163 295.52 111.936 296.028 110.781C296.536 109.633 297.283 108.599 298.28 107.678C299.246 106.776 300.35 106.091 301.599 105.634C302.84 105.176 304.176 104.948 305.613 104.948C307.049 104.948 308.386 105.176 309.621 105.634C310.857 106.091 311.967 106.776 312.946 107.678C313.956 108.611 314.715 109.651 315.229 110.8C315.743 111.948 316 113.175 316 114.462Z" fill="#FEFEFE"/>
</svg>
