<svg width="156" height="158" viewBox="0 0 156 158" fill="none" xmlns="http://www.w3.org/2000/svg">
<path fill-rule="evenodd" clip-rule="evenodd" d="M0 46.6604V110.652C0 124.538 3.08145 137.635 9.3004 145.346C15.1893 152.649 28.0819 157.313 41.3282 157.313H114.652C141.763 157.313 155.981 143.028 155.981 115.985V42.6609C155.981 12.2436 140.282 0 110.653 0H45.328C13.1533 0 0.000696294 14.5891 0.000696294 46.6604H0Z" fill="#FEFEFE"/>
<path fill-rule="evenodd" clip-rule="evenodd" d="M23.2381 113.959C27.4521 113.724 32.3154 113.941 36.5952 113.941C41.0403 113.941 45.4802 113.941 49.9288 113.941C55.3773 113.941 62.9899 114.109 68.0844 112.037C68.4718 111.878 68.8576 111.717 69.2339 111.544L73.4542 108.933C75.3101 107.535 77.6267 104.513 78.6517 102.474C82.4618 94.8906 81.7237 83.329 74.3959 78.3627L72.5211 77.2285C71.8771 76.8438 70.6001 76.4859 70.2634 76.0155C71.6455 74.97 73.8312 74.2264 75.7213 71.663L76.6498 70.3021C78.543 67.1374 79.2101 61.3986 78.3129 57.6173C78.2896 57.5192 78.2147 57.1877 78.1681 57.007L77.7433 55.4748C77.2096 53.9103 76.7591 52.8408 75.7895 51.3705C74.2354 49.0132 71.8252 47.1117 69.3126 45.891C63.2347 42.937 55.4059 43.3927 47.6554 43.4014C45.741 43.4039 24.4849 43.2681 23.2462 43.4464L23.2378 113.959H23.2381ZM93.2547 53.3052L121.565 53.3254C121.769 52.2736 121.646 50.0448 121.646 48.8935C121.646 45.5589 123.645 46.314 110.991 46.314C107.358 46.314 95.9734 46.1344 93.2933 46.345L93.2547 53.3055V53.3052ZM131.846 97.0144L118.471 97.0015C117.274 98.6893 117.105 99.458 115.394 100.72C115.369 100.738 115.333 100.765 115.307 100.782L114.933 101.008C111.758 102.895 108.029 103.32 104.29 102.24C102.11 101.612 101.028 100.975 99.4315 99.5499L98.5427 98.6176C98.1305 98.126 98.8212 98.9762 98.4048 98.4553C96.6979 96.3184 95.9942 93.2801 95.8512 90.2439L132.591 90.1994C133.034 86.962 132.423 81.6746 131.813 78.3927C131.111 74.6201 129.494 71.6 127.314 68.6261C126.201 67.1075 126.475 67.4424 125.059 66.039C124.041 65.0311 122.274 63.7305 120.938 63.0425C118.472 61.7742 119.429 62.3417 117.055 61.3241C115.941 60.846 113.226 60.3834 111.83 60.1766C105.399 59.2244 95.6374 60.5721 90.0145 66.3938L88.4597 68.0363C83.3168 73.6046 82.0186 83.2754 82.6877 90.6819C83.0679 94.8934 83.7694 97.3545 85.2348 100.841C85.8036 102.195 86.8474 103.705 87.7303 104.73C90.7811 108.275 94.9992 110.831 99.482 112.21C105.198 113.968 112.779 113.957 118.527 111.733L120.562 110.877C121.816 110.228 123.154 109.473 124.471 108.442L127.721 105.315C129.213 103.647 132.203 99.1614 131.846 97.0144H131.846ZM96.1854 81.4163L118.01 81.5347C118.292 81.5155 118.579 81.48 118.862 81.4372C118.825 70.183 104.725 68.0617 99.5433 73.8121C97.8474 75.6938 96.1185 79.1182 96.1854 81.4167V81.4163ZM39.3831 71.1244C40.3722 71.3559 54.0314 71.2518 55.793 71.138C57.3357 71.0384 59.5558 70.6196 60.8352 69.9452C63.3791 68.6038 64.5339 67.1921 64.644 63.2873C64.817 57.1372 60.4958 56.2777 55.7721 55.7565C54.0617 55.5678 40.9463 55.4574 39.4231 55.6524L39.3831 71.1244V71.1244ZM39.3838 83.2887C39.3838 88.0541 39.2101 97.445 39.4162 101.677C42.4886 101.885 50.7188 101.714 54.3228 101.714H54.0196C56.5085 101.714 58.261 101.534 60.1748 100.969C61.9131 100.456 63.4711 99.3205 64.4688 97.8287C66.8185 94.3141 67.0559 87.3703 62.6571 84.645L61.4191 83.9801C61.3985 83.9714 61.3578 83.9547 61.3383 83.9473L61.0016 83.8426C56.5161 82.4291 51.0648 82.8744 46.2924 82.8744L40.8345 82.8716C40.1588 82.8636 39.3845 82.6606 39.3845 83.2883L39.3838 83.2887Z" fill="black"/>
</svg>
