<svg width="50" height="50" viewBox="0 0 50 50" fill="none" xmlns="http://www.w3.org/2000/svg">
<g clip-path="url(#clip0_3_2)">
<path d="M40 0H10C4.47715 0 0 4.47715 0 10V40C0 45.5228 4.47715 50 10 50H40C45.5228 50 50 45.5228 50 40V10C50 4.47715 45.5228 0 40 0Z" fill="#F2F2F2"/>
<path d="M22.6379 24.44C23.2341 24.1731 23.7403 23.7393 24.0952 23.191C24.4501 22.6427 24.6386 22.0031 24.6379 21.3499C24.6473 20.7651 24.4961 20.1889 24.2009 19.6839C23.932 19.2089 23.5587 18.8014 23.109 18.492C22.6618 18.1919 22.1547 17.9923 21.6229 17.9071C20.7876 17.7941 19.9448 17.7453 19.1019 17.7611H13.412V32.005H18.256C20.089 31.986 21.246 31.9569 21.724 31.9049C22.4136 31.8482 23.0773 31.6164 23.652 31.231C24.1818 30.8548 24.6064 30.3491 24.885 29.762C25.1806 29.1764 25.3357 28.5298 25.338 27.8739C25.3533 27.0991 25.1066 26.342 24.6379 25.7249C24.1296 25.0896 23.4271 24.6384 22.6379 24.44V24.44ZM16.2839 20.14H17.9349C19.2889 20.14 20.1089 20.1531 20.3939 20.1881C20.8041 20.2138 21.1898 20.3921 21.475 20.6881C21.728 20.9875 21.8587 21.3714 21.8409 21.763C21.8495 21.9678 21.8167 22.1721 21.7444 22.3638C21.672 22.5556 21.5616 22.7309 21.4199 22.879C21.0998 23.1725 20.6908 23.3507 20.2579 23.3851C19.9859 23.4161 19.2899 23.4359 18.1689 23.4359H16.2839V20.14ZM21.963 28.9549C21.6881 29.2566 21.3196 29.4571 20.917 29.524C20.2628 29.5985 19.6041 29.6263 18.9459 29.607H16.2839V25.8021H18.606C19.4604 25.7579 20.3169 25.8251 21.1539 26.002C21.5166 26.1161 21.8325 26.3448 22.054 26.6539C22.2677 26.9741 22.3765 27.353 22.365 27.7379C22.3867 28.1785 22.2434 28.6114 21.963 28.952V28.9549ZM35.313 22.9779C34.8588 22.4702 34.2972 22.0704 33.6688 21.8075C33.0405 21.5445 32.3614 21.4252 31.681 21.4581C31.0445 21.4405 30.4117 21.5612 29.8264 21.8121C29.2411 22.063 28.7173 22.4379 28.291 22.911C27.3433 24.0277 26.8626 25.4669 26.949 26.929C26.9011 28.1922 27.2585 29.4375 27.969 30.483C28.437 31.0811 29.0453 31.5545 29.7401 31.8612C30.4349 32.1678 31.1947 32.2984 31.952 32.241C32.9542 32.2791 33.9434 32.0046 34.783 31.4559C35.5688 30.8985 36.1505 30.0992 36.439 29.18L33.719 28.722C33.6212 29.1564 33.3905 29.5496 33.059 29.847C32.7521 30.0878 32.3697 30.2116 31.98 30.1969C31.6847 30.2045 31.3912 30.1484 31.1198 30.0321C30.8483 29.9157 30.6051 29.7421 30.407 29.523C29.9587 28.9982 29.723 28.3249 29.746 27.6351H36.584C36.753 25.9779 36.3 24.3168 35.313 22.9749V22.9779ZM29.796 25.963C29.7547 25.3235 29.9592 24.6926 30.3679 24.1991C30.5511 23.9886 30.7785 23.821 31.0338 23.7083C31.2891 23.5956 31.566 23.5405 31.845 23.547C32.1119 23.5424 32.3767 23.5951 32.6215 23.7015C32.8662 23.8079 33.0852 23.9656 33.2639 24.1639C33.6853 24.6664 33.903 25.3088 33.874 25.9639L29.796 25.963ZM34.885 20.5631H28.849V18.14H34.885V20.5631Z" fill="#1E1E1E"/>
</g>
<defs>
<clipPath id="clip0_3_2">
<rect width="50" height="50" rx="13" fill="white"/>
</clipPath>
</defs>
</svg>
