<svg width="471" height="329" viewBox="0 0 471 329" fill="none" xmlns="http://www.w3.org/2000/svg">
<path d="M26.8042 210.888C52.3787 190.544 117.381 186.427 146.685 186.912C143.519 186.912 128.334 195.484 92.9221 229.775C48.6572 272.639 18.0856 280.634 7.18738 272.642C-3.71085 264.65 -5.16395 236.317 26.8042 210.888Z" fill="#FFDE2F"/>
<path d="M442.842 154.907C388.836 201.164 265.855 296.294 205.988 306.756C131.153 319.834 52.6859 332.912 34.5222 306.756C16.3584 280.6 44.6938 201.406 89.0133 178.157C133.333 154.907 227.058 117.853 289.541 80.7993C339.527 51.1561 399.007 15.1677 422.499 0.878906L219.066 146.189L365.828 59.0028L245.221 146.189L336.04 89.5178C293.351 119.756 210.125 177.998 191.824 188.24C209.943 181.152 292.601 150.905 350.552 113.498C389.993 81.9412 428.166 45.7629 449.382 24.1285C447.202 27.7612 430.782 45.9249 382.539 89.5178C373.459 97.723 362.533 105.763 350.552 113.498C321.557 136.696 291.877 157.396 267.744 167.985C210.783 192.978 191.215 202.133 188.551 203.586C239.167 186.149 352.024 140.522 398.523 97.5099C445.022 54.4982 461.006 38.4173 463.186 35.7532C438.968 67.9636 373.385 139.504 304.798 167.985C219.066 203.586 216.159 211.578 245.221 203.586C268.471 197.192 386.656 124.877 442.842 89.5178L433.397 106.955L468.998 80.7993C462.217 97.9942 438.629 139.504 398.523 167.985L397.437 168.756C348.309 203.644 342.869 207.507 382.539 189.782C414.507 175.498 436.061 160.58 442.842 154.907Z" fill="#F2B42A"/>
<path d="M442.842 154.907C388.836 201.164 265.855 296.294 205.988 306.756C131.153 319.834 52.6859 332.912 34.5222 306.756C16.3584 280.6 44.6938 201.406 89.0133 178.157C133.333 154.907 227.058 117.853 289.541 80.7993C339.527 51.1561 399.007 15.1677 422.499 0.878906L219.066 146.189L365.828 59.0028L245.221 146.189L336.04 89.5178C289.541 122.455 194.944 188.619 188.551 189.782C180.559 191.235 322.236 144.009 382.539 89.5178C430.782 45.9249 447.202 27.7612 449.382 24.1285C412.57 61.6668 324.706 142.992 267.744 167.985C210.783 192.978 191.215 202.133 188.551 203.586C239.167 186.149 352.024 140.522 398.523 97.5099C445.022 54.4982 461.006 38.4173 463.186 35.7532C438.968 67.9636 373.385 139.504 304.798 167.985C219.066 203.586 216.159 211.578 245.221 203.586C268.471 197.192 386.656 124.877 442.842 89.5178L433.397 106.955L468.998 80.7993C462.217 97.9942 438.629 139.504 398.523 167.985C348.391 203.586 342.579 207.637 382.539 189.782C414.507 175.498 436.061 160.58 442.842 154.907Z" stroke="#F2B42A" stroke-width="1.4531"/>
<path d="M123.4 325.647C101.894 333.203 62.1276 322.498 44.9326 316.201V287.139L142.29 275.515L111.049 308.209L156.095 300.944C154.157 306.03 144.906 318.09 123.4 325.647Z" fill="#FF7A49" stroke="#FF7A49" stroke-width="1.4531"/>
<path d="M82.0087 202.86C108.164 191.816 136.016 170.165 146.672 160.72C133.836 174.767 115.867 200.099 146.672 189.055C170.501 178.012 212.304 144.252 230.226 128.752L156.118 202.86L212.789 160.72L193.172 202.86H230.226C228.531 211.336 218.747 233.375 193.172 253.718C161.204 279.148 82.0087 317.655 51.495 316.202C35.4851 315.439 24.5884 303.85 21.6785 284.233C17.3969 255.369 49.314 216.664 82.0087 202.86Z" fill="#E3D45F" stroke="#E3D45F" stroke-width="1.4531"/>
</svg>
