<svg width="263" height="273" viewBox="0 0 263 273" fill="none" xmlns="http://www.w3.org/2000/svg">
<g clip-path="url(#clip0_5_3)">
<rect x="188" width="38" height="40" fill="#BE141B"/>
<rect x="150" width="38" height="40" fill="#BE141B"/>
<rect x="111" width="39" height="40" fill="#BE141B"/>
<rect x="73" width="38" height="40" fill="#BE141B"/>
<rect x="35" y="20" width="19" height="20" fill="#BE141B"/>
<rect x="54" y="20" width="19" height="20" fill="#BE141B"/>
<rect x="54" width="19" height="20" fill="#BE141B"/>
<rect x="35" width="19" height="20" fill="#BE141B"/>
<rect x="187" y="78" width="38" height="40" fill="#BE141B"/>
<rect x="225" y="113" width="38" height="40" fill="#BE141B"/>
<rect x="187" y="113" width="38" height="40" fill="#BE141B"/>
<rect x="225" y="153" width="38" height="40" fill="#BE141B"/>
<rect x="187" y="153" width="38" height="40" fill="#BE141B"/>
<rect x="225" y="193" width="38" height="40" fill="#BE141B"/>
<rect x="187" y="193" width="38" height="40" fill="#BE141B"/>
<rect x="187" y="233" width="38" height="40" fill="#BE141B"/>
<rect x="149" y="233" width="38" height="40" fill="#BE141B"/>
<rect x="111" y="233" width="38" height="40" fill="#BE141B"/>
<rect x="72" y="233" width="39" height="40" fill="#BE141B"/>
<rect x="37" y="233" width="38" height="40" fill="#BE141B"/>
<rect x="38" y="193" width="38" height="40" fill="#BE141B"/>
<rect y="213" width="19" height="20" fill="#BE141B"/>
<rect y="203" width="10" height="10" fill="#BE141B"/>
<rect x="10" y="203" width="9" height="10" fill="#BE141B"/>
<rect x="10" y="193" width="9" height="10" fill="#BE141B"/>
<rect y="193" width="10" height="10" fill="#BE141B"/>
<rect x="19" y="193" width="19" height="20" fill="#BE141B"/>
<rect x="19" y="213" width="19" height="20" fill="#BE141B"/>
<rect x="111" y="78" width="39" height="40" fill="#BE141B"/>
<rect x="73" y="78" width="38" height="40" fill="#BE141B"/>
<rect x="39" y="40" width="38" height="40" fill="#BE141B"/>
<rect x="1" y="40" width="38" height="40" fill="#BE141B"/>
<rect x="1" y="78" width="38" height="40" fill="#BE141B"/>
<rect x="35" y="78" width="38" height="40" fill="#BE141B"/>
<rect x="150" y="78" width="38" height="40" fill="#BE141B"/>
<rect x="16" y="20" width="19" height="20" fill="#BE141B"/>
<rect x="26" y="10" width="9" height="10" fill="#BE141B"/>
<rect x="16" y="10" width="10" height="10" fill="#BE141B"/>
<rect x="26" width="9" height="10" fill="#BE141B"/>
<rect x="16" width="10" height="10" fill="#BE141B"/>
<rect x="1" y="30" width="15" height="10" fill="#BE141B"/>
<rect x="1" y="20" width="15" height="10" fill="#BE141B"/>
<rect x="7" y="10" width="9" height="10" fill="#BE141B"/>
<rect x="1" y="10" width="6" height="10" fill="#BE141B"/>
<rect x="7" width="9" height="10" fill="#BE141B"/>
<rect x="1" width="6" height="10" fill="#BE141B"/>
</g>
<defs>
<clipPath id="clip0_5_3">
<rect width="263" height="273" fill="white"/>
</clipPath>
</defs>
</svg>
