<svg width="45" height="35" viewBox="0 0 45 35" fill="none" xmlns="http://www.w3.org/2000/svg">
<path d="M2.35202 7.95254C1.40743 7.95254 0.793455 7.85764 0.510079 7.66781C0.273933 7.50963 0.132244 7.11417 0.0850146 6.48144L0.0850147 4.01378C0.0377855 3.22286 0.0141707 2.41612 0.0141707 1.59357C-0.0330585 1.08738 0.0377863 0.771015 0.226703 0.644468C0.41562 0.517921 0.88791 0.43883 1.64358 0.407193C4.61902 0.375557 7.57084 0.359738 10.4991 0.359739C13.4273 0.359739 16.3791 0.34392 19.3545 0.312284C21.0076 0.280647 22.8259 0.249011 24.8095 0.217374C26.8404 0.217374 28.6823 0.185737 30.3353 0.122464C31.9884 0.0591904 32.9674 0.122464 32.9674 0.122464C36.9666 0.122464 43.7957 -5.1265e-08 43.7957 -5.1265e-08C44.268 -3.1161e-08 44.5749 0.0949099 44.7166 0.28473C44.9055 0.47455 45 0.696007 45 0.949101C45 1.91351 44.9154 2.63452 44.9154 3.82702C44.9154 4.54803 44.9292 4.59242 44.9292 6.02832C44.8819 6.56614 44.6694 6.99324 44.2916 7.30961C43.9137 7.62597 43.3942 7.79997 42.733 7.83161C42.733 7.83161 33.7834 8 33.3149 8L31.8939 8L28.3517 8C26.7931 8 25.0457 7.98418 23.1093 7.95255L17.0167 7.95255C14.9386 7.98418 12.9314 7.98418 10.995 7.95255L5.82336 7.95254L2.35202 7.95254Z" fill="white"/>
<path d="M42.857 20.9585C43.7177 20.9585 44.2771 20.8754 44.5353 20.7093C44.7504 20.5709 44.8795 20.2249 44.9225 19.6713L44.9225 17.5121C44.9656 16.82 44.9871 16.1141 44.9871 15.3944C45.0301 14.9515 44.9656 14.6746 44.7934 14.5639C44.6213 14.4532 44.191 14.384 43.5025 14.3563C40.7916 14.3286 38.1021 14.3148 35.4342 14.3148C32.7663 14.3148 30.0768 14.3009 27.3659 14.2732C25.8598 14.2456 24.2031 14.2179 22.3958 14.1902C20.5454 14.1902 18.8672 14.1625 17.3611 14.1072C15.8551 14.0518 14.9631 14.1072 14.9631 14.1072C11.3193 14.1072 5.09729 14 5.09729 14C4.66698 14 4.38728 14.083 4.25818 14.2491C4.08606 14.4152 4 14.609 4 14.8305C4 15.6743 4.07704 16.3052 4.07704 17.3486C4.07704 17.9795 4.06455 18.0184 4.06455 19.2748C4.10758 19.7454 4.30122 20.1191 4.64547 20.3959C4.98971 20.6727 5.46305 20.825 6.06549 20.8527C6.06549 20.8527 14.2196 21 14.6464 21L15.9411 21L19.1684 21C20.5885 21 22.1806 20.9862 23.9449 20.9585L29.4959 20.9585C31.3893 20.9862 33.2181 20.9862 34.9824 20.9585L39.6943 20.9585L42.857 20.9585Z" fill="white"/>
<path d="M42.648 34.9525C43.5926 34.9525 44.2065 34.8576 44.4899 34.6678C44.7261 34.5096 44.8678 34.1142 44.915 33.4814L44.915 31.0138C44.9622 30.2229 44.9858 29.4161 44.9858 28.5936C45.0331 28.0874 44.9622 27.771 44.7733 27.6445C44.5844 27.5179 44.1121 27.4388 43.3564 27.4072C40.381 27.3756 37.4292 27.3597 34.5009 27.3597C31.5727 27.3597 28.6209 27.3439 25.6455 27.3123C23.9924 27.2806 22.1741 27.249 20.1905 27.2174C18.1596 27.2174 16.3177 27.1857 14.6647 27.1225C13.0116 27.0592 12.0326 27.1225 12.0326 27.1225C8.03339 27.1225 1.20434 27 1.20434 27C0.73205 27 0.425061 27.0949 0.283372 27.2847C0.0944578 27.4746 3.94638e-08 27.696 5.38143e-08 27.9491C1.08497e-07 28.9135 0.0845539 29.6345 0.084554 30.827C0.084554 31.548 0.0708444 31.5924 0.0708445 33.0283C0.118073 33.5661 0.330603 33.9932 0.708437 34.3096C1.08627 34.626 1.60579 34.8 2.267 34.8316C2.267 34.8316 11.2166 35 11.6851 35L13.1061 35L16.6483 35C18.2069 35 19.9543 34.9842 21.8907 34.9525L27.9833 34.9525C30.0614 34.9842 32.0686 34.9842 34.005 34.9525L39.1766 34.9525L42.648 34.9525Z" fill="white"/>
</svg>
