<svg width="89" height="8" viewBox="0 0 89 8" fill="none" xmlns="http://www.w3.org/2000/svg">
<path d="M14.232 0.0752699C14.392 0.0832698 14.552 0.0912697 14.712 0.0992696C14.88 0.0992696 15.048 0.0992696 15.216 0.0992696C15.304 0.0992696 15.356 0.11927 15.372 0.15927C15.396 0.19927 15.408 0.25527 15.408 0.32727C15.416 0.55127 15.42 0.77527 15.42 0.999269C15.42 1.22327 15.424 1.44327 15.432 1.65927C15.432 1.81127 15.416 1.91127 15.384 1.95927C15.352 1.99927 15.256 2.01927 15.096 2.01927C14.808 2.01927 14.52 2.01927 14.232 2.01927C13.944 2.01927 13.656 2.01527 13.368 2.00727C13.16 2.00727 12.956 2.00727 12.756 2.00727C12.556 1.99927 12.352 1.99527 12.144 1.99527C12.064 1.99527 11.984 1.99527 11.904 1.99527C11.832 1.98727 11.756 1.98727 11.676 1.99527C11.508 2.01127 11.404 2.03927 11.364 2.07927C11.332 2.11927 11.312 2.21927 11.304 2.37927C11.296 2.53127 11.288 2.66727 11.28 2.78727C11.28 2.90727 11.276 3.04327 11.268 3.19527C11.268 3.37927 11.284 3.49527 11.316 3.54327C11.348 3.58327 11.46 3.61127 11.652 3.62727C11.884 3.65127 12.116 3.65927 12.348 3.65127C12.588 3.63527 12.824 3.63527 13.056 3.65127C13.144 3.65927 13.236 3.66327 13.332 3.66327C13.428 3.65527 13.52 3.65527 13.608 3.66327C13.752 3.67927 13.856 3.68727 13.92 3.68727C13.992 3.68727 14.04 3.70327 14.064 3.73527C14.088 3.75927 14.1 3.80327 14.1 3.86727C14.1 3.93127 14.108 4.02727 14.124 4.15527C14.14 4.31527 14.148 4.47927 14.148 4.64727C14.148 4.81527 14.144 4.97927 14.136 5.13927C14.136 5.24327 14.12 5.31127 14.088 5.34327C14.056 5.36727 13.988 5.37927 13.884 5.37927C13.524 5.38727 13.164 5.39127 12.804 5.39127C12.444 5.39127 12.084 5.39527 11.724 5.40327C11.692 5.40327 11.66 5.40327 11.628 5.40327C11.604 5.39527 11.576 5.39127 11.544 5.39127C11.4 5.39127 11.312 5.40327 11.28 5.42727C11.256 5.45127 11.244 5.53127 11.244 5.66727C11.236 5.88327 11.232 6.12727 11.232 6.39927C11.232 6.67127 11.228 6.91527 11.22 7.13127C11.22 7.29127 11.212 7.41527 11.196 7.50327C11.188 7.58327 11.164 7.64327 11.124 7.68327C11.084 7.71527 11.024 7.73127 10.944 7.73127C10.864 7.73927 10.748 7.74327 10.596 7.74327C10.396 7.73527 10.2 7.73127 10.008 7.73127C9.816 7.72327 9.62 7.71527 9.42 7.70727C9.26 7.69127 9.16 7.66727 9.12 7.63527C9.08 7.59527 9.056 7.50327 9.048 7.35927C9.04 6.95927 9.036 6.56327 9.036 6.17127C9.036 5.77127 9.032 5.37127 9.024 4.97127C9.024 4.81927 9.02 4.56327 9.012 4.20327C9.004 3.83527 9 3.44327 9 3.02727C9 2.61127 9 2.21527 9 1.83927C9.008 1.45527 9.02 1.17127 9.036 0.98727C9.052 0.86727 9.056 0.76727 9.048 0.68727C9.048 0.59927 9.056 0.49127 9.072 0.36327C9.08 0.21927 9.1 0.13527 9.132 0.111269C9.164 0.0792694 9.256 0.0592694 9.408 0.0512695H9.6C9.728 0.0592694 9.912 0.0632694 10.152 0.0632694C10.4 0.0632694 10.672 0.0632694 10.968 0.0632694C11.272 0.0632694 11.588 0.0632694 11.916 0.0632694C12.244 0.0632694 12.556 0.0632694 12.852 0.0632694C13.156 0.0632694 13.428 0.0672696 13.668 0.0752699C13.916 0.0752699 14.104 0.0752699 14.232 0.0752699Z" fill="white"/>
<path d="M20.4961 0.81927C20.4961 0.65127 20.5001 0.52327 20.5081 0.43527C20.5161 0.33927 20.5401 0.27127 20.5801 0.23127C20.6281 0.18327 20.6961 0.15527 20.7841 0.14727C20.8721 0.13127 21.0001 0.11927 21.1681 0.111269C21.2561 0.111269 21.4321 0.111269 21.6961 0.111269C21.9601 0.10327 22.2481 0.0992696 22.5601 0.0992696C22.8721 0.0992696 23.1761 0.10327 23.4721 0.111269C23.7681 0.11927 23.9961 0.13127 24.1561 0.14727C24.3481 0.16327 24.5401 0.18327 24.7321 0.20727C24.9241 0.22327 25.1121 0.26327 25.2961 0.32727C25.4641 0.38327 25.6281 0.45527 25.7881 0.54327C25.9561 0.63127 26.1121 0.73127 26.2561 0.84327C26.4961 1.00327 26.7041 1.21927 26.8801 1.49127C27.0641 1.75527 27.2161 2.02727 27.3361 2.30727C27.4641 2.58727 27.5641 2.85127 27.6361 3.09927C27.7081 3.34727 27.7561 3.53527 27.7801 3.66327C27.8841 4.23927 27.8481 4.76327 27.6721 5.23527C27.4961 5.70727 27.2121 6.14727 26.8201 6.55527C26.5481 6.83527 26.2521 7.06327 25.9321 7.23927C25.6121 7.41527 25.2561 7.53127 24.8641 7.58727C24.3601 7.65927 23.8601 7.70727 23.3641 7.73127C22.8761 7.76327 22.3801 7.77127 21.8761 7.75527C21.6681 7.75527 21.4641 7.74727 21.2641 7.73127C21.0721 7.71527 20.8761 7.70727 20.6761 7.70727C20.5881 7.71527 20.5321 7.69927 20.5081 7.65927C20.4921 7.61927 20.4841 7.56727 20.4841 7.50327C20.4841 7.47127 20.4801 7.44327 20.4721 7.41927C20.4721 7.38727 20.4721 7.35527 20.4721 7.32327C20.4721 6.75527 20.4721 6.19127 20.4721 5.63127C20.4801 5.06327 20.4841 4.49527 20.4841 3.92727C20.4841 3.92727 20.4841 3.81527 20.4841 3.59127C20.4921 3.36727 20.4961 3.09527 20.4961 2.77527C20.4961 2.44727 20.4961 2.10727 20.4961 1.75527C20.4961 1.39527 20.4961 1.08327 20.4961 0.81927ZM22.8721 3.95127C22.8721 4.21527 22.8681 4.47927 22.8601 4.74327C22.8601 5.00727 22.8561 5.27127 22.8481 5.53527C22.8481 5.69527 22.9281 5.77927 23.0881 5.78727C23.4321 5.81927 23.7601 5.79527 24.0721 5.71527C24.3841 5.63527 24.6801 5.49127 24.9601 5.28327C25.0961 5.17927 25.2161 5.06727 25.3201 4.94727C25.4241 4.82727 25.4961 4.68327 25.5361 4.51527C25.5921 4.29127 25.6081 4.06727 25.5841 3.84327C25.5681 3.61927 25.5241 3.39527 25.4521 3.17127C25.3881 3.00327 25.3001 2.85527 25.1881 2.72727C25.0761 2.59127 24.9321 2.48727 24.7561 2.41527C24.5001 2.30327 24.2401 2.23927 23.9761 2.22327C23.7201 2.20727 23.4601 2.19927 23.1961 2.19927C23.0361 2.19927 22.9401 2.21527 22.9081 2.24727C22.8841 2.27927 22.8721 2.37527 22.8721 2.53527C22.8641 2.65527 22.8601 2.79527 22.8601 2.95527C22.8681 3.11527 22.8721 3.27127 22.8721 3.42327V3.95127Z" fill="white"/>
<path d="M29.0522 2.55927C29.0522 2.25527 29.0442 1.95527 29.0282 1.65927C29.0202 1.35527 29.0082 1.05127 28.9922 0.74727C28.9922 0.70727 28.9882 0.66727 28.9802 0.62727C28.9802 0.57927 28.9802 0.53127 28.9802 0.48327C28.9802 0.34727 28.9962 0.24727 29.0282 0.18327C29.0602 0.11927 29.1682 0.0912697 29.3522 0.0992696C29.5602 0.10727 29.8202 0.111269 30.1322 0.111269C30.4522 0.111269 30.7842 0.111269 31.1282 0.111269C31.4802 0.111269 31.8362 0.111269 32.1962 0.111269C32.5562 0.111269 32.8842 0.111269 33.1802 0.111269C33.4842 0.10327 33.7442 0.0992696 33.9602 0.0992696C34.1762 0.0992696 34.3202 0.0992696 34.3922 0.0992696C34.5522 0.0992696 34.6362 0.17527 34.6442 0.32727C34.6522 0.53527 34.6562 0.76327 34.6562 1.01127C34.6562 1.25927 34.6562 1.48727 34.6562 1.69527C34.6562 1.71927 34.6362 1.74727 34.5962 1.77927C34.5642 1.81127 34.5362 1.82727 34.5122 1.82727C34.4002 1.84327 34.2882 1.85927 34.1762 1.87527C34.0722 1.88327 33.9642 1.88727 33.8522 1.88727C33.4602 1.89527 33.0802 1.89927 32.7122 1.89927C32.3442 1.89927 31.9642 1.90327 31.5722 1.91127C31.4362 1.91127 31.3282 1.91527 31.2482 1.92327C31.1762 1.93127 31.1242 1.95527 31.0922 1.99527C31.0602 2.02727 31.0442 2.08327 31.0442 2.16327C31.0442 2.23527 31.0482 2.34327 31.0562 2.48727C31.0562 2.56727 31.0522 2.61927 31.0442 2.64327C31.0442 2.66727 31.0482 2.71527 31.0562 2.78727C31.0642 2.88327 31.0722 2.95927 31.0802 3.01527C31.0882 3.07127 31.1042 3.11527 31.1282 3.14727C31.1522 3.17127 31.1922 3.18727 31.2482 3.19527C31.3042 3.20327 31.3842 3.21127 31.4882 3.21927C31.5682 3.23527 31.6762 3.23927 31.8122 3.23127C31.9562 3.22327 32.0722 3.22327 32.1602 3.23127C32.2562 3.23927 32.3242 3.25527 32.3642 3.27927C32.4122 3.29527 32.4442 3.32327 32.4602 3.36327C32.4762 3.40327 32.4802 3.45527 32.4722 3.51927C32.4722 3.58327 32.4722 3.66327 32.4722 3.75927C32.4722 3.79127 32.4682 3.82327 32.4602 3.85527C32.4602 3.87927 32.4642 3.90727 32.4722 3.93927C32.4722 4.08327 32.4002 4.15527 32.2562 4.15527C32.0162 4.17127 31.7802 4.17127 31.5482 4.15527C31.4202 4.15527 31.3202 4.15927 31.2482 4.16727C31.1762 4.16727 31.1242 4.18327 31.0922 4.21527C31.0682 4.24727 31.0522 4.29927 31.0442 4.37127C31.0442 4.43527 31.0442 4.52727 31.0442 4.64727V5.53527C31.0522 5.70327 31.1362 5.78727 31.2962 5.78727H34.2122C34.3562 5.77127 34.4562 5.78327 34.5122 5.82327C34.5682 5.85527 34.6002 5.94327 34.6082 6.08727C34.6242 6.31127 34.6322 6.55927 34.6322 6.83127C34.6402 7.10327 34.6402 7.35127 34.6322 7.57527C34.6322 7.60727 34.6122 7.64327 34.5722 7.68327C34.5402 7.71527 34.5082 7.73527 34.4762 7.74327C34.4282 7.75127 34.3162 7.75527 34.1402 7.75527C33.9722 7.75527 33.7642 7.75527 33.5162 7.75527C33.2762 7.75527 33.0122 7.75127 32.7242 7.74327C32.4362 7.74327 32.1522 7.73927 31.8722 7.73127C31.5922 7.73127 31.3282 7.73127 31.0802 7.73127C30.8322 7.73127 30.6322 7.73127 30.4802 7.73127C30.2962 7.73927 30.1082 7.73927 29.9162 7.73127C29.7242 7.72327 29.5362 7.71527 29.3522 7.70727C29.2002 7.69927 29.1002 7.67527 29.0522 7.63527C29.0122 7.58727 28.9922 7.48727 28.9922 7.33527C28.9922 7.07127 28.9922 6.80727 28.9922 6.54327C28.9922 6.27927 28.9962 6.01527 29.0042 5.75127C29.0042 5.56727 29.0042 5.39127 29.0042 5.22327C29.0122 5.04727 29.0202 4.86727 29.0282 4.68327C29.0202 4.68327 29.0162 4.60727 29.0162 4.45527C29.0242 4.29527 29.0282 4.10727 29.0282 3.89127C29.0362 3.66727 29.0402 3.43527 29.0402 3.19527C29.0482 2.94727 29.0522 2.73527 29.0522 2.55927Z" fill="white"/>
<path d="M38.0643 0.111269C38.1363 0.111269 38.1843 0.13527 38.2083 0.18327C38.2323 0.22327 38.2523 0.26327 38.2683 0.30327C38.3083 0.38327 38.3403 0.46327 38.3643 0.54327C38.3883 0.62327 38.4123 0.703269 38.4363 0.783269C38.5883 1.33527 38.7363 1.88727 38.8803 2.43927C39.0243 2.98327 39.1723 3.53127 39.3243 4.08327C39.3483 4.16327 39.3803 4.25127 39.4203 4.34727C39.4363 4.36327 39.4523 4.37527 39.4683 4.38327C39.4923 4.39127 39.5123 4.40327 39.5283 4.41927C39.5443 4.41927 39.5643 4.39927 39.5883 4.35927C39.6203 4.27927 39.6443 4.22327 39.6603 4.19127C39.8923 3.58327 40.1363 2.97927 40.3923 2.37927C40.6483 1.77127 40.8683 1.15527 41.0523 0.53127C41.1403 0.25127 41.3163 0.111269 41.5803 0.111269C41.7003 0.111269 41.8603 0.111269 42.0603 0.111269C42.2603 0.111269 42.4563 0.111269 42.6483 0.111269C42.8483 0.111269 43.0203 0.111269 43.1643 0.111269C43.3163 0.111269 43.4003 0.111269 43.4163 0.111269C43.5283 0.13527 43.5683 0.20327 43.5363 0.31527C43.5363 0.34727 43.5283 0.37927 43.5123 0.41127C43.5043 0.43527 43.4923 0.463269 43.4763 0.49527C43.3883 0.71927 43.3043 0.943269 43.2243 1.16727C43.1443 1.39127 43.0603 1.61127 42.9723 1.82727C42.7323 2.39527 42.4883 2.95927 42.2403 3.51927C42.0003 4.07127 41.7643 4.62727 41.5323 5.18727C41.3723 5.57127 41.2163 5.95127 41.0643 6.32727C40.9123 6.69527 40.7563 7.07527 40.5963 7.46727C40.5323 7.62727 40.4763 7.71527 40.4283 7.73127C40.3803 7.73927 40.2803 7.74327 40.1283 7.74327H38.1243C38.0523 7.73527 38.0083 7.70727 37.9923 7.65927C37.9763 7.61127 37.9603 7.55927 37.9443 7.50327C37.8803 7.29527 37.8163 7.09127 37.7523 6.89127C37.6963 6.68327 37.6403 6.47527 37.5843 6.26727C37.4243 5.68327 37.2683 5.10327 37.1163 4.52727C36.9723 3.94327 36.8203 3.36327 36.6603 2.78727C36.5643 2.44327 36.4643 2.10327 36.3603 1.76727C36.2563 1.43127 36.1523 1.09527 36.0483 0.75927C36.0323 0.71127 36.0163 0.66727 36.0003 0.62727C35.9923 0.57927 35.9803 0.53127 35.9643 0.48327C35.9243 0.33127 35.9283 0.23127 35.9763 0.18327C36.0243 0.13527 36.1283 0.11527 36.2883 0.12327C36.3203 0.12327 36.4163 0.12327 36.5763 0.12327C36.7363 0.11527 36.9123 0.111269 37.1043 0.111269C37.3043 0.111269 37.4963 0.111269 37.6803 0.111269C37.8643 0.111269 37.9923 0.111269 38.0643 0.111269Z" fill="white"/>
<path d="M44.6733 2.55927C44.6733 2.25527 44.6653 1.95527 44.6493 1.65927C44.6413 1.35527 44.6293 1.05127 44.6133 0.74727C44.6133 0.70727 44.6093 0.66727 44.6013 0.62727C44.6013 0.57927 44.6013 0.53127 44.6013 0.48327C44.6013 0.34727 44.6173 0.24727 44.6493 0.18327C44.6813 0.11927 44.7893 0.0912697 44.9733 0.0992696C45.1813 0.10727 45.4413 0.111269 45.7533 0.111269C46.0733 0.111269 46.4053 0.111269 46.7493 0.111269C47.1013 0.111269 47.4573 0.111269 47.8173 0.111269C48.1773 0.111269 48.5053 0.111269 48.8013 0.111269C49.1053 0.10327 49.3653 0.0992696 49.5813 0.0992696C49.7973 0.0992696 49.9413 0.0992696 50.0133 0.0992696C50.1733 0.0992696 50.2573 0.17527 50.2653 0.32727C50.2733 0.53527 50.2773 0.76327 50.2773 1.01127C50.2773 1.25927 50.2773 1.48727 50.2773 1.69527C50.2773 1.71927 50.2573 1.74727 50.2173 1.77927C50.1853 1.81127 50.1573 1.82727 50.1333 1.82727C50.0213 1.84327 49.9093 1.85927 49.7973 1.87527C49.6933 1.88327 49.5853 1.88727 49.4733 1.88727C49.0813 1.89527 48.7013 1.89927 48.3333 1.89927C47.9653 1.89927 47.5853 1.90327 47.1933 1.91127C47.0573 1.91127 46.9493 1.91527 46.8693 1.92327C46.7973 1.93127 46.7453 1.95527 46.7133 1.99527C46.6813 2.02727 46.6653 2.08327 46.6653 2.16327C46.6653 2.23527 46.6693 2.34327 46.6773 2.48727C46.6773 2.56727 46.6733 2.61927 46.6653 2.64327C46.6653 2.66727 46.6693 2.71527 46.6773 2.78727C46.6853 2.88327 46.6933 2.95927 46.7013 3.01527C46.7093 3.07127 46.7253 3.11527 46.7493 3.14727C46.7733 3.17127 46.8133 3.18727 46.8693 3.19527C46.9253 3.20327 47.0053 3.21127 47.1093 3.21927C47.1893 3.23527 47.2973 3.23927 47.4333 3.23127C47.5773 3.22327 47.6933 3.22327 47.7813 3.23127C47.8773 3.23927 47.9453 3.25527 47.9853 3.27927C48.0333 3.29527 48.0653 3.32327 48.0813 3.36327C48.0973 3.40327 48.1013 3.45527 48.0933 3.51927C48.0933 3.58327 48.0933 3.66327 48.0933 3.75927C48.0933 3.79127 48.0893 3.82327 48.0813 3.85527C48.0813 3.87927 48.0853 3.90727 48.0933 3.93927C48.0933 4.08327 48.0213 4.15527 47.8773 4.15527C47.6373 4.17127 47.4013 4.17127 47.1693 4.15527C47.0413 4.15527 46.9413 4.15927 46.8693 4.16727C46.7973 4.16727 46.7453 4.18327 46.7133 4.21527C46.6893 4.24727 46.6733 4.29927 46.6653 4.37127C46.6653 4.43527 46.6653 4.52727 46.6653 4.64727V5.53527C46.6733 5.70327 46.7573 5.78727 46.9173 5.78727H49.8333C49.9773 5.77127 50.0773 5.78327 50.1333 5.82327C50.1893 5.85527 50.2213 5.94327 50.2293 6.08727C50.2453 6.31127 50.2533 6.55927 50.2533 6.83127C50.2613 7.10327 50.2613 7.35127 50.2533 7.57527C50.2533 7.60727 50.2333 7.64327 50.1933 7.68327C50.1613 7.71527 50.1293 7.73527 50.0973 7.74327C50.0493 7.75127 49.9373 7.75527 49.7613 7.75527C49.5933 7.75527 49.3853 7.75527 49.1373 7.75527C48.8973 7.75527 48.6333 7.75127 48.3453 7.74327C48.0573 7.74327 47.7733 7.73927 47.4933 7.73127C47.2133 7.73127 46.9493 7.73127 46.7013 7.73127C46.4533 7.73127 46.2533 7.73127 46.1013 7.73127C45.9173 7.73927 45.7293 7.73927 45.5373 7.73127C45.3453 7.72327 45.1573 7.71527 44.9733 7.70727C44.8213 7.69927 44.7213 7.67527 44.6733 7.63527C44.6333 7.58727 44.6133 7.48727 44.6133 7.33527C44.6133 7.07127 44.6133 6.80727 44.6133 6.54327C44.6133 6.27927 44.6173 6.01527 44.6253 5.75127C44.6253 5.56727 44.6253 5.39127 44.6253 5.22327C44.6333 5.04727 44.6413 4.86727 44.6493 4.68327C44.6413 4.68327 44.6373 4.60727 44.6373 4.45527C44.6453 4.29527 44.6493 4.10727 44.6493 3.89127C44.6573 3.66727 44.6613 3.43527 44.6613 3.19527C44.6693 2.94727 44.6733 2.73527 44.6733 2.55927Z" fill="white"/>
<path d="M51.5974 0.339269C51.5974 0.19527 51.6614 0.11927 51.7894 0.111269C52.0214 0.0952697 52.2374 0.0912697 52.4374 0.0992696C52.6454 0.0992696 52.8654 0.0952697 53.0974 0.0872698C53.2814 0.0792699 53.4014 0.10327 53.4574 0.15927C53.5134 0.21527 53.5454 0.33527 53.5534 0.51927C53.5774 1.08727 53.5894 1.67927 53.5894 2.29527C53.5974 2.90327 53.6134 3.49127 53.6374 4.05927C53.6454 4.29927 53.6414 4.52727 53.6254 4.74327C53.6174 4.95927 53.6214 5.18327 53.6374 5.41527C53.6454 5.56727 53.6654 5.65927 53.6974 5.69127C53.7294 5.72327 53.8254 5.73927 53.9854 5.73927C54.2654 5.75527 54.5454 5.76327 54.8254 5.76327C55.1054 5.76327 55.3854 5.76327 55.6654 5.76327C55.9214 5.76327 56.1094 5.76327 56.2294 5.76327C56.3494 5.76327 56.4294 5.78727 56.4694 5.83527C56.5174 5.88327 56.5414 5.96327 56.5414 6.07527C56.5494 6.18727 56.5614 6.35527 56.5774 6.57927C56.5934 6.73927 56.6014 6.89527 56.6014 7.04727C56.6094 7.19127 56.6214 7.34327 56.6374 7.50327C56.6454 7.66327 56.5614 7.74327 56.3854 7.74327C56.2014 7.73527 56.0134 7.73127 55.8214 7.73127C55.6294 7.72327 55.4374 7.71927 55.2454 7.71927C54.7414 7.71927 54.2454 7.71927 53.7574 7.71927C53.2694 7.71927 52.7774 7.71527 52.2814 7.70727C52.2334 7.70727 52.1854 7.70727 52.1374 7.70727C52.0974 7.70727 52.0574 7.70327 52.0174 7.69527C51.8574 7.67927 51.7494 7.64327 51.6934 7.58727C51.6374 7.52327 51.6094 7.40727 51.6094 7.23927C51.6094 6.90327 51.6094 6.56727 51.6094 6.23127C51.6174 5.88727 51.6214 5.54727 51.6214 5.21127C51.6214 5.21127 51.6214 5.12727 51.6214 4.95927C51.6214 4.79127 51.6214 4.57127 51.6214 4.29927C51.6214 4.02727 51.6214 3.71927 51.6214 3.37527C51.6294 3.02327 51.6294 2.66727 51.6214 2.30727C51.6214 1.93927 51.6174 1.58727 51.6094 1.25127C51.6094 0.90727 51.6054 0.60327 51.5974 0.339269Z" fill="white"/>
<path d="M66.6934 1.40727C66.7014 1.27127 66.7014 1.13527 66.6934 0.999269C66.6854 0.855269 66.6814 0.71127 66.6814 0.56727C66.6894 0.39927 66.7214 0.28327 66.7774 0.21927C66.8334 0.15527 66.9454 0.11527 67.1134 0.0992696C67.2494 0.0832698 67.3814 0.0752699 67.5094 0.0752699C67.6374 0.0752699 67.7654 0.0752699 67.8934 0.0752699C68.3254 0.0832698 68.7574 0.0872698 69.1894 0.0872698C69.6214 0.0872698 70.0534 0.0952697 70.4854 0.111269C70.9334 0.13527 71.3534 0.21927 71.7454 0.36327C71.8574 0.40327 71.9974 0.49127 72.1654 0.62727C72.3414 0.75527 72.5054 0.92327 72.6574 1.13127C72.8174 1.33127 72.9534 1.56327 73.0654 1.82727C73.1774 2.08327 73.2334 2.35527 73.2334 2.64327C73.2334 3.09127 73.1574 3.47127 73.0054 3.78327C72.8534 4.09527 72.6574 4.36327 72.4174 4.58727C72.1774 4.80327 71.9094 4.98327 71.6134 5.12727C71.3254 5.26327 71.0414 5.37527 70.7614 5.46327C70.2894 5.60727 69.8014 5.65527 69.2974 5.60727C69.1294 5.59127 69.0294 5.60727 68.9974 5.65527C68.9654 5.70327 68.9494 5.81927 68.9494 6.00327C68.9414 6.24327 68.9374 6.46727 68.9374 6.67527C68.9454 6.87527 68.9574 7.09127 68.9734 7.32327C68.9814 7.49127 68.9574 7.61127 68.9014 7.68327C68.8454 7.75527 68.7334 7.78727 68.5654 7.77927C68.3174 7.77927 68.0574 7.78327 67.7854 7.79127C67.5134 7.80727 67.2534 7.80727 67.0054 7.79127C66.8934 7.78327 66.8174 7.75927 66.7774 7.71927C66.7454 7.67127 66.7214 7.58727 66.7054 7.46727C66.6894 7.25127 66.6854 7.03527 66.6934 6.81927C66.7014 6.60327 66.7014 6.38727 66.6934 6.17127C66.6774 5.76327 66.6654 5.36327 66.6574 4.97127C66.6574 4.57127 66.6494 4.16727 66.6334 3.75927C66.6334 3.75927 66.6334 3.67527 66.6334 3.50727C66.6414 3.33127 66.6454 3.12327 66.6454 2.88327C66.6534 2.63527 66.6614 2.37527 66.6694 2.10327C66.6774 1.83127 66.6854 1.59927 66.6934 1.40727ZM69.2614 1.49127C69.1014 1.50727 69.0054 1.53127 68.9734 1.56327C68.9414 1.59527 68.9294 1.69127 68.9374 1.85127C68.9374 2.06727 68.9374 2.32327 68.9374 2.61927C68.9454 2.91527 68.9534 3.17127 68.9614 3.38727C68.9694 3.49927 68.9894 3.57527 69.0214 3.61527C69.0534 3.65527 69.1214 3.67127 69.2254 3.66327C69.3054 3.65527 69.4414 3.64727 69.6334 3.63927C69.8334 3.63127 70.0334 3.59527 70.2334 3.53127C70.4414 3.46727 70.6214 3.36727 70.7734 3.23127C70.9254 3.09527 71.0014 2.89527 71.0014 2.63127C71.0014 2.42327 70.9574 2.25127 70.8694 2.11527C70.7894 1.97127 70.6854 1.85527 70.5574 1.76727C70.4374 1.67927 70.3014 1.61527 70.1494 1.57527C70.0054 1.53527 69.8694 1.51127 69.7414 1.50327C69.6134 1.48727 69.5054 1.48327 69.4174 1.49127C69.3294 1.49127 69.2774 1.49127 69.2614 1.49127Z" fill="white"/>
<path d="M74.2866 2.55927C74.2866 2.25527 74.2786 1.95527 74.2626 1.65927C74.2546 1.35527 74.2426 1.05127 74.2266 0.74727C74.2266 0.70727 74.2226 0.66727 74.2146 0.62727C74.2146 0.57927 74.2146 0.53127 74.2146 0.48327C74.2146 0.34727 74.2306 0.24727 74.2626 0.18327C74.2946 0.11927 74.4026 0.0912697 74.5866 0.0992696C74.7946 0.10727 75.0546 0.111269 75.3666 0.111269C75.6866 0.111269 76.0186 0.111269 76.3626 0.111269C76.7146 0.111269 77.0706 0.111269 77.4306 0.111269C77.7906 0.111269 78.1186 0.111269 78.4146 0.111269C78.7186 0.10327 78.9786 0.0992696 79.1946 0.0992696C79.4106 0.0992696 79.5546 0.0992696 79.6266 0.0992696C79.7866 0.0992696 79.8706 0.17527 79.8786 0.32727C79.8866 0.53527 79.8906 0.76327 79.8906 1.01127C79.8906 1.25927 79.8906 1.48727 79.8906 1.69527C79.8906 1.71927 79.8706 1.74727 79.8306 1.77927C79.7986 1.81127 79.7706 1.82727 79.7466 1.82727C79.6346 1.84327 79.5226 1.85927 79.4106 1.87527C79.3066 1.88327 79.1986 1.88727 79.0866 1.88727C78.6946 1.89527 78.3146 1.89927 77.9466 1.89927C77.5786 1.89927 77.1986 1.90327 76.8066 1.91127C76.6706 1.91127 76.5626 1.91527 76.4826 1.92327C76.4106 1.93127 76.3586 1.95527 76.3266 1.99527C76.2946 2.02727 76.2786 2.08327 76.2786 2.16327C76.2786 2.23527 76.2826 2.34327 76.2906 2.48727C76.2906 2.56727 76.2866 2.61927 76.2786 2.64327C76.2786 2.66727 76.2826 2.71527 76.2906 2.78727C76.2986 2.88327 76.3066 2.95927 76.3146 3.01527C76.3226 3.07127 76.3386 3.11527 76.3626 3.14727C76.3866 3.17127 76.4266 3.18727 76.4826 3.19527C76.5386 3.20327 76.6186 3.21127 76.7226 3.21927C76.8026 3.23527 76.9106 3.23927 77.0466 3.23127C77.1906 3.22327 77.3066 3.22327 77.3946 3.23127C77.4906 3.23927 77.5586 3.25527 77.5986 3.27927C77.6466 3.29527 77.6786 3.32327 77.6946 3.36327C77.7106 3.40327 77.7146 3.45527 77.7066 3.51927C77.7066 3.58327 77.7066 3.66327 77.7066 3.75927C77.7066 3.79127 77.7026 3.82327 77.6946 3.85527C77.6946 3.87927 77.6986 3.90727 77.7066 3.93927C77.7066 4.08327 77.6346 4.15527 77.4906 4.15527C77.2506 4.17127 77.0146 4.17127 76.7826 4.15527C76.6546 4.15527 76.5546 4.15927 76.4826 4.16727C76.4106 4.16727 76.3586 4.18327 76.3266 4.21527C76.3026 4.24727 76.2866 4.29927 76.2786 4.37127C76.2786 4.43527 76.2786 4.52727 76.2786 4.64727V5.53527C76.2866 5.70327 76.3706 5.78727 76.5306 5.78727H79.4466C79.5906 5.77127 79.6906 5.78327 79.7466 5.82327C79.8026 5.85527 79.8346 5.94327 79.8426 6.08727C79.8586 6.31127 79.8666 6.55927 79.8666 6.83127C79.8746 7.10327 79.8746 7.35127 79.8666 7.57527C79.8666 7.60727 79.8466 7.64327 79.8066 7.68327C79.7746 7.71527 79.7426 7.73527 79.7106 7.74327C79.6626 7.75127 79.5506 7.75527 79.3746 7.75527C79.2066 7.75527 78.9986 7.75527 78.7506 7.75527C78.5106 7.75527 78.2466 7.75127 77.9586 7.74327C77.6706 7.74327 77.3866 7.73927 77.1066 7.73127C76.8266 7.73127 76.5626 7.73127 76.3146 7.73127C76.0666 7.73127 75.8666 7.73127 75.7146 7.73127C75.5306 7.73927 75.3426 7.73927 75.1506 7.73127C74.9586 7.72327 74.7706 7.71527 74.5866 7.70727C74.4346 7.69927 74.3346 7.67527 74.2866 7.63527C74.2466 7.58727 74.2266 7.48727 74.2266 7.33527C74.2266 7.07127 74.2266 6.80727 74.2266 6.54327C74.2266 6.27927 74.2306 6.01527 74.2386 5.75127C74.2386 5.56727 74.2386 5.39127 74.2386 5.22327C74.2466 5.04727 74.2546 4.86727 74.2626 4.68327C74.2546 4.68327 74.2506 4.60727 74.2506 4.45527C74.2586 4.29527 74.2626 4.10727 74.2626 3.89127C74.2706 3.66727 74.2746 3.43527 74.2746 3.19527C74.2826 2.94727 74.2866 2.73527 74.2866 2.55927Z" fill="white"/>
<path d="M83.9947 0.0752699C84.4267 0.0912697 84.8547 0.11527 85.2787 0.14727C85.7107 0.17927 86.1347 0.27927 86.5507 0.447269C86.7587 0.53527 86.9467 0.64327 87.1147 0.77127C87.2827 0.89127 87.4267 1.04327 87.5467 1.22727C87.7307 1.49927 87.8586 1.78727 87.9306 2.09127C88.0026 2.38727 88.0267 2.68327 88.0027 2.97927C87.9787 3.26727 87.9147 3.54727 87.8107 3.81927C87.7067 4.08327 87.5706 4.32327 87.4026 4.53927C87.3226 4.63527 87.2227 4.72327 87.1027 4.80327C86.9907 4.87527 86.8787 4.94727 86.7667 5.01927C86.7027 5.05927 86.6627 5.09927 86.6467 5.13927C86.6387 5.17927 86.6546 5.23127 86.6946 5.29527C86.8306 5.52727 86.9667 5.75927 87.1027 5.99127C87.2467 6.21527 87.3907 6.44327 87.5347 6.67527C87.5907 6.76327 87.6587 6.88327 87.7387 7.03527C87.8187 7.18727 87.8907 7.30727 87.9547 7.39527C88.0107 7.49127 88.0187 7.58727 87.9787 7.68327C87.9547 7.74727 87.9187 7.78327 87.8707 7.79127C87.8307 7.79927 87.7827 7.80327 87.7267 7.80327C87.4707 7.78727 87.2186 7.78327 86.9706 7.79127C86.7226 7.79927 86.4707 7.80327 86.2147 7.80327C86.1267 7.80327 86.0627 7.78727 86.0227 7.75527C85.9827 7.72327 85.9426 7.67527 85.9026 7.61127C85.7506 7.33127 85.5827 7.01927 85.3987 6.67527C85.2227 6.32327 85.0547 6.00727 84.8947 5.72727C84.8627 5.67127 84.8307 5.61927 84.7987 5.57127C84.7667 5.52327 84.7347 5.47527 84.7027 5.42727C84.6387 5.30727 84.5307 5.24727 84.3787 5.24727C84.2907 5.24727 84.2067 5.24327 84.1267 5.23527C84.0547 5.21927 83.9747 5.21127 83.8867 5.21127C83.7587 5.20327 83.6707 5.21927 83.6227 5.25927C83.5827 5.29127 83.5627 5.37527 83.5627 5.51127C83.5707 5.82327 83.5787 6.13527 83.5867 6.44727C83.5947 6.75927 83.6026 7.07127 83.6106 7.38327C83.6186 7.49527 83.6067 7.57527 83.5747 7.62327C83.5427 7.67127 83.4747 7.70727 83.3707 7.73127C83.3307 7.74727 83.2867 7.75527 83.2387 7.75527C83.1907 7.75527 83.1467 7.75527 83.1067 7.75527C82.8987 7.75527 82.6947 7.75527 82.4947 7.75527C82.3027 7.76327 82.1027 7.76727 81.8947 7.76727C81.8307 7.76727 81.7707 7.76327 81.7147 7.75527C81.6587 7.75527 81.5987 7.75127 81.5347 7.74327C81.3987 7.72727 81.3187 7.65127 81.2947 7.51527C81.2867 7.45127 81.2747 7.38727 81.2587 7.32327C81.2507 7.25127 81.2467 7.18327 81.2467 7.11927C81.2547 6.79927 81.2587 6.47927 81.2587 6.15927C81.2587 5.83927 81.2667 5.51927 81.2827 5.19927C81.2907 4.89527 81.2947 4.59927 81.2947 4.31127C81.2947 4.01527 81.2947 3.71527 81.2947 3.41127C81.3027 2.92327 81.3027 2.43927 81.2947 1.95927C81.2867 1.47127 81.2827 0.983269 81.2827 0.49527C81.2827 0.31927 81.3067 0.21127 81.3547 0.171269C81.4027 0.12327 81.5187 0.10327 81.7027 0.111269H82.7107C82.7107 0.111269 82.7547 0.111269 82.8427 0.111269C82.9387 0.10327 83.0547 0.0952697 83.1907 0.0872698C83.3267 0.0792699 83.4666 0.0752699 83.6106 0.0752699C83.7546 0.0672696 83.8827 0.0672696 83.9947 0.0752699ZM83.5867 2.77527C83.5787 2.88727 83.5747 2.99527 83.5747 3.09927V3.59127C83.5747 3.72727 83.6466 3.79527 83.7906 3.79527C83.9506 3.77927 84.1067 3.77127 84.2587 3.77127C84.4187 3.76327 84.5787 3.75127 84.7387 3.73527C84.8987 3.71127 85.0506 3.66727 85.1946 3.60327C85.3466 3.53927 85.4827 3.44327 85.6027 3.31527C85.6907 3.21927 85.7467 3.10327 85.7707 2.96727C85.8027 2.83127 85.8027 2.69927 85.7707 2.57127C85.7467 2.43527 85.6947 2.31927 85.6147 2.22327C85.5347 2.11927 85.4347 2.05127 85.3147 2.01927C84.7707 1.88327 84.2387 1.82727 83.7187 1.85127C83.6947 1.85927 83.6667 1.88327 83.6347 1.92327C83.6107 1.95527 83.5987 1.98327 83.5987 2.00727C83.5907 2.11927 83.5867 2.24727 83.5867 2.39127C83.5867 2.53527 83.5867 2.66327 83.5867 2.77527Z" fill="white"/>
<path d="M7.99645 3.88568C7.95507 4.26008 7.893 4.62227 7.81023 4.97225C7.72747 5.32224 7.60333 5.65594 7.4378 5.97336C7.28055 6.28265 7.07778 6.57159 6.8295 6.84018C6.58948 7.10063 6.29567 7.32852 5.94807 7.52386C5.67495 7.67851 5.39356 7.79652 5.10389 7.87791C4.81422 7.9593 4.51213 8 4.19763 8C3.6845 8 3.22517 7.93896 2.81963 7.81687C2.42237 7.68664 2.07062 7.52386 1.7644 7.32852C1.46645 7.12505 1.20989 6.90122 0.994707 6.65705C0.7878 6.40474 0.613997 6.16056 0.4733 5.92453C0.34088 5.68036 0.241563 5.45653 0.175352 5.25305C0.109142 5.04957 0.0719021 4.88679 0.0636258 4.76471C0.0470732 4.54495 0.0305173 4.32519 0.0139648 4.10544C-0.0108641 3.88568 -0.00258313 3.66186 0.0387983 3.43396C0.121561 3.03515 0.258118 2.64447 0.448473 2.26193C0.647104 1.87939 0.895393 1.53348 1.19334 1.2242C1.49956 0.914909 1.85958 0.654458 2.2734 0.442841C2.68721 0.223085 3.15068 0.0847205 3.66381 0.027747C3.97004 -0.0129485 4.27212 -0.00887913 4.57007 0.0399554C4.87629 0.0887898 5.17424 0.166111 5.46391 0.27192C5.96048 0.459119 6.37844 0.723641 6.71776 1.06548C7.05709 1.39919 7.33434 1.80614 7.54953 2.28635C7.6654 2.5468 7.77299 2.80318 7.8723 3.05549C7.97162 3.30781 8.01301 3.58454 7.99645 3.88568Z" fill="white"/>
<path d="M6 3.91586C6 3.8123 5.99565 3.73463 5.98694 3.68285C5.98694 3.62244 5.98258 3.57497 5.97387 3.54045C5.96515 3.50593 5.95644 3.47573 5.94773 3.44984C5.93902 3.41532 5.93031 3.37217 5.9216 3.32039C5.89546 3.19094 5.82141 3.05286 5.69945 2.90615C5.58619 2.75081 5.44245 2.60841 5.26822 2.47896C5.10269 2.34089 4.91539 2.22869 4.7063 2.14239C4.50593 2.04746 4.30992 2 4.11827 2C3.72624 2 3.39519 2.07767 3.12512 2.23301C2.86377 2.38835 2.65033 2.58252 2.48481 2.81553C2.328 3.03991 2.21039 3.28587 2.13198 3.5534C2.05358 3.82093 2.01002 4.06688 2.00131 4.29126C1.9926 4.43797 2.02744 4.61057 2.10585 4.80906C2.19297 4.99892 2.31929 5.18447 2.48481 5.3657C2.65905 5.5383 2.86812 5.68932 3.11205 5.81877C3.36469 5.93959 3.64783 6 3.96145 6C4.30992 6 4.61048 5.93096 4.86312 5.79288C5.11576 5.64617 5.32484 5.46926 5.49036 5.26214C5.6646 5.05502 5.79092 4.83064 5.86932 4.589C5.95644 4.34736 6 4.12298 6 3.91586Z" fill="black"/>
<path d="M65.5 3.88568C65.4586 4.26008 65.3965 4.62227 65.3138 4.97225C65.231 5.32224 65.1069 5.65594 64.9413 5.97336C64.7841 6.28265 64.5813 6.57159 64.333 6.84018C64.093 7.10063 63.7992 7.32852 63.4516 7.52386C63.1785 7.67851 62.8971 7.79652 62.6074 7.87791C62.3178 7.95931 62.0157 8 61.7012 8C61.188 8 60.7287 7.93896 60.3232 7.81687C59.9259 7.68664 59.5742 7.52386 59.2679 7.32852C58.97 7.12505 58.7134 6.90122 58.4983 6.65705C58.2913 6.40474 58.1175 6.16056 57.9768 5.92453C57.8444 5.68036 57.7451 5.45653 57.6789 5.25305C57.6127 5.04957 57.5754 4.88679 57.5672 4.76471C57.5506 4.54495 57.5341 4.32519 57.5175 4.10544C57.4927 3.88568 57.501 3.66186 57.5423 3.43396C57.6251 3.03515 57.7617 2.64447 57.952 2.26193C58.1507 1.87939 58.3989 1.53348 58.6969 1.2242C59.0031 0.914909 59.3631 0.654458 59.7769 0.442841C60.1908 0.223085 60.6542 0.0847205 61.1674 0.027747C61.4736 -0.0129485 61.7757 -0.00887913 62.0736 0.0399554C62.3798 0.0887898 62.6778 0.166111 62.9675 0.27192C63.464 0.459119 63.882 0.72364 64.2213 1.06548C64.5606 1.39919 64.8379 1.80614 65.0531 2.28635C65.1689 2.5468 65.2765 2.80318 65.3759 3.05549C65.4752 3.30781 65.5166 3.58454 65.5 3.88568Z" fill="white"/>
<path d="M63.5 3.91586C63.5 3.8123 63.4956 3.73463 63.4869 3.68285C63.4869 3.62244 63.4826 3.57497 63.4739 3.54045C63.4652 3.50593 63.4564 3.47573 63.4477 3.44984C63.439 3.41532 63.4303 3.37217 63.4216 3.32039C63.3955 3.19094 63.3214 3.05286 63.1994 2.90615C63.0862 2.75081 62.9425 2.60841 62.7682 2.47896C62.6027 2.34089 62.4154 2.22869 62.2063 2.14239C62.0059 2.04746 61.8099 2 61.6183 2C61.2262 2 60.8952 2.07767 60.6251 2.23301C60.3638 2.38835 60.1503 2.58252 59.9848 2.81553C59.828 3.03991 59.7104 3.28587 59.632 3.5534C59.5536 3.82093 59.51 4.06688 59.5013 4.29126C59.4926 4.43797 59.5274 4.61057 59.6058 4.80906C59.693 4.99892 59.8193 5.18447 59.9848 5.3657C60.159 5.5383 60.3681 5.68932 60.6121 5.81877C60.8647 5.93959 61.1478 6 61.4614 6C61.8099 6 62.1105 5.93096 62.3631 5.79288C62.6158 5.64617 62.8248 5.46926 62.9904 5.26214C63.1646 5.05502 63.2909 4.83064 63.3693 4.589C63.4564 4.34736 63.5 4.12298 63.5 3.91586Z" fill="black"/>
</svg>
