<svg width="50" height="50" viewBox="0 0 50 50" fill="none" xmlns="http://www.w3.org/2000/svg">
<g clip-path="url(#clip0_3_10)">
<path d="M40 0H10C4.47715 0 0 4.47715 0 10V40C0 45.5228 4.47715 50 10 50H40C45.5228 50 50 45.5228 50 40V10C50 4.47715 45.5228 0 40 0Z" fill="#F2F2F2"/>
<path d="M29.955 26.25L30.546 22.397H26.846V19.897C26.8203 19.6093 26.8596 19.3194 26.961 19.0489C27.0624 18.7784 27.2233 18.5342 27.4319 18.3342C27.6404 18.1343 27.8913 17.9839 28.1658 17.894C28.4404 17.8041 28.7316 17.7771 29.018 17.815H30.698V14.539C29.7113 14.3797 28.7144 14.2928 27.715 14.279C24.67 14.279 22.68 16.125 22.68 19.465V22.402H19.299V26.255H22.681V35.57C24.0613 35.7853 25.4667 35.7853 26.847 35.57V26.25H29.955Z" fill="#1E1E1E"/>
</g>
<defs>
<clipPath id="clip0_3_10">
<rect width="50" height="50" rx="13" fill="white"/>
</clipPath>
</defs>
</svg>
