<svg width="156" height="158" viewBox="0 0 156 158" fill="none" xmlns="http://www.w3.org/2000/svg">
<path fill-rule="evenodd" clip-rule="evenodd" d="M5.94908e-05 46.6609V110.653C5.94908e-05 124.538 3.08128 137.635 9.30013 145.347C15.1892 152.649 28.0816 157.314 41.3278 157.314H114.652C141.762 157.314 155.98 143.028 155.98 115.985V42.661C155.98 12.2438 140.281 0 110.653 0H45.3271C13.1521 0 -0.000488281 14.5888 -0.000488281 46.6609H5.94908e-05Z" fill="#FEFEFE"/>
<path fill-rule="evenodd" clip-rule="evenodd" d="M76.9243 59.3068C76.9243 61.6956 78.0368 63.5723 73.3692 63.5723C70.6945 63.5723 65.1894 62.061 62.594 61.1955C59.1984 60.0633 56.4414 58.707 53.524 57.113C52.0549 56.3099 50.7589 55.5518 49.4102 54.6507C48.7179 54.1879 48.2254 53.8225 47.5248 53.3372L42.1325 48.7759C40.7533 47.3949 37.454 44.179 35.625 47.6891C34.123 50.5715 34.5443 57.7451 36.2204 61.0871C36.4713 61.5872 36.5699 61.8457 36.8296 62.4329C37.2048 63.2809 38.7134 65.3432 39.2677 66.0378C40.0811 67.0572 42.0416 69.0829 39.9557 69.0829C38.4921 69.0829 35.6502 67.8488 34.6237 67.3059C34.6237 74.0578 37.534 79.9216 43.0473 83.5873L47.0083 85.8469C47.9356 86.3267 47.9877 86.3185 48.1317 86.8564C47.8677 86.9835 45.4038 87.218 44.9306 87.224C43.038 87.2486 42.4442 86.4894 42.4442 88.634C42.4442 90.2373 43.9062 92.1578 44.6983 93.1339C47.6311 96.7459 50.5967 98.421 54.8682 99.849C57.6252 100.77 57.3256 101.994 55.209 103.354L47.4898 106.833C39.8938 109.354 33.819 108.409 32.4912 108.719C32.5772 109.757 33.7352 110.261 34.656 110.819C35.6173 111.402 36.5392 111.859 37.6205 112.298C46.3772 115.856 50.5967 117.25 61.6398 117.25C66.7659 117.25 71.4022 116.418 75.5762 115.368C80.6875 114.082 86.415 111.62 90.7868 108.717C92.75 107.413 94.8507 106.016 96.5192 104.318C97.5709 103.249 99.2898 102.035 100.564 100.365C101.879 98.6418 103.271 97.5035 105.041 94.8884C108.908 89.1741 110.03 87.2426 112.65 80.6365C116.14 71.8387 115.921 60.6872 116.143 60.135C116.789 58.524 123.491 53.4423 123.491 51.4879C123.491 49.8523 119.783 51.4879 118.338 51.4879H117.271C117.271 50.0062 118.326 49.5439 119.61 47.9613C120.089 47.3708 121.537 45.4175 121.537 44.5564C121.537 41.7721 115.73 45.2674 113.895 45.2674C112.465 45.2674 110.45 44.7487 109.345 44.3066C107.701 43.6487 106.22 42.5663 103.94 41.5354C97.555 38.6492 88.8904 40.1791 83.8136 44.6906C83.3595 45.0943 83.0067 45.4958 82.5685 45.9335C81.6488 46.8532 81.2155 47.3456 80.4262 48.4127C78.2619 51.3367 76.9254 55.422 76.9254 59.3084L76.9243 59.3068Z" fill="black"/>
</svg>
