<svg width="107" height="20" viewBox="0 0 107 20" fill="none" xmlns="http://www.w3.org/2000/svg">
<path d="M26.948 7.516C26.948 7.372 26.964 7.284 26.996 7.252C27.028 7.22 27.124 7.204 27.284 7.204C27.524 7.22 27.764 7.224 28.004 7.216C28.244 7.2 28.484 7.196 28.724 7.204C28.86 7.212 28.94 7.228 28.964 7.252C28.988 7.268 29 7.344 29 7.48C28.992 7.728 28.984 7.976 28.976 8.224C28.968 8.464 28.96 8.708 28.952 8.956C28.944 9.316 28.94 9.672 28.94 10.024C28.948 10.368 28.952 10.716 28.952 11.068C28.952 11.268 28.976 11.464 29.024 11.656C29.072 11.84 29.152 12.016 29.264 12.184C29.56 12.672 29.98 12.868 30.524 12.772C30.708 12.748 30.852 12.66 30.956 12.508C31.3 12.044 31.46 11.54 31.436 10.996C31.42 10.516 31.416 10.036 31.424 9.556C31.44 9.076 31.44 8.596 31.424 8.116C31.424 8.076 31.42 8.02 31.412 7.948C31.412 7.868 31.408 7.788 31.4 7.708C31.4 7.62 31.396 7.536 31.388 7.456C31.388 7.376 31.388 7.316 31.388 7.276C31.388 7.228 31.456 7.2 31.592 7.192C31.736 7.176 31.904 7.168 32.096 7.168C32.288 7.168 32.476 7.176 32.66 7.192C32.852 7.2 32.996 7.208 33.092 7.216C33.164 7.224 33.22 7.228 33.26 7.228C33.308 7.22 33.344 7.22 33.368 7.228C33.4 7.228 33.42 7.244 33.428 7.276C33.444 7.3 33.456 7.348 33.464 7.42C33.48 7.628 33.492 7.856 33.5 8.104C33.516 8.344 33.528 8.564 33.536 8.764C33.552 9.06 33.552 9.356 33.536 9.652C33.528 9.94 33.52 10.232 33.512 10.528C33.512 10.728 33.504 10.928 33.488 11.128C33.48 11.328 33.46 11.528 33.428 11.728C33.34 12.312 33.168 12.844 32.912 13.324C32.656 13.796 32.268 14.196 31.748 14.524C31.588 14.628 31.404 14.708 31.196 14.764C30.996 14.82 30.796 14.86 30.596 14.884C30.404 14.908 30.224 14.92 30.056 14.92C29.888 14.92 29.756 14.916 29.66 14.908C29.596 14.9 29.484 14.88 29.324 14.848C29.172 14.824 28.996 14.772 28.796 14.692C28.604 14.612 28.4 14.504 28.184 14.368C27.968 14.232 27.772 14.056 27.596 13.84C27.42 13.624 27.272 13.364 27.152 13.06C27.04 12.748 26.984 12.38 26.984 11.956C26.976 11.58 26.972 11.208 26.972 10.84C26.972 10.464 26.972 10.088 26.972 9.712C26.972 9.712 26.968 9.636 26.96 9.484C26.96 9.324 26.956 9.132 26.948 8.908C26.948 8.676 26.948 8.436 26.948 8.188C26.948 7.932 26.948 7.708 26.948 7.516Z" fill="white"/>
<path d="M37.571 7.192C38.003 7.208 38.431 7.232 38.855 7.264C39.287 7.296 39.711 7.396 40.127 7.564C40.335 7.652 40.523 7.76 40.691 7.888C40.859 8.008 41.003 8.16 41.123 8.344C41.307 8.616 41.435 8.904 41.507 9.208C41.579 9.504 41.603 9.8 41.579 10.096C41.555 10.384 41.491 10.664 41.387 10.936C41.283 11.2 41.147 11.44 40.979 11.656C40.899 11.752 40.799 11.84 40.679 11.92C40.567 11.992 40.455 12.064 40.343 12.136C40.279 12.176 40.239 12.216 40.223 12.256C40.215 12.296 40.231 12.348 40.271 12.412C40.407 12.644 40.543 12.876 40.679 13.108C40.823 13.332 40.967 13.56 41.111 13.792C41.167 13.88 41.235 14 41.315 14.152C41.395 14.304 41.467 14.424 41.531 14.512C41.587 14.608 41.595 14.704 41.555 14.8C41.531 14.864 41.495 14.9 41.447 14.908C41.407 14.916 41.359 14.92 41.303 14.92C41.047 14.904 40.795 14.9 40.547 14.908C40.299 14.916 40.047 14.92 39.791 14.92C39.703 14.92 39.639 14.904 39.599 14.872C39.559 14.84 39.519 14.792 39.479 14.728C39.327 14.448 39.159 14.136 38.975 13.792C38.799 13.44 38.631 13.124 38.471 12.844C38.439 12.788 38.407 12.736 38.375 12.688C38.343 12.64 38.311 12.592 38.279 12.544C38.215 12.424 38.107 12.364 37.955 12.364C37.867 12.364 37.783 12.36 37.703 12.352C37.631 12.336 37.551 12.328 37.463 12.328C37.335 12.32 37.247 12.336 37.199 12.376C37.159 12.408 37.139 12.492 37.139 12.628C37.147 12.94 37.155 13.252 37.163 13.564C37.171 13.876 37.179 14.188 37.187 14.5C37.195 14.612 37.183 14.692 37.151 14.74C37.119 14.788 37.051 14.824 36.947 14.848C36.907 14.864 36.863 14.872 36.815 14.872C36.767 14.872 36.723 14.872 36.683 14.872C36.475 14.872 36.271 14.872 36.071 14.872C35.879 14.88 35.679 14.884 35.471 14.884C35.407 14.884 35.347 14.88 35.291 14.872C35.235 14.872 35.175 14.868 35.111 14.86C34.975 14.844 34.895 14.768 34.871 14.632C34.863 14.568 34.851 14.504 34.835 14.44C34.827 14.368 34.823 14.3 34.823 14.236C34.831 13.916 34.835 13.596 34.835 13.276C34.835 12.956 34.843 12.636 34.859 12.316C34.867 12.012 34.871 11.716 34.871 11.428C34.871 11.132 34.871 10.832 34.871 10.528C34.879 10.04 34.879 9.556 34.871 9.076C34.863 8.588 34.859 8.1 34.859 7.612C34.859 7.436 34.883 7.328 34.931 7.288C34.979 7.24 35.095 7.22 35.279 7.228H36.287C36.287 7.228 36.331 7.228 36.419 7.228C36.515 7.22 36.631 7.212 36.767 7.204C36.903 7.196 37.043 7.192 37.187 7.192C37.331 7.184 37.459 7.184 37.571 7.192ZM37.163 9.892C37.155 10.004 37.151 10.112 37.151 10.216V10.708C37.151 10.844 37.223 10.912 37.367 10.912C37.527 10.896 37.683 10.888 37.835 10.888C37.995 10.88 38.155 10.868 38.315 10.852C38.475 10.828 38.627 10.784 38.771 10.72C38.923 10.656 39.059 10.56 39.179 10.432C39.267 10.336 39.323 10.22 39.347 10.084C39.379 9.948 39.379 9.816 39.347 9.688C39.323 9.552 39.271 9.436 39.191 9.34C39.111 9.236 39.011 9.168 38.891 9.136C38.347 9 37.815 8.944 37.295 8.968C37.271 8.976 37.243 9 37.211 9.04C37.187 9.072 37.175 9.1 37.175 9.124C37.167 9.236 37.163 9.364 37.163 9.508C37.163 9.652 37.163 9.78 37.163 9.892Z" fill="white"/>
<path d="M52.2049 10.504C52.4369 10.504 52.6689 10.504 52.9009 10.504C53.1329 10.504 53.3649 10.508 53.5969 10.516C53.7329 10.524 53.8129 10.54 53.8369 10.564C53.8689 10.588 53.8969 10.664 53.9209 10.792C53.9609 11.048 53.9569 11.3 53.9089 11.548C53.8689 11.788 53.8089 12.024 53.7289 12.256C53.6329 12.552 53.5009 12.824 53.3329 13.072C53.1649 13.32 52.9769 13.556 52.7689 13.78C52.5129 14.06 52.2289 14.292 51.9169 14.476C51.6049 14.66 51.2569 14.784 50.8729 14.848C50.4729 14.912 50.0769 14.936 49.6849 14.92C49.3009 14.904 48.9169 14.808 48.5329 14.632C48.3249 14.544 48.1289 14.456 47.9449 14.368C47.7609 14.28 47.5809 14.164 47.4049 14.02C47.3009 13.932 47.2129 13.836 47.1409 13.732C47.0689 13.628 46.9889 13.52 46.9009 13.408C46.8449 13.296 46.7809 13.18 46.7089 13.06C46.6449 12.932 46.5929 12.804 46.5529 12.676C46.3049 11.964 46.2329 11.28 46.3369 10.624C46.4409 9.96 46.6809 9.316 47.0569 8.692C47.2729 8.332 47.5489 8.04 47.8849 7.816C48.2209 7.592 48.5929 7.42 49.0009 7.3C49.4409 7.164 49.8769 7.1 50.3089 7.108C50.7489 7.108 51.1889 7.152 51.6289 7.24C51.8369 7.28 52.0289 7.348 52.2049 7.444C52.3809 7.54 52.5609 7.632 52.7449 7.72C52.8089 7.752 52.8409 7.792 52.8409 7.84C52.8409 7.888 52.8169 7.932 52.7689 7.972C52.5609 8.156 52.3569 8.34 52.1569 8.524C51.9649 8.7 51.7649 8.88 51.5569 9.064C51.5249 9.088 51.4809 9.108 51.4249 9.124C51.3769 9.14 51.3449 9.14 51.3289 9.124C51.1689 9.012 51.0009 8.964 50.8249 8.98C50.6569 8.996 50.4889 9.012 50.3209 9.028C50.1849 9.044 50.0489 9.068 49.9129 9.1C49.7849 9.132 49.6609 9.176 49.5409 9.232C49.3089 9.344 49.1009 9.512 48.9169 9.736C48.7409 9.952 48.6129 10.2 48.5329 10.48C48.4529 10.752 48.4289 11.04 48.4609 11.344C48.5009 11.648 48.6209 11.944 48.8209 12.232C49.0049 12.496 49.2289 12.684 49.4929 12.796C49.7649 12.908 50.0649 12.944 50.3929 12.904C50.5449 12.888 50.6929 12.86 50.8369 12.82C50.9809 12.78 51.1129 12.708 51.2329 12.604C51.2889 12.564 51.3409 12.52 51.3889 12.472C51.4369 12.424 51.4809 12.372 51.5209 12.316C51.5609 12.252 51.6009 12.18 51.6409 12.1C51.6809 12.012 51.6929 11.936 51.6769 11.872C51.6689 11.832 51.6489 11.804 51.6169 11.788C51.5929 11.772 51.5609 11.764 51.5209 11.764C51.4809 11.764 51.4369 11.768 51.3889 11.776C51.3489 11.776 51.3129 11.772 51.2809 11.764C51.2249 11.756 51.1729 11.752 51.1249 11.752C51.0769 11.752 51.0249 11.748 50.9689 11.74C50.7929 11.724 50.6809 11.692 50.6329 11.644C50.5849 11.588 50.5569 11.472 50.5489 11.296C50.5409 11.192 50.5369 11.092 50.5369 10.996C50.5369 10.9 50.5289 10.804 50.5129 10.708C50.5049 10.548 50.5689 10.468 50.7049 10.468C50.8889 10.468 51.0769 10.472 51.2689 10.48C51.4609 10.48 51.6489 10.48 51.8329 10.48C51.8969 10.488 51.9569 10.496 52.0129 10.504C52.0769 10.504 52.1409 10.504 52.2049 10.504Z" fill="white"/>
<path d="M60.3502 7.192C60.4942 7.184 60.5862 7.196 60.6262 7.228C60.6742 7.26 60.7142 7.344 60.7462 7.48C60.8102 7.744 60.8662 8 60.9142 8.248C60.9702 8.496 61.0302 8.752 61.0942 9.016C61.2302 9.592 61.3662 10.16 61.5022 10.72C61.6382 11.28 61.7742 11.844 61.9102 12.412C61.9742 12.668 62.0342 12.928 62.0902 13.192C62.1542 13.448 62.2182 13.704 62.2822 13.96C62.3062 14.064 62.3302 14.168 62.3542 14.272C62.3782 14.368 62.4022 14.464 62.4262 14.56C62.4742 14.744 62.4102 14.852 62.2342 14.884H62.1502C61.8622 14.9 61.5742 14.9 61.2862 14.884C60.9982 14.876 60.7142 14.88 60.4342 14.896C60.3142 14.896 60.2382 14.876 60.2062 14.836C60.1822 14.796 60.1622 14.708 60.1462 14.572C60.1222 14.22 60.0582 13.868 59.9542 13.516C59.9382 13.436 59.9022 13.392 59.8462 13.384C59.7982 13.376 59.7542 13.372 59.7142 13.372C59.4262 13.364 59.1382 13.364 58.8502 13.372C58.5622 13.38 58.2782 13.388 57.9982 13.396C57.9342 13.396 57.8862 13.412 57.8542 13.444C57.8222 13.476 57.7982 13.52 57.7822 13.576C57.7342 13.76 57.6822 13.932 57.6262 14.092C57.5782 14.252 57.5302 14.424 57.4822 14.608C57.4582 14.696 57.4262 14.76 57.3862 14.8C57.3542 14.832 57.2822 14.848 57.1702 14.848C57.1142 14.848 56.9902 14.848 56.7982 14.848C56.6062 14.848 56.4062 14.848 56.1982 14.848C55.9902 14.848 55.7982 14.848 55.6222 14.848C55.4542 14.84 55.3662 14.836 55.3582 14.836C55.1662 14.82 55.1022 14.72 55.1662 14.536C55.2462 14.288 55.3262 14.048 55.4062 13.816C55.4862 13.584 55.5702 13.348 55.6582 13.108C55.8262 12.572 55.9942 12.04 56.1622 11.512C56.3302 10.976 56.5022 10.44 56.6782 9.904C56.7342 9.72 56.8022 9.496 56.8822 9.232C56.9622 8.968 57.0382 8.712 57.1102 8.464C57.1902 8.216 57.2582 8.004 57.3142 7.828C57.3702 7.652 57.4022 7.556 57.4102 7.54C57.4342 7.46 57.4502 7.396 57.4582 7.348C57.4742 7.3 57.4942 7.264 57.5182 7.24C57.5502 7.216 57.5942 7.2 57.6502 7.192C57.7142 7.184 57.8022 7.18 57.9142 7.18C58.0102 7.18 58.1702 7.184 58.3942 7.192C58.6262 7.192 58.8662 7.192 59.1142 7.192C59.3702 7.192 59.6142 7.192 59.8462 7.192C60.0782 7.192 60.2462 7.192 60.3502 7.192ZM59.4502 11.932C59.5782 11.924 59.6262 11.856 59.5942 11.728C59.5302 11.448 59.4622 11.164 59.3902 10.876C59.3262 10.588 59.2622 10.304 59.1982 10.024C59.1902 10 59.1782 9.976 59.1622 9.952C59.1462 9.92 59.1222 9.904 59.0902 9.904C59.0582 9.904 59.0382 9.916 59.0302 9.94C59.0302 9.964 59.0262 9.984 59.0182 10C58.9302 10.256 58.8422 10.516 58.7542 10.78C58.6662 11.036 58.5782 11.292 58.4902 11.548C58.4502 11.668 58.4222 11.76 58.4062 11.824C58.3902 11.88 58.3902 11.92 58.4062 11.944C58.4302 11.968 58.4702 11.98 58.5262 11.98C58.5902 11.98 58.6782 11.98 58.7902 11.98C58.7902 11.98 58.8142 11.98 58.8622 11.98C58.9182 11.972 58.9782 11.968 59.0422 11.968C59.1142 11.96 59.1862 11.956 59.2582 11.956C59.3382 11.948 59.4022 11.94 59.4502 11.932Z" fill="white"/>
<path d="M65.7863 11.26C65.7863 11.316 65.7823 11.352 65.7743 11.368C65.7743 11.376 65.7783 11.396 65.7863 11.428C65.8103 11.956 65.8342 12.48 65.8582 13C65.8822 13.52 65.9063 14.044 65.9303 14.572C65.9383 14.684 65.9302 14.752 65.9062 14.776C65.8822 14.8 65.8062 14.82 65.6782 14.836C65.5422 14.852 65.4102 14.86 65.2822 14.86C65.1542 14.86 65.0263 14.86 64.8983 14.86C64.7143 14.86 64.5342 14.86 64.3582 14.86C64.1822 14.86 64.0062 14.856 63.8302 14.848C63.7102 14.848 63.6622 14.788 63.6862 14.668C63.6782 14.212 63.6743 13.76 63.6743 13.312C63.6823 12.856 63.6862 12.4 63.6862 11.944C63.6622 10.472 63.6502 9 63.6502 7.528C63.6422 7.392 63.6542 7.308 63.6862 7.276C63.7182 7.244 63.7983 7.224 63.9263 7.216C63.9903 7.216 64.0943 7.216 64.2383 7.216C64.3903 7.216 64.5503 7.216 64.7183 7.216C64.8863 7.216 65.0462 7.216 65.1982 7.216C65.3582 7.216 65.4742 7.216 65.5462 7.216C65.6742 7.2 65.7742 7.216 65.8462 7.264C65.9262 7.312 65.9983 7.392 66.0623 7.504C66.2943 7.952 66.5302 8.396 66.7702 8.836C67.0182 9.268 67.2623 9.704 67.5023 10.144L68.3662 11.728C68.4302 11.84 68.4823 11.896 68.5223 11.896C68.5623 11.888 68.6142 11.828 68.6782 11.716C68.7902 11.532 68.8983 11.352 69.0023 11.176C69.1063 11 69.2143 10.82 69.3263 10.636C69.4863 10.364 69.6502 10.1 69.8182 9.844C69.9942 9.58 70.1623 9.308 70.3223 9.028C70.4663 8.78 70.6023 8.536 70.7303 8.296C70.8663 8.048 70.9983 7.796 71.1263 7.54C71.1903 7.428 71.2582 7.34 71.3302 7.276C71.4103 7.204 71.5183 7.176 71.6543 7.192C71.7023 7.2 71.8023 7.204 71.9543 7.204C72.1143 7.204 72.2783 7.204 72.4463 7.204C72.6223 7.204 72.7823 7.204 72.9263 7.204C73.0703 7.196 73.1503 7.192 73.1663 7.192C73.3023 7.192 73.4062 7.196 73.4782 7.204C73.5502 7.212 73.6023 7.236 73.6343 7.276C73.6743 7.308 73.6943 7.364 73.6943 7.444C73.7023 7.516 73.7062 7.624 73.7062 7.768C73.7062 8.56 73.7102 9.348 73.7183 10.132C73.7263 10.916 73.7382 11.704 73.7542 12.496C73.7622 12.848 73.7622 13.188 73.7542 13.516C73.7542 13.836 73.7623 14.168 73.7783 14.512C73.7863 14.696 73.7743 14.804 73.7423 14.836C73.7183 14.868 73.6182 14.88 73.4422 14.872C73.3702 14.872 73.2583 14.868 73.1063 14.86C72.9623 14.86 72.8102 14.86 72.6502 14.86C72.4902 14.86 72.3383 14.86 72.1943 14.86C72.0503 14.86 71.9502 14.86 71.8942 14.86C71.7822 14.868 71.7063 14.856 71.6663 14.824C71.6343 14.792 71.6183 14.716 71.6183 14.596C71.6103 14.044 71.6022 13.5 71.5942 12.964C71.5942 12.428 71.5903 11.884 71.5823 11.332C71.5823 11.268 71.5783 11.224 71.5703 11.2C71.5703 11.16 71.5543 11.124 71.5223 11.092C71.5063 11.076 71.4903 11.076 71.4743 11.092C71.4663 11.108 71.4583 11.12 71.4503 11.128C71.4103 11.184 71.3743 11.236 71.3423 11.284C71.3103 11.332 71.2783 11.384 71.2463 11.44C70.9423 11.96 70.6343 12.488 70.3223 13.024C70.0183 13.552 69.7143 14.08 69.4103 14.608C69.3703 14.672 69.3263 14.728 69.2783 14.776C69.2303 14.824 69.1502 14.848 69.0382 14.848H67.9943C67.8183 14.848 67.7023 14.816 67.6463 14.752C67.5903 14.68 67.5303 14.576 67.4663 14.44C67.2423 13.96 67.0142 13.488 66.7822 13.024C66.5502 12.56 66.3142 12.092 66.0742 11.62C66.0422 11.556 66.0063 11.492 65.9663 11.428C65.9343 11.364 65.8982 11.3 65.8582 11.236C65.8502 11.22 65.8342 11.208 65.8102 11.2C65.7942 11.184 65.7863 11.204 65.7863 11.26Z" fill="white"/>
<path d="M75.4879 9.676C75.4879 9.372 75.4799 9.072 75.4639 8.776C75.4559 8.472 75.4439 8.168 75.4279 7.864C75.4279 7.824 75.4239 7.784 75.4159 7.744C75.4159 7.696 75.4159 7.648 75.4159 7.6C75.4159 7.464 75.4319 7.364 75.4639 7.3C75.4959 7.236 75.6039 7.208 75.7879 7.216C75.9959 7.224 76.2559 7.228 76.5679 7.228C76.8879 7.228 77.2199 7.228 77.5639 7.228C77.9159 7.228 78.2719 7.228 78.6319 7.228C78.9919 7.228 79.3199 7.228 79.6159 7.228C79.9199 7.22 80.1799 7.216 80.3959 7.216C80.6119 7.216 80.7559 7.216 80.8279 7.216C80.9879 7.216 81.0719 7.292 81.0799 7.444C81.0879 7.652 81.0919 7.88 81.0919 8.128C81.0919 8.376 81.0919 8.604 81.0919 8.812C81.0919 8.836 81.0719 8.864 81.0319 8.896C80.9999 8.928 80.9719 8.944 80.9479 8.944C80.8359 8.96 80.7239 8.976 80.6119 8.992C80.5079 9 80.3999 9.004 80.2879 9.004C79.8959 9.012 79.5159 9.016 79.1479 9.016C78.7799 9.016 78.3999 9.02 78.0079 9.028C77.8719 9.028 77.7639 9.032 77.6839 9.04C77.6119 9.048 77.5599 9.072 77.5279 9.112C77.4959 9.144 77.4799 9.2 77.4799 9.28C77.4799 9.352 77.4839 9.46 77.4919 9.604C77.4919 9.684 77.4879 9.736 77.4799 9.76C77.4799 9.784 77.4839 9.832 77.4919 9.904C77.4999 10 77.5079 10.076 77.5159 10.132C77.5239 10.188 77.5399 10.232 77.5639 10.264C77.5879 10.288 77.6279 10.304 77.6839 10.312C77.7399 10.32 77.8199 10.328 77.9239 10.336C78.0039 10.352 78.1119 10.356 78.2479 10.348C78.3919 10.34 78.5079 10.34 78.5959 10.348C78.6919 10.356 78.7599 10.372 78.7999 10.396C78.8479 10.412 78.8799 10.44 78.8959 10.48C78.9119 10.52 78.9159 10.572 78.9079 10.636C78.9079 10.7 78.9079 10.78 78.9079 10.876C78.9079 10.908 78.9039 10.94 78.8959 10.972C78.8959 10.996 78.8999 11.024 78.9079 11.056C78.9079 11.2 78.8359 11.272 78.6919 11.272C78.4519 11.288 78.2159 11.288 77.9839 11.272C77.8559 11.272 77.7559 11.276 77.6839 11.284C77.6119 11.284 77.5599 11.3 77.5279 11.332C77.5039 11.364 77.4879 11.416 77.4799 11.488C77.4799 11.552 77.4799 11.644 77.4799 11.764V12.652C77.4879 12.82 77.5719 12.904 77.7319 12.904H80.6479C80.7919 12.888 80.8919 12.9 80.9479 12.94C81.0039 12.972 81.0359 13.06 81.0439 13.204C81.0599 13.428 81.0679 13.676 81.0679 13.948C81.0759 14.22 81.0759 14.468 81.0679 14.692C81.0679 14.724 81.0479 14.76 81.0079 14.8C80.9759 14.832 80.9439 14.852 80.9119 14.86C80.8639 14.868 80.7519 14.872 80.5759 14.872C80.4079 14.872 80.1999 14.872 79.9519 14.872C79.7119 14.872 79.4479 14.868 79.1599 14.86C78.8719 14.86 78.5879 14.856 78.3079 14.848C78.0279 14.848 77.7639 14.848 77.5159 14.848C77.2679 14.848 77.0679 14.848 76.9159 14.848C76.7319 14.856 76.5439 14.856 76.3519 14.848C76.1599 14.84 75.9719 14.832 75.7879 14.824C75.6359 14.816 75.5359 14.792 75.4879 14.752C75.4479 14.704 75.4279 14.604 75.4279 14.452C75.4279 14.188 75.4279 13.924 75.4279 13.66C75.4279 13.396 75.4319 13.132 75.4399 12.868C75.4399 12.684 75.4399 12.508 75.4399 12.34C75.4479 12.164 75.4559 11.984 75.4639 11.8C75.4559 11.8 75.4519 11.724 75.4519 11.572C75.4599 11.412 75.4639 11.224 75.4639 11.008C75.4719 10.784 75.4759 10.552 75.4759 10.312C75.4839 10.064 75.4879 9.852 75.4879 9.676Z" fill="white"/>
<path d="M86.984 7.276C87.192 7.364 87.368 7.484 87.512 7.636C87.656 7.788 87.804 7.94 87.956 8.092C88.004 8.14 88.02 8.196 88.004 8.26C87.988 8.324 87.96 8.376 87.92 8.416C87.776 8.576 87.632 8.736 87.488 8.896C87.344 9.048 87.196 9.2 87.044 9.352C86.98 9.424 86.9 9.432 86.804 9.376C86.724 9.312 86.644 9.248 86.564 9.184C86.484 9.12 86.4 9.064 86.312 9.016C86.2 8.952 86.088 8.892 85.976 8.836C85.864 8.772 85.752 8.72 85.64 8.68C85.504 8.632 85.38 8.628 85.268 8.668C85.164 8.7 85.084 8.772 85.028 8.884C84.98 8.98 84.964 9.096 84.98 9.232C85.004 9.36 85.064 9.46 85.16 9.532C85.288 9.62 85.416 9.704 85.544 9.784C85.68 9.856 85.816 9.928 85.952 10C86.144 10.112 86.336 10.224 86.528 10.336C86.728 10.44 86.92 10.548 87.104 10.66C87.288 10.772 87.452 10.908 87.596 11.068C87.748 11.22 87.892 11.38 88.028 11.548C88.188 11.756 88.284 11.98 88.316 12.22C88.356 12.46 88.36 12.704 88.328 12.952C88.216 13.912 87.692 14.556 86.756 14.884C86.388 15.012 86.024 15.068 85.664 15.052C85.312 15.044 84.952 14.988 84.584 14.884C84.248 14.796 83.94 14.672 83.66 14.512C83.38 14.344 83.1 14.172 82.82 13.996C82.772 13.972 82.724 13.936 82.676 13.888C82.604 13.824 82.548 13.776 82.508 13.744C82.476 13.704 82.456 13.664 82.448 13.624C82.44 13.584 82.444 13.54 82.46 13.492C82.484 13.436 82.52 13.364 82.568 13.276C82.656 13.108 82.736 12.936 82.808 12.76C82.888 12.584 82.968 12.408 83.048 12.232C83.08 12.168 83.108 12.108 83.132 12.052C83.156 11.996 83.188 11.94 83.228 11.884C83.252 11.844 83.284 11.82 83.324 11.812C83.364 11.796 83.404 11.808 83.444 11.848C83.532 11.936 83.62 12.024 83.708 12.112C83.796 12.2 83.884 12.288 83.972 12.376C84.18 12.576 84.408 12.736 84.656 12.856C84.912 12.968 85.172 13.068 85.436 13.156C85.54 13.188 85.66 13.192 85.796 13.168C85.916 13.144 86.016 13.096 86.096 13.024C86.176 12.952 86.228 12.868 86.252 12.772C86.284 12.676 86.288 12.576 86.264 12.472C86.24 12.368 86.184 12.272 86.096 12.184C85.992 12.08 85.88 11.988 85.76 11.908C85.64 11.82 85.516 11.74 85.388 11.668C85.18 11.54 84.968 11.42 84.752 11.308C84.536 11.188 84.316 11.076 84.092 10.972C83.756 10.812 83.492 10.604 83.3 10.348C83.116 10.084 82.976 9.78 82.88 9.436C82.76 8.94 82.844 8.492 83.132 8.092C83.244 7.932 83.356 7.8 83.468 7.696C83.58 7.584 83.756 7.468 83.996 7.348C84.324 7.188 84.644 7.088 84.956 7.048C85.268 7 85.552 6.988 85.808 7.012C86.072 7.028 86.304 7.064 86.504 7.12C86.712 7.176 86.872 7.228 86.984 7.276Z" fill="white"/>
<path d="M91.2318 10.588C91.1918 10.892 91.0398 11.124 90.7758 11.284C90.6718 11.348 90.5518 11.384 90.4158 11.392C90.2798 11.392 90.1478 11.372 90.0198 11.332C89.8998 11.284 89.7878 11.22 89.6838 11.14C89.5798 11.052 89.5078 10.952 89.4678 10.84C89.4198 10.712 89.4078 10.588 89.4318 10.468C89.4638 10.34 89.5198 10.22 89.5998 10.108C89.7038 9.956 89.8478 9.844 90.0318 9.772C90.2158 9.692 90.3918 9.68 90.5598 9.736C90.7518 9.792 90.9118 9.9 91.0398 10.06C91.1678 10.22 91.2318 10.396 91.2318 10.588ZM90.2838 14.848C89.9958 14.832 89.7798 14.752 89.6358 14.608C89.4918 14.456 89.4278 14.244 89.4438 13.972C89.4518 13.86 89.4758 13.756 89.5158 13.66C89.5638 13.556 89.6238 13.468 89.6958 13.396C89.7758 13.324 89.8638 13.268 89.9598 13.228C90.0558 13.188 90.1558 13.172 90.2598 13.18C90.8438 13.22 91.1238 13.516 91.0998 14.068C91.0918 14.3 91.0078 14.492 90.8478 14.644C90.6958 14.796 90.5078 14.864 90.2838 14.848Z" fill="white"/>
<path d="M25.9956 9.8571C25.9438 10.3251 25.8662 10.7778 25.7628 11.2153C25.6593 11.6528 25.5042 12.0699 25.2973 12.4667C25.1007 12.8533 24.8472 13.2145 24.5369 13.5502C24.2369 13.8758 23.8696 14.1607 23.4351 14.4048C23.0937 14.5981 22.7419 14.7457 22.3799 14.8474C22.0178 14.9491 21.6402 15 21.247 15C20.6056 15 20.0315 14.9237 19.5245 14.7711C19.028 14.6083 18.5883 14.4048 18.2055 14.1607C17.8331 13.9063 17.5124 13.6265 17.2434 13.3213C16.9848 13.0059 16.7675 12.7007 16.5916 12.4057C16.4261 12.1004 16.302 11.8207 16.2192 11.5663C16.1364 11.312 16.0899 11.1085 16.0795 10.9559C16.0588 10.6812 16.0381 10.4065 16.0175 10.1318C15.9864 9.8571 15.9968 9.57732 16.0485 9.29245C16.152 8.79393 16.3226 8.30559 16.5606 7.82741C16.8089 7.34924 17.1192 6.91685 17.4917 6.53024C17.8745 6.14364 18.3245 5.81807 18.8417 5.55355C19.359 5.27886 19.9384 5.1059 20.5798 5.03468C20.9625 4.98381 21.3402 4.9889 21.7126 5.04994C22.0954 5.11099 22.4678 5.20764 22.8299 5.3399C23.4506 5.5739 23.973 5.90455 24.3972 6.33185C24.8214 6.74898 25.1679 7.25768 25.4369 7.85794C25.5817 8.1835 25.7162 8.50398 25.8404 8.81937C25.9645 9.13476 26.0163 9.48067 25.9956 9.8571Z" fill="white"/>
<path d="M23 9.91586C23 9.8123 22.9956 9.73463 22.9869 9.68285C22.9869 9.62244 22.9826 9.57497 22.9739 9.54045C22.9652 9.50593 22.9564 9.47573 22.9477 9.44984C22.939 9.41532 22.9303 9.37217 22.9216 9.32039C22.8955 9.19094 22.8214 9.05286 22.6994 8.90615C22.5862 8.75081 22.4425 8.60841 22.2682 8.47896C22.1027 8.34089 21.9154 8.22869 21.7063 8.14239C21.5059 8.04746 21.3099 8 21.1183 8C20.7262 8 20.3952 8.07767 20.1251 8.23301C19.8638 8.38835 19.6503 8.58252 19.4848 8.81553C19.328 9.03991 19.2104 9.28587 19.132 9.5534C19.0536 9.82093 19.01 10.0669 19.0013 10.2913C18.9926 10.438 19.0274 10.6106 19.1058 10.8091C19.193 10.9989 19.3193 11.1845 19.4848 11.3657C19.659 11.5383 19.8681 11.6893 20.1121 11.8188C20.3647 11.9396 20.6478 12 20.9614 12C21.3099 12 21.6105 11.931 21.8631 11.7929C22.1158 11.6462 22.3248 11.4693 22.4904 11.2621C22.6646 11.055 22.7909 10.8306 22.8693 10.589C22.9564 10.3474 23 10.123 23 9.91586Z" fill="black"/>
</svg>
