<svg class="svg-reprobates" viewBox="0 0 107 20" fill="none" xmlns="http://www.w3.org/2000/svg">
<path d="M54.9965 10.8857C54.9551 11.2601 54.893 11.6223 54.8102 11.9723C54.7275 12.3222 54.6033 12.6559 54.4378 12.9734C54.2806 13.2826 54.0778 13.5716 53.8295 13.8402C53.5895 14.1006 53.2957 14.3285 52.9481 14.5239C52.675 14.6785 52.3936 14.7965 52.1039 14.8779C51.8142 14.9593 51.5121 15 51.1976 15C50.6845 15 50.2252 14.939 49.8196 14.8169C49.4224 14.6866 49.0706 14.5239 48.7644 14.3285C48.4665 14.125 48.2099 13.9012 47.9947 13.657C47.7878 13.4047 47.614 13.1606 47.4733 12.9245C47.3409 12.6804 47.2416 12.4565 47.1754 12.2531C47.1091 12.0496 47.0719 11.8868 47.0636 11.7647C47.0471 11.545 47.0305 11.3252 47.014 11.1054C46.9891 10.8857 46.9974 10.6619 47.0388 10.434C47.1216 10.0351 47.2581 9.64447 47.4485 9.26193C47.6471 8.87939 47.8954 8.53348 48.1933 8.2242C48.4996 7.91491 48.8596 7.65446 49.2734 7.44284C49.6872 7.22309 50.1507 7.08472 50.6638 7.02775C50.97 6.98705 51.2721 6.99112 51.5701 7.03996C51.8763 7.08879 52.1742 7.16611 52.4639 7.27192C52.9605 7.45912 53.3784 7.72364 53.7178 8.06548C54.0571 8.39919 54.3343 8.80614 54.5495 9.28635C54.6654 9.5468 54.773 9.80318 54.8723 10.0555C54.9716 10.3078 55.013 10.5845 54.9965 10.8857Z" fill="white"/>
<path d="M53 10.9159C53 10.8123 52.9956 10.7346 52.9869 10.6828C52.9869 10.6224 52.9826 10.575 52.9739 10.5405C52.9652 10.5059 52.9564 10.4757 52.9477 10.4498C52.939 10.4153 52.9303 10.3722 52.9216 10.3204C52.8955 10.1909 52.8214 10.0529 52.6994 9.90615C52.5862 9.75081 52.4425 9.60841 52.2682 9.47896C52.1027 9.34089 51.9154 9.22869 51.7063 9.14239C51.5059 9.04746 51.3099 9 51.1183 9C50.7262 9 50.3952 9.07767 50.1251 9.23301C49.8638 9.38835 49.6503 9.58252 49.4848 9.81553C49.328 10.0399 49.2104 10.2859 49.132 10.5534C49.0536 10.8209 49.01 11.0669 49.0013 11.2913C48.9926 11.438 49.0274 11.6106 49.1058 11.8091C49.193 11.9989 49.3193 12.1845 49.4848 12.3657C49.659 12.5383 49.8681 12.6893 50.1121 12.8188C50.3647 12.9396 50.6478 13 50.9614 13C51.3099 13 51.6105 12.931 51.8631 12.7929C52.1158 12.6462 52.3248 12.4693 52.4904 12.2621C52.6646 12.055 52.7909 11.8306 52.8693 11.589C52.9564 11.3474 53 11.123 53 10.9159Z" fill="black"/>
<path d="M24.811 9.576C24.811 9.272 24.803 8.972 24.787 8.676C24.779 8.372 24.767 8.068 24.751 7.764C24.751 7.724 24.747 7.684 24.739 7.644C24.739 7.596 24.739 7.548 24.739 7.5C24.739 7.364 24.755 7.264 24.787 7.2C24.819 7.136 24.927 7.108 25.111 7.116C25.319 7.124 25.579 7.128 25.891 7.128C26.211 7.128 26.543 7.128 26.887 7.128C27.239 7.128 27.595 7.128 27.955 7.128C28.315 7.128 28.643 7.128 28.939 7.128C29.243 7.12 29.503 7.116 29.719 7.116C29.935 7.116 30.079 7.116 30.151 7.116C30.311 7.116 30.395 7.192 30.403 7.344C30.411 7.552 30.415 7.78 30.415 8.028C30.415 8.276 30.415 8.504 30.415 8.712C30.415 8.736 30.395 8.764 30.355 8.796C30.323 8.828 30.295 8.844 30.271 8.844C30.159 8.86 30.047 8.876 29.935 8.892C29.831 8.9 29.723 8.904 29.611 8.904C29.219 8.912 28.839 8.916 28.471 8.916C28.103 8.916 27.723 8.92 27.331 8.928C27.195 8.928 27.087 8.932 27.007 8.94C26.935 8.948 26.883 8.972 26.851 9.012C26.819 9.044 26.803 9.1 26.803 9.18C26.803 9.252 26.807 9.36 26.815 9.504C26.815 9.584 26.811 9.636 26.803 9.66C26.803 9.684 26.807 9.732 26.815 9.804C26.823 9.9 26.831 9.976 26.839 10.032C26.847 10.088 26.863 10.132 26.887 10.164C26.911 10.188 26.951 10.204 27.007 10.212C27.063 10.22 27.143 10.228 27.247 10.236C27.327 10.252 27.435 10.256 27.571 10.248C27.715 10.24 27.831 10.24 27.919 10.248C28.015 10.256 28.083 10.272 28.123 10.296C28.171 10.312 28.203 10.34 28.219 10.38C28.235 10.42 28.239 10.472 28.231 10.536C28.231 10.6 28.231 10.68 28.231 10.776C28.231 10.808 28.227 10.84 28.219 10.872C28.219 10.896 28.223 10.924 28.231 10.956C28.231 11.1 28.159 11.172 28.015 11.172C27.775 11.188 27.539 11.188 27.307 11.172C27.179 11.172 27.079 11.176 27.007 11.184C26.935 11.184 26.883 11.2 26.851 11.232C26.827 11.264 26.811 11.316 26.803 11.388C26.803 11.452 26.803 11.544 26.803 11.664V12.552C26.811 12.72 26.895 12.804 27.055 12.804H29.971C30.115 12.788 30.215 12.8 30.271 12.84C30.327 12.872 30.359 12.96 30.367 13.104C30.383 13.328 30.391 13.576 30.391 13.848C30.399 14.12 30.399 14.368 30.391 14.592C30.391 14.624 30.371 14.66 30.331 14.7C30.299 14.732 30.267 14.752 30.235 14.76C30.187 14.768 30.075 14.772 29.899 14.772C29.731 14.772 29.523 14.772 29.275 14.772C29.035 14.772 28.771 14.768 28.483 14.76C28.195 14.76 27.911 14.756 27.631 14.748C27.351 14.748 27.087 14.748 26.839 14.748C26.591 14.748 26.391 14.748 26.239 14.748C26.055 14.756 25.867 14.756 25.675 14.748C25.483 14.74 25.295 14.732 25.111 14.724C24.959 14.716 24.859 14.692 24.811 14.652C24.771 14.604 24.751 14.504 24.751 14.352C24.751 14.088 24.751 13.824 24.751 13.56C24.751 13.296 24.755 13.032 24.763 12.768C24.763 12.584 24.763 12.408 24.763 12.24C24.771 12.064 24.779 11.884 24.787 11.7C24.779 11.7 24.775 11.624 24.775 11.472C24.783 11.312 24.787 11.124 24.787 10.908C24.795 10.684 24.799 10.452 24.799 10.212C24.807 9.964 24.811 9.752 24.811 9.576Z" fill="white"/>
<path d="M31.8311 8.424C31.8391 8.288 31.8391 8.152 31.8311 8.016C31.8231 7.872 31.8191 7.728 31.8191 7.584C31.8271 7.416 31.8591 7.3 31.9151 7.236C31.9711 7.172 32.0831 7.132 32.2511 7.116C32.3871 7.1 32.5191 7.092 32.6471 7.092C32.7751 7.092 32.9031 7.092 33.0311 7.092C33.4631 7.1 33.8951 7.104 34.3271 7.104C34.7591 7.104 35.1911 7.112 35.6231 7.128C36.0711 7.152 36.4911 7.236 36.8831 7.38C36.9951 7.42 37.1351 7.508 37.3031 7.644C37.4791 7.772 37.6431 7.94 37.7951 8.148C37.9551 8.348 38.0911 8.58 38.2031 8.844C38.3151 9.1 38.3711 9.372 38.3711 9.66C38.3711 10.108 38.2951 10.488 38.1431 10.8C37.9911 11.112 37.7951 11.38 37.5551 11.604C37.3151 11.82 37.0471 12 36.7511 12.144C36.4631 12.28 36.1791 12.392 35.8991 12.48C35.4271 12.624 34.9391 12.672 34.4351 12.624C34.2671 12.608 34.1671 12.624 34.1351 12.672C34.1031 12.72 34.0871 12.836 34.0871 13.02C34.0791 13.26 34.0751 13.484 34.0751 13.692C34.0831 13.892 34.0951 14.108 34.1111 14.34C34.1191 14.508 34.0951 14.628 34.0391 14.7C33.9831 14.772 33.8711 14.804 33.7031 14.796C33.4551 14.796 33.1951 14.8 32.9231 14.808C32.6511 14.824 32.3911 14.824 32.1431 14.808C32.0311 14.8 31.9551 14.776 31.9151 14.736C31.8831 14.688 31.8591 14.604 31.8431 14.484C31.8271 14.268 31.8231 14.052 31.8311 13.836C31.8391 13.62 31.8391 13.404 31.8311 13.188C31.8151 12.78 31.8031 12.38 31.7951 11.988C31.7951 11.588 31.7871 11.184 31.7711 10.776C31.7711 10.776 31.7711 10.692 31.7711 10.524C31.7791 10.348 31.7831 10.14 31.7831 9.9C31.7911 9.652 31.7991 9.392 31.8071 9.12C31.8151 8.848 31.8231 8.616 31.8311 8.424ZM34.3991 8.508C34.2391 8.524 34.1431 8.548 34.1111 8.58C34.0791 8.612 34.0671 8.708 34.0751 8.868C34.0751 9.084 34.0751 9.34 34.0751 9.636C34.0831 9.932 34.0911 10.188 34.0991 10.404C34.1071 10.516 34.1271 10.592 34.1591 10.632C34.1911 10.672 34.2591 10.688 34.3631 10.68C34.4431 10.672 34.5791 10.664 34.7711 10.656C34.9711 10.648 35.1711 10.612 35.3711 10.548C35.5791 10.484 35.7591 10.384 35.9111 10.248C36.0631 10.112 36.1391 9.912 36.1391 9.648C36.1391 9.44 36.0951 9.268 36.0071 9.132C35.9271 8.988 35.8231 8.872 35.6951 8.784C35.5751 8.696 35.4391 8.632 35.2871 8.592C35.1431 8.552 35.0071 8.528 34.8791 8.52C34.7511 8.504 34.6431 8.5 34.5551 8.508C34.4671 8.508 34.4151 8.508 34.3991 8.508Z" fill="white"/>
<path d="M42.1363 7.092C42.5683 7.108 42.9963 7.132 43.4203 7.164C43.8523 7.196 44.2763 7.296 44.6923 7.464C44.9003 7.552 45.0883 7.66 45.2563 7.788C45.4243 7.908 45.5683 8.06 45.6883 8.244C45.8723 8.516 46.0003 8.804 46.0723 9.108C46.1443 9.404 46.1683 9.7 46.1443 9.996C46.1203 10.284 46.0563 10.564 45.9523 10.836C45.8483 11.1 45.7123 11.34 45.5443 11.556C45.4643 11.652 45.3643 11.74 45.2443 11.82C45.1323 11.892 45.0203 11.964 44.9083 12.036C44.8443 12.076 44.8043 12.116 44.7883 12.156C44.7803 12.196 44.7963 12.248 44.8363 12.312C44.9723 12.544 45.1083 12.776 45.2443 13.008C45.3883 13.232 45.5323 13.46 45.6763 13.692C45.7323 13.78 45.8003 13.9 45.8803 14.052C45.9603 14.204 46.0323 14.324 46.0963 14.412C46.1523 14.508 46.1603 14.604 46.1203 14.7C46.0963 14.764 46.0603 14.8 46.0123 14.808C45.9723 14.816 45.9243 14.82 45.8683 14.82C45.6123 14.804 45.3603 14.8 45.1123 14.808C44.8643 14.816 44.6123 14.82 44.3563 14.82C44.2683 14.82 44.2043 14.804 44.1643 14.772C44.1243 14.74 44.0843 14.692 44.0443 14.628C43.8923 14.348 43.7243 14.036 43.5403 13.692C43.3643 13.34 43.1963 13.024 43.0363 12.744C43.0043 12.688 42.9723 12.636 42.9403 12.588C42.9083 12.54 42.8763 12.492 42.8443 12.444C42.7803 12.324 42.6723 12.264 42.5203 12.264C42.4323 12.264 42.3483 12.26 42.2683 12.252C42.1963 12.236 42.1163 12.228 42.0283 12.228C41.9003 12.22 41.8123 12.236 41.7643 12.276C41.7243 12.308 41.7043 12.392 41.7043 12.528C41.7123 12.84 41.7203 13.152 41.7283 13.464C41.7363 13.776 41.7443 14.088 41.7523 14.4C41.7603 14.512 41.7483 14.592 41.7163 14.64C41.6843 14.688 41.6163 14.724 41.5123 14.748C41.4723 14.764 41.4283 14.772 41.3803 14.772C41.3323 14.772 41.2883 14.772 41.2483 14.772C41.0403 14.772 40.8363 14.772 40.6363 14.772C40.4443 14.78 40.2443 14.784 40.0363 14.784C39.9723 14.784 39.9123 14.78 39.8563 14.772C39.8003 14.772 39.7403 14.768 39.6763 14.76C39.5403 14.744 39.4603 14.668 39.4363 14.532C39.4283 14.468 39.4163 14.404 39.4003 14.34C39.3923 14.268 39.3883 14.2 39.3883 14.136C39.3963 13.816 39.4003 13.496 39.4003 13.176C39.4003 12.856 39.4083 12.536 39.4243 12.216C39.4323 11.912 39.4363 11.616 39.4363 11.328C39.4363 11.032 39.4363 10.732 39.4363 10.428C39.4443 9.94 39.4443 9.456 39.4363 8.976C39.4283 8.488 39.4243 8 39.4243 7.512C39.4243 7.336 39.4483 7.228 39.4963 7.188C39.5443 7.14 39.6603 7.12 39.8443 7.128H40.8523C40.8523 7.128 40.8963 7.128 40.9843 7.128C41.0803 7.12 41.1963 7.112 41.3323 7.104C41.4683 7.096 41.6083 7.092 41.7523 7.092C41.8963 7.084 42.0243 7.084 42.1363 7.092ZM41.7283 9.792C41.7203 9.904 41.7163 10.012 41.7163 10.116V10.608C41.7163 10.744 41.7883 10.812 41.9323 10.812C42.0923 10.796 42.2483 10.788 42.4003 10.788C42.5603 10.78 42.7203 10.768 42.8803 10.752C43.0403 10.728 43.1923 10.684 43.3363 10.62C43.4883 10.556 43.6243 10.46 43.7443 10.332C43.8323 10.236 43.8883 10.12 43.9123 9.984C43.9443 9.848 43.9443 9.716 43.9123 9.588C43.8883 9.452 43.8363 9.336 43.7563 9.24C43.6763 9.136 43.5763 9.068 43.4563 9.036C42.9123 8.9 42.3803 8.844 41.8603 8.868C41.8363 8.876 41.8083 8.9 41.7763 8.94C41.7523 8.972 41.7403 9 41.7403 9.024C41.7323 9.136 41.7283 9.264 41.7283 9.408C41.7283 9.552 41.7283 9.68 41.7283 9.792Z" fill="white"/>
<path d="M54.7993 10.836C54.7593 11.204 54.6993 11.56 54.6193 11.904C54.5393 12.248 54.4193 12.576 54.2593 12.888C54.1073 13.192 53.9113 13.476 53.6713 13.74C53.4393 13.996 53.1553 14.22 52.8193 14.412C52.5553 14.564 52.2833 14.68 52.0033 14.76C51.7233 14.84 51.4313 14.88 51.1273 14.88C50.6313 14.88 50.1873 14.82 49.7953 14.7C49.4113 14.572 49.0713 14.412 48.7753 14.22C48.4873 14.02 48.2393 13.8 48.0313 13.56C47.8313 13.312 47.6633 13.072 47.5273 12.84C47.3993 12.6 47.3033 12.38 47.2393 12.18C47.1753 11.98 47.1393 11.82 47.1313 11.7C47.1153 11.484 47.0993 11.268 47.0833 11.052C47.0593 10.836 47.0673 10.616 47.1073 10.392C47.1873 10 47.3193 9.616 47.5033 9.24C47.6953 8.864 47.9353 8.524 48.2233 8.22C48.5193 7.916 48.8673 7.66 49.2673 7.452C49.6673 7.236 50.1153 7.1 50.6113 7.044C50.9073 7.004 51.1993 7.008 51.4873 7.056C51.7833 7.104 52.0713 7.18 52.3513 7.284C52.8313 7.468 53.2353 7.728 53.5633 8.064C53.8913 8.392 54.1593 8.792 54.3673 9.264C54.4793 9.52 54.5833 9.772 54.6793 10.02C54.7753 10.268 54.8153 10.54 54.7993 10.836ZM52.8073 10.788C52.8073 10.692 52.8033 10.62 52.7953 10.572C52.7953 10.516 52.7913 10.472 52.7833 10.44C52.7753 10.408 52.7673 10.38 52.7593 10.356C52.7513 10.324 52.7433 10.284 52.7353 10.236C52.7113 10.116 52.6433 9.988 52.5313 9.852C52.4273 9.708 52.2953 9.576 52.1353 9.456C51.9833 9.328 51.8113 9.224 51.6193 9.144C51.4353 9.056 51.2553 9.012 51.0793 9.012C50.7193 9.012 50.4153 9.084 50.1673 9.228C49.9273 9.372 49.7313 9.552 49.5793 9.768C49.4353 9.976 49.3273 10.204 49.2553 10.452C49.1833 10.7 49.1433 10.928 49.1353 11.136C49.1273 11.272 49.1593 11.432 49.2313 11.616C49.3113 11.792 49.4273 11.964 49.5793 12.132C49.7393 12.292 49.9313 12.432 50.1553 12.552C50.3873 12.664 50.6473 12.72 50.9353 12.72C51.2553 12.72 51.5313 12.656 51.7633 12.528C51.9953 12.392 52.1873 12.228 52.3393 12.036C52.4993 11.844 52.6153 11.636 52.6873 11.412C52.7673 11.188 52.8073 10.98 52.8073 10.788Z" fill="white"/>
<path d="M55.9695 7.5C55.9695 7.388 55.9895 7.304 56.0295 7.248C56.0695 7.192 56.1455 7.152 56.2575 7.128C56.3215 7.12 56.3855 7.116 56.4495 7.116C56.5135 7.116 56.5775 7.116 56.6415 7.116C56.9375 7.132 57.2375 7.132 57.5415 7.116C57.9495 7.108 58.3535 7.116 58.7535 7.14C59.1615 7.156 59.5695 7.188 59.9775 7.236C60.2255 7.268 60.4415 7.34 60.6255 7.452C60.8175 7.564 60.9895 7.712 61.1415 7.896C61.1895 7.952 61.2295 8.032 61.2615 8.136C61.3015 8.232 61.3375 8.332 61.3695 8.436C61.4015 8.54 61.4255 8.632 61.4415 8.712C61.4655 8.792 61.4775 8.836 61.4775 8.844C61.5095 9.124 61.4695 9.384 61.3575 9.624C61.2535 9.856 61.1095 10.072 60.9255 10.272C60.8535 10.352 60.8215 10.404 60.8295 10.428C60.8375 10.444 60.8935 10.476 60.9975 10.524C61.1095 10.58 61.2175 10.636 61.3215 10.692C61.4335 10.74 61.5375 10.8 61.6335 10.872C62.0015 11.16 62.1935 11.544 62.2095 12.024C62.2175 12.736 62.0015 13.388 61.5615 13.98C61.4975 14.068 61.4135 14.148 61.3095 14.22C61.2135 14.284 61.1175 14.348 61.0215 14.412C60.8775 14.508 60.7215 14.58 60.5535 14.628C60.3935 14.676 60.2255 14.708 60.0495 14.724C59.9135 14.732 59.7375 14.74 59.5215 14.748C59.3055 14.748 59.0695 14.748 58.8135 14.748C58.5655 14.748 58.3095 14.748 58.0455 14.748C57.7815 14.748 57.5335 14.748 57.3015 14.748C57.0775 14.74 56.8815 14.736 56.7135 14.736C56.5455 14.728 56.4295 14.724 56.3655 14.724C56.2055 14.716 56.0975 14.684 56.0415 14.628C55.9935 14.564 55.9695 14.452 55.9695 14.292V10.896C55.9695 10.896 55.9695 10.772 55.9695 10.524C55.9775 10.276 55.9815 9.976 55.9815 9.624C55.9815 9.272 55.9775 8.904 55.9695 8.52C55.9695 8.128 55.9695 7.788 55.9695 7.5ZM57.9855 13.068C57.9855 13.212 58.0535 13.28 58.1895 13.272C58.2855 13.264 58.3815 13.264 58.4775 13.272C58.5735 13.272 58.6655 13.264 58.7535 13.248C58.9135 13.216 59.0695 13.176 59.2215 13.128C59.3735 13.072 59.5135 12.984 59.6415 12.864C59.8255 12.68 59.9015 12.488 59.8695 12.288C59.8455 12.08 59.7175 11.92 59.4855 11.808C59.2775 11.72 59.0575 11.664 58.8255 11.64C58.6015 11.608 58.3735 11.596 58.1415 11.604C58.0135 11.604 57.9495 11.68 57.9495 11.832C57.9495 11.88 57.9495 11.964 57.9495 12.084C57.9575 12.196 57.9615 12.316 57.9615 12.444C57.9695 12.572 57.9735 12.696 57.9735 12.816C57.9815 12.928 57.9855 13.012 57.9855 13.068ZM57.9735 9.66C57.9735 9.812 58.0375 9.884 58.1655 9.876C58.3015 9.868 58.4375 9.864 58.5735 9.864C58.7095 9.856 58.8455 9.844 58.9815 9.828C59.1015 9.804 59.2135 9.764 59.3175 9.708C59.4215 9.644 59.4855 9.54 59.5095 9.396C59.5735 9.1 59.4895 8.872 59.2575 8.712C58.9855 8.512 58.6775 8.416 58.3335 8.424C58.1735 8.424 58.0775 8.44 58.0455 8.472C58.0135 8.504 57.9935 8.6 57.9855 8.76C57.9855 8.784 57.9855 8.836 57.9855 8.916C57.9855 8.996 57.9815 9.084 57.9735 9.18C57.9735 9.276 57.9735 9.368 57.9735 9.456C57.9735 9.544 57.9735 9.612 57.9735 9.66Z" fill="white"/>
<path d="M68.7944 7.092C68.9384 7.084 69.0304 7.096 69.0704 7.128C69.1184 7.16 69.1584 7.244 69.1904 7.38C69.2544 7.644 69.3104 7.9 69.3584 8.148C69.4144 8.396 69.4744 8.652 69.5384 8.916C69.6744 9.492 69.8104 10.06 69.9464 10.62C70.0824 11.18 70.2184 11.744 70.3544 12.312C70.4184 12.568 70.4784 12.828 70.5344 13.092C70.5984 13.348 70.6624 13.604 70.7264 13.86C70.7504 13.964 70.7744 14.068 70.7984 14.172C70.8224 14.268 70.8464 14.364 70.8704 14.46C70.9184 14.644 70.8544 14.752 70.6784 14.784H70.5944C70.3064 14.8 70.0184 14.8 69.7304 14.784C69.4424 14.776 69.1584 14.78 68.8784 14.796C68.7584 14.796 68.6824 14.776 68.6504 14.736C68.6264 14.696 68.6064 14.608 68.5904 14.472C68.5664 14.12 68.5024 13.768 68.3984 13.416C68.3824 13.336 68.3464 13.292 68.2904 13.284C68.2424 13.276 68.1984 13.272 68.1584 13.272C67.8704 13.264 67.5824 13.264 67.2944 13.272C67.0064 13.28 66.7224 13.288 66.4424 13.296C66.3784 13.296 66.3304 13.312 66.2984 13.344C66.2664 13.376 66.2424 13.42 66.2264 13.476C66.1784 13.66 66.1264 13.832 66.0704 13.992C66.0224 14.152 65.9744 14.324 65.9264 14.508C65.9024 14.596 65.8704 14.66 65.8304 14.7C65.7984 14.732 65.7264 14.748 65.6144 14.748C65.5584 14.748 65.4344 14.748 65.2424 14.748C65.0504 14.748 64.8504 14.748 64.6424 14.748C64.4344 14.748 64.2424 14.748 64.0664 14.748C63.8984 14.74 63.8104 14.736 63.8024 14.736C63.6104 14.72 63.5464 14.62 63.6104 14.436C63.6904 14.188 63.7704 13.948 63.8504 13.716C63.9304 13.484 64.0144 13.248 64.1024 13.008C64.2704 12.472 64.4384 11.94 64.6064 11.412C64.7744 10.876 64.9464 10.34 65.1224 9.804C65.1784 9.62 65.2464 9.396 65.3264 9.132C65.4064 8.868 65.4824 8.612 65.5544 8.364C65.6344 8.116 65.7024 7.904 65.7584 7.728C65.8144 7.552 65.8464 7.456 65.8544 7.44C65.8784 7.36 65.8944 7.296 65.9024 7.248C65.9184 7.2 65.9384 7.164 65.9624 7.14C65.9944 7.116 66.0384 7.1 66.0944 7.092C66.1584 7.084 66.2464 7.08 66.3584 7.08C66.4544 7.08 66.6144 7.084 66.8384 7.092C67.0704 7.092 67.3104 7.092 67.5584 7.092C67.8144 7.092 68.0584 7.092 68.2904 7.092C68.5224 7.092 68.6904 7.092 68.7944 7.092ZM67.8944 11.832C68.0224 11.824 68.0704 11.756 68.0384 11.628C67.9744 11.348 67.9064 11.064 67.8344 10.776C67.7704 10.488 67.7064 10.204 67.6424 9.924C67.6344 9.9 67.6224 9.876 67.6064 9.852C67.5904 9.82 67.5664 9.804 67.5344 9.804C67.5024 9.804 67.4824 9.816 67.4744 9.84C67.4744 9.864 67.4704 9.884 67.4624 9.9C67.3744 10.156 67.2864 10.416 67.1984 10.68C67.1104 10.936 67.0224 11.192 66.9344 11.448C66.8944 11.568 66.8664 11.66 66.8504 11.724C66.8344 11.78 66.8344 11.82 66.8504 11.844C66.8744 11.868 66.9144 11.88 66.9704 11.88C67.0344 11.88 67.1224 11.88 67.2344 11.88C67.2344 11.88 67.2584 11.88 67.3064 11.88C67.3624 11.872 67.4224 11.868 67.4864 11.868C67.5584 11.86 67.6304 11.856 67.7024 11.856C67.7824 11.848 67.8464 11.84 67.8944 11.832Z" fill="white"/>
<path d="M79.3266 9.576C79.3266 9.272 79.3186 8.972 79.3026 8.676C79.2946 8.372 79.2826 8.068 79.2666 7.764C79.2666 7.724 79.2626 7.684 79.2546 7.644C79.2546 7.596 79.2546 7.548 79.2546 7.5C79.2546 7.364 79.2706 7.264 79.3026 7.2C79.3346 7.136 79.4426 7.108 79.6266 7.116C79.8346 7.124 80.0946 7.128 80.4066 7.128C80.7266 7.128 81.0586 7.128 81.4026 7.128C81.7546 7.128 82.1106 7.128 82.4706 7.128C82.8306 7.128 83.1586 7.128 83.4546 7.128C83.7586 7.12 84.0186 7.116 84.2346 7.116C84.4506 7.116 84.5946 7.116 84.6666 7.116C84.8266 7.116 84.9106 7.192 84.9186 7.344C84.9266 7.552 84.9306 7.78 84.9306 8.028C84.9306 8.276 84.9306 8.504 84.9306 8.712C84.9306 8.736 84.9106 8.764 84.8706 8.796C84.8386 8.828 84.8106 8.844 84.7866 8.844C84.6746 8.86 84.5626 8.876 84.4506 8.892C84.3466 8.9 84.2386 8.904 84.1266 8.904C83.7346 8.912 83.3546 8.916 82.9866 8.916C82.6186 8.916 82.2386 8.92 81.8466 8.928C81.7106 8.928 81.6026 8.932 81.5226 8.94C81.4506 8.948 81.3986 8.972 81.3666 9.012C81.3346 9.044 81.3186 9.1 81.3186 9.18C81.3186 9.252 81.3226 9.36 81.3306 9.504C81.3306 9.584 81.3266 9.636 81.3186 9.66C81.3186 9.684 81.3226 9.732 81.3306 9.804C81.3386 9.9 81.3466 9.976 81.3546 10.032C81.3626 10.088 81.3786 10.132 81.4026 10.164C81.4266 10.188 81.4666 10.204 81.5226 10.212C81.5786 10.22 81.6586 10.228 81.7626 10.236C81.8426 10.252 81.9506 10.256 82.0866 10.248C82.2306 10.24 82.3466 10.24 82.4346 10.248C82.5306 10.256 82.5986 10.272 82.6386 10.296C82.6866 10.312 82.7186 10.34 82.7346 10.38C82.7506 10.42 82.7546 10.472 82.7466 10.536C82.7466 10.6 82.7466 10.68 82.7466 10.776C82.7466 10.808 82.7426 10.84 82.7346 10.872C82.7346 10.896 82.7386 10.924 82.7466 10.956C82.7466 11.1 82.6746 11.172 82.5306 11.172C82.2906 11.188 82.0546 11.188 81.8226 11.172C81.6946 11.172 81.5946 11.176 81.5226 11.184C81.4506 11.184 81.3986 11.2 81.3666 11.232C81.3426 11.264 81.3266 11.316 81.3186 11.388C81.3186 11.452 81.3186 11.544 81.3186 11.664V12.552C81.3266 12.72 81.4106 12.804 81.5706 12.804H84.4866C84.6306 12.788 84.7306 12.8 84.7866 12.84C84.8426 12.872 84.8746 12.96 84.8826 13.104C84.8986 13.328 84.9066 13.576 84.9066 13.848C84.9146 14.12 84.9146 14.368 84.9066 14.592C84.9066 14.624 84.8866 14.66 84.8466 14.7C84.8146 14.732 84.7826 14.752 84.7506 14.76C84.7026 14.768 84.5906 14.772 84.4146 14.772C84.2466 14.772 84.0386 14.772 83.7906 14.772C83.5506 14.772 83.2866 14.768 82.9986 14.76C82.7106 14.76 82.4266 14.756 82.1466 14.748C81.8666 14.748 81.6026 14.748 81.3546 14.748C81.1066 14.748 80.9066 14.748 80.7546 14.748C80.5706 14.756 80.3826 14.756 80.1906 14.748C79.9986 14.74 79.8106 14.732 79.6266 14.724C79.4746 14.716 79.3746 14.692 79.3266 14.652C79.2866 14.604 79.2666 14.504 79.2666 14.352C79.2666 14.088 79.2666 13.824 79.2666 13.56C79.2666 13.296 79.2706 13.032 79.2786 12.768C79.2786 12.584 79.2786 12.408 79.2786 12.24C79.2866 12.064 79.2946 11.884 79.3026 11.7C79.2946 11.7 79.2906 11.624 79.2906 11.472C79.2986 11.312 79.3026 11.124 79.3026 10.908C79.3106 10.684 79.3146 10.452 79.3146 10.212C79.3226 9.964 79.3266 9.752 79.3266 9.576Z" fill="white"/>
<path d="M90.8227 7.176C91.0307 7.264 91.2067 7.384 91.3507 7.536C91.4947 7.688 91.6427 7.84 91.7947 7.992C91.8427 8.04 91.8587 8.096 91.8427 8.16C91.8267 8.224 91.7987 8.276 91.7587 8.316C91.6147 8.476 91.4707 8.636 91.3267 8.796C91.1827 8.948 91.0347 9.1 90.8827 9.252C90.8187 9.324 90.7387 9.332 90.6427 9.276C90.5627 9.212 90.4827 9.148 90.4027 9.084C90.3227 9.02 90.2387 8.964 90.1507 8.916C90.0387 8.852 89.9267 8.792 89.8147 8.736C89.7027 8.672 89.5907 8.62 89.4787 8.58C89.3427 8.532 89.2187 8.528 89.1067 8.568C89.0027 8.6 88.9227 8.672 88.8667 8.784C88.8187 8.88 88.8027 8.996 88.8187 9.132C88.8427 9.26 88.9027 9.36 88.9987 9.432C89.1267 9.52 89.2547 9.604 89.3827 9.684C89.5187 9.756 89.6547 9.828 89.7907 9.9C89.9827 10.012 90.1747 10.124 90.3667 10.236C90.5667 10.34 90.7587 10.448 90.9427 10.56C91.1267 10.672 91.2907 10.808 91.4347 10.968C91.5867 11.12 91.7307 11.28 91.8667 11.448C92.0267 11.656 92.1227 11.88 92.1547 12.12C92.1947 12.36 92.1987 12.604 92.1667 12.852C92.0547 13.812 91.5307 14.456 90.5947 14.784C90.2267 14.912 89.8627 14.968 89.5027 14.952C89.1507 14.944 88.7907 14.888 88.4227 14.784C88.0867 14.696 87.7787 14.572 87.4987 14.412C87.2187 14.244 86.9387 14.072 86.6587 13.896C86.6107 13.872 86.5627 13.836 86.5147 13.788C86.4427 13.724 86.3867 13.676 86.3467 13.644C86.3147 13.604 86.2947 13.564 86.2867 13.524C86.2787 13.484 86.2827 13.44 86.2987 13.392C86.3227 13.336 86.3587 13.264 86.4067 13.176C86.4947 13.008 86.5747 12.836 86.6467 12.66C86.7267 12.484 86.8067 12.308 86.8867 12.132C86.9187 12.068 86.9467 12.008 86.9707 11.952C86.9947 11.896 87.0267 11.84 87.0667 11.784C87.0907 11.744 87.1227 11.72 87.1627 11.712C87.2027 11.696 87.2427 11.708 87.2827 11.748C87.3707 11.836 87.4587 11.924 87.5467 12.012C87.6347 12.1 87.7227 12.188 87.8107 12.276C88.0187 12.476 88.2467 12.636 88.4947 12.756C88.7507 12.868 89.0107 12.968 89.2747 13.056C89.3787 13.088 89.4987 13.092 89.6347 13.068C89.7547 13.044 89.8547 12.996 89.9347 12.924C90.0147 12.852 90.0667 12.768 90.0907 12.672C90.1227 12.576 90.1267 12.476 90.1027 12.372C90.0787 12.268 90.0227 12.172 89.9347 12.084C89.8307 11.98 89.7187 11.888 89.5987 11.808C89.4787 11.72 89.3547 11.64 89.2267 11.568C89.0187 11.44 88.8067 11.32 88.5907 11.208C88.3747 11.088 88.1547 10.976 87.9307 10.872C87.5947 10.712 87.3307 10.504 87.1387 10.248C86.9547 9.984 86.8147 9.68 86.7187 9.336C86.5987 8.84 86.6827 8.392 86.9707 7.992C87.0827 7.832 87.1947 7.7 87.3067 7.596C87.4187 7.484 87.5947 7.368 87.8347 7.248C88.1627 7.088 88.4827 6.988 88.7947 6.948C89.1067 6.9 89.3907 6.888 89.6467 6.912C89.9107 6.928 90.1427 6.964 90.3427 7.02C90.5507 7.076 90.7107 7.128 90.8227 7.176Z" fill="white"/>
<path d="M18.6559 5.00776C19.2306 5.02845 19.8 5.05948 20.3641 5.10085C20.9388 5.14223 21.5029 5.27153 22.0563 5.48875C22.333 5.60253 22.5831 5.74218 22.8067 5.90768C23.0302 6.06284 23.2217 6.25937 23.3814 6.49728C23.6262 6.84898 23.7965 7.22136 23.8922 7.61443C23.988 7.99716 24.02 8.37988 23.988 8.76261C23.9561 9.13499 23.871 9.49703 23.7326 9.84872C23.5942 10.1901 23.4133 10.5004 23.1898 10.7797C23.0834 10.9038 22.9503 11.0176 22.7907 11.121C22.6417 11.2141 22.4927 11.3072 22.3437 11.4003C22.2585 11.452 22.2053 11.5038 22.184 11.5555C22.1734 11.6072 22.1947 11.6744 22.2479 11.7572C22.4288 12.0572 22.6098 12.3571 22.7907 12.6571C22.9823 12.9467 23.1738 13.2415 23.3654 13.5415C23.4399 13.6553 23.5304 13.8104 23.6368 14.007C23.7432 14.2035 23.839 14.3587 23.9242 14.4725C23.9987 14.5966 24.0093 14.7207 23.9561 14.8448C23.9242 14.9276 23.8763 14.9741 23.8124 14.9845C23.7592 14.9948 23.6953 15 23.6208 15C23.2803 14.9793 22.945 14.9741 22.6151 14.9845C22.2851 14.9948 21.9499 15 21.6093 15C21.4922 15 21.4071 14.9793 21.3539 14.9379C21.3007 14.8966 21.2474 14.8345 21.1942 14.7517C20.992 14.3897 20.7685 13.9863 20.5237 13.5415C20.2896 13.0864 20.0661 12.6778 19.8532 12.3157C19.8106 12.2433 19.7681 12.1761 19.7255 12.114C19.6829 12.052 19.6404 11.9899 19.5978 11.9279C19.5126 11.7727 19.369 11.6951 19.1667 11.6951C19.0497 11.6951 18.9379 11.6899 18.8315 11.6796C18.7357 11.6589 18.6293 11.6486 18.5122 11.6486C18.3419 11.6382 18.2248 11.6589 18.161 11.7106C18.1078 11.752 18.0812 11.8606 18.0812 12.0365C18.0918 12.4399 18.1024 12.8433 18.1131 13.2467C18.1237 13.6501 18.1344 14.0535 18.145 14.4569C18.1557 14.6018 18.1397 14.7052 18.0971 14.7673C18.0545 14.8293 17.9641 14.8759 17.8257 14.9069C17.7725 14.9276 17.714 14.9379 17.6501 14.9379C17.5863 14.9379 17.5277 14.9379 17.4745 14.9379C17.1978 14.9379 16.9264 14.9379 16.6603 14.9379C16.4049 14.9483 16.1388 14.9535 15.8621 14.9535C15.7769 14.9535 15.6971 14.9483 15.6226 14.9379C15.5481 14.9379 15.4683 14.9328 15.3831 14.9224C15.2022 14.9017 15.0958 14.8035 15.0639 14.6276C15.0532 14.5449 15.0373 14.4621 15.016 14.3794C15.0053 14.2863 15 14.1983 15 14.1156C15.0106 13.7018 15.016 13.2881 15.016 12.8743C15.016 12.4606 15.0266 12.0468 15.0479 11.633C15.0585 11.24 15.0639 10.8573 15.0639 10.4849C15.0639 10.1021 15.0639 9.71425 15.0639 9.32118C15.0745 8.6902 15.0745 8.06439 15.0639 7.44376C15.0532 6.81277 15.0479 6.18179 15.0479 5.55081C15.0479 5.32325 15.0798 5.18361 15.1437 5.13188C15.2075 5.06982 15.3619 5.04396 15.6067 5.05431H16.9477C16.9477 5.05431 17.0062 5.05431 17.1233 5.05431C17.251 5.04396 17.4053 5.03362 17.5863 5.02327C17.7672 5.01293 17.9534 5.00776 18.145 5.00776C18.3366 4.99741 18.5069 4.99741 18.6559 5.00776ZM18.1131 8.49884C18.1024 8.64365 18.0971 8.7833 18.0971 8.91777V9.55392C18.0971 9.72977 18.1929 9.81769 18.3845 9.81769C18.5973 9.797 18.8049 9.78666 19.0071 9.78666C19.22 9.77631 19.4328 9.7608 19.6457 9.74011C19.8585 9.70908 20.0608 9.65219 20.2523 9.56943C20.4545 9.48668 20.6355 9.36256 20.7951 9.19705C20.9122 9.07292 20.9867 8.92294 21.0186 8.74709C21.0612 8.57124 21.0612 8.40057 21.0186 8.23507C20.9867 8.05922 20.9175 7.90923 20.8111 7.7851C20.7047 7.65063 20.5716 7.56271 20.412 7.52133C19.6882 7.34549 18.9805 7.27308 18.2887 7.30411C18.2568 7.31446 18.2195 7.34549 18.1769 7.39721C18.145 7.43858 18.129 7.47479 18.129 7.50582C18.1184 7.65063 18.1131 7.81614 18.1131 8.00233C18.1131 8.18852 18.1131 8.35402 18.1131 8.49884Z" fill="white"/>
<path d="M75.6711 14.5114C75.6678 14.677 75.6449 14.7843 75.6024 14.8332C75.5669 14.8739 75.4797 14.897 75.3409 14.9026L74.8001 14.8921C74.6266 14.897 74.4497 14.8977 74.2694 14.8942C74.1583 14.9003 74.0892 14.8865 74.0621 14.8529C74.0351 14.8192 74.0193 14.7361 74.015 14.6034C74.0182 14.0816 74.0248 13.564 74.0348 13.0506C74.0448 12.5372 74.0514 12.0196 74.0547 11.4978C74.0534 11.2078 74.0526 10.8889 74.0525 10.5409C74.0594 10.1849 74.0588 9.86178 74.0506 9.57168C74.0423 9.28159 74.0595 9.11021 74.0595 9.11021C74.0732 8.40902 74.0697 7.21116 74.0697 7.21116C74.0713 7.12835 74.0931 7.07493 74.1352 7.0509C74.1775 7.01859 74.2263 7.00297 74.2818 7.00405C74.4932 7.00817 74.6509 7.02607 74.9122 7.03116C75.0703 7.03424 75.08 7.03202 75.3947 7.03815C75.5124 7.04873 75.6053 7.08781 75.6734 7.15541C75.7414 7.22301 75.7778 7.31484 75.7824 7.4309C75.7824 7.4309 75.7888 9.00075 75.7872 9.0829L75.7823 9.33204L75.7702 9.95309C75.7649 10.2264 75.7555 10.5327 75.7419 10.8721L75.7211 11.9403C75.721 12.3047 75.7141 12.6567 75.7006 12.9961L75.6829 13.9028L75.6711 14.5114Z" fill="white"/>
<path d="M73.7938 8.98963C73.6657 8.99368 73.649 8.97659 73.533 8.97485L72.4133 8.9581C72.3336 8.95691 72.2684 8.95231 72.2178 8.9443C72.1744 8.9364 72.1384 8.92137 72.1097 8.89919C72.0883 8.87712 72.0707 8.84424 72.0568 8.80053C72.0502 8.75694 72.0439 8.69523 72.0378 8.6154C72.0266 8.39775 72.019 8.18016 72.015 7.96263L72.0249 7.29948C72.026 7.227 72.0484 7.18022 72.0922 7.15913C72.1362 7.13079 72.1871 7.11705 72.2451 7.11792C73.1151 7.10919 73.9814 7.11128 74.8438 7.12418C75.7063 7.13709 76.5722 7.16454 77.4414 7.20654C77.5645 7.21563 77.6619 7.24971 77.7335 7.30878C77.8051 7.36784 77.8438 7.44816 77.8495 7.54974C77.8607 7.76738 77.8647 7.98491 77.8615 8.20234L77.8738 8.8332C77.8718 8.96366 77.8021 9.02061 77.6646 9.00405C77.5198 8.99463 77.3786 8.98527 77.241 8.97596C77.1034 8.96666 76.9657 8.96097 76.828 8.95891C76.5455 8.94744 76.2628 8.94321 75.9801 8.94623L73.7938 8.98963Z" fill="white"/>
</svg>
