<svg width="107" height="20" viewBox="0 0 107 20" fill="none" xmlns="http://www.w3.org/2000/svg">
<path d="M46.8838 12.024V14.736C46.8838 14.864 46.8638 14.944 46.8238 14.976C46.7918 15 46.7078 15.004 46.5718 14.988C46.3078 14.956 46.0438 14.952 45.7798 14.976C45.5158 14.992 45.2398 14.996 44.9518 14.988C44.7038 15.028 44.5798 14.924 44.5798 14.676C44.5718 14.532 44.5678 14.396 44.5678 14.268C44.5758 14.14 44.5798 14 44.5798 13.848C44.5878 13.488 44.5918 13.128 44.5918 12.768C44.5918 12.408 44.5918 12.048 44.5918 11.688C44.5918 11.144 44.5878 10.568 44.5798 9.96C44.5798 9.352 44.5758 8.776 44.5678 8.232C44.5678 8.136 44.5678 8.04 44.5678 7.944C44.5758 7.848 44.5838 7.752 44.5918 7.656C44.6078 7.544 44.6278 7.476 44.6518 7.452C44.6838 7.42 44.7518 7.396 44.8558 7.38C45.1598 7.348 45.4558 7.336 45.7438 7.344C46.0318 7.344 46.3238 7.364 46.6198 7.404C46.7078 7.412 46.7798 7.42 46.8358 7.428C46.8918 7.436 46.9238 7.484 46.9318 7.572C46.9478 7.652 46.9518 7.752 46.9438 7.872C46.9438 7.992 46.9438 8.092 46.9438 8.172C46.9358 8.7 46.9278 9.296 46.9198 9.96C46.9118 10.616 46.8998 11.304 46.8838 12.024Z" fill="white"/>
<path d="M53.3609 7.344C53.5049 7.336 53.5969 7.348 53.6369 7.38C53.6849 7.412 53.7249 7.496 53.7569 7.632C53.8209 7.896 53.8769 8.152 53.9249 8.4C53.9809 8.648 54.0409 8.904 54.1049 9.168C54.2409 9.744 54.3769 10.312 54.5129 10.872C54.6489 11.432 54.7849 11.996 54.9209 12.564C54.9849 12.82 55.0449 13.08 55.1009 13.344C55.1649 13.6 55.2289 13.856 55.2929 14.112C55.3169 14.216 55.3409 14.32 55.3649 14.424C55.3889 14.52 55.4129 14.616 55.4369 14.712C55.4849 14.896 55.4209 15.004 55.2449 15.036H55.1609C54.8729 15.052 54.5849 15.052 54.2969 15.036C54.0089 15.028 53.7249 15.032 53.4449 15.048C53.3249 15.048 53.2489 15.028 53.2169 14.988C53.1929 14.948 53.1729 14.86 53.1569 14.724C53.1329 14.372 53.0689 14.02 52.9649 13.668C52.9489 13.588 52.9129 13.544 52.8569 13.536C52.8089 13.528 52.7649 13.524 52.7249 13.524C52.4369 13.516 52.1489 13.516 51.8609 13.524C51.5729 13.532 51.2889 13.54 51.0089 13.548C50.9449 13.548 50.8969 13.564 50.8649 13.596C50.8329 13.628 50.8089 13.672 50.7929 13.728C50.7449 13.912 50.6929 14.084 50.6369 14.244C50.5889 14.404 50.5409 14.576 50.4929 14.76C50.4689 14.848 50.4369 14.912 50.3969 14.952C50.3649 14.984 50.2929 15 50.1809 15C50.1249 15 50.0009 15 49.8089 15C49.6169 15 49.4169 15 49.2089 15C49.0009 15 48.8089 15 48.6329 15C48.4649 14.992 48.3769 14.988 48.3689 14.988C48.1769 14.972 48.1129 14.872 48.1769 14.688C48.2569 14.44 48.3369 14.2 48.4169 13.968C48.4969 13.736 48.5809 13.5 48.6689 13.26C48.8369 12.724 49.0049 12.192 49.1729 11.664C49.3409 11.128 49.5129 10.592 49.6889 10.056C49.7449 9.872 49.8129 9.648 49.8929 9.384C49.9729 9.12 50.0489 8.864 50.1209 8.616C50.2009 8.368 50.2689 8.156 50.3249 7.98C50.3809 7.804 50.4129 7.708 50.4209 7.692C50.4449 7.612 50.4609 7.548 50.4689 7.5C50.4849 7.452 50.5049 7.416 50.5289 7.392C50.5609 7.368 50.6049 7.352 50.6609 7.344C50.7249 7.336 50.8129 7.332 50.9249 7.332C51.0209 7.332 51.1809 7.336 51.4049 7.344C51.6369 7.344 51.8769 7.344 52.1249 7.344C52.3809 7.344 52.6249 7.344 52.8569 7.344C53.0889 7.344 53.2569 7.344 53.3609 7.344ZM52.4609 12.084C52.5889 12.076 52.6369 12.008 52.6049 11.88C52.5409 11.6 52.4729 11.316 52.4009 11.028C52.3369 10.74 52.2729 10.456 52.2089 10.176C52.2009 10.152 52.1889 10.128 52.1729 10.104C52.1569 10.072 52.1329 10.056 52.1009 10.056C52.0689 10.056 52.0489 10.068 52.0409 10.092C52.0409 10.116 52.0369 10.136 52.0289 10.152C51.9409 10.408 51.8529 10.668 51.7649 10.932C51.6769 11.188 51.5889 11.444 51.5009 11.7C51.4609 11.82 51.4329 11.912 51.4169 11.976C51.4009 12.032 51.4009 12.072 51.4169 12.096C51.4409 12.12 51.4809 12.132 51.5369 12.132C51.6009 12.132 51.6889 12.132 51.8009 12.132C51.8009 12.132 51.8249 12.132 51.8729 12.132C51.9289 12.124 51.9889 12.12 52.0529 12.12C52.1249 12.112 52.1969 12.108 52.2689 12.108C52.3489 12.1 52.4129 12.092 52.4609 12.084Z" fill="white"/>
<path d="M59.445 7.344C59.877 7.36 60.305 7.384 60.729 7.416C61.161 7.448 61.585 7.548 62.001 7.716C62.209 7.804 62.397 7.912 62.565 8.04C62.733 8.16 62.877 8.312 62.997 8.496C63.181 8.768 63.309 9.056 63.381 9.36C63.453 9.656 63.477 9.952 63.453 10.248C63.429 10.536 63.365 10.816 63.261 11.088C63.157 11.352 63.021 11.592 62.853 11.808C62.773 11.904 62.673 11.992 62.553 12.072C62.441 12.144 62.329 12.216 62.217 12.288C62.153 12.328 62.113 12.368 62.097 12.408C62.089 12.448 62.105 12.5 62.145 12.564C62.281 12.796 62.417 13.028 62.553 13.26C62.697 13.484 62.841 13.712 62.985 13.944C63.041 14.032 63.109 14.152 63.189 14.304C63.269 14.456 63.341 14.576 63.405 14.664C63.461 14.76 63.469 14.856 63.429 14.952C63.405 15.016 63.369 15.052 63.321 15.06C63.281 15.068 63.233 15.072 63.177 15.072C62.921 15.056 62.669 15.052 62.421 15.06C62.173 15.068 61.921 15.072 61.665 15.072C61.577 15.072 61.513 15.056 61.473 15.024C61.433 14.992 61.393 14.944 61.353 14.88C61.201 14.6 61.033 14.288 60.849 13.944C60.673 13.592 60.505 13.276 60.345 12.996C60.313 12.94 60.281 12.888 60.249 12.84C60.217 12.792 60.185 12.744 60.153 12.696C60.089 12.576 59.981 12.516 59.829 12.516C59.741 12.516 59.657 12.512 59.577 12.504C59.505 12.488 59.425 12.48 59.337 12.48C59.209 12.472 59.121 12.488 59.073 12.528C59.033 12.56 59.013 12.644 59.013 12.78C59.021 13.092 59.029 13.404 59.037 13.716C59.045 14.028 59.053 14.34 59.061 14.652C59.069 14.764 59.057 14.844 59.025 14.892C58.993 14.94 58.925 14.976 58.821 15C58.781 15.016 58.737 15.024 58.689 15.024C58.641 15.024 58.597 15.024 58.557 15.024C58.349 15.024 58.145 15.024 57.945 15.024C57.753 15.032 57.553 15.036 57.345 15.036C57.281 15.036 57.221 15.032 57.165 15.024C57.109 15.024 57.049 15.02 56.985 15.012C56.849 14.996 56.769 14.92 56.745 14.784C56.737 14.72 56.725 14.656 56.709 14.592C56.701 14.52 56.697 14.452 56.697 14.388C56.705 14.068 56.709 13.748 56.709 13.428C56.709 13.108 56.717 12.788 56.733 12.468C56.741 12.164 56.745 11.868 56.745 11.58C56.745 11.284 56.745 10.984 56.745 10.68C56.753 10.192 56.753 9.708 56.745 9.228C56.737 8.74 56.733 8.252 56.733 7.764C56.733 7.588 56.757 7.48 56.805 7.44C56.853 7.392 56.969 7.372 57.153 7.38H58.161C58.161 7.38 58.205 7.38 58.293 7.38C58.389 7.372 58.505 7.364 58.641 7.356C58.777 7.348 58.917 7.344 59.061 7.344C59.205 7.336 59.333 7.336 59.445 7.344ZM59.037 10.044C59.029 10.156 59.025 10.264 59.025 10.368V10.86C59.025 10.996 59.097 11.064 59.241 11.064C59.401 11.048 59.557 11.04 59.709 11.04C59.869 11.032 60.029 11.02 60.189 11.004C60.349 10.98 60.501 10.936 60.645 10.872C60.797 10.808 60.933 10.712 61.053 10.584C61.141 10.488 61.197 10.372 61.221 10.236C61.253 10.1 61.253 9.968 61.221 9.84C61.197 9.704 61.145 9.588 61.065 9.492C60.985 9.388 60.885 9.32 60.765 9.288C60.221 9.152 59.689 9.096 59.169 9.12C59.145 9.128 59.117 9.152 59.085 9.192C59.061 9.224 59.049 9.252 59.049 9.276C59.041 9.388 59.037 9.516 59.037 9.66C59.037 9.804 59.037 9.932 59.037 10.044Z" fill="white"/>
<path d="M66.528 7.356C66.592 7.356 66.64 7.372 66.672 7.404C66.704 7.428 66.736 7.464 66.768 7.512C66.952 7.784 67.136 8.096 67.32 8.448C67.504 8.792 67.688 9.104 67.872 9.384C67.896 9.416 67.916 9.448 67.932 9.48C67.956 9.504 67.98 9.532 68.004 9.564C68.068 9.652 68.14 9.652 68.22 9.564L68.328 9.42C68.424 9.308 68.544 9.152 68.688 8.952C68.832 8.752 68.968 8.556 69.096 8.364C69.232 8.172 69.348 8.004 69.444 7.86C69.54 7.716 69.592 7.64 69.6 7.632C69.672 7.488 69.752 7.404 69.84 7.38C69.936 7.356 70.052 7.344 70.188 7.344C70.292 7.344 70.424 7.348 70.584 7.356C70.744 7.356 70.9 7.356 71.052 7.356C71.212 7.356 71.352 7.356 71.472 7.356C71.592 7.356 71.664 7.356 71.688 7.356C71.744 7.372 71.78 7.404 71.796 7.452C71.82 7.5 71.812 7.552 71.772 7.608C71.756 7.648 71.732 7.688 71.7 7.728C71.676 7.768 71.648 7.804 71.616 7.836C71.456 8.02 71.296 8.224 71.136 8.448C70.984 8.664 70.824 8.888 70.656 9.12C70.496 9.344 70.336 9.564 70.176 9.78C70.016 9.996 69.86 10.196 69.708 10.38C69.54 10.58 69.364 10.78 69.18 10.98C69.02 11.14 68.944 11.34 68.952 11.58C68.984 12.06 68.992 12.58 68.976 13.14C68.968 13.7 68.98 14.22 69.012 14.7C69.012 14.788 68.996 14.856 68.964 14.904C68.932 14.952 68.868 14.98 68.772 14.988C68.532 15.004 68.304 15.008 68.088 15C67.872 15 67.648 15.004 67.416 15.012C67.304 15.012 67.228 14.992 67.188 14.952C67.156 14.904 67.132 14.824 67.116 14.712C67.116 14.64 67.112 14.508 67.104 14.316C67.104 14.116 67.1 13.9 67.092 13.668C67.092 13.428 67.092 13.196 67.092 12.972C67.092 12.748 67.092 12.576 67.092 12.456C67.092 12.352 67.088 12.232 67.08 12.096C67.072 11.96 67.056 11.824 67.032 11.688C67.008 11.552 66.976 11.424 66.936 11.304C66.896 11.176 66.84 11.064 66.768 10.968C66.584 10.712 66.412 10.452 66.252 10.188C66.1 9.916 65.94 9.652 65.772 9.396C65.612 9.164 65.448 8.9 65.28 8.604C65.12 8.3 64.96 8.032 64.8 7.8C64.776 7.76 64.748 7.728 64.716 7.704C64.684 7.672 64.656 7.636 64.632 7.596C64.584 7.532 64.572 7.48 64.596 7.44C64.628 7.392 64.684 7.364 64.764 7.356C64.796 7.356 64.884 7.356 65.028 7.356C65.172 7.356 65.336 7.36 65.52 7.368C65.704 7.368 65.888 7.368 66.072 7.368C66.256 7.368 66.408 7.364 66.528 7.356Z" fill="white"/>
<path d="M35.0261 6.84551C35.0261 6.64823 35.0304 6.49791 35.0391 6.39457C35.0478 6.28184 35.0739 6.20198 35.1173 6.15501C35.1694 6.09864 35.2433 6.06576 35.3389 6.05637C35.4344 6.03758 35.5735 6.02349 35.7559 6.01409C35.8515 6.01409 36.0426 6.01409 36.3294 6.01409C36.6161 6.0047 36.9289 6 37.2677 6C37.6066 6 37.9368 6.0047 38.2582 6.01409C38.5797 6.02349 38.8273 6.03758 39.0011 6.05637C39.2096 6.07516 39.4182 6.09864 39.6267 6.12683C39.8352 6.14562 40.0394 6.19259 40.2392 6.26775C40.4217 6.33351 40.5998 6.41806 40.7736 6.5214C40.9561 6.62474 41.1255 6.74217 41.2819 6.8737C41.5425 7.06159 41.7684 7.31524 41.9596 7.63466C42.1594 7.94468 42.3245 8.26409 42.4549 8.5929C42.5939 8.92171 42.7025 9.23173 42.7807 9.52296C42.8589 9.8142 42.911 10.035 42.9371 10.1853C43.05 10.8617 43.0109 11.477 42.8198 12.0313C42.6286 12.5856 42.3202 13.1023 41.8944 13.5814C41.599 13.9102 41.2775 14.178 40.93 14.3847C40.5824 14.5913 40.1958 14.7276 39.7701 14.7933C39.2227 14.8779 38.6796 14.9342 38.1409 14.9624C37.6109 15 37.0722 15.0094 36.5249 14.9906C36.299 14.9906 36.0774 14.9812 35.8602 14.9624C35.6516 14.9436 35.4388 14.9342 35.2216 14.9342C35.126 14.9436 35.0652 14.9248 35.0391 14.8779C35.0217 14.8309 35.013 14.7698 35.013 14.6947C35.013 14.6571 35.0087 14.6242 35 14.596C35 14.5585 35 14.5209 35 14.4833C35 13.8163 35 13.154 35 12.4963C35.0087 11.8293 35.013 11.1623 35.013 10.4953C35.013 10.4953 35.013 10.3638 35.013 10.1007C35.0217 9.83768 35.0261 9.51827 35.0261 9.14248C35.0261 8.75731 35.0261 8.35804 35.0261 7.94468C35.0261 7.52192 35.0261 7.15553 35.0261 6.84551ZM37.6066 10.5235C37.6066 10.8335 37.6022 11.1435 37.5936 11.4535C37.5936 11.7636 37.5892 12.0736 37.5805 12.3836C37.5805 12.5715 37.6674 12.6701 37.8412 12.6795C38.2148 12.7171 38.571 12.6889 38.9099 12.595C39.2487 12.501 39.5702 12.3319 39.8743 12.0877C40.022 11.9656 40.1524 11.834 40.2653 11.6931C40.3783 11.5522 40.4565 11.3831 40.4999 11.1858C40.5607 10.9228 40.5781 10.6597 40.552 10.3967C40.5347 10.1336 40.4869 9.87056 40.4087 9.60752C40.3392 9.41023 40.2436 9.23643 40.122 9.08612C40.0003 8.92641 39.8439 8.80428 39.6528 8.71973C39.3747 8.5882 39.0923 8.51305 38.8056 8.49426C38.5276 8.47547 38.2452 8.46608 37.9585 8.46608C37.7847 8.46608 37.6804 8.48486 37.6457 8.52244C37.6196 8.56002 37.6066 8.67276 37.6066 8.86065C37.5979 9.00157 37.5936 9.16597 37.5936 9.35386C37.6022 9.54175 37.6066 9.72495 37.6066 9.90344V10.5235Z" fill="white"/>
</svg>
