<svg width="319" height="302" viewBox="0 0 319 302" fill="none" xmlns="http://www.w3.org/2000/svg">
<rect x="219" y="14" width="40" height="40" fill="#BE141B"/>
<rect x="179" y="14" width="40" height="40" fill="#BE141B"/>
<rect x="139" y="14" width="40" height="40" fill="#BE141B"/>
<rect x="99" y="14" width="40" height="40" fill="#BE141B"/>
<rect x="59" y="34" width="20" height="20" fill="#BE141B"/>
<rect x="79" y="34" width="20" height="20" fill="#BE141B"/>
<rect x="79" y="14" width="20" height="20" fill="#BE141B"/>
<rect x="59" y="14" width="20" height="20" fill="#BE141B"/>
<rect x="218" y="92" width="40" height="40" fill="#BE141B"/>
<rect x="258" y="127" width="40" height="40" fill="#BE141B"/>
<rect x="218" y="127" width="40" height="40" fill="#BE141B"/>
<rect x="258" y="167" width="40" height="40" fill="#BE141B"/>
<rect x="218" y="167" width="40" height="40" fill="#BE141B"/>
<rect x="258" y="207" width="40" height="40" fill="#BE141B"/>
<rect x="218" y="207" width="40" height="40" fill="#BE141B"/>
<rect x="218" y="247" width="40" height="40" fill="#BE141B"/>
<rect x="178" y="247" width="40" height="40" fill="#BE141B"/>
<rect x="138" y="247" width="40" height="40" fill="#BE141B"/>
<rect x="98" y="247" width="40" height="40" fill="#BE141B"/>
<rect x="61" y="247" width="40" height="40" fill="#BE141B"/>
<rect x="62" y="207" width="40" height="40" fill="#BE141B"/>
<rect x="22" y="227" width="20" height="20" fill="#BE141B"/>
<rect x="22" y="217" width="10" height="10" fill="#BE141B"/>
<rect x="32" y="217" width="10" height="10" fill="#BE141B"/>
<rect x="32" y="207" width="10" height="10" fill="#BE141B"/>
<rect x="22" y="207" width="10" height="10" fill="#BE141B"/>
<rect x="42" y="207" width="20" height="20" fill="#BE141B"/>
<rect x="42" y="227" width="20" height="20" fill="#BE141B"/>
<rect x="139" y="92" width="40" height="40" fill="#BE141B"/>
<rect x="99" y="92" width="40" height="40" fill="#BE141B"/>
<rect x="63" y="54" width="40" height="40" fill="#BE141B"/>
<rect x="23" y="54" width="40" height="40" fill="#BE141B"/>
<rect x="23" y="92" width="40" height="40" fill="#BE141B"/>
<rect x="59" y="92" width="40" height="40" fill="#BE141B"/>
<rect x="179" y="92" width="40" height="40" fill="#BE141B"/>
<rect x="39" y="34" width="20" height="20" fill="#BE141B"/>
<rect x="49" y="24" width="10" height="10" fill="#BE141B"/>
<rect x="39" y="24" width="10" height="10" fill="#BE141B"/>
<rect x="49" y="14" width="10" height="10" fill="#BE141B"/>
<rect x="39" y="14" width="10" height="10" fill="#BE141B"/>
<rect x="23" y="44" width="16" height="10" fill="#BE141B"/>
<rect x="23" y="34" width="16" height="10" fill="#BE141B"/>
<rect x="29" y="24" width="10" height="10" fill="#BE141B"/>
<rect x="23" y="24" width="6" height="10" fill="#BE141B"/>
<rect x="29" y="14" width="10" height="10" fill="#BE141B"/>
<rect x="23" y="14" width="6" height="10" fill="#BE141B"/>
</svg>
