<svg class="svg-troyan" viewBox="0 0 107 20" fill="none" xmlns="http://www.w3.org/2000/svg">
<path d="M45.2178 7.7459C45.6498 7.7619 46.0778 7.7859 46.5018 7.8179C46.9338 7.8499 47.3578 7.9499 47.7738 8.1179C47.9818 8.2059 48.1698 8.3139 48.3378 8.4419C48.5058 8.5619 48.6498 8.7139 48.7698 8.8979C48.9538 9.1699 49.0818 9.4579 49.1538 9.7619C49.2258 10.0579 49.2498 10.3539 49.2258 10.6499C49.2018 10.9379 49.1378 11.2179 49.0338 11.4899C48.9298 11.7539 48.7938 11.9939 48.6258 12.2099C48.5458 12.3059 48.4458 12.3939 48.3258 12.4739C48.2138 12.5459 48.1018 12.6179 47.9898 12.6899C47.9258 12.7299 47.8858 12.7699 47.8698 12.8099C47.8618 12.8499 47.8778 12.9019 47.9178 12.9659C48.0538 13.1979 48.1898 13.4299 48.3258 13.6619C48.4698 13.8859 48.6138 14.1139 48.7578 14.3459C48.8138 14.4339 48.8818 14.5539 48.9618 14.7059C49.0418 14.8579 49.1138 14.9779 49.1778 15.0659C49.2338 15.1619 49.2418 15.2579 49.2018 15.3539C49.1778 15.4179 49.1418 15.4539 49.0938 15.4619C49.0538 15.4699 49.0058 15.4739 48.9498 15.4739C48.6938 15.4579 48.4418 15.4539 48.1938 15.4619C47.9458 15.4699 47.6938 15.4739 47.4378 15.4739C47.3498 15.4739 47.2858 15.4579 47.2458 15.4259C47.2058 15.3939 47.1658 15.3459 47.1258 15.2819C46.9738 15.0019 46.8058 14.6899 46.6218 14.3459C46.4458 13.9939 46.2778 13.6779 46.1178 13.3979C46.0858 13.3419 46.0538 13.2899 46.0218 13.2419C45.9898 13.1939 45.9578 13.1459 45.9258 13.0979C45.8618 12.9779 45.7538 12.9179 45.6018 12.9179C45.5138 12.9179 45.4298 12.9139 45.3498 12.9059C45.2778 12.8899 45.1978 12.8819 45.1098 12.8819C44.9818 12.8739 44.8938 12.8899 44.8458 12.9299C44.8058 12.9619 44.7858 13.0459 44.7858 13.1819C44.7938 13.4939 44.8018 13.8059 44.8098 14.1179C44.8178 14.4299 44.8258 14.7419 44.8338 15.0539C44.8418 15.1659 44.8298 15.2459 44.7978 15.2939C44.7658 15.3419 44.6978 15.3779 44.5938 15.4019C44.5538 15.4179 44.5098 15.4259 44.4618 15.4259C44.4138 15.4259 44.3698 15.4259 44.3298 15.4259C44.1218 15.4259 43.9178 15.4259 43.7178 15.4259C43.5258 15.4339 43.3258 15.4379 43.1178 15.4379C43.0538 15.4379 42.9938 15.4339 42.9378 15.4259C42.8818 15.4259 42.8218 15.4219 42.7578 15.4139C42.6218 15.3979 42.5418 15.3219 42.5178 15.1859C42.5098 15.1219 42.4978 15.0579 42.4818 14.9939C42.4738 14.9219 42.4698 14.8539 42.4698 14.7899C42.4778 14.4699 42.4818 14.1499 42.4818 13.8299C42.4818 13.5099 42.4898 13.1899 42.5058 12.8699C42.5138 12.5659 42.5178 12.2699 42.5178 11.9819C42.5178 11.6859 42.5178 11.3859 42.5178 11.0819C42.5258 10.5939 42.5258 10.1099 42.5178 9.6299C42.5098 9.1419 42.5058 8.6539 42.5058 8.1659C42.5058 7.9899 42.5298 7.8819 42.5778 7.8419C42.6258 7.7939 42.7418 7.7739 42.9258 7.7819H43.9338C43.9338 7.7819 43.9778 7.7819 44.0658 7.7819C44.1618 7.7739 44.2778 7.7659 44.4138 7.7579C44.5498 7.7499 44.6898 7.7459 44.8338 7.7459C44.9778 7.7379 45.1058 7.7379 45.2178 7.7459ZM44.8098 10.4459C44.8018 10.5579 44.7978 10.6659 44.7978 10.7699V11.2619C44.7978 11.3979 44.8698 11.4659 45.0138 11.4659C45.1738 11.4499 45.3298 11.4419 45.4818 11.4419C45.6418 11.4339 45.8018 11.4219 45.9618 11.4059C46.1218 11.3819 46.2738 11.3379 46.4178 11.2739C46.5698 11.2099 46.7058 11.1139 46.8258 10.9859C46.9138 10.8899 46.9698 10.7739 46.9938 10.6379C47.0258 10.5019 47.0258 10.3699 46.9938 10.2419C46.9698 10.1059 46.9178 9.9899 46.8378 9.8939C46.7578 9.7899 46.6578 9.7219 46.5378 9.6899C45.9938 9.5539 45.4618 9.4979 44.9418 9.5219C44.9178 9.5299 44.8898 9.5539 44.8578 9.5939C44.8338 9.6259 44.8218 9.6539 44.8218 9.6779C44.8138 9.7899 44.8098 9.9179 44.8098 10.0619C44.8098 10.2059 44.8098 10.3339 44.8098 10.4459Z" fill="white"/>
<path d="M57.8568 11.4899C57.8168 11.8579 57.7568 12.2139 57.6768 12.5579C57.5968 12.9019 57.4768 13.2299 57.3168 13.5419C57.1648 13.8459 56.9688 14.1299 56.7288 14.3939C56.4968 14.6499 56.2128 14.8739 55.8768 15.0659C55.6128 15.2179 55.3408 15.3339 55.0608 15.4139C54.7808 15.4939 54.4888 15.5339 54.1848 15.5339C53.6888 15.5339 53.2448 15.4739 52.8528 15.3539C52.4688 15.2259 52.1288 15.0659 51.8328 14.8739C51.5448 14.6739 51.2968 14.4539 51.0888 14.2139C50.8888 13.9659 50.7208 13.7259 50.5848 13.4939C50.4568 13.2539 50.3608 13.0339 50.2968 12.8339C50.2328 12.6339 50.1968 12.4739 50.1888 12.3539C50.1728 12.1379 50.1568 11.9219 50.1408 11.7059C50.1168 11.4899 50.1248 11.2699 50.1648 11.0459C50.2448 10.6539 50.3768 10.2699 50.5608 9.8939C50.7528 9.5179 50.9928 9.1779 51.2808 8.8739C51.5768 8.5699 51.9248 8.3139 52.3248 8.1059C52.7248 7.8899 53.1728 7.7539 53.6688 7.6979C53.9648 7.6579 54.2568 7.6619 54.5448 7.7099C54.8408 7.7579 55.1288 7.8339 55.4088 7.9379C55.8888 8.1219 56.2928 8.3819 56.6208 8.7179C56.9488 9.0459 57.2168 9.4459 57.4248 9.9179C57.5368 10.1739 57.6408 10.4259 57.7368 10.6739C57.8328 10.9219 57.8728 11.1939 57.8568 11.4899ZM55.8648 11.4419C55.8648 11.3459 55.8608 11.2739 55.8528 11.2259C55.8528 11.1699 55.8488 11.1259 55.8408 11.0939C55.8328 11.0619 55.8248 11.0339 55.8168 11.0099C55.8088 10.9779 55.8008 10.9379 55.7928 10.8899C55.7688 10.7699 55.7008 10.6419 55.5888 10.5059C55.4848 10.3619 55.3528 10.2299 55.1928 10.1099C55.0408 9.9819 54.8688 9.8779 54.6768 9.7979C54.4928 9.7099 54.3128 9.6659 54.1368 9.6659C53.7768 9.6659 53.4728 9.7379 53.2248 9.8819C52.9848 10.0259 52.7888 10.2059 52.6368 10.4219C52.4928 10.6299 52.3848 10.8579 52.3128 11.1059C52.2408 11.3539 52.2008 11.5819 52.1928 11.7899C52.1848 11.9259 52.2168 12.0859 52.2888 12.2699C52.3688 12.4459 52.4848 12.6179 52.6368 12.7859C52.7968 12.9459 52.9888 13.0859 53.2128 13.2059C53.4448 13.3179 53.7048 13.3739 53.9928 13.3739C54.3128 13.3739 54.5888 13.3099 54.8208 13.1819C55.0528 13.0459 55.2448 12.8819 55.3968 12.6899C55.5568 12.4979 55.6728 12.2899 55.7448 12.0659C55.8248 11.8419 55.8648 11.6339 55.8648 11.4419Z" fill="white"/>
<path d="M65.8553 14.9939V15.2699C65.8393 15.4299 65.7553 15.5019 65.6033 15.4859H64.0793C63.9353 15.4779 63.8393 15.4499 63.7913 15.4019C63.7433 15.3539 63.7193 15.2619 63.7193 15.1259C63.7193 14.9099 63.7193 14.6939 63.7193 14.4779C63.7193 14.2539 63.7233 14.0339 63.7313 13.8179C63.7313 13.6819 63.7313 13.5459 63.7313 13.4099C63.7393 13.2659 63.7433 13.1219 63.7433 12.9779C63.7433 12.8579 63.7273 12.7859 63.6953 12.7619C63.6713 12.7379 63.5993 12.7179 63.4793 12.7019C63.2393 12.6539 63.0553 12.7339 62.9273 12.9419C62.7033 13.2859 62.4713 13.6259 62.2313 13.9619C61.9993 14.2979 61.7793 14.6419 61.5713 14.9939C61.5153 15.0899 61.4633 15.1699 61.4153 15.2339C61.3753 15.2899 61.3233 15.3379 61.2593 15.3779C61.2033 15.4179 61.1273 15.4459 61.0313 15.4619C60.9353 15.4779 60.8113 15.4859 60.6593 15.4859C60.5473 15.4859 60.4113 15.4859 60.2513 15.4859C60.0913 15.4859 59.9393 15.4819 59.7953 15.4739C59.6273 15.4739 59.4513 15.4699 59.2673 15.4619C59.2193 15.4459 59.1793 15.4259 59.1473 15.4019C59.0833 15.3539 59.0793 15.2899 59.1353 15.2099C59.2473 15.0499 59.3673 14.8939 59.4953 14.7419C59.6233 14.5819 59.7473 14.4179 59.8673 14.2499C60.0593 13.9779 60.2513 13.7099 60.4433 13.4459C60.6353 13.1739 60.8273 12.8979 61.0193 12.6179C61.0913 12.5059 61.1233 12.4339 61.1153 12.4019C61.1153 12.3619 61.0593 12.3179 60.9473 12.2699C60.6673 12.1419 60.4473 11.9699 60.2873 11.7539C60.1273 11.5299 59.9913 11.2859 59.8793 11.0219C59.7673 10.7419 59.6913 10.4619 59.6513 10.1819C59.6193 9.8939 59.6473 9.5979 59.7353 9.2939C59.7753 9.1499 59.8393 9.0219 59.9273 8.9099C60.0153 8.7899 60.1153 8.6819 60.2273 8.5859C60.6193 8.2579 61.0713 8.0299 61.5833 7.9019C61.9433 7.8139 62.2913 7.7699 62.6273 7.7699C62.9633 7.7619 63.2913 7.7539 63.6113 7.7459C63.7473 7.7539 63.9153 7.7579 64.1153 7.7579C64.3233 7.7579 64.5193 7.7579 64.7033 7.7579C64.8953 7.7499 65.0593 7.7459 65.1953 7.7459C65.3313 7.7459 65.4073 7.7459 65.4233 7.7459C65.5913 7.7699 65.7033 7.8139 65.7593 7.8779C65.8153 7.9419 65.8433 8.0579 65.8433 8.2259C65.8433 8.3219 65.8433 8.5139 65.8433 8.8019C65.8433 9.0899 65.8433 9.4379 65.8433 9.8459C65.8433 10.2539 65.8433 10.6979 65.8433 11.1779C65.8513 11.6579 65.8553 12.1339 65.8553 12.6059C65.8553 13.0779 65.8553 13.5259 65.8553 13.9499C65.8553 14.3659 65.8553 14.7139 65.8553 14.9939ZM63.8873 10.1459C63.8793 10.1139 63.8753 10.0659 63.8753 10.0019C63.8753 9.9299 63.8713 9.8579 63.8633 9.7859C63.8473 9.6659 63.7913 9.6019 63.6953 9.5939C63.5753 9.5859 63.3993 9.5779 63.1673 9.5699C62.9433 9.5539 62.7193 9.5579 62.4953 9.5819C62.2793 9.5979 62.0873 9.6459 61.9193 9.7259C61.7513 9.7979 61.6633 9.9179 61.6553 10.0859C61.6473 10.3819 61.7153 10.5979 61.8593 10.7339C62.0033 10.8619 62.1673 10.9459 62.3513 10.9859C62.5353 11.0259 62.7113 11.0419 62.8793 11.0339C63.0553 11.0179 63.1753 11.0139 63.2393 11.0219C63.4153 11.0379 63.5433 11.0339 63.6233 11.0099C63.7113 10.9859 63.7713 10.9419 63.8033 10.8779C63.8353 10.8139 63.8513 10.7219 63.8513 10.6019C63.8593 10.4819 63.8713 10.3299 63.8873 10.1459Z" fill="white"/>
<path d="M67.2895 8.1899V7.9259C67.3055 7.7899 67.3735 7.7339 67.4935 7.7579C67.7975 7.7499 68.0815 7.7499 68.3455 7.7579C68.6175 7.7659 68.8935 7.7619 69.1735 7.7459C69.2775 7.7379 69.3535 7.7539 69.4015 7.7939C69.4575 7.8259 69.5135 7.8779 69.5695 7.9499C69.7855 8.2619 70.0015 8.5939 70.2175 8.9459C70.4335 9.2979 70.6535 9.6499 70.8775 10.0019C71.1095 10.3459 71.3415 10.6899 71.5735 11.0339C71.8135 11.3699 72.0575 11.6819 72.3055 11.9699C72.3615 12.0339 72.4295 12.1099 72.5095 12.1979C72.5895 12.2779 72.6455 12.3179 72.6775 12.3179C72.7095 12.3179 72.7295 12.2579 72.7375 12.1379C72.7455 12.0179 72.7495 11.9139 72.7495 11.8259C72.7415 11.5619 72.7335 11.2739 72.7255 10.9619C72.7255 10.6499 72.7215 10.3379 72.7135 10.0259C72.7055 9.7059 72.6975 9.3899 72.6895 9.0779C72.6895 8.7659 72.6855 8.4779 72.6775 8.2139C72.6695 8.0379 72.6815 7.9259 72.7135 7.8779C72.7535 7.8299 72.8575 7.8019 73.0255 7.7939C73.2575 7.7779 73.4855 7.7659 73.7095 7.7579C73.9335 7.7499 74.1615 7.7499 74.3935 7.7579C74.6015 7.7579 74.7295 7.7859 74.7775 7.8419C74.8255 7.8899 74.8495 8.0139 74.8495 8.2139C74.8495 8.3819 74.8455 8.5739 74.8375 8.7899C74.8375 9.0059 74.8335 9.2259 74.8255 9.4499C74.8255 9.6739 74.8215 9.8939 74.8135 10.1099C74.8135 10.3259 74.8135 10.5179 74.8135 10.6859C74.8295 11.1259 74.8415 11.5659 74.8495 12.0059C74.8655 12.4459 74.8815 12.8899 74.8975 13.3379C74.9135 13.6419 74.9215 13.9459 74.9215 14.2499C74.9215 14.5459 74.9255 14.8459 74.9335 15.1499C74.9335 15.2539 74.9215 15.3219 74.8975 15.3539C74.8735 15.3779 74.8095 15.3899 74.7055 15.3899C74.3695 15.3899 74.0295 15.3899 73.6855 15.3899C73.3495 15.3899 73.0095 15.3819 72.6655 15.3659C72.6175 15.3659 72.5655 15.3539 72.5095 15.3299C72.4535 15.2979 72.4055 15.2619 72.3655 15.2219C72.1335 15.0059 71.9335 14.7899 71.7655 14.5739C71.6775 14.4699 71.5695 14.3299 71.4415 14.1539C71.3135 13.9779 71.1775 13.7859 71.0335 13.5779C70.8975 13.3619 70.7535 13.1419 70.6015 12.9179C70.4575 12.6859 70.3215 12.4739 70.1935 12.2819C70.0655 12.0899 69.9535 11.9259 69.8575 11.7899C69.7695 11.6459 69.7095 11.5499 69.6775 11.5019C69.6695 11.4859 69.6535 11.4779 69.6295 11.4779C69.6055 11.4779 69.5855 11.4739 69.5695 11.4659C69.5615 11.4739 69.5575 11.4819 69.5575 11.4899C69.5495 11.4979 69.5455 11.5179 69.5455 11.5499C69.5455 11.6939 69.5455 11.8819 69.5455 12.1139C69.5455 12.3379 69.5495 12.5219 69.5575 12.6659C69.5655 13.0499 69.5735 13.4339 69.5815 13.8179C69.5895 14.2019 69.6015 14.5859 69.6175 14.9699C69.6175 15.1539 69.5895 15.2739 69.5335 15.3299C69.4775 15.3859 69.3575 15.4099 69.1735 15.4019C69.0455 15.3939 68.9175 15.3859 68.7895 15.3779C68.6695 15.3699 68.5455 15.3659 68.4175 15.3659C68.2895 15.3739 68.1375 15.3739 67.9615 15.3659C67.7935 15.3579 67.6415 15.3659 67.5055 15.3899C67.4015 15.4139 67.3375 15.3739 67.3135 15.2699C67.2975 15.2059 67.2935 15.1539 67.3015 15.1139C67.3095 15.0739 67.3135 15.0219 67.3135 14.9579C67.2895 14.4139 67.2815 13.8739 67.2895 13.3379C67.2975 12.8019 67.2935 12.2659 67.2775 11.7299C67.2695 11.4419 67.2695 11.1539 67.2775 10.8659C67.2855 10.5779 67.2895 10.2899 67.2895 10.0019C67.2895 10.0019 67.2855 9.9339 67.2775 9.7979C67.2775 9.6539 67.2775 9.4859 67.2775 9.2939C67.2775 9.1019 67.2775 8.9059 67.2775 8.7059C67.2855 8.4979 67.2895 8.3259 67.2895 8.1899Z" fill="white"/>
<path d="M37.9064 15.0392C37.9021 15.2605 37.8715 15.4038 37.8146 15.4692C37.7672 15.5236 37.6507 15.5545 37.4652 15.562L36.7423 15.5479C36.5105 15.5545 36.274 15.5554 36.0331 15.5507C35.8846 15.5589 35.7923 15.5405 35.7561 15.4955C35.7199 15.4505 35.6989 15.3394 35.693 15.1621C35.6974 14.4647 35.7062 13.7729 35.7196 13.0867C35.7329 12.4006 35.7418 11.7088 35.7461 11.0113C35.7443 10.6238 35.7434 10.1975 35.7432 9.73252C35.7524 9.25662 35.7516 8.82482 35.7406 8.4371C35.7296 8.04938 35.7526 7.82033 35.7526 7.82033C35.7708 6.88318 35.7661 5.28222 35.7661 5.28222C35.7683 5.17154 35.7975 5.10015 35.8537 5.06803C35.9102 5.02484 35.9755 5.00397 36.0496 5.00541C36.3321 5.01092 36.5429 5.03484 36.8922 5.04165C37.1034 5.04576 37.1165 5.0428 37.5371 5.05099C37.6944 5.06513 37.8185 5.11737 37.9095 5.20771C38.0004 5.29805 38.049 5.42078 38.0553 5.57591C38.0553 5.57591 38.0638 7.67405 38.0616 7.78384L38.0551 8.11682L38.039 8.94687C38.0319 9.31209 38.0193 9.72149 38.0011 10.1751L37.9733 11.6028C37.9731 12.0899 37.964 12.5603 37.9459 13.0138L37.9223 14.2257L37.9064 15.0392Z" fill="white"/>
<path d="M35.3974 7.65918C35.2262 7.66459 35.2039 7.64175 35.0489 7.63943L33.5524 7.61704C33.4458 7.61544 33.3587 7.6093 33.291 7.5986C33.2331 7.58804 33.1849 7.56794 33.1466 7.5383C33.118 7.50881 33.0944 7.46486 33.0759 7.40645C33.0671 7.34818 33.0586 7.26571 33.0506 7.15901C33.0355 6.86813 33.0253 6.57731 33.02 6.28657L33.0333 5.40026C33.0347 5.3034 33.0647 5.24087 33.1233 5.21268C33.182 5.1748 33.2501 5.15645 33.3276 5.1576C34.4904 5.14594 35.6481 5.14873 36.8008 5.16597C37.9535 5.18322 39.1107 5.21991 40.2725 5.27605C40.4371 5.2882 40.5672 5.33375 40.6629 5.41269C40.7586 5.49163 40.8103 5.59898 40.8179 5.73473C40.833 6.02562 40.8383 6.31636 40.834 6.60695L40.8504 7.45011C40.8478 7.62447 40.7546 7.70058 40.5709 7.67845C40.3773 7.66587 40.1885 7.65336 40.0046 7.64092C39.8207 7.62848 39.6368 7.62088 39.4527 7.61813C39.0751 7.60279 38.6973 7.59713 38.3194 7.60117L35.3974 7.65918Z" fill="white"/>
<path d="M57.9964 11.5563C57.955 11.9307 57.893 12.2929 57.8102 12.6429C57.7274 12.9929 57.6033 13.3266 57.4378 13.644C57.2805 13.9533 57.0778 14.2422 56.8295 14.5108C56.5895 14.7713 56.2956 14.9992 55.948 15.1945C55.6749 15.3491 55.3935 15.4672 55.1039 15.5485C54.8142 15.6299 54.5121 15.6706 54.1976 15.6706C53.6845 15.6706 53.2251 15.6096 52.8196 15.4875C52.4223 15.3573 52.0706 15.1945 51.7644 14.9992C51.4664 14.7957 51.2099 14.5718 50.9947 14.3277C50.7878 14.0754 50.614 13.8312 50.4733 13.5952C50.3408 13.351 50.2415 13.1272 50.1753 12.9237C50.1091 12.7202 50.0719 12.5574 50.0636 12.4353C50.047 12.2156 50.0305 11.9958 50.0139 11.7761C49.9891 11.5563 49.9974 11.3325 50.0388 11.1046C50.1215 10.7058 50.2581 10.3151 50.4484 9.93256C50.6471 9.55002 50.8954 9.20411 51.1933 8.89482C51.4995 8.58554 51.8596 8.32509 52.2734 8.11347C52.6872 7.89371 53.1507 7.75535 53.6638 7.69837C53.97 7.65768 54.2721 7.66175 54.57 7.71058C54.8763 7.75942 55.1742 7.83674 55.4639 7.94255C55.9605 8.12975 56.3784 8.39427 56.7177 8.73611C57.0571 9.06981 57.3343 9.47677 57.5495 9.95698C57.6654 10.2174 57.773 10.4738 57.8723 10.7261C57.9716 10.9784 58.013 11.2552 57.9964 11.5563Z" fill="white"/>
<path d="M56 11.5865C56 11.4829 55.9956 11.4053 55.9869 11.3535C55.9869 11.2931 55.9825 11.2456 55.9738 11.2111C55.9651 11.1766 55.9564 11.1464 55.9477 11.1205C55.939 11.0859 55.9303 11.0428 55.9216 10.991C55.8954 10.8616 55.8214 10.7235 55.6994 10.5768C55.5862 10.4214 55.4424 10.279 55.2682 10.1496C55.1027 10.0115 54.9154 9.89932 54.7063 9.81302C54.5059 9.71809 54.3099 9.67063 54.1182 9.67063C53.7262 9.67063 53.3952 9.7483 53.1251 9.90364C52.8637 10.059 52.6503 10.2532 52.4848 10.4862C52.328 10.7105 52.2104 10.9565 52.132 11.224C52.0535 11.4916 52.01 11.7375 52.0013 11.9619C51.9926 12.1086 52.0274 12.2812 52.1058 12.4797C52.1929 12.6695 52.3193 12.8551 52.4848 13.0363C52.659 13.2089 52.8681 13.3599 53.112 13.4894C53.3647 13.6102 53.6478 13.6706 53.9614 13.6706C54.3099 13.6706 54.6104 13.6016 54.8631 13.4635C55.1157 13.3168 55.3248 13.1399 55.4903 12.9328C55.6646 12.7256 55.7909 12.5013 55.8693 12.2596C55.9564 12.018 56 11.7936 56 11.5865Z" fill="black"/>
</svg>
