<svg class="svg-developer" viewBox="0 0 107 20" fill="none" xmlns="http://www.w3.org/2000/svg">
<path d="M24.232 7.07527C24.392 7.08327 24.552 7.09127 24.712 7.09927C24.88 7.09927 25.048 7.09927 25.216 7.09927C25.304 7.09927 25.356 7.11927 25.372 7.15927C25.396 7.19927 25.408 7.25527 25.408 7.32727C25.416 7.55127 25.42 7.77527 25.42 7.99927C25.42 8.22327 25.424 8.44327 25.432 8.65927C25.432 8.81127 25.416 8.91127 25.384 8.95927C25.352 8.99927 25.256 9.01927 25.096 9.01927C24.808 9.01927 24.52 9.01927 24.232 9.01927C23.944 9.01927 23.656 9.01527 23.368 9.00727C23.16 9.00727 22.956 9.00727 22.756 9.00727C22.556 8.99927 22.352 8.99527 22.144 8.99527C22.064 8.99527 21.984 8.99527 21.904 8.99527C21.832 8.98727 21.756 8.98727 21.676 8.99527C21.508 9.01127 21.404 9.03927 21.364 9.07927C21.332 9.11927 21.312 9.21927 21.304 9.37927C21.296 9.53127 21.288 9.66727 21.28 9.78727C21.28 9.90727 21.276 10.0433 21.268 10.1953C21.268 10.3793 21.284 10.4953 21.316 10.5433C21.348 10.5833 21.46 10.6113 21.652 10.6273C21.884 10.6513 22.116 10.6593 22.348 10.6513C22.588 10.6353 22.824 10.6353 23.056 10.6513C23.144 10.6593 23.236 10.6633 23.332 10.6633C23.428 10.6553 23.52 10.6553 23.608 10.6633C23.752 10.6793 23.856 10.6873 23.92 10.6873C23.992 10.6873 24.04 10.7033 24.064 10.7353C24.088 10.7593 24.1 10.8033 24.1 10.8673C24.1 10.9313 24.108 11.0273 24.124 11.1553C24.14 11.3153 24.148 11.4793 24.148 11.6473C24.148 11.8153 24.144 11.9793 24.136 12.1393C24.136 12.2433 24.12 12.3113 24.088 12.3433C24.056 12.3673 23.988 12.3793 23.884 12.3793C23.524 12.3873 23.164 12.3913 22.804 12.3913C22.444 12.3913 22.084 12.3953 21.724 12.4033C21.692 12.4033 21.66 12.4033 21.628 12.4033C21.604 12.3953 21.576 12.3913 21.544 12.3913C21.4 12.3913 21.312 12.4033 21.28 12.4273C21.256 12.4513 21.244 12.5313 21.244 12.6673C21.236 12.8833 21.232 13.1273 21.232 13.3993C21.232 13.6713 21.228 13.9153 21.22 14.1313C21.22 14.2913 21.212 14.4153 21.196 14.5033C21.188 14.5833 21.164 14.6433 21.124 14.6833C21.084 14.7153 21.024 14.7313 20.944 14.7313C20.864 14.7393 20.748 14.7433 20.596 14.7433C20.396 14.7353 20.2 14.7313 20.008 14.7313C19.816 14.7233 19.62 14.7153 19.42 14.7073C19.26 14.6913 19.16 14.6673 19.12 14.6353C19.08 14.5953 19.056 14.5033 19.048 14.3593C19.04 13.9593 19.036 13.5633 19.036 13.1713C19.036 12.7713 19.032 12.3713 19.024 11.9713C19.024 11.8193 19.02 11.5633 19.012 11.2033C19.004 10.8353 19 10.4433 19 10.0273C19 9.61127 19 9.21527 19 8.83927C19.008 8.45527 19.02 8.17127 19.036 7.98727C19.052 7.86727 19.056 7.76727 19.048 7.68727C19.048 7.59927 19.056 7.49127 19.072 7.36327C19.08 7.21927 19.1 7.13527 19.132 7.11127C19.164 7.07927 19.256 7.05927 19.408 7.05127H19.6C19.728 7.05927 19.912 7.06327 20.152 7.06327C20.4 7.06327 20.672 7.06327 20.968 7.06327C21.272 7.06327 21.588 7.06327 21.916 7.06327C22.244 7.06327 22.556 7.06327 22.852 7.06327C23.156 7.06327 23.428 7.06727 23.668 7.07527C23.916 7.07527 24.104 7.07527 24.232 7.07527Z" fill="white"/>
<path d="M30.4961 7.81927C30.4961 7.65127 30.5001 7.52327 30.5081 7.43527C30.5161 7.33927 30.5401 7.27127 30.5801 7.23127C30.6281 7.18327 30.6961 7.15527 30.7841 7.14727C30.8721 7.13127 31.0001 7.11927 31.1681 7.11127C31.2561 7.11127 31.4321 7.11127 31.6961 7.11127C31.9601 7.10327 32.2481 7.09927 32.5601 7.09927C32.8721 7.09927 33.1761 7.10327 33.4721 7.11127C33.7681 7.11927 33.9961 7.13127 34.1561 7.14727C34.3481 7.16327 34.5401 7.18327 34.7321 7.20727C34.9241 7.22327 35.1121 7.26327 35.2961 7.32727C35.4641 7.38327 35.6281 7.45527 35.7881 7.54327C35.9561 7.63127 36.1121 7.73127 36.2561 7.84327C36.4961 8.00327 36.7041 8.21927 36.8801 8.49127C37.0641 8.75527 37.2161 9.02727 37.3361 9.30727C37.4641 9.58727 37.5641 9.85127 37.6361 10.0993C37.7081 10.3473 37.7561 10.5353 37.7801 10.6633C37.8841 11.2393 37.8481 11.7633 37.6721 12.2353C37.4961 12.7073 37.2121 13.1473 36.8201 13.5553C36.5481 13.8353 36.2521 14.0633 35.9321 14.2393C35.6121 14.4153 35.2561 14.5313 34.8641 14.5873C34.3601 14.6593 33.8601 14.7073 33.3641 14.7313C32.8761 14.7633 32.3801 14.7713 31.8761 14.7553C31.6681 14.7553 31.4641 14.7473 31.2641 14.7313C31.0721 14.7153 30.8761 14.7073 30.6761 14.7073C30.5881 14.7153 30.5321 14.6993 30.5081 14.6593C30.4921 14.6193 30.4841 14.5673 30.4841 14.5033C30.4841 14.4713 30.4801 14.4433 30.4721 14.4193C30.4721 14.3873 30.4721 14.3553 30.4721 14.3233C30.4721 13.7553 30.4721 13.1913 30.4721 12.6313C30.4801 12.0633 30.4841 11.4953 30.4841 10.9273C30.4841 10.9273 30.4841 10.8153 30.4841 10.5913C30.4921 10.3673 30.4961 10.0953 30.4961 9.77527C30.4961 9.44727 30.4961 9.10727 30.4961 8.75527C30.4961 8.39527 30.4961 8.08327 30.4961 7.81927ZM32.8721 10.9513C32.8721 11.2153 32.8681 11.4793 32.8601 11.7433C32.8601 12.0073 32.8561 12.2713 32.8481 12.5353C32.8481 12.6953 32.9281 12.7793 33.0881 12.7873C33.4321 12.8193 33.7601 12.7953 34.0721 12.7153C34.3841 12.6353 34.6801 12.4913 34.9601 12.2833C35.0961 12.1793 35.2161 12.0673 35.3201 11.9473C35.4241 11.8273 35.4961 11.6833 35.5361 11.5153C35.5921 11.2913 35.6081 11.0673 35.5841 10.8433C35.5681 10.6193 35.5241 10.3953 35.4521 10.1713C35.3881 10.0033 35.3001 9.85527 35.1881 9.72727C35.0761 9.59127 34.9321 9.48727 34.7561 9.41527C34.5001 9.30327 34.2401 9.23927 33.9761 9.22327C33.7201 9.20727 33.4601 9.19927 33.1961 9.19927C33.0361 9.19927 32.9401 9.21527 32.9081 9.24727C32.8841 9.27927 32.8721 9.37527 32.8721 9.53527C32.8641 9.65527 32.8601 9.79527 32.8601 9.95527C32.8681 10.1153 32.8721 10.2713 32.8721 10.4233V10.9513Z" fill="white"/>
<path d="M39.0522 9.55927C39.0522 9.25527 39.0442 8.95527 39.0282 8.65927C39.0202 8.35527 39.0082 8.05127 38.9922 7.74727C38.9922 7.70727 38.9882 7.66727 38.9802 7.62727C38.9802 7.57927 38.9802 7.53127 38.9802 7.48327C38.9802 7.34727 38.9962 7.24727 39.0282 7.18327C39.0602 7.11927 39.1682 7.09127 39.3522 7.09927C39.5602 7.10727 39.8202 7.11127 40.1322 7.11127C40.4522 7.11127 40.7842 7.11127 41.1282 7.11127C41.4802 7.11127 41.8362 7.11127 42.1962 7.11127C42.5562 7.11127 42.8842 7.11127 43.1802 7.11127C43.4842 7.10327 43.7442 7.09927 43.9602 7.09927C44.1762 7.09927 44.3202 7.09927 44.3922 7.09927C44.5522 7.09927 44.6362 7.17527 44.6442 7.32727C44.6522 7.53527 44.6562 7.76327 44.6562 8.01127C44.6562 8.25927 44.6562 8.48727 44.6562 8.69527C44.6562 8.71927 44.6362 8.74727 44.5962 8.77927C44.5642 8.81127 44.5362 8.82727 44.5122 8.82727C44.4002 8.84327 44.2882 8.85927 44.1762 8.87527C44.0722 8.88327 43.9642 8.88727 43.8522 8.88727C43.4602 8.89527 43.0802 8.89927 42.7122 8.89927C42.3442 8.89927 41.9642 8.90327 41.5722 8.91127C41.4362 8.91127 41.3282 8.91527 41.2482 8.92327C41.1762 8.93127 41.1242 8.95527 41.0922 8.99527C41.0602 9.02727 41.0442 9.08327 41.0442 9.16327C41.0442 9.23527 41.0482 9.34327 41.0562 9.48727C41.0562 9.56727 41.0522 9.61927 41.0442 9.64327C41.0442 9.66727 41.0482 9.71527 41.0562 9.78727C41.0642 9.88327 41.0722 9.95927 41.0802 10.0153C41.0882 10.0713 41.1042 10.1153 41.1282 10.1473C41.1522 10.1713 41.1922 10.1873 41.2482 10.1953C41.3042 10.2033 41.3842 10.2113 41.4882 10.2193C41.5682 10.2353 41.6762 10.2393 41.8122 10.2313C41.9562 10.2233 42.0722 10.2233 42.1602 10.2313C42.2562 10.2393 42.3242 10.2553 42.3642 10.2793C42.4122 10.2953 42.4442 10.3233 42.4602 10.3633C42.4762 10.4033 42.4802 10.4553 42.4722 10.5193C42.4722 10.5833 42.4722 10.6633 42.4722 10.7593C42.4722 10.7913 42.4682 10.8233 42.4602 10.8553C42.4602 10.8793 42.4642 10.9073 42.4722 10.9393C42.4722 11.0833 42.4002 11.1553 42.2562 11.1553C42.0162 11.1713 41.7802 11.1713 41.5482 11.1553C41.4202 11.1553 41.3202 11.1593 41.2482 11.1673C41.1762 11.1673 41.1242 11.1833 41.0922 11.2153C41.0682 11.2473 41.0522 11.2993 41.0442 11.3713C41.0442 11.4353 41.0442 11.5273 41.0442 11.6473V12.5353C41.0522 12.7033 41.1362 12.7873 41.2962 12.7873H44.2122C44.3562 12.7713 44.4562 12.7833 44.5122 12.8233C44.5682 12.8553 44.6002 12.9433 44.6082 13.0873C44.6242 13.3113 44.6322 13.5593 44.6322 13.8313C44.6402 14.1033 44.6402 14.3513 44.6322 14.5753C44.6322 14.6073 44.6122 14.6433 44.5722 14.6833C44.5402 14.7153 44.5082 14.7353 44.4762 14.7433C44.4282 14.7513 44.3162 14.7553 44.1402 14.7553C43.9722 14.7553 43.7642 14.7553 43.5162 14.7553C43.2762 14.7553 43.0122 14.7513 42.7242 14.7433C42.4362 14.7433 42.1522 14.7393 41.8722 14.7313C41.5922 14.7313 41.3282 14.7313 41.0802 14.7313C40.8322 14.7313 40.6322 14.7313 40.4802 14.7313C40.2962 14.7393 40.1082 14.7393 39.9162 14.7313C39.7242 14.7233 39.5362 14.7153 39.3522 14.7073C39.2002 14.6993 39.1002 14.6753 39.0522 14.6353C39.0122 14.5873 38.9922 14.4873 38.9922 14.3353C38.9922 14.0713 38.9922 13.8073 38.9922 13.5433C38.9922 13.2793 38.9962 13.0153 39.0042 12.7513C39.0042 12.5673 39.0042 12.3913 39.0042 12.2233C39.0122 12.0473 39.0202 11.8673 39.0282 11.6833C39.0202 11.6833 39.0162 11.6073 39.0162 11.4553C39.0242 11.2953 39.0282 11.1073 39.0282 10.8913C39.0362 10.6673 39.0402 10.4353 39.0402 10.1953C39.0482 9.94727 39.0522 9.73527 39.0522 9.55927Z" fill="white"/>
<path d="M48.0643 7.11127C48.1363 7.11127 48.1843 7.13527 48.2083 7.18327C48.2323 7.22327 48.2523 7.26327 48.2683 7.30327C48.3083 7.38327 48.3403 7.46327 48.3643 7.54327C48.3883 7.62327 48.4123 7.70327 48.4363 7.78327C48.5883 8.33527 48.7363 8.88727 48.8803 9.43927C49.0243 9.98327 49.1723 10.5313 49.3243 11.0833C49.3483 11.1633 49.3803 11.2513 49.4203 11.3473C49.4363 11.3633 49.4523 11.3753 49.4683 11.3833C49.4923 11.3913 49.5123 11.4033 49.5283 11.4193C49.5443 11.4193 49.5643 11.3993 49.5883 11.3593C49.6203 11.2793 49.6443 11.2233 49.6603 11.1913C49.8923 10.5833 50.1363 9.97927 50.3923 9.37927C50.6483 8.77127 50.8683 8.15527 51.0523 7.53127C51.1403 7.25127 51.3163 7.11127 51.5803 7.11127C51.7003 7.11127 51.8603 7.11127 52.0603 7.11127C52.2603 7.11127 52.4563 7.11127 52.6483 7.11127C52.8483 7.11127 53.0203 7.11127 53.1643 7.11127C53.3163 7.11127 53.4003 7.11127 53.4163 7.11127C53.5283 7.13527 53.5683 7.20327 53.5363 7.31527C53.5363 7.34727 53.5283 7.37927 53.5123 7.41127C53.5043 7.43527 53.4923 7.46327 53.4763 7.49527C53.3883 7.71927 53.3043 7.94327 53.2243 8.16727C53.1443 8.39127 53.0603 8.61127 52.9723 8.82727C52.7323 9.39527 52.4883 9.95927 52.2403 10.5193C52.0003 11.0713 51.7643 11.6273 51.5323 12.1873C51.3723 12.5713 51.2163 12.9513 51.0643 13.3273C50.9123 13.6953 50.7563 14.0753 50.5963 14.4673C50.5323 14.6273 50.4763 14.7153 50.4283 14.7313C50.3803 14.7393 50.2803 14.7433 50.1283 14.7433H48.1243C48.0523 14.7353 48.0083 14.7073 47.9923 14.6593C47.9763 14.6113 47.9603 14.5593 47.9443 14.5033C47.8803 14.2953 47.8163 14.0913 47.7523 13.8913C47.6963 13.6833 47.6403 13.4753 47.5843 13.2673C47.4243 12.6833 47.2683 12.1033 47.1163 11.5273C46.9723 10.9433 46.8203 10.3633 46.6603 9.78727C46.5643 9.44327 46.4643 9.10327 46.3603 8.76727C46.2563 8.43127 46.1523 8.09527 46.0483 7.75927C46.0323 7.71127 46.0163 7.66727 46.0003 7.62727C45.9923 7.57927 45.9803 7.53127 45.9643 7.48327C45.9243 7.33127 45.9283 7.23127 45.9763 7.18327C46.0243 7.13527 46.1283 7.11527 46.2883 7.12327C46.3203 7.12327 46.4163 7.12327 46.5763 7.12327C46.7363 7.11527 46.9123 7.11127 47.1043 7.11127C47.3043 7.11127 47.4963 7.11127 47.6803 7.11127C47.8643 7.11127 47.9923 7.11127 48.0643 7.11127Z" fill="white"/>
<path d="M54.6733 9.55927C54.6733 9.25527 54.6653 8.95527 54.6493 8.65927C54.6413 8.35527 54.6293 8.05127 54.6133 7.74727C54.6133 7.70727 54.6093 7.66727 54.6013 7.62727C54.6013 7.57927 54.6013 7.53127 54.6013 7.48327C54.6013 7.34727 54.6173 7.24727 54.6493 7.18327C54.6813 7.11927 54.7893 7.09127 54.9733 7.09927C55.1813 7.10727 55.4413 7.11127 55.7533 7.11127C56.0733 7.11127 56.4053 7.11127 56.7493 7.11127C57.1013 7.11127 57.4573 7.11127 57.8173 7.11127C58.1773 7.11127 58.5053 7.11127 58.8013 7.11127C59.1053 7.10327 59.3653 7.09927 59.5813 7.09927C59.7973 7.09927 59.9413 7.09927 60.0133 7.09927C60.1733 7.09927 60.2573 7.17527 60.2653 7.32727C60.2733 7.53527 60.2773 7.76327 60.2773 8.01127C60.2773 8.25927 60.2773 8.48727 60.2773 8.69527C60.2773 8.71927 60.2573 8.74727 60.2173 8.77927C60.1853 8.81127 60.1573 8.82727 60.1333 8.82727C60.0213 8.84327 59.9093 8.85927 59.7973 8.87527C59.6933 8.88327 59.5853 8.88727 59.4733 8.88727C59.0813 8.89527 58.7013 8.89927 58.3333 8.89927C57.9653 8.89927 57.5853 8.90327 57.1933 8.91127C57.0573 8.91127 56.9493 8.91527 56.8693 8.92327C56.7973 8.93127 56.7453 8.95527 56.7133 8.99527C56.6813 9.02727 56.6653 9.08327 56.6653 9.16327C56.6653 9.23527 56.6693 9.34327 56.6773 9.48727C56.6773 9.56727 56.6733 9.61927 56.6653 9.64327C56.6653 9.66727 56.6693 9.71527 56.6773 9.78727C56.6853 9.88327 56.6933 9.95927 56.7013 10.0153C56.7093 10.0713 56.7253 10.1153 56.7493 10.1473C56.7733 10.1713 56.8133 10.1873 56.8693 10.1953C56.9253 10.2033 57.0053 10.2113 57.1093 10.2193C57.1893 10.2353 57.2973 10.2393 57.4333 10.2313C57.5773 10.2233 57.6933 10.2233 57.7813 10.2313C57.8773 10.2393 57.9453 10.2553 57.9853 10.2793C58.0333 10.2953 58.0653 10.3233 58.0813 10.3633C58.0973 10.4033 58.1013 10.4553 58.0933 10.5193C58.0933 10.5833 58.0933 10.6633 58.0933 10.7593C58.0933 10.7913 58.0893 10.8233 58.0813 10.8553C58.0813 10.8793 58.0853 10.9073 58.0933 10.9393C58.0933 11.0833 58.0213 11.1553 57.8773 11.1553C57.6373 11.1713 57.4013 11.1713 57.1693 11.1553C57.0413 11.1553 56.9413 11.1593 56.8693 11.1673C56.7973 11.1673 56.7453 11.1833 56.7133 11.2153C56.6893 11.2473 56.6733 11.2993 56.6653 11.3713C56.6653 11.4353 56.6653 11.5273 56.6653 11.6473V12.5353C56.6733 12.7033 56.7573 12.7873 56.9173 12.7873H59.8333C59.9773 12.7713 60.0773 12.7833 60.1333 12.8233C60.1893 12.8553 60.2213 12.9433 60.2293 13.0873C60.2453 13.3113 60.2533 13.5593 60.2533 13.8313C60.2613 14.1033 60.2613 14.3513 60.2533 14.5753C60.2533 14.6073 60.2333 14.6433 60.1933 14.6833C60.1613 14.7153 60.1293 14.7353 60.0973 14.7433C60.0493 14.7513 59.9373 14.7553 59.7613 14.7553C59.5933 14.7553 59.3853 14.7553 59.1373 14.7553C58.8973 14.7553 58.6333 14.7513 58.3453 14.7433C58.0573 14.7433 57.7733 14.7393 57.4933 14.7313C57.2133 14.7313 56.9493 14.7313 56.7013 14.7313C56.4533 14.7313 56.2533 14.7313 56.1013 14.7313C55.9173 14.7393 55.7293 14.7393 55.5373 14.7313C55.3453 14.7233 55.1573 14.7153 54.9733 14.7073C54.8213 14.6993 54.7213 14.6753 54.6733 14.6353C54.6333 14.5873 54.6133 14.4873 54.6133 14.3353C54.6133 14.0713 54.6133 13.8073 54.6133 13.5433C54.6133 13.2793 54.6173 13.0153 54.6253 12.7513C54.6253 12.5673 54.6253 12.3913 54.6253 12.2233C54.6333 12.0473 54.6413 11.8673 54.6493 11.6833C54.6413 11.6833 54.6373 11.6073 54.6373 11.4553C54.6453 11.2953 54.6493 11.1073 54.6493 10.8913C54.6573 10.6673 54.6613 10.4353 54.6613 10.1953C54.6693 9.94727 54.6733 9.73527 54.6733 9.55927Z" fill="white"/>
<path d="M61.5974 7.33927C61.5974 7.19527 61.6614 7.11927 61.7894 7.11127C62.0214 7.09527 62.2374 7.09127 62.4374 7.09927C62.6454 7.09927 62.8654 7.09527 63.0974 7.08727C63.2814 7.07927 63.4014 7.10327 63.4574 7.15927C63.5134 7.21527 63.5454 7.33527 63.5534 7.51927C63.5774 8.08727 63.5894 8.67927 63.5894 9.29527C63.5974 9.90327 63.6134 10.4913 63.6374 11.0593C63.6454 11.2993 63.6414 11.5273 63.6254 11.7433C63.6174 11.9593 63.6214 12.1833 63.6374 12.4153C63.6454 12.5673 63.6654 12.6593 63.6974 12.6913C63.7294 12.7233 63.8254 12.7393 63.9854 12.7393C64.2654 12.7553 64.5454 12.7633 64.8254 12.7633C65.1054 12.7633 65.3854 12.7633 65.6654 12.7633C65.9214 12.7633 66.1094 12.7633 66.2294 12.7633C66.3494 12.7633 66.4294 12.7873 66.4694 12.8353C66.5174 12.8833 66.5414 12.9633 66.5414 13.0753C66.5494 13.1873 66.5614 13.3553 66.5774 13.5793C66.5934 13.7393 66.6014 13.8953 66.6014 14.0473C66.6094 14.1913 66.6214 14.3433 66.6374 14.5033C66.6454 14.6633 66.5614 14.7433 66.3854 14.7433C66.2014 14.7353 66.0134 14.7313 65.8214 14.7313C65.6294 14.7233 65.4374 14.7193 65.2454 14.7193C64.7414 14.7193 64.2454 14.7193 63.7574 14.7193C63.2694 14.7193 62.7774 14.7153 62.2814 14.7073C62.2334 14.7073 62.1854 14.7073 62.1374 14.7073C62.0974 14.7073 62.0574 14.7033 62.0174 14.6953C61.8574 14.6793 61.7494 14.6433 61.6934 14.5873C61.6374 14.5233 61.6094 14.4073 61.6094 14.2393C61.6094 13.9033 61.6094 13.5673 61.6094 13.2313C61.6174 12.8873 61.6214 12.5473 61.6214 12.2113C61.6214 12.2113 61.6214 12.1273 61.6214 11.9593C61.6214 11.7913 61.6214 11.5713 61.6214 11.2993C61.6214 11.0273 61.6214 10.7193 61.6214 10.3753C61.6294 10.0233 61.6294 9.66727 61.6214 9.30727C61.6214 8.93927 61.6174 8.58727 61.6094 8.25127C61.6094 7.90727 61.6054 7.60327 61.5974 7.33927Z" fill="white"/>
<path d="M76.6934 8.40727C76.7014 8.27127 76.7014 8.13527 76.6934 7.99927C76.6854 7.85527 76.6814 7.71127 76.6814 7.56727C76.6894 7.39927 76.7214 7.28327 76.7774 7.21927C76.8334 7.15527 76.9454 7.11527 77.1134 7.09927C77.2494 7.08327 77.3814 7.07527 77.5094 7.07527C77.6374 7.07527 77.7654 7.07527 77.8934 7.07527C78.3254 7.08327 78.7574 7.08727 79.1894 7.08727C79.6214 7.08727 80.0534 7.09527 80.4854 7.11127C80.9334 7.13527 81.3534 7.21927 81.7454 7.36327C81.8574 7.40327 81.9974 7.49127 82.1654 7.62727C82.3414 7.75527 82.5054 7.92327 82.6574 8.13127C82.8174 8.33127 82.9534 8.56327 83.0654 8.82727C83.1774 9.08327 83.2334 9.35527 83.2334 9.64327C83.2334 10.0913 83.1574 10.4713 83.0054 10.7833C82.8534 11.0953 82.6574 11.3633 82.4174 11.5873C82.1774 11.8033 81.9094 11.9833 81.6134 12.1273C81.3254 12.2633 81.0414 12.3753 80.7614 12.4633C80.2894 12.6073 79.8014 12.6553 79.2974 12.6073C79.1294 12.5913 79.0294 12.6073 78.9974 12.6553C78.9654 12.7033 78.9494 12.8193 78.9494 13.0033C78.9414 13.2433 78.9374 13.4673 78.9374 13.6753C78.9454 13.8753 78.9574 14.0913 78.9734 14.3233C78.9814 14.4913 78.9574 14.6113 78.9014 14.6833C78.8454 14.7553 78.7334 14.7873 78.5654 14.7793C78.3174 14.7793 78.0574 14.7833 77.7854 14.7913C77.5134 14.8073 77.2534 14.8073 77.0054 14.7913C76.8934 14.7833 76.8174 14.7593 76.7774 14.7193C76.7454 14.6713 76.7214 14.5873 76.7054 14.4673C76.6894 14.2513 76.6854 14.0353 76.6934 13.8193C76.7014 13.6033 76.7014 13.3873 76.6934 13.1713C76.6774 12.7633 76.6654 12.3633 76.6574 11.9713C76.6574 11.5713 76.6494 11.1673 76.6334 10.7593C76.6334 10.7593 76.6334 10.6753 76.6334 10.5073C76.6414 10.3313 76.6454 10.1233 76.6454 9.88327C76.6534 9.63527 76.6614 9.37527 76.6694 9.10327C76.6774 8.83127 76.6854 8.59927 76.6934 8.40727ZM79.2614 8.49127C79.1014 8.50727 79.0054 8.53127 78.9734 8.56327C78.9414 8.59527 78.9294 8.69127 78.9374 8.85127C78.9374 9.06727 78.9374 9.32327 78.9374 9.61927C78.9454 9.91527 78.9534 10.1713 78.9614 10.3873C78.9694 10.4993 78.9894 10.5753 79.0214 10.6153C79.0534 10.6553 79.1214 10.6713 79.2254 10.6633C79.3054 10.6553 79.4414 10.6473 79.6334 10.6393C79.8334 10.6313 80.0334 10.5953 80.2334 10.5313C80.4414 10.4673 80.6214 10.3673 80.7734 10.2313C80.9254 10.0953 81.0014 9.89527 81.0014 9.63127C81.0014 9.42327 80.9574 9.25127 80.8694 9.11527C80.7894 8.97127 80.6854 8.85527 80.5574 8.76727C80.4374 8.67927 80.3014 8.61527 80.1494 8.57527C80.0054 8.53527 79.8694 8.51127 79.7414 8.50327C79.6134 8.48727 79.5054 8.48327 79.4174 8.49127C79.3294 8.49127 79.2774 8.49127 79.2614 8.49127Z" fill="white"/>
<path d="M84.2866 9.55927C84.2866 9.25527 84.2786 8.95527 84.2626 8.65927C84.2546 8.35527 84.2426 8.05127 84.2266 7.74727C84.2266 7.70727 84.2226 7.66727 84.2146 7.62727C84.2146 7.57927 84.2146 7.53127 84.2146 7.48327C84.2146 7.34727 84.2306 7.24727 84.2626 7.18327C84.2946 7.11927 84.4026 7.09127 84.5866 7.09927C84.7946 7.10727 85.0546 7.11127 85.3666 7.11127C85.6866 7.11127 86.0186 7.11127 86.3626 7.11127C86.7146 7.11127 87.0706 7.11127 87.4306 7.11127C87.7906 7.11127 88.1186 7.11127 88.4146 7.11127C88.7186 7.10327 88.9786 7.09927 89.1946 7.09927C89.4106 7.09927 89.5546 7.09927 89.6266 7.09927C89.7866 7.09927 89.8706 7.17527 89.8786 7.32727C89.8866 7.53527 89.8906 7.76327 89.8906 8.01127C89.8906 8.25927 89.8906 8.48727 89.8906 8.69527C89.8906 8.71927 89.8706 8.74727 89.8306 8.77927C89.7986 8.81127 89.7706 8.82727 89.7466 8.82727C89.6346 8.84327 89.5226 8.85927 89.4106 8.87527C89.3066 8.88327 89.1986 8.88727 89.0866 8.88727C88.6946 8.89527 88.3146 8.89927 87.9466 8.89927C87.5786 8.89927 87.1986 8.90327 86.8066 8.91127C86.6706 8.91127 86.5626 8.91527 86.4826 8.92327C86.4106 8.93127 86.3586 8.95527 86.3266 8.99527C86.2946 9.02727 86.2786 9.08327 86.2786 9.16327C86.2786 9.23527 86.2826 9.34327 86.2906 9.48727C86.2906 9.56727 86.2866 9.61927 86.2786 9.64327C86.2786 9.66727 86.2826 9.71527 86.2906 9.78727C86.2986 9.88327 86.3066 9.95927 86.3146 10.0153C86.3226 10.0713 86.3386 10.1153 86.3626 10.1473C86.3866 10.1713 86.4266 10.1873 86.4826 10.1953C86.5386 10.2033 86.6186 10.2113 86.7226 10.2193C86.8026 10.2353 86.9106 10.2393 87.0466 10.2313C87.1906 10.2233 87.3066 10.2233 87.3946 10.2313C87.4906 10.2393 87.5586 10.2553 87.5986 10.2793C87.6466 10.2953 87.6786 10.3233 87.6946 10.3633C87.7106 10.4033 87.7146 10.4553 87.7066 10.5193C87.7066 10.5833 87.7066 10.6633 87.7066 10.7593C87.7066 10.7913 87.7026 10.8233 87.6946 10.8553C87.6946 10.8793 87.6986 10.9073 87.7066 10.9393C87.7066 11.0833 87.6346 11.1553 87.4906 11.1553C87.2506 11.1713 87.0146 11.1713 86.7826 11.1553C86.6546 11.1553 86.5546 11.1593 86.4826 11.1673C86.4106 11.1673 86.3586 11.1833 86.3266 11.2153C86.3026 11.2473 86.2866 11.2993 86.2786 11.3713C86.2786 11.4353 86.2786 11.5273 86.2786 11.6473V12.5353C86.2866 12.7033 86.3706 12.7873 86.5306 12.7873H89.4466C89.5906 12.7713 89.6906 12.7833 89.7466 12.8233C89.8026 12.8553 89.8346 12.9433 89.8426 13.0873C89.8586 13.3113 89.8666 13.5593 89.8666 13.8313C89.8746 14.1033 89.8746 14.3513 89.8666 14.5753C89.8666 14.6073 89.8466 14.6433 89.8066 14.6833C89.7746 14.7153 89.7426 14.7353 89.7106 14.7433C89.6626 14.7513 89.5506 14.7553 89.3746 14.7553C89.2066 14.7553 88.9986 14.7553 88.7506 14.7553C88.5106 14.7553 88.2466 14.7513 87.9586 14.7433C87.6706 14.7433 87.3866 14.7393 87.1066 14.7313C86.8266 14.7313 86.5626 14.7313 86.3146 14.7313C86.0666 14.7313 85.8666 14.7313 85.7146 14.7313C85.5306 14.7393 85.3426 14.7393 85.1506 14.7313C84.9586 14.7233 84.7706 14.7153 84.5866 14.7073C84.4346 14.6993 84.3346 14.6753 84.2866 14.6353C84.2466 14.5873 84.2266 14.4873 84.2266 14.3353C84.2266 14.0713 84.2266 13.8073 84.2266 13.5433C84.2266 13.2793 84.2306 13.0153 84.2386 12.7513C84.2386 12.5673 84.2386 12.3913 84.2386 12.2233C84.2466 12.0473 84.2546 11.8673 84.2626 11.6833C84.2546 11.6833 84.2506 11.6073 84.2506 11.4553C84.2586 11.2953 84.2626 11.1073 84.2626 10.8913C84.2706 10.6673 84.2746 10.4353 84.2746 10.1953C84.2826 9.94727 84.2866 9.73527 84.2866 9.55927Z" fill="white"/>
<path d="M93.9947 7.07527C94.4267 7.09127 94.8547 7.11527 95.2787 7.14727C95.7107 7.17927 96.1347 7.27927 96.5507 7.44727C96.7587 7.53527 96.9467 7.64327 97.1147 7.77127C97.2827 7.89127 97.4267 8.04327 97.5467 8.22727C97.7307 8.49927 97.8586 8.78727 97.9306 9.09127C98.0026 9.38727 98.0267 9.68327 98.0027 9.97927C97.9787 10.2673 97.9147 10.5473 97.8107 10.8193C97.7067 11.0833 97.5706 11.3233 97.4026 11.5393C97.3226 11.6353 97.2227 11.7233 97.1027 11.8033C96.9907 11.8753 96.8787 11.9473 96.7667 12.0193C96.7027 12.0593 96.6627 12.0993 96.6467 12.1393C96.6387 12.1793 96.6546 12.2313 96.6946 12.2953C96.8306 12.5273 96.9667 12.7593 97.1027 12.9913C97.2467 13.2153 97.3907 13.4433 97.5347 13.6753C97.5907 13.7633 97.6587 13.8833 97.7387 14.0353C97.8187 14.1873 97.8907 14.3073 97.9547 14.3953C98.0107 14.4913 98.0187 14.5873 97.9787 14.6833C97.9547 14.7473 97.9187 14.7833 97.8707 14.7913C97.8307 14.7993 97.7827 14.8033 97.7267 14.8033C97.4707 14.7873 97.2186 14.7833 96.9706 14.7913C96.7226 14.7993 96.4707 14.8033 96.2147 14.8033C96.1267 14.8033 96.0627 14.7873 96.0227 14.7553C95.9827 14.7233 95.9426 14.6753 95.9026 14.6113C95.7506 14.3313 95.5827 14.0193 95.3987 13.6753C95.2227 13.3233 95.0547 13.0073 94.8947 12.7273C94.8627 12.6713 94.8307 12.6193 94.7987 12.5713C94.7667 12.5233 94.7347 12.4753 94.7027 12.4273C94.6387 12.3073 94.5307 12.2473 94.3787 12.2473C94.2907 12.2473 94.2067 12.2433 94.1267 12.2353C94.0547 12.2193 93.9747 12.2113 93.8867 12.2113C93.7587 12.2033 93.6707 12.2193 93.6227 12.2593C93.5827 12.2913 93.5627 12.3753 93.5627 12.5113C93.5707 12.8233 93.5787 13.1353 93.5867 13.4473C93.5947 13.7593 93.6026 14.0713 93.6106 14.3833C93.6186 14.4953 93.6067 14.5753 93.5747 14.6233C93.5427 14.6713 93.4747 14.7073 93.3707 14.7313C93.3307 14.7473 93.2867 14.7553 93.2387 14.7553C93.1907 14.7553 93.1467 14.7553 93.1067 14.7553C92.8987 14.7553 92.6947 14.7553 92.4947 14.7553C92.3027 14.7633 92.1027 14.7673 91.8947 14.7673C91.8307 14.7673 91.7707 14.7633 91.7147 14.7553C91.6587 14.7553 91.5987 14.7513 91.5347 14.7433C91.3987 14.7273 91.3187 14.6513 91.2947 14.5153C91.2867 14.4513 91.2747 14.3873 91.2587 14.3233C91.2507 14.2513 91.2467 14.1833 91.2467 14.1193C91.2547 13.7993 91.2587 13.4793 91.2587 13.1593C91.2587 12.8393 91.2667 12.5193 91.2827 12.1993C91.2907 11.8953 91.2947 11.5993 91.2947 11.3113C91.2947 11.0153 91.2947 10.7153 91.2947 10.4113C91.3027 9.92327 91.3027 9.43927 91.2947 8.95927C91.2867 8.47127 91.2827 7.98327 91.2827 7.49527C91.2827 7.31927 91.3067 7.21127 91.3547 7.17127C91.4027 7.12327 91.5187 7.10327 91.7027 7.11127H92.7107C92.7107 7.11127 92.7547 7.11127 92.8427 7.11127C92.9387 7.10327 93.0547 7.09527 93.1907 7.08727C93.3267 7.07927 93.4666 7.07527 93.6106 7.07527C93.7546 7.06727 93.8827 7.06727 93.9947 7.07527ZM93.5867 9.77527C93.5787 9.88727 93.5747 9.99527 93.5747 10.0993V10.5913C93.5747 10.7273 93.6466 10.7953 93.7906 10.7953C93.9506 10.7793 94.1067 10.7713 94.2587 10.7713C94.4187 10.7633 94.5787 10.7513 94.7387 10.7353C94.8987 10.7113 95.0506 10.6673 95.1946 10.6033C95.3466 10.5393 95.4827 10.4433 95.6027 10.3153C95.6907 10.2193 95.7467 10.1033 95.7707 9.96727C95.8027 9.83127 95.8027 9.69927 95.7707 9.57127C95.7467 9.43527 95.6947 9.31927 95.6147 9.22327C95.5347 9.11927 95.4347 9.05127 95.3147 9.01927C94.7707 8.88327 94.2387 8.82727 93.7187 8.85127C93.6947 8.85927 93.6667 8.88327 93.6347 8.92327C93.6107 8.95527 93.5987 8.98327 93.5987 9.00727C93.5907 9.11927 93.5867 9.24727 93.5867 9.39127C93.5867 9.53527 93.5867 9.66327 93.5867 9.77527Z" fill="white"/>
<path d="M17.9956 9.8571C17.9438 10.3251 17.8662 10.7778 17.7628 11.2153C17.6593 11.6528 17.5042 12.0699 17.2973 12.4667C17.1007 12.8533 16.8472 13.2145 16.5369 13.5502C16.2369 13.8758 15.8696 14.1607 15.4351 14.4048C15.0937 14.5981 14.7419 14.7457 14.3799 14.8474C14.0178 14.9491 13.6402 15 13.247 15C12.6056 15 12.0315 14.9237 11.5245 14.7711C11.028 14.6083 10.5883 14.4048 10.2055 14.1607C9.83307 13.9063 9.51236 13.6265 9.24338 13.3213C8.98475 13.0059 8.7675 12.7007 8.59163 12.4057C8.4261 12.1004 8.30195 11.8207 8.21919 11.5663C8.13643 11.312 8.08988 11.1085 8.07953 10.9559C8.05884 10.6812 8.03815 10.4065 8.01746 10.1318C7.98642 9.8571 7.99677 9.57732 8.0485 9.29245C8.15195 8.79393 8.32265 8.30559 8.56059 7.82741C8.80888 7.34924 9.11924 6.91685 9.49167 6.53024C9.87445 6.14364 10.3245 5.81807 10.8417 5.55355C11.359 5.27886 11.9384 5.1059 12.5798 5.03468C12.9625 4.98381 13.3402 4.9889 13.7126 5.04994C14.0954 5.11099 14.4678 5.20764 14.8299 5.3399C15.4506 5.5739 15.973 5.90455 16.3972 6.33185C16.8214 6.74898 17.1679 7.25768 17.4369 7.85794C17.5817 8.1835 17.7162 8.50398 17.8404 8.81937C17.9645 9.13476 18.0163 9.48067 17.9956 9.8571Z" fill="white"/>
<path d="M16 9.39482C16 9.26537 15.9946 9.16829 15.9837 9.10356C15.9837 9.02805 15.9782 8.96872 15.9673 8.92557C15.9564 8.88242 15.9456 8.84466 15.9347 8.8123C15.9238 8.76915 15.9129 8.71521 15.902 8.65049C15.8693 8.48867 15.7768 8.31607 15.6243 8.13269C15.4827 7.93851 15.3031 7.76052 15.0853 7.59871C14.8784 7.42611 14.6442 7.28587 14.3829 7.17799C14.1324 7.05933 13.8874 7 13.6478 7C13.1578 7 12.744 7.09709 12.4064 7.29126C12.0797 7.48544 11.8129 7.72816 11.606 8.01942C11.41 8.29989 11.263 8.60734 11.165 8.94175C11.067 9.27616 11.0125 9.5836 11.0016 9.86408C10.9907 10.0475 11.0343 10.2632 11.1323 10.5113C11.2412 10.7487 11.3991 10.9806 11.606 11.2071C11.8238 11.4229 12.0852 11.6117 12.3901 11.7735C12.7059 11.9245 13.0598 12 13.4518 12C13.8874 12 14.2631 11.9137 14.5789 11.7411C14.8947 11.5577 15.156 11.3366 15.363 11.0777C15.5807 10.8188 15.7386 10.5383 15.8367 10.2362C15.9456 9.9342 16 9.65372 16 9.39482Z" fill="black"/>
<path d="M75.5 10.8857C75.4586 11.2601 75.3965 11.6223 75.3138 11.9723C75.231 12.3222 75.1069 12.6559 74.9413 12.9734C74.7841 13.2826 74.5813 13.5716 74.333 13.8402C74.093 14.1006 73.7992 14.3285 73.4516 14.5239C73.1785 14.6785 72.8971 14.7965 72.6074 14.8779C72.3178 14.9593 72.0157 15 71.7012 15C71.188 15 70.7287 14.939 70.3232 14.8169C69.9259 14.6866 69.5742 14.5239 69.2679 14.3285C68.97 14.125 68.7134 13.9012 68.4983 13.657C68.2913 13.4047 68.1175 13.1606 67.9768 12.9245C67.8444 12.6804 67.7451 12.4565 67.6789 12.2531C67.6127 12.0496 67.5754 11.8868 67.5672 11.7647C67.5506 11.545 67.5341 11.3252 67.5175 11.1054C67.4927 10.8857 67.501 10.6619 67.5423 10.434C67.6251 10.0351 67.7617 9.64447 67.952 9.26193C68.1507 8.87939 68.3989 8.53348 68.6969 8.2242C69.0031 7.91491 69.3631 7.65446 69.7769 7.44284C70.1908 7.22309 70.6542 7.08472 71.1674 7.02775C71.4736 6.98705 71.7757 6.99112 72.0736 7.03996C72.3798 7.08879 72.6778 7.16611 72.9675 7.27192C73.464 7.45912 73.882 7.72364 74.2213 8.06548C74.5606 8.39919 74.8379 8.80614 75.0531 9.28635C75.1689 9.5468 75.2765 9.80318 75.3759 10.0555C75.4752 10.3078 75.5166 10.5845 75.5 10.8857Z" fill="white"/>
<path d="M73.5 10.9159C73.5 10.8123 73.4956 10.7346 73.4869 10.6828C73.4869 10.6224 73.4826 10.575 73.4739 10.5405C73.4652 10.5059 73.4564 10.4757 73.4477 10.4498C73.439 10.4153 73.4303 10.3722 73.4216 10.3204C73.3955 10.1909 73.3214 10.0529 73.1994 9.90615C73.0862 9.75081 72.9425 9.60841 72.7682 9.47896C72.6027 9.34089 72.4154 9.22869 72.2063 9.14239C72.0059 9.04746 71.8099 9 71.6183 9C71.2262 9 70.8952 9.07767 70.6251 9.23301C70.3638 9.38835 70.1503 9.58252 69.9848 9.81553C69.828 10.0399 69.7104 10.2859 69.632 10.5534C69.5536 10.8209 69.51 11.0669 69.5013 11.2913C69.4926 11.438 69.5274 11.6106 69.6058 11.8091C69.693 11.9989 69.8193 12.1845 69.9848 12.3657C70.159 12.5383 70.3681 12.6893 70.6121 12.8188C70.8647 12.9396 71.1478 13 71.4614 13C71.8099 13 72.1105 12.931 72.3631 12.7929C72.6158 12.6462 72.8248 12.4693 72.9904 12.2621C73.1646 12.055 73.2909 11.8306 73.3693 11.589C73.4564 11.3474 73.5 11.123 73.5 10.9159Z" fill="black"/>
</svg>
