<svg width="37" height="10" viewBox="0 0 37 10" fill="none" xmlns="http://www.w3.org/2000/svg">
<path d="M11.8838 6.024V8.736C11.8838 8.864 11.8638 8.944 11.8238 8.976C11.7918 9 11.7078 9.004 11.5718 8.988C11.3078 8.956 11.0438 8.952 10.7798 8.976C10.5158 8.992 10.2398 8.996 9.95181 8.988C9.70381 9.028 9.57981 8.924 9.57981 8.676C9.57181 8.532 9.56781 8.396 9.56781 8.268C9.57581 8.14 9.57981 8 9.57981 7.848C9.58781 7.488 9.59181 7.128 9.59181 6.768C9.59181 6.408 9.59181 6.048 9.59181 5.688C9.59181 5.144 9.58781 4.568 9.57981 3.96C9.57981 3.352 9.57581 2.776 9.56781 2.232C9.56781 2.136 9.56781 2.04 9.56781 1.944C9.57581 1.848 9.58381 1.752 9.59181 1.656C9.60781 1.544 9.62781 1.476 9.65181 1.452C9.68381 1.42 9.75181 1.396 9.85581 1.38C10.1598 1.348 10.4558 1.336 10.7438 1.344C11.0318 1.344 11.3238 1.364 11.6198 1.404C11.7078 1.412 11.7798 1.42 11.8358 1.428C11.8918 1.436 11.9238 1.484 11.9318 1.572C11.9478 1.652 11.9518 1.752 11.9438 1.872C11.9438 1.992 11.9438 2.092 11.9438 2.172C11.9358 2.7 11.9278 3.296 11.9198 3.96C11.9118 4.616 11.8998 5.304 11.8838 6.024Z" fill="white"/>
<path d="M18.3609 1.344C18.5049 1.336 18.5969 1.348 18.6369 1.38C18.6849 1.412 18.7249 1.496 18.7569 1.632C18.8209 1.896 18.8769 2.152 18.9249 2.4C18.9809 2.648 19.0409 2.904 19.1049 3.168C19.2409 3.744 19.3769 4.312 19.5129 4.872C19.6489 5.432 19.7849 5.996 19.9209 6.564C19.9849 6.82 20.0449 7.08 20.1009 7.344C20.1649 7.6 20.2289 7.856 20.2929 8.112C20.3169 8.216 20.3409 8.32 20.3649 8.424C20.3889 8.52 20.4129 8.616 20.4369 8.712C20.4849 8.896 20.4209 9.004 20.2449 9.036H20.1609C19.8729 9.052 19.5849 9.052 19.2969 9.036C19.0089 9.028 18.7249 9.032 18.4449 9.048C18.3249 9.048 18.2489 9.028 18.2169 8.988C18.1929 8.948 18.1729 8.86 18.1569 8.724C18.1329 8.372 18.0689 8.02 17.9649 7.668C17.9489 7.588 17.9129 7.544 17.8569 7.536C17.8089 7.528 17.7649 7.524 17.7249 7.524C17.4369 7.516 17.1489 7.516 16.8609 7.524C16.5729 7.532 16.2889 7.54 16.0089 7.548C15.9449 7.548 15.8969 7.564 15.8649 7.596C15.8329 7.628 15.8089 7.672 15.7929 7.728C15.7449 7.912 15.6929 8.084 15.6369 8.244C15.5889 8.404 15.5409 8.576 15.4929 8.76C15.4689 8.848 15.4369 8.912 15.3969 8.952C15.3649 8.984 15.2929 9 15.1809 9C15.1249 9 15.0009 9 14.8089 9C14.6169 9 14.4169 9 14.2089 9C14.0009 9 13.8089 9 13.6329 9C13.4649 8.992 13.3769 8.988 13.3689 8.988C13.1769 8.972 13.1129 8.872 13.1769 8.688C13.2569 8.44 13.3369 8.2 13.4169 7.968C13.4969 7.736 13.5809 7.5 13.6689 7.26C13.8369 6.724 14.0049 6.192 14.1729 5.664C14.3409 5.128 14.5129 4.592 14.6889 4.056C14.7449 3.872 14.8129 3.648 14.8929 3.384C14.9729 3.12 15.0489 2.864 15.1209 2.616C15.2009 2.368 15.2689 2.156 15.3249 1.98C15.3809 1.804 15.4129 1.708 15.4209 1.692C15.4449 1.612 15.4609 1.548 15.4689 1.5C15.4849 1.452 15.5049 1.416 15.5289 1.392C15.5609 1.368 15.6049 1.352 15.6609 1.344C15.7249 1.336 15.8129 1.332 15.9249 1.332C16.0209 1.332 16.1809 1.336 16.4049 1.344C16.6369 1.344 16.8769 1.344 17.1249 1.344C17.3809 1.344 17.6249 1.344 17.8569 1.344C18.0889 1.344 18.2569 1.344 18.3609 1.344ZM17.4609 6.084C17.5889 6.076 17.6369 6.008 17.6049 5.88C17.5409 5.6 17.4729 5.316 17.4009 5.028C17.3369 4.74 17.2729 4.456 17.2089 4.176C17.2009 4.152 17.1889 4.128 17.1729 4.104C17.1569 4.072 17.1329 4.056 17.1009 4.056C17.0689 4.056 17.0489 4.068 17.0409 4.092C17.0409 4.116 17.0369 4.136 17.0289 4.152C16.9409 4.408 16.8529 4.668 16.7649 4.932C16.6769 5.188 16.5889 5.444 16.5009 5.7C16.4609 5.82 16.4329 5.912 16.4169 5.976C16.4009 6.032 16.4009 6.072 16.4169 6.096C16.4409 6.12 16.4809 6.132 16.5369 6.132C16.6009 6.132 16.6889 6.132 16.8009 6.132C16.8009 6.132 16.8249 6.132 16.8729 6.132C16.9289 6.124 16.9889 6.12 17.0529 6.12C17.1249 6.112 17.1969 6.108 17.2689 6.108C17.3489 6.1 17.4129 6.092 17.4609 6.084Z" fill="white"/>
<path d="M24.445 1.344C24.877 1.36 25.305 1.384 25.729 1.416C26.161 1.448 26.585 1.548 27.001 1.716C27.209 1.804 27.397 1.912 27.565 2.04C27.733 2.16 27.877 2.312 27.997 2.496C28.181 2.768 28.309 3.056 28.381 3.36C28.453 3.656 28.477 3.952 28.453 4.248C28.429 4.536 28.365 4.816 28.261 5.088C28.157 5.352 28.021 5.592 27.853 5.808C27.773 5.904 27.673 5.992 27.553 6.072C27.441 6.144 27.329 6.216 27.217 6.288C27.153 6.328 27.113 6.368 27.097 6.408C27.089 6.448 27.105 6.5 27.145 6.564C27.281 6.796 27.417 7.028 27.553 7.26C27.697 7.484 27.841 7.712 27.985 7.944C28.041 8.032 28.109 8.152 28.189 8.304C28.269 8.456 28.341 8.576 28.405 8.664C28.461 8.76 28.469 8.856 28.429 8.952C28.405 9.016 28.369 9.052 28.321 9.06C28.281 9.068 28.233 9.072 28.177 9.072C27.921 9.056 27.669 9.052 27.421 9.06C27.173 9.068 26.921 9.072 26.665 9.072C26.577 9.072 26.513 9.056 26.473 9.024C26.433 8.992 26.393 8.944 26.353 8.88C26.201 8.6 26.033 8.288 25.849 7.944C25.673 7.592 25.505 7.276 25.345 6.996C25.313 6.94 25.281 6.888 25.249 6.84C25.217 6.792 25.185 6.744 25.153 6.696C25.089 6.576 24.981 6.516 24.829 6.516C24.741 6.516 24.657 6.512 24.577 6.504C24.505 6.488 24.425 6.48 24.337 6.48C24.209 6.472 24.121 6.488 24.073 6.528C24.033 6.56 24.013 6.644 24.013 6.78C24.021 7.092 24.029 7.404 24.037 7.716C24.045 8.028 24.053 8.34 24.061 8.652C24.069 8.764 24.057 8.844 24.025 8.892C23.993 8.94 23.925 8.976 23.821 9C23.781 9.016 23.737 9.024 23.689 9.024C23.641 9.024 23.597 9.024 23.557 9.024C23.349 9.024 23.145 9.024 22.945 9.024C22.753 9.032 22.553 9.036 22.345 9.036C22.281 9.036 22.221 9.032 22.165 9.024C22.109 9.024 22.049 9.02 21.985 9.012C21.849 8.996 21.769 8.92 21.745 8.784C21.737 8.72 21.725 8.656 21.709 8.592C21.701 8.52 21.697 8.452 21.697 8.388C21.705 8.068 21.709 7.748 21.709 7.428C21.709 7.108 21.717 6.788 21.733 6.468C21.741 6.164 21.745 5.868 21.745 5.58C21.745 5.284 21.745 4.984 21.745 4.68C21.753 4.192 21.753 3.708 21.745 3.228C21.737 2.74 21.733 2.252 21.733 1.764C21.733 1.588 21.757 1.48 21.805 1.44C21.853 1.392 21.969 1.372 22.153 1.38H23.161C23.161 1.38 23.205 1.38 23.293 1.38C23.389 1.372 23.505 1.364 23.641 1.356C23.777 1.348 23.917 1.344 24.061 1.344C24.205 1.336 24.333 1.336 24.445 1.344ZM24.037 4.044C24.029 4.156 24.025 4.264 24.025 4.368V4.86C24.025 4.996 24.097 5.064 24.241 5.064C24.401 5.048 24.557 5.04 24.709 5.04C24.869 5.032 25.029 5.02 25.189 5.004C25.349 4.98 25.501 4.936 25.645 4.872C25.797 4.808 25.933 4.712 26.053 4.584C26.141 4.488 26.197 4.372 26.221 4.236C26.253 4.1 26.253 3.968 26.221 3.84C26.197 3.704 26.145 3.588 26.065 3.492C25.985 3.388 25.885 3.32 25.765 3.288C25.221 3.152 24.689 3.096 24.169 3.12C24.145 3.128 24.117 3.152 24.085 3.192C24.061 3.224 24.049 3.252 24.049 3.276C24.041 3.388 24.037 3.516 24.037 3.66C24.037 3.804 24.037 3.932 24.037 4.044Z" fill="white"/>
<path d="M31.528 1.356C31.592 1.356 31.64 1.372 31.672 1.404C31.704 1.428 31.736 1.464 31.768 1.512C31.952 1.784 32.136 2.096 32.32 2.448C32.504 2.792 32.688 3.104 32.872 3.384C32.896 3.416 32.916 3.448 32.932 3.48C32.956 3.504 32.98 3.532 33.004 3.564C33.068 3.652 33.14 3.652 33.22 3.564L33.328 3.42C33.424 3.308 33.544 3.152 33.688 2.952C33.832 2.752 33.968 2.556 34.096 2.364C34.232 2.172 34.348 2.004 34.444 1.86C34.54 1.716 34.592 1.64 34.6 1.632C34.672 1.488 34.752 1.404 34.84 1.38C34.936 1.356 35.052 1.344 35.188 1.344C35.292 1.344 35.424 1.348 35.584 1.356C35.744 1.356 35.9 1.356 36.052 1.356C36.212 1.356 36.352 1.356 36.472 1.356C36.592 1.356 36.664 1.356 36.688 1.356C36.744 1.372 36.78 1.404 36.796 1.452C36.82 1.5 36.812 1.552 36.772 1.608C36.756 1.648 36.732 1.688 36.7 1.728C36.676 1.768 36.648 1.804 36.616 1.836C36.456 2.02 36.296 2.224 36.136 2.448C35.984 2.664 35.824 2.888 35.656 3.12C35.496 3.344 35.336 3.564 35.176 3.78C35.016 3.996 34.86 4.196 34.708 4.38C34.54 4.58 34.364 4.78 34.18 4.98C34.02 5.14 33.944 5.34 33.952 5.58C33.984 6.06 33.992 6.58 33.976 7.14C33.968 7.7 33.98 8.22 34.012 8.7C34.012 8.788 33.996 8.856 33.964 8.904C33.932 8.952 33.868 8.98 33.772 8.988C33.532 9.004 33.304 9.008 33.088 9C32.872 9 32.648 9.004 32.416 9.012C32.304 9.012 32.228 8.992 32.188 8.952C32.156 8.904 32.132 8.824 32.116 8.712C32.116 8.64 32.112 8.508 32.104 8.316C32.104 8.116 32.1 7.9 32.092 7.668C32.092 7.428 32.092 7.196 32.092 6.972C32.092 6.748 32.092 6.576 32.092 6.456C32.092 6.352 32.088 6.232 32.08 6.096C32.072 5.96 32.056 5.824 32.032 5.688C32.008 5.552 31.976 5.424 31.936 5.304C31.896 5.176 31.84 5.064 31.768 4.968C31.584 4.712 31.412 4.452 31.252 4.188C31.1 3.916 30.94 3.652 30.772 3.396C30.612 3.164 30.448 2.9 30.28 2.604C30.12 2.3 29.96 2.032 29.8 1.8C29.776 1.76 29.748 1.728 29.716 1.704C29.684 1.672 29.656 1.636 29.632 1.596C29.584 1.532 29.572 1.48 29.596 1.44C29.628 1.392 29.684 1.364 29.764 1.356C29.796 1.356 29.884 1.356 30.028 1.356C30.172 1.356 30.336 1.36 30.52 1.368C30.704 1.368 30.888 1.368 31.072 1.368C31.256 1.368 31.408 1.364 31.528 1.356Z" fill="white"/>
<path d="M0.0260659 0.845511C0.0260659 0.648226 0.0304102 0.497913 0.0390989 0.394572C0.0477875 0.281837 0.0738534 0.201984 0.117297 0.155011C0.169428 0.0986431 0.243282 0.065762 0.338857 0.0563675C0.434432 0.0375786 0.57345 0.0234867 0.755911 0.0140917C0.851486 0.0140917 1.04264 0.0140917 1.32936 0.0140917C1.61609 0.00469723 1.92888 0 2.26773 0C2.60659 0 2.93676 0.00469723 3.25824 0.0140917C3.57972 0.0234867 3.82734 0.0375786 4.00112 0.0563675C4.20964 0.0751564 4.41817 0.0986428 4.6267 0.126827C4.83523 0.145616 5.03941 0.192589 5.23925 0.267745C5.42171 0.333507 5.59983 0.418059 5.7736 0.521399C5.95606 0.624739 6.12549 0.742172 6.28188 0.873696C6.54254 1.06159 6.76845 1.31524 6.9596 1.63466C7.15944 1.94468 7.32452 2.26409 7.45485 2.5929C7.59387 2.92171 7.70248 3.23173 7.78067 3.52296C7.85887 3.8142 7.911 4.03497 7.93707 4.18528C8.05002 4.86169 8.01092 5.47704 7.81977 6.03131C7.62862 6.58559 7.32018 7.1023 6.89443 7.58142C6.59902 7.91023 6.27754 8.17798 5.92999 8.38466C5.58245 8.59134 5.1958 8.72756 4.77006 8.79332C4.22268 8.87787 3.67964 8.93424 3.14094 8.96242C2.61094 9 2.07224 9.00939 1.52486 8.99061C1.29895 8.99061 1.07739 8.98121 0.860175 8.96242C0.651648 8.94363 0.438776 8.93424 0.22156 8.93424C0.125985 8.94363 0.0651648 8.92484 0.0390989 8.87787C0.0217216 8.8309 0.013033 8.76983 0.013033 8.69468C0.013033 8.6571 0.00868864 8.62422 0 8.59603C0 8.55845 0 8.52088 0 8.4833C0 7.81628 0 7.15397 0 6.49635C0.00868864 5.82933 0.013033 5.16232 0.013033 4.4953C0.013033 4.4953 0.013033 4.36378 0.013033 4.10073C0.0217216 3.83768 0.0260659 3.51827 0.0260659 3.14248C0.0260659 2.75731 0.0260659 2.35804 0.0260659 1.94468C0.0260659 1.52192 0.0260659 1.15553 0.0260659 0.845511ZM2.60659 4.52349C2.60659 4.83351 2.60225 5.14353 2.59356 5.45355C2.59356 5.76357 2.58921 6.07359 2.58053 6.38361C2.58053 6.5715 2.66741 6.67015 2.84118 6.67954C3.2148 6.71712 3.57103 6.68894 3.90989 6.59499C4.24874 6.50104 4.57022 6.33194 4.87433 6.08768C5.02203 5.96555 5.15236 5.83403 5.26531 5.69311C5.37827 5.55219 5.45646 5.38309 5.49991 5.1858C5.56073 4.92276 5.57811 4.65971 5.55204 4.39666C5.53466 4.13361 5.48687 3.87056 5.40868 3.60752C5.33917 3.41023 5.24359 3.23643 5.12195 3.08612C5.00031 2.92641 4.84392 2.80428 4.65277 2.71973C4.37473 2.5882 4.09235 2.51305 3.80562 2.49426C3.52759 2.47547 3.24521 2.46608 2.95848 2.46608C2.78471 2.46608 2.68044 2.48486 2.64569 2.52244C2.61962 2.56002 2.60659 2.67276 2.60659 2.86065C2.5979 3.00157 2.59356 3.16597 2.59356 3.35386C2.60225 3.54175 2.60659 3.72495 2.60659 3.90344V4.52349Z" fill="white"/>
</svg>
