<svg width="76" height="11" viewBox="0 0 76 11" fill="none" xmlns="http://www.w3.org/2000/svg">
<path d="M10.948 2.516C10.948 2.372 10.964 2.284 10.996 2.252C11.028 2.22 11.124 2.204 11.284 2.204C11.524 2.22 11.764 2.224 12.004 2.216C12.244 2.2 12.484 2.196 12.724 2.204C12.86 2.212 12.94 2.228 12.964 2.252C12.988 2.268 13 2.344 13 2.48C12.992 2.728 12.984 2.976 12.976 3.224C12.968 3.464 12.96 3.708 12.952 3.956C12.944 4.316 12.94 4.672 12.94 5.024C12.948 5.368 12.952 5.716 12.952 6.068C12.952 6.268 12.976 6.464 13.024 6.656C13.072 6.84 13.152 7.016 13.264 7.184C13.56 7.672 13.98 7.868 14.524 7.772C14.708 7.748 14.852 7.66 14.956 7.508C15.3 7.044 15.46 6.54 15.436 5.996C15.42 5.516 15.416 5.036 15.424 4.556C15.44 4.076 15.44 3.596 15.424 3.116C15.424 3.076 15.42 3.02 15.412 2.948C15.412 2.868 15.408 2.788 15.4 2.708C15.4 2.62 15.396 2.536 15.388 2.456C15.388 2.376 15.388 2.316 15.388 2.276C15.388 2.228 15.456 2.2 15.592 2.192C15.736 2.176 15.904 2.168 16.096 2.168C16.288 2.168 16.476 2.176 16.66 2.192C16.852 2.2 16.996 2.208 17.092 2.216C17.164 2.224 17.22 2.228 17.26 2.228C17.308 2.22 17.344 2.22 17.368 2.228C17.4 2.228 17.42 2.244 17.428 2.276C17.444 2.3 17.456 2.348 17.464 2.42C17.48 2.628 17.492 2.856 17.5 3.104C17.516 3.344 17.528 3.564 17.536 3.764C17.552 4.06 17.552 4.356 17.536 4.652C17.528 4.94 17.52 5.232 17.512 5.528C17.512 5.728 17.504 5.928 17.488 6.128C17.48 6.328 17.46 6.528 17.428 6.728C17.34 7.312 17.168 7.844 16.912 8.324C16.656 8.796 16.268 9.196 15.748 9.524C15.588 9.628 15.404 9.708 15.196 9.764C14.996 9.82 14.796 9.86 14.596 9.884C14.404 9.908 14.224 9.92 14.056 9.92C13.888 9.92 13.756 9.916 13.66 9.908C13.596 9.9 13.484 9.88 13.324 9.848C13.172 9.824 12.996 9.772 12.796 9.692C12.604 9.612 12.4 9.504 12.184 9.368C11.968 9.232 11.772 9.056 11.596 8.84C11.42 8.624 11.272 8.364 11.152 8.06C11.04 7.748 10.984 7.38 10.984 6.956C10.976 6.58 10.972 6.208 10.972 5.84C10.972 5.464 10.972 5.088 10.972 4.712C10.972 4.712 10.968 4.636 10.96 4.484C10.96 4.324 10.956 4.132 10.948 3.908C10.948 3.676 10.948 3.436 10.948 3.188C10.948 2.932 10.948 2.708 10.948 2.516Z" fill="white"/>
<path d="M21.571 2.192C22.003 2.208 22.431 2.232 22.855 2.264C23.287 2.296 23.711 2.396 24.127 2.564C24.335 2.652 24.523 2.76 24.691 2.888C24.859 3.008 25.003 3.16 25.123 3.344C25.307 3.616 25.435 3.904 25.507 4.208C25.579 4.504 25.603 4.8 25.579 5.096C25.555 5.384 25.491 5.664 25.387 5.936C25.283 6.2 25.147 6.44 24.979 6.656C24.899 6.752 24.799 6.84 24.679 6.92C24.567 6.992 24.455 7.064 24.343 7.136C24.279 7.176 24.239 7.216 24.223 7.256C24.215 7.296 24.231 7.348 24.271 7.412C24.407 7.644 24.543 7.876 24.679 8.108C24.823 8.332 24.967 8.56 25.111 8.792C25.167 8.88 25.235 9 25.315 9.152C25.395 9.304 25.467 9.424 25.531 9.512C25.587 9.608 25.595 9.704 25.555 9.8C25.531 9.864 25.495 9.9 25.447 9.908C25.407 9.916 25.359 9.92 25.303 9.92C25.047 9.904 24.795 9.9 24.547 9.908C24.299 9.916 24.047 9.92 23.791 9.92C23.703 9.92 23.639 9.904 23.599 9.872C23.559 9.84 23.519 9.792 23.479 9.728C23.327 9.448 23.159 9.136 22.975 8.792C22.799 8.44 22.631 8.124 22.471 7.844C22.439 7.788 22.407 7.736 22.375 7.688C22.343 7.64 22.311 7.592 22.279 7.544C22.215 7.424 22.107 7.364 21.955 7.364C21.867 7.364 21.783 7.36 21.703 7.352C21.631 7.336 21.551 7.328 21.463 7.328C21.335 7.32 21.247 7.336 21.199 7.376C21.159 7.408 21.139 7.492 21.139 7.628C21.147 7.94 21.155 8.252 21.163 8.564C21.171 8.876 21.179 9.188 21.187 9.5C21.195 9.612 21.183 9.692 21.151 9.74C21.119 9.788 21.051 9.824 20.947 9.848C20.907 9.864 20.863 9.872 20.815 9.872C20.767 9.872 20.723 9.872 20.683 9.872C20.475 9.872 20.271 9.872 20.071 9.872C19.879 9.88 19.679 9.884 19.471 9.884C19.407 9.884 19.347 9.88 19.291 9.872C19.235 9.872 19.175 9.868 19.111 9.86C18.975 9.844 18.895 9.768 18.871 9.632C18.863 9.568 18.851 9.504 18.835 9.44C18.827 9.368 18.823 9.3 18.823 9.236C18.831 8.916 18.835 8.596 18.835 8.276C18.835 7.956 18.843 7.636 18.859 7.316C18.867 7.012 18.871 6.716 18.871 6.428C18.871 6.132 18.871 5.832 18.871 5.528C18.879 5.04 18.879 4.556 18.871 4.076C18.863 3.588 18.859 3.1 18.859 2.612C18.859 2.436 18.883 2.328 18.931 2.288C18.979 2.24 19.095 2.22 19.279 2.228H20.287C20.287 2.228 20.331 2.228 20.419 2.228C20.515 2.22 20.631 2.212 20.767 2.204C20.903 2.196 21.043 2.192 21.187 2.192C21.331 2.184 21.459 2.184 21.571 2.192ZM21.163 4.892C21.155 5.004 21.151 5.112 21.151 5.216V5.708C21.151 5.844 21.223 5.912 21.367 5.912C21.527 5.896 21.683 5.888 21.835 5.888C21.995 5.88 22.155 5.868 22.315 5.852C22.475 5.828 22.627 5.784 22.771 5.72C22.923 5.656 23.059 5.56 23.179 5.432C23.267 5.336 23.323 5.22 23.347 5.084C23.379 4.948 23.379 4.816 23.347 4.688C23.323 4.552 23.271 4.436 23.191 4.34C23.111 4.236 23.011 4.168 22.891 4.136C22.347 4 21.815 3.944 21.295 3.968C21.271 3.976 21.243 4 21.211 4.04C21.187 4.072 21.175 4.1 21.175 4.124C21.167 4.236 21.163 4.364 21.163 4.508C21.163 4.652 21.163 4.78 21.163 4.892Z" fill="white"/>
<path d="M36.2049 5.504C36.4369 5.504 36.6689 5.504 36.9009 5.504C37.1329 5.504 37.3649 5.508 37.5969 5.516C37.7329 5.524 37.8129 5.54 37.8369 5.564C37.8689 5.588 37.8969 5.664 37.9209 5.792C37.9609 6.048 37.9569 6.3 37.9089 6.548C37.8689 6.788 37.8089 7.024 37.7289 7.256C37.6329 7.552 37.5009 7.824 37.3329 8.072C37.1649 8.32 36.9769 8.556 36.7689 8.78C36.5129 9.06 36.2289 9.292 35.9169 9.476C35.6049 9.66 35.2569 9.784 34.8729 9.848C34.4729 9.912 34.0769 9.936 33.6849 9.92C33.3009 9.904 32.9169 9.808 32.5329 9.632C32.3249 9.544 32.1289 9.456 31.9449 9.368C31.7609 9.28 31.5809 9.164 31.4049 9.02C31.3009 8.932 31.2129 8.836 31.1409 8.732C31.0689 8.628 30.9889 8.52 30.9009 8.408C30.8449 8.296 30.7809 8.18 30.7089 8.06C30.6449 7.932 30.5929 7.804 30.5529 7.676C30.3049 6.964 30.2329 6.28 30.3369 5.624C30.4409 4.96 30.6809 4.316 31.0569 3.692C31.2729 3.332 31.5489 3.04 31.8849 2.816C32.2209 2.592 32.5929 2.42 33.0009 2.3C33.4409 2.164 33.8769 2.1 34.3089 2.108C34.7489 2.108 35.1889 2.152 35.6289 2.24C35.8369 2.28 36.0289 2.348 36.2049 2.444C36.3809 2.54 36.5609 2.632 36.7449 2.72C36.8089 2.752 36.8409 2.792 36.8409 2.84C36.8409 2.888 36.8169 2.932 36.7689 2.972C36.5609 3.156 36.3569 3.34 36.1569 3.524C35.9649 3.7 35.7649 3.88 35.5569 4.064C35.5249 4.088 35.4809 4.108 35.4249 4.124C35.3769 4.14 35.3449 4.14 35.3289 4.124C35.1689 4.012 35.0009 3.964 34.8249 3.98C34.6569 3.996 34.4889 4.012 34.3209 4.028C34.1849 4.044 34.0489 4.068 33.9129 4.1C33.7849 4.132 33.6609 4.176 33.5409 4.232C33.3089 4.344 33.1009 4.512 32.9169 4.736C32.7409 4.952 32.6129 5.2 32.5329 5.48C32.4529 5.752 32.4289 6.04 32.4609 6.344C32.5009 6.648 32.6209 6.944 32.8209 7.232C33.0049 7.496 33.2289 7.684 33.4929 7.796C33.7649 7.908 34.0649 7.944 34.3929 7.904C34.5449 7.888 34.6929 7.86 34.8369 7.82C34.9809 7.78 35.1129 7.708 35.2329 7.604C35.2889 7.564 35.3409 7.52 35.3889 7.472C35.4369 7.424 35.4809 7.372 35.5209 7.316C35.5609 7.252 35.6009 7.18 35.6409 7.1C35.6809 7.012 35.6929 6.936 35.6769 6.872C35.6689 6.832 35.6489 6.804 35.6169 6.788C35.5929 6.772 35.5609 6.764 35.5209 6.764C35.4809 6.764 35.4369 6.768 35.3889 6.776C35.3489 6.776 35.3129 6.772 35.2809 6.764C35.2249 6.756 35.1729 6.752 35.1249 6.752C35.0769 6.752 35.0249 6.748 34.9689 6.74C34.7929 6.724 34.6809 6.692 34.6329 6.644C34.5849 6.588 34.5569 6.472 34.5489 6.296C34.5409 6.192 34.5369 6.092 34.5369 5.996C34.5369 5.9 34.5289 5.804 34.5129 5.708C34.5049 5.548 34.5689 5.468 34.7049 5.468C34.8889 5.468 35.0769 5.472 35.2689 5.48C35.4609 5.48 35.6489 5.48 35.8329 5.48C35.8969 5.488 35.9569 5.496 36.0129 5.504C36.0769 5.504 36.1409 5.504 36.2049 5.504Z" fill="white"/>
<path d="M44.3502 2.192C44.4942 2.184 44.5862 2.196 44.6262 2.228C44.6742 2.26 44.7142 2.344 44.7462 2.48C44.8102 2.744 44.8662 3 44.9142 3.248C44.9702 3.496 45.0302 3.752 45.0942 4.016C45.2302 4.592 45.3662 5.16 45.5022 5.72C45.6382 6.28 45.7742 6.844 45.9102 7.412C45.9742 7.668 46.0342 7.928 46.0902 8.192C46.1542 8.448 46.2182 8.704 46.2822 8.96C46.3062 9.064 46.3302 9.168 46.3542 9.272C46.3782 9.368 46.4022 9.464 46.4262 9.56C46.4742 9.744 46.4102 9.852 46.2342 9.884H46.1502C45.8622 9.9 45.5742 9.9 45.2862 9.884C44.9982 9.876 44.7142 9.88 44.4342 9.896C44.3142 9.896 44.2382 9.876 44.2062 9.836C44.1822 9.796 44.1622 9.708 44.1462 9.572C44.1222 9.22 44.0582 8.868 43.9542 8.516C43.9382 8.436 43.9022 8.392 43.8462 8.384C43.7982 8.376 43.7542 8.372 43.7142 8.372C43.4262 8.364 43.1382 8.364 42.8502 8.372C42.5622 8.38 42.2782 8.388 41.9982 8.396C41.9342 8.396 41.8862 8.412 41.8542 8.444C41.8222 8.476 41.7982 8.52 41.7822 8.576C41.7342 8.76 41.6822 8.932 41.6262 9.092C41.5782 9.252 41.5302 9.424 41.4822 9.608C41.4582 9.696 41.4262 9.76 41.3862 9.8C41.3542 9.832 41.2822 9.848 41.1702 9.848C41.1142 9.848 40.9902 9.848 40.7982 9.848C40.6062 9.848 40.4062 9.848 40.1982 9.848C39.9902 9.848 39.7982 9.848 39.6222 9.848C39.4542 9.84 39.3662 9.836 39.3582 9.836C39.1662 9.82 39.1022 9.72 39.1662 9.536C39.2462 9.288 39.3262 9.048 39.4062 8.816C39.4862 8.584 39.5702 8.348 39.6582 8.108C39.8262 7.572 39.9942 7.04 40.1622 6.512C40.3302 5.976 40.5022 5.44 40.6782 4.904C40.7342 4.72 40.8022 4.496 40.8822 4.232C40.9622 3.968 41.0382 3.712 41.1102 3.464C41.1902 3.216 41.2582 3.004 41.3142 2.828C41.3702 2.652 41.4022 2.556 41.4102 2.54C41.4342 2.46 41.4502 2.396 41.4582 2.348C41.4742 2.3 41.4942 2.264 41.5182 2.24C41.5502 2.216 41.5942 2.2 41.6502 2.192C41.7142 2.184 41.8022 2.18 41.9142 2.18C42.0102 2.18 42.1702 2.184 42.3942 2.192C42.6262 2.192 42.8662 2.192 43.1142 2.192C43.3702 2.192 43.6142 2.192 43.8462 2.192C44.0782 2.192 44.2462 2.192 44.3502 2.192ZM43.4502 6.932C43.5782 6.924 43.6262 6.856 43.5942 6.728C43.5302 6.448 43.4622 6.164 43.3902 5.876C43.3262 5.588 43.2622 5.304 43.1982 5.024C43.1902 5 43.1782 4.976 43.1622 4.952C43.1462 4.92 43.1222 4.904 43.0902 4.904C43.0582 4.904 43.0382 4.916 43.0302 4.94C43.0302 4.964 43.0262 4.984 43.0182 5C42.9302 5.256 42.8422 5.516 42.7542 5.78C42.6662 6.036 42.5782 6.292 42.4902 6.548C42.4502 6.668 42.4222 6.76 42.4062 6.824C42.3902 6.88 42.3902 6.92 42.4062 6.944C42.4302 6.968 42.4702 6.98 42.5262 6.98C42.5902 6.98 42.6782 6.98 42.7902 6.98C42.7902 6.98 42.8142 6.98 42.8622 6.98C42.9182 6.972 42.9782 6.968 43.0422 6.968C43.1142 6.96 43.1862 6.956 43.2582 6.956C43.3382 6.948 43.4022 6.94 43.4502 6.932Z" fill="white"/>
<path d="M49.7863 6.26C49.7863 6.316 49.7823 6.352 49.7743 6.368C49.7743 6.376 49.7783 6.396 49.7863 6.428C49.8103 6.956 49.8342 7.48 49.8582 8C49.8822 8.52 49.9063 9.044 49.9303 9.572C49.9383 9.684 49.9302 9.752 49.9062 9.776C49.8822 9.8 49.8062 9.82 49.6782 9.836C49.5422 9.852 49.4102 9.86 49.2822 9.86C49.1542 9.86 49.0263 9.86 48.8983 9.86C48.7143 9.86 48.5342 9.86 48.3582 9.86C48.1822 9.86 48.0062 9.856 47.8302 9.848C47.7102 9.848 47.6622 9.788 47.6862 9.668C47.6782 9.212 47.6743 8.76 47.6743 8.312C47.6823 7.856 47.6862 7.4 47.6862 6.944C47.6622 5.472 47.6502 4 47.6502 2.528C47.6422 2.392 47.6542 2.308 47.6862 2.276C47.7182 2.244 47.7983 2.224 47.9263 2.216C47.9903 2.216 48.0943 2.216 48.2383 2.216C48.3903 2.216 48.5503 2.216 48.7183 2.216C48.8863 2.216 49.0462 2.216 49.1982 2.216C49.3582 2.216 49.4742 2.216 49.5462 2.216C49.6742 2.2 49.7742 2.216 49.8462 2.264C49.9262 2.312 49.9983 2.392 50.0623 2.504C50.2943 2.952 50.5302 3.396 50.7702 3.836C51.0182 4.268 51.2623 4.704 51.5023 5.144L52.3662 6.728C52.4302 6.84 52.4823 6.896 52.5223 6.896C52.5623 6.888 52.6142 6.828 52.6782 6.716C52.7902 6.532 52.8983 6.352 53.0023 6.176C53.1063 6 53.2143 5.82 53.3263 5.636C53.4863 5.364 53.6502 5.1 53.8182 4.844C53.9942 4.58 54.1623 4.308 54.3223 4.028C54.4663 3.78 54.6023 3.536 54.7303 3.296C54.8663 3.048 54.9983 2.796 55.1263 2.54C55.1903 2.428 55.2582 2.34 55.3302 2.276C55.4103 2.204 55.5183 2.176 55.6543 2.192C55.7023 2.2 55.8023 2.204 55.9543 2.204C56.1143 2.204 56.2783 2.204 56.4463 2.204C56.6223 2.204 56.7823 2.204 56.9263 2.204C57.0703 2.196 57.1503 2.192 57.1663 2.192C57.3023 2.192 57.4062 2.196 57.4782 2.204C57.5502 2.212 57.6023 2.236 57.6343 2.276C57.6743 2.308 57.6943 2.364 57.6943 2.444C57.7023 2.516 57.7062 2.624 57.7062 2.768C57.7062 3.56 57.7102 4.348 57.7183 5.132C57.7263 5.916 57.7382 6.704 57.7542 7.496C57.7622 7.848 57.7622 8.188 57.7542 8.516C57.7542 8.836 57.7623 9.168 57.7783 9.512C57.7863 9.696 57.7743 9.804 57.7423 9.836C57.7183 9.868 57.6182 9.88 57.4422 9.872C57.3702 9.872 57.2583 9.868 57.1063 9.86C56.9623 9.86 56.8102 9.86 56.6502 9.86C56.4902 9.86 56.3383 9.86 56.1943 9.86C56.0503 9.86 55.9502 9.86 55.8942 9.86C55.7822 9.868 55.7063 9.856 55.6663 9.824C55.6343 9.792 55.6183 9.716 55.6183 9.596C55.6103 9.044 55.6022 8.5 55.5942 7.964C55.5942 7.428 55.5903 6.884 55.5823 6.332C55.5823 6.268 55.5783 6.224 55.5703 6.2C55.5703 6.16 55.5543 6.124 55.5223 6.092C55.5063 6.076 55.4903 6.076 55.4743 6.092C55.4663 6.108 55.4583 6.12 55.4503 6.128C55.4103 6.184 55.3743 6.236 55.3423 6.284C55.3103 6.332 55.2783 6.384 55.2463 6.44C54.9423 6.96 54.6343 7.488 54.3223 8.024C54.0183 8.552 53.7143 9.08 53.4103 9.608C53.3703 9.672 53.3263 9.728 53.2783 9.776C53.2303 9.824 53.1502 9.848 53.0382 9.848H51.9943C51.8183 9.848 51.7023 9.816 51.6463 9.752C51.5903 9.68 51.5303 9.576 51.4663 9.44C51.2423 8.96 51.0142 8.488 50.7822 8.024C50.5502 7.56 50.3142 7.092 50.0742 6.62C50.0422 6.556 50.0063 6.492 49.9663 6.428C49.9343 6.364 49.8982 6.3 49.8582 6.236C49.8502 6.22 49.8342 6.208 49.8102 6.2C49.7942 6.184 49.7863 6.204 49.7863 6.26Z" fill="white"/>
<path d="M59.4879 4.676C59.4879 4.372 59.4799 4.072 59.4639 3.776C59.4559 3.472 59.4439 3.168 59.4279 2.864C59.4279 2.824 59.4239 2.784 59.4159 2.744C59.4159 2.696 59.4159 2.648 59.4159 2.6C59.4159 2.464 59.4319 2.364 59.4639 2.3C59.4959 2.236 59.6039 2.208 59.7879 2.216C59.9959 2.224 60.2559 2.228 60.5679 2.228C60.8879 2.228 61.2199 2.228 61.5639 2.228C61.9159 2.228 62.2719 2.228 62.6319 2.228C62.9919 2.228 63.3199 2.228 63.6159 2.228C63.9199 2.22 64.1799 2.216 64.3959 2.216C64.6119 2.216 64.7559 2.216 64.8279 2.216C64.9879 2.216 65.0719 2.292 65.0799 2.444C65.0879 2.652 65.0919 2.88 65.0919 3.128C65.0919 3.376 65.0919 3.604 65.0919 3.812C65.0919 3.836 65.0719 3.864 65.0319 3.896C64.9999 3.928 64.9719 3.944 64.9479 3.944C64.8359 3.96 64.7239 3.976 64.6119 3.992C64.5079 4 64.3999 4.004 64.2879 4.004C63.8959 4.012 63.5159 4.016 63.1479 4.016C62.7799 4.016 62.3999 4.02 62.0079 4.028C61.8719 4.028 61.7639 4.032 61.6839 4.04C61.6119 4.048 61.5599 4.072 61.5279 4.112C61.4959 4.144 61.4799 4.2 61.4799 4.28C61.4799 4.352 61.4839 4.46 61.4919 4.604C61.4919 4.684 61.4879 4.736 61.4799 4.76C61.4799 4.784 61.4839 4.832 61.4919 4.904C61.4999 5 61.5079 5.076 61.5159 5.132C61.5239 5.188 61.5399 5.232 61.5639 5.264C61.5879 5.288 61.6279 5.304 61.6839 5.312C61.7399 5.32 61.8199 5.328 61.9239 5.336C62.0039 5.352 62.1119 5.356 62.2479 5.348C62.3919 5.34 62.5079 5.34 62.5959 5.348C62.6919 5.356 62.7599 5.372 62.7999 5.396C62.8479 5.412 62.8799 5.44 62.8959 5.48C62.9119 5.52 62.9159 5.572 62.9079 5.636C62.9079 5.7 62.9079 5.78 62.9079 5.876C62.9079 5.908 62.9039 5.94 62.8959 5.972C62.8959 5.996 62.8999 6.024 62.9079 6.056C62.9079 6.2 62.8359 6.272 62.6919 6.272C62.4519 6.288 62.2159 6.288 61.9839 6.272C61.8559 6.272 61.7559 6.276 61.6839 6.284C61.6119 6.284 61.5599 6.3 61.5279 6.332C61.5039 6.364 61.4879 6.416 61.4799 6.488C61.4799 6.552 61.4799 6.644 61.4799 6.764V7.652C61.4879 7.82 61.5719 7.904 61.7319 7.904H64.6479C64.7919 7.888 64.8919 7.9 64.9479 7.94C65.0039 7.972 65.0359 8.06 65.0439 8.204C65.0599 8.428 65.0679 8.676 65.0679 8.948C65.0759 9.22 65.0759 9.468 65.0679 9.692C65.0679 9.724 65.0479 9.76 65.0079 9.8C64.9759 9.832 64.9439 9.852 64.9119 9.86C64.8639 9.868 64.7519 9.872 64.5759 9.872C64.4079 9.872 64.1999 9.872 63.9519 9.872C63.7119 9.872 63.4479 9.868 63.1599 9.86C62.8719 9.86 62.5879 9.856 62.3079 9.848C62.0279 9.848 61.7639 9.848 61.5159 9.848C61.2679 9.848 61.0679 9.848 60.9159 9.848C60.7319 9.856 60.5439 9.856 60.3519 9.848C60.1599 9.84 59.9719 9.832 59.7879 9.824C59.6359 9.816 59.5359 9.792 59.4879 9.752C59.4479 9.704 59.4279 9.604 59.4279 9.452C59.4279 9.188 59.4279 8.924 59.4279 8.66C59.4279 8.396 59.4319 8.132 59.4399 7.868C59.4399 7.684 59.4399 7.508 59.4399 7.34C59.4479 7.164 59.4559 6.984 59.4639 6.8C59.4559 6.8 59.4519 6.724 59.4519 6.572C59.4599 6.412 59.4639 6.224 59.4639 6.008C59.4719 5.784 59.4759 5.552 59.4759 5.312C59.4839 5.064 59.4879 4.852 59.4879 4.676Z" fill="white"/>
<path d="M70.984 2.276C71.192 2.364 71.368 2.484 71.512 2.636C71.656 2.788 71.804 2.94 71.956 3.092C72.004 3.14 72.02 3.196 72.004 3.26C71.988 3.324 71.96 3.376 71.92 3.416C71.776 3.576 71.632 3.736 71.488 3.896C71.344 4.048 71.196 4.2 71.044 4.352C70.98 4.424 70.9 4.432 70.804 4.376C70.724 4.312 70.644 4.248 70.564 4.184C70.484 4.12 70.4 4.064 70.312 4.016C70.2 3.952 70.088 3.892 69.976 3.836C69.864 3.772 69.752 3.72 69.64 3.68C69.504 3.632 69.38 3.628 69.268 3.668C69.164 3.7 69.084 3.772 69.028 3.884C68.98 3.98 68.964 4.096 68.98 4.232C69.004 4.36 69.064 4.46 69.16 4.532C69.288 4.62 69.416 4.704 69.544 4.784C69.68 4.856 69.816 4.928 69.952 5C70.144 5.112 70.336 5.224 70.528 5.336C70.728 5.44 70.92 5.548 71.104 5.66C71.288 5.772 71.452 5.908 71.596 6.068C71.748 6.22 71.892 6.38 72.028 6.548C72.188 6.756 72.284 6.98 72.316 7.22C72.356 7.46 72.36 7.704 72.328 7.952C72.216 8.912 71.692 9.556 70.756 9.884C70.388 10.012 70.024 10.068 69.664 10.052C69.312 10.044 68.952 9.988 68.584 9.884C68.248 9.796 67.94 9.672 67.66 9.512C67.38 9.344 67.1 9.172 66.82 8.996C66.772 8.972 66.724 8.936 66.676 8.888C66.604 8.824 66.548 8.776 66.508 8.744C66.476 8.704 66.456 8.664 66.448 8.624C66.44 8.584 66.444 8.54 66.46 8.492C66.484 8.436 66.52 8.364 66.568 8.276C66.656 8.108 66.736 7.936 66.808 7.76C66.888 7.584 66.968 7.408 67.048 7.232C67.08 7.168 67.108 7.108 67.132 7.052C67.156 6.996 67.188 6.94 67.228 6.884C67.252 6.844 67.284 6.82 67.324 6.812C67.364 6.796 67.404 6.808 67.444 6.848C67.532 6.936 67.62 7.024 67.708 7.112C67.796 7.2 67.884 7.288 67.972 7.376C68.18 7.576 68.408 7.736 68.656 7.856C68.912 7.968 69.172 8.068 69.436 8.156C69.54 8.188 69.66 8.192 69.796 8.168C69.916 8.144 70.016 8.096 70.096 8.024C70.176 7.952 70.228 7.868 70.252 7.772C70.284 7.676 70.288 7.576 70.264 7.472C70.24 7.368 70.184 7.272 70.096 7.184C69.992 7.08 69.88 6.988 69.76 6.908C69.64 6.82 69.516 6.74 69.388 6.668C69.18 6.54 68.968 6.42 68.752 6.308C68.536 6.188 68.316 6.076 68.092 5.972C67.756 5.812 67.492 5.604 67.3 5.348C67.116 5.084 66.976 4.78 66.88 4.436C66.76 3.94 66.844 3.492 67.132 3.092C67.244 2.932 67.356 2.8 67.468 2.696C67.58 2.584 67.756 2.468 67.996 2.348C68.324 2.188 68.644 2.088 68.956 2.048C69.268 2 69.552 1.988 69.808 2.012C70.072 2.028 70.304 2.064 70.504 2.12C70.712 2.176 70.872 2.228 70.984 2.276Z" fill="white"/>
<path d="M75.2318 5.588C75.1918 5.892 75.0398 6.124 74.7758 6.284C74.6718 6.348 74.5518 6.384 74.4158 6.392C74.2798 6.392 74.1478 6.372 74.0198 6.332C73.8998 6.284 73.7878 6.22 73.6838 6.14C73.5798 6.052 73.5078 5.952 73.4678 5.84C73.4198 5.712 73.4078 5.588 73.4318 5.468C73.4638 5.34 73.5198 5.22 73.5998 5.108C73.7038 4.956 73.8478 4.844 74.0318 4.772C74.2158 4.692 74.3918 4.68 74.5598 4.736C74.7518 4.792 74.9118 4.9 75.0398 5.06C75.1678 5.22 75.2318 5.396 75.2318 5.588ZM74.2838 9.848C73.9958 9.832 73.7798 9.752 73.6358 9.608C73.4918 9.456 73.4278 9.244 73.4438 8.972C73.4518 8.86 73.4758 8.756 73.5158 8.66C73.5638 8.556 73.6238 8.468 73.6958 8.396C73.7758 8.324 73.8638 8.268 73.9598 8.228C74.0558 8.188 74.1558 8.172 74.2598 8.18C74.8438 8.22 75.1238 8.516 75.0998 9.068C75.0918 9.3 75.0078 9.492 74.8478 9.644C74.6958 9.796 74.5078 9.864 74.2838 9.848Z" fill="white"/>
<path d="M9.99557 4.8571C9.94384 5.3251 9.86624 5.77784 9.76279 6.21532C9.65934 6.65279 9.50416 7.06992 9.29725 7.4667C9.10069 7.85331 8.84723 8.21448 8.53687 8.55022C8.23685 8.87579 7.86959 9.16065 7.43509 9.40483C7.09369 9.59813 6.74195 9.74565 6.37986 9.84739C6.01777 9.94913 5.64016 10 5.24704 10C4.60563 10 4.03146 9.9237 3.52454 9.77109C3.02796 9.60831 2.58828 9.40483 2.2055 9.16065C1.83307 8.90631 1.51236 8.62653 1.24338 8.32131C0.98475 8.00592 0.767497 7.7007 0.591625 7.40566C0.426099 7.10044 0.301953 6.82066 0.21919 6.56632C0.136428 6.31197 0.0898776 6.10849 0.0795322 5.95588C0.0588415 5.68119 0.0381467 5.40649 0.0174559 5.1318C-0.0135801 4.8571 -0.00322892 4.57732 0.0484979 4.29245C0.151952 3.79393 0.322648 3.30559 0.560591 2.82741C0.80888 2.34924 1.11924 1.91685 1.49167 1.53024C1.87445 1.14364 2.32448 0.818072 2.84175 0.553551C3.35902 0.278856 3.93836 0.105901 4.57977 0.0346838C4.96255 -0.0161856 5.34015 -0.0110989 5.71259 0.0499442C6.09536 0.110987 6.4678 0.207639 6.82988 0.3399C7.4506 0.573899 7.97304 0.904551 8.3972 1.33185C8.82136 1.74898 9.16793 2.25768 9.43691 2.85794C9.58175 3.1835 9.71624 3.50398 9.84038 3.81937C9.96453 4.13476 10.0163 4.48067 9.99557 4.8571Z" fill="white"/>
<path d="M7 4.91586C7 4.8123 6.99565 4.73463 6.98694 4.68285C6.98694 4.62244 6.98258 4.57497 6.97387 4.54045C6.96515 4.50593 6.95644 4.47573 6.94773 4.44984C6.93902 4.41532 6.93031 4.37217 6.9216 4.32039C6.89546 4.19094 6.82141 4.05286 6.69945 3.90615C6.58619 3.75081 6.44245 3.60841 6.26822 3.47896C6.10269 3.34089 5.91539 3.22869 5.7063 3.14239C5.50593 3.04746 5.30992 3 5.11827 3C4.72624 3 4.39519 3.07767 4.12512 3.23301C3.86377 3.38835 3.65033 3.58252 3.48481 3.81553C3.328 4.03991 3.21039 4.28587 3.13198 4.5534C3.05358 4.82093 3.01002 5.06688 3.00131 5.29126C2.9926 5.43797 3.02744 5.61057 3.10585 5.80906C3.19297 5.99892 3.31929 6.18447 3.48481 6.3657C3.65905 6.5383 3.86812 6.68932 4.11205 6.81877C4.36469 6.93959 4.64783 7 4.96145 7C5.30992 7 5.61048 6.93096 5.86312 6.79288C6.11576 6.64617 6.32484 6.46926 6.49036 6.26214C6.6646 6.05502 6.79092 5.83064 6.86932 5.589C6.95644 5.34736 7 5.12298 7 4.91586Z" fill="black"/>
</svg>
