<svg width="42" height="11" viewBox="0 0 42 11" fill="none" xmlns="http://www.w3.org/2000/svg">
<path d="M12.2178 3.07528C12.6498 3.09128 13.0778 3.11528 13.5018 3.14728C13.9338 3.17928 14.3578 3.27928 14.7738 3.44728C14.9818 3.53528 15.1698 3.64328 15.3378 3.77128C15.5058 3.89128 15.6498 4.04328 15.7698 4.22728C15.9538 4.49928 16.0818 4.78728 16.1538 5.09128C16.2258 5.38728 16.2498 5.68328 16.2258 5.97928C16.2018 6.26728 16.1378 6.54728 16.0338 6.81928C15.9298 7.08328 15.7938 7.32328 15.6258 7.53928C15.5458 7.63528 15.4458 7.72328 15.3258 7.80328C15.2138 7.87528 15.1018 7.94728 14.9898 8.01928C14.9258 8.05928 14.8858 8.09928 14.8698 8.13928C14.8618 8.17928 14.8778 8.23128 14.9178 8.29528C15.0538 8.52728 15.1898 8.75928 15.3258 8.99128C15.4698 9.21528 15.6138 9.44328 15.7578 9.67528C15.8138 9.76328 15.8818 9.88328 15.9618 10.0353C16.0418 10.1873 16.1138 10.3073 16.1778 10.3953C16.2338 10.4913 16.2418 10.5873 16.2018 10.6833C16.1778 10.7473 16.1418 10.7833 16.0938 10.7913C16.0538 10.7993 16.0058 10.8033 15.9498 10.8033C15.6938 10.7873 15.4418 10.7833 15.1938 10.7913C14.9458 10.7993 14.6938 10.8033 14.4378 10.8033C14.3498 10.8033 14.2858 10.7873 14.2458 10.7553C14.2058 10.7233 14.1658 10.6753 14.1258 10.6113C13.9738 10.3313 13.8058 10.0193 13.6218 9.67528C13.4458 9.32328 13.2778 9.00728 13.1178 8.72728C13.0858 8.67128 13.0538 8.61928 13.0218 8.57128C12.9898 8.52328 12.9578 8.47528 12.9258 8.42728C12.8618 8.30728 12.7538 8.24728 12.6018 8.24728C12.5138 8.24728 12.4298 8.24328 12.3498 8.23528C12.2778 8.21928 12.1978 8.21128 12.1098 8.21128C11.9818 8.20328 11.8938 8.21928 11.8458 8.25928C11.8058 8.29128 11.7858 8.37528 11.7858 8.51128C11.7938 8.82328 11.8018 9.13528 11.8098 9.44728C11.8178 9.75928 11.8258 10.0713 11.8338 10.3833C11.8418 10.4953 11.8298 10.5753 11.7978 10.6233C11.7658 10.6713 11.6978 10.7073 11.5938 10.7313C11.5538 10.7473 11.5098 10.7553 11.4618 10.7553C11.4138 10.7553 11.3698 10.7553 11.3298 10.7553C11.1218 10.7553 10.9178 10.7553 10.7178 10.7553C10.5258 10.7633 10.3258 10.7673 10.1178 10.7673C10.0538 10.7673 9.99379 10.7633 9.93779 10.7553C9.88179 10.7553 9.82179 10.7513 9.75779 10.7433C9.62179 10.7273 9.54179 10.6513 9.51779 10.5153C9.50979 10.4513 9.49779 10.3873 9.48179 10.3233C9.47379 10.2513 9.46979 10.1833 9.46979 10.1193C9.47779 9.79928 9.48179 9.47928 9.48179 9.15928C9.48179 8.83928 9.48979 8.51928 9.50579 8.19928C9.51379 7.89528 9.51779 7.59928 9.51779 7.31128C9.51779 7.01528 9.51779 6.71528 9.51779 6.41128C9.52579 5.92328 9.52579 5.43928 9.51779 4.95928C9.50979 4.47128 9.50579 3.98328 9.50579 3.49528C9.50579 3.31928 9.52979 3.21128 9.57779 3.17128C9.62579 3.12328 9.74179 3.10328 9.92579 3.11128H10.9338C10.9338 3.11128 10.9778 3.11128 11.0658 3.11128C11.1618 3.10328 11.2778 3.09528 11.4138 3.08728C11.5498 3.07928 11.6898 3.07528 11.8338 3.07528C11.9778 3.06728 12.1058 3.06728 12.2178 3.07528ZM11.8098 5.77528C11.8018 5.88728 11.7978 5.99528 11.7978 6.09928V6.59128C11.7978 6.72728 11.8698 6.79528 12.0138 6.79528C12.1738 6.77928 12.3298 6.77128 12.4818 6.77128C12.6418 6.76328 12.8018 6.75128 12.9618 6.73528C13.1218 6.71128 13.2738 6.66728 13.4178 6.60328C13.5698 6.53928 13.7058 6.44328 13.8258 6.31528C13.9138 6.21928 13.9698 6.10328 13.9938 5.96728C14.0258 5.83128 14.0258 5.69928 13.9938 5.57128C13.9698 5.43528 13.9178 5.31928 13.8378 5.22328C13.7578 5.11928 13.6578 5.05128 13.5378 5.01928C12.9938 4.88328 12.4618 4.82728 11.9418 4.85128C11.9178 4.85928 11.8898 4.88328 11.8578 4.92328C11.8338 4.95528 11.8218 4.98328 11.8218 5.00728C11.8138 5.11928 11.8098 5.24728 11.8098 5.39128C11.8098 5.53528 11.8098 5.66328 11.8098 5.77528Z" fill="white"/>
<path d="M24.8568 6.81928C24.8168 7.18728 24.7568 7.54328 24.6768 7.88728C24.5968 8.23128 24.4768 8.55928 24.3168 8.87128C24.1648 9.17528 23.9688 9.45928 23.7288 9.72328C23.4968 9.97928 23.2128 10.2033 22.8768 10.3953C22.6128 10.5473 22.3408 10.6633 22.0608 10.7433C21.7808 10.8233 21.4888 10.8633 21.1848 10.8633C20.6888 10.8633 20.2448 10.8033 19.8528 10.6833C19.4688 10.5553 19.1288 10.3953 18.8328 10.2033C18.5448 10.0033 18.2968 9.78328 18.0888 9.54328C17.8888 9.29528 17.7208 9.05528 17.5848 8.82328C17.4568 8.58328 17.3608 8.36328 17.2968 8.16328C17.2328 7.96328 17.1968 7.80328 17.1888 7.68328C17.1728 7.46728 17.1568 7.25128 17.1408 7.03528C17.1168 6.81928 17.1248 6.59928 17.1648 6.37528C17.2448 5.98328 17.3768 5.59928 17.5608 5.22328C17.7528 4.84728 17.9928 4.50728 18.2808 4.20328C18.5768 3.89928 18.9248 3.64328 19.3248 3.43528C19.7248 3.21928 20.1728 3.08328 20.6688 3.02728C20.9648 2.98728 21.2568 2.99128 21.5448 3.03928C21.8408 3.08728 22.1288 3.16328 22.4088 3.26728C22.8888 3.45128 23.2928 3.71128 23.6208 4.04728C23.9488 4.37528 24.2168 4.77528 24.4248 5.24728C24.5368 5.50328 24.6408 5.75528 24.7368 6.00328C24.8328 6.25128 24.8728 6.52328 24.8568 6.81928ZM22.8648 6.77128C22.8648 6.67528 22.8608 6.60328 22.8528 6.55528C22.8528 6.49928 22.8488 6.45528 22.8408 6.42328C22.8328 6.39128 22.8248 6.36328 22.8168 6.33928C22.8088 6.30728 22.8008 6.26728 22.7928 6.21928C22.7688 6.09928 22.7008 5.97128 22.5888 5.83528C22.4848 5.69128 22.3528 5.55928 22.1928 5.43928C22.0408 5.31128 21.8688 5.20728 21.6768 5.12728C21.4928 5.03928 21.3128 4.99528 21.1368 4.99528C20.7768 4.99528 20.4728 5.06728 20.2248 5.21128C19.9848 5.35528 19.7888 5.53528 19.6368 5.75128C19.4928 5.95928 19.3848 6.18728 19.3128 6.43528C19.2408 6.68328 19.2008 6.91128 19.1928 7.11928C19.1848 7.25528 19.2168 7.41528 19.2888 7.59928C19.3688 7.77528 19.4848 7.94728 19.6368 8.11528C19.7968 8.27528 19.9888 8.41528 20.2128 8.53528C20.4448 8.64728 20.7048 8.70328 20.9928 8.70328C21.3128 8.70328 21.5888 8.63928 21.8208 8.51128C22.0528 8.37528 22.2448 8.21128 22.3968 8.01928C22.5568 7.82728 22.6728 7.61928 22.7448 7.39528C22.8248 7.17128 22.8648 6.96328 22.8648 6.77128Z" fill="white"/>
<path d="M32.8553 10.3233V10.5993C32.8393 10.7593 32.7553 10.8313 32.6033 10.8153H31.0793C30.9353 10.8073 30.8393 10.7793 30.7913 10.7313C30.7433 10.6833 30.7193 10.5913 30.7193 10.4553C30.7193 10.2393 30.7193 10.0233 30.7193 9.80728C30.7193 9.58328 30.7233 9.36328 30.7313 9.14728C30.7313 9.01128 30.7313 8.87528 30.7313 8.73928C30.7393 8.59528 30.7433 8.45128 30.7433 8.30728C30.7433 8.18728 30.7273 8.11528 30.6953 8.09128C30.6713 8.06728 30.5993 8.04728 30.4793 8.03128C30.2393 7.98328 30.0553 8.06328 29.9273 8.27128C29.7033 8.61528 29.4713 8.95528 29.2313 9.29128C28.9993 9.62728 28.7793 9.97128 28.5713 10.3233C28.5153 10.4193 28.4633 10.4993 28.4153 10.5633C28.3753 10.6193 28.3233 10.6673 28.2593 10.7073C28.2033 10.7473 28.1273 10.7753 28.0313 10.7913C27.9353 10.8073 27.8113 10.8153 27.6593 10.8153C27.5473 10.8153 27.4113 10.8153 27.2513 10.8153C27.0913 10.8153 26.9393 10.8113 26.7953 10.8033C26.6273 10.8033 26.4513 10.7993 26.2673 10.7913C26.2193 10.7753 26.1793 10.7553 26.1473 10.7313C26.0833 10.6833 26.0793 10.6193 26.1353 10.5393C26.2473 10.3793 26.3673 10.2233 26.4953 10.0713C26.6233 9.91128 26.7473 9.74728 26.8673 9.57928C27.0593 9.30728 27.2513 9.03928 27.4433 8.77528C27.6353 8.50328 27.8273 8.22728 28.0193 7.94728C28.0913 7.83528 28.1233 7.76328 28.1153 7.73128C28.1153 7.69128 28.0593 7.64728 27.9473 7.59928C27.6673 7.47128 27.4473 7.29928 27.2873 7.08328C27.1273 6.85928 26.9913 6.61528 26.8793 6.35128C26.7673 6.07128 26.6913 5.79128 26.6513 5.51128C26.6193 5.22328 26.6473 4.92728 26.7353 4.62328C26.7753 4.47928 26.8393 4.35128 26.9273 4.23928C27.0153 4.11928 27.1153 4.01128 27.2273 3.91528C27.6193 3.58728 28.0713 3.35928 28.5833 3.23128C28.9433 3.14328 29.2913 3.09928 29.6273 3.09928C29.9633 3.09128 30.2913 3.08328 30.6113 3.07528C30.7473 3.08328 30.9153 3.08728 31.1153 3.08728C31.3233 3.08728 31.5193 3.08728 31.7033 3.08728C31.8953 3.07928 32.0593 3.07528 32.1953 3.07528C32.3313 3.07528 32.4073 3.07528 32.4233 3.07528C32.5913 3.09928 32.7033 3.14328 32.7593 3.20728C32.8153 3.27128 32.8433 3.38728 32.8433 3.55528C32.8433 3.65128 32.8433 3.84328 32.8433 4.13128C32.8433 4.41928 32.8433 4.76728 32.8433 5.17528C32.8433 5.58328 32.8433 6.02728 32.8433 6.50728C32.8513 6.98728 32.8553 7.46328 32.8553 7.93528C32.8553 8.40728 32.8553 8.85528 32.8553 9.27928C32.8553 9.69528 32.8553 10.0433 32.8553 10.3233ZM30.8873 5.47528C30.8793 5.44328 30.8753 5.39528 30.8753 5.33128C30.8753 5.25928 30.8713 5.18728 30.8633 5.11528C30.8473 4.99528 30.7913 4.93128 30.6953 4.92328C30.5753 4.91528 30.3993 4.90728 30.1673 4.89928C29.9433 4.88328 29.7193 4.88728 29.4953 4.91128C29.2793 4.92728 29.0873 4.97528 28.9193 5.05528C28.7513 5.12728 28.6633 5.24728 28.6553 5.41528C28.6473 5.71128 28.7153 5.92728 28.8593 6.06328C29.0033 6.19128 29.1673 6.27528 29.3513 6.31528C29.5353 6.35528 29.7113 6.37128 29.8793 6.36328C30.0553 6.34728 30.1753 6.34328 30.2393 6.35128C30.4153 6.36728 30.5433 6.36328 30.6233 6.33928C30.7113 6.31528 30.7713 6.27128 30.8033 6.20728C30.8353 6.14328 30.8513 6.05128 30.8513 5.93128C30.8593 5.81128 30.8713 5.65928 30.8873 5.47528Z" fill="white"/>
<path d="M34.2895 3.51928V3.25528C34.3055 3.11928 34.3735 3.06328 34.4935 3.08728C34.7975 3.07928 35.0815 3.07928 35.3455 3.08728C35.6175 3.09528 35.8935 3.09128 36.1735 3.07528C36.2775 3.06728 36.3535 3.08328 36.4015 3.12328C36.4575 3.15528 36.5135 3.20728 36.5695 3.27928C36.7855 3.59128 37.0015 3.92328 37.2175 4.27528C37.4335 4.62728 37.6535 4.97928 37.8775 5.33128C38.1095 5.67528 38.3415 6.01928 38.5735 6.36328C38.8135 6.69928 39.0575 7.01128 39.3055 7.29928C39.3615 7.36328 39.4295 7.43928 39.5095 7.52728C39.5895 7.60728 39.6455 7.64728 39.6775 7.64728C39.7095 7.64728 39.7295 7.58728 39.7375 7.46728C39.7455 7.34728 39.7495 7.24328 39.7495 7.15528C39.7415 6.89128 39.7335 6.60328 39.7255 6.29128C39.7255 5.97928 39.7215 5.66728 39.7135 5.35528C39.7055 5.03528 39.6975 4.71928 39.6895 4.40728C39.6895 4.09528 39.6855 3.80728 39.6775 3.54328C39.6695 3.36728 39.6815 3.25528 39.7135 3.20728C39.7535 3.15928 39.8575 3.13128 40.0255 3.12328C40.2575 3.10728 40.4855 3.09528 40.7095 3.08728C40.9335 3.07928 41.1615 3.07928 41.3935 3.08728C41.6015 3.08728 41.7295 3.11528 41.7775 3.17128C41.8255 3.21928 41.8495 3.34328 41.8495 3.54328C41.8495 3.71128 41.8455 3.90328 41.8375 4.11928C41.8375 4.33528 41.8335 4.55528 41.8255 4.77928C41.8255 5.00328 41.8215 5.22328 41.8135 5.43928C41.8135 5.65528 41.8135 5.84728 41.8135 6.01528C41.8295 6.45528 41.8415 6.89528 41.8495 7.33528C41.8655 7.77528 41.8815 8.21928 41.8975 8.66728C41.9135 8.97128 41.9215 9.27528 41.9215 9.57928C41.9215 9.87528 41.9255 10.1753 41.9335 10.4793C41.9335 10.5833 41.9215 10.6513 41.8975 10.6833C41.8735 10.7073 41.8095 10.7193 41.7055 10.7193C41.3695 10.7193 41.0295 10.7193 40.6855 10.7193C40.3495 10.7193 40.0095 10.7113 39.6655 10.6953C39.6175 10.6953 39.5655 10.6833 39.5095 10.6593C39.4535 10.6273 39.4055 10.5913 39.3655 10.5513C39.1335 10.3353 38.9335 10.1193 38.7655 9.90328C38.6775 9.79928 38.5695 9.65928 38.4415 9.48328C38.3135 9.30728 38.1775 9.11528 38.0335 8.90728C37.8975 8.69128 37.7535 8.47128 37.6015 8.24728C37.4575 8.01528 37.3215 7.80328 37.1935 7.61128C37.0655 7.41928 36.9535 7.25528 36.8575 7.11928C36.7695 6.97528 36.7095 6.87928 36.6775 6.83128C36.6695 6.81528 36.6535 6.80728 36.6295 6.80728C36.6055 6.80728 36.5855 6.80328 36.5695 6.79528C36.5615 6.80328 36.5575 6.81128 36.5575 6.81928C36.5495 6.82728 36.5455 6.84728 36.5455 6.87928C36.5455 7.02328 36.5455 7.21128 36.5455 7.44328C36.5455 7.66728 36.5495 7.85128 36.5575 7.99528C36.5655 8.37928 36.5735 8.76328 36.5815 9.14728C36.5895 9.53128 36.6015 9.91528 36.6175 10.2993C36.6175 10.4833 36.5895 10.6033 36.5335 10.6593C36.4775 10.7153 36.3575 10.7393 36.1735 10.7313C36.0455 10.7233 35.9175 10.7153 35.7895 10.7073C35.6695 10.6993 35.5455 10.6953 35.4175 10.6953C35.2895 10.7033 35.1375 10.7033 34.9615 10.6953C34.7935 10.6873 34.6415 10.6953 34.5055 10.7193C34.4015 10.7433 34.3375 10.7033 34.3135 10.5993C34.2975 10.5353 34.2935 10.4833 34.3015 10.4433C34.3095 10.4033 34.3135 10.3513 34.3135 10.2873C34.2895 9.74328 34.2815 9.20328 34.2895 8.66728C34.2975 8.13128 34.2935 7.59528 34.2775 7.05928C34.2695 6.77128 34.2695 6.48328 34.2775 6.19528C34.2855 5.90728 34.2895 5.61928 34.2895 5.33128C34.2895 5.33128 34.2855 5.26328 34.2775 5.12728C34.2775 4.98328 34.2775 4.81528 34.2775 4.62328C34.2775 4.43128 34.2775 4.23528 34.2775 4.03528C34.2855 3.82728 34.2895 3.65528 34.2895 3.51928Z" fill="white"/>
<path d="M4.90642 10.3685C4.90211 10.5899 4.87151 10.7332 4.81461 10.7985C4.7672 10.853 4.65072 10.8839 4.46516 10.8914L3.74235 10.8773C3.51046 10.8838 3.27405 10.8848 3.03311 10.8801C2.88463 10.8883 2.79228 10.8699 2.75607 10.8249C2.71987 10.7799 2.69886 10.6688 2.69304 10.4915C2.69735 9.79407 2.70619 9.10228 2.71955 8.4161C2.73292 7.72993 2.74175 7.03813 2.74607 6.34071C2.74434 5.95317 2.74338 5.5269 2.74316 5.06189C2.75243 4.586 2.75157 4.15419 2.74058 3.76648C2.72959 3.37876 2.75259 3.14971 2.75259 3.14971C2.77084 2.21255 2.76614 0.611592 2.76614 0.611592C2.76829 0.500919 2.79749 0.429523 2.85374 0.397404C2.9102 0.354218 2.9755 0.333347 3.04964 0.334791C3.33213 0.340292 3.54294 0.364219 3.89224 0.371022C4.10343 0.375135 4.1165 0.372176 4.5371 0.380367C4.69442 0.394502 4.81855 0.446741 4.90949 0.537085C5.00044 0.627428 5.04903 0.750161 5.05528 0.905284C5.05528 0.905284 5.06376 3.00342 5.06163 3.11321L5.05514 3.44619L5.03897 4.27624C5.03186 4.64146 5.01925 5.05086 5.00115 5.50444L4.97334 6.93213C4.97313 7.41927 4.96397 7.88963 4.94586 8.34321L4.92226 9.55508L4.90642 10.3685Z" fill="white"/>
<path d="M2.39741 2.98855C2.22621 2.99396 2.2039 2.97112 2.04891 2.9688L0.552354 2.94641C0.445803 2.94482 0.358697 2.93867 0.291036 2.92797C0.233062 2.91741 0.18492 2.89731 0.146609 2.86768C0.117984 2.83818 0.0944202 2.79423 0.0759168 2.73582C0.0670999 2.67756 0.0586454 2.59508 0.0505532 2.48838C0.0355282 2.1975 0.0253465 1.90669 0.0200081 1.61595L0.0332694 0.729634C0.0347188 0.632769 0.0647203 0.570242 0.123274 0.542052C0.181973 0.504176 0.250068 0.485818 0.327559 0.486977C1.49037 0.47531 2.64812 0.478099 3.80081 0.495346C4.9535 0.512593 6.11075 0.549286 7.27254 0.605424C7.43707 0.617574 7.56719 0.66312 7.66289 0.742061C7.7586 0.821002 7.81028 0.92835 7.81793 1.06411C7.83296 1.35499 7.8383 1.64573 7.83395 1.93632L7.8504 2.77948C7.84779 2.95384 7.75461 3.02995 7.57086 3.00783C7.37727 2.99524 7.18853 2.98273 7.00463 2.97029C6.82074 2.95785 6.63676 2.95025 6.45272 2.9475C6.07509 2.93216 5.69732 2.92651 5.3194 2.93054L2.39741 2.98855Z" fill="white"/>
<path d="M24.9964 6.88569C24.955 7.26009 24.893 7.62228 24.8102 7.97226C24.7274 8.32224 24.6033 8.65595 24.4378 8.97337C24.2805 9.28266 24.0778 9.5716 23.8295 9.84019C23.5895 10.1006 23.2956 10.3285 22.948 10.5239C22.6749 10.6785 22.3935 10.7965 22.1039 10.8779C21.8142 10.9593 21.5121 11 21.1976 11C20.6845 11 20.2251 10.939 19.8196 10.8169C19.4223 10.6867 19.0706 10.5239 18.7644 10.3285C18.4664 10.1251 18.2099 9.90123 17.9947 9.65706C17.7878 9.40474 17.614 9.16057 17.4733 8.92454C17.3408 8.68036 17.2415 8.45654 17.1753 8.25306C17.1091 8.04958 17.0719 7.8868 17.0636 7.76471C17.047 7.54496 17.0305 7.3252 17.0139 7.10545C16.9891 6.88569 16.9974 6.66187 17.0388 6.43397C17.1215 6.03515 17.2581 5.64448 17.4484 5.26194C17.6471 4.8794 17.8954 4.53349 18.1933 4.2242C18.4995 3.91492 18.8596 3.65447 19.2734 3.44285C19.6872 3.22309 20.1507 3.08473 20.6638 3.02775C20.97 2.98706 21.2721 2.99113 21.57 3.03996C21.8763 3.0888 22.1742 3.16612 22.4639 3.27193C22.9605 3.45913 23.3784 3.72365 23.7177 4.06549C24.0571 4.39919 24.3343 4.80615 24.5495 5.28636C24.6654 5.54681 24.773 5.80319 24.8723 6.0555C24.9716 6.30781 25.013 6.58454 24.9964 6.88569Z" fill="white"/>
<path d="M23 6.91587C23 6.81231 22.9956 6.73464 22.9869 6.68286C22.9869 6.62245 22.9825 6.57498 22.9738 6.54046C22.9651 6.50594 22.9564 6.47574 22.9477 6.44985C22.939 6.41533 22.9303 6.37218 22.9216 6.3204C22.8954 6.19095 22.8214 6.05287 22.6994 5.90616C22.5862 5.75082 22.4424 5.60842 22.2682 5.47897C22.1027 5.34089 21.9154 5.2287 21.7063 5.1424C21.5059 5.04747 21.3099 5.00001 21.1182 5.00001C20.7262 5.00001 20.3952 5.07768 20.1251 5.23302C19.8637 5.38836 19.6503 5.58253 19.4848 5.81554C19.328 6.03992 19.2104 6.28588 19.132 6.55341C19.0535 6.82094 19.01 7.06689 19.0013 7.29127C18.9926 7.43798 19.0274 7.61058 19.1058 7.80907C19.1929 7.99893 19.3193 8.18447 19.4848 8.3657C19.659 8.5383 19.8681 8.68933 20.112 8.81878C20.3647 8.9396 20.6478 9.00001 20.9614 9.00001C21.3099 9.00001 21.6104 8.93097 21.8631 8.79289C22.1157 8.64618 22.3248 8.46926 22.4903 8.26214C22.6646 8.05502 22.7909 7.83064 22.8693 7.589C22.9564 7.34737 23 7.12299 23 6.91587Z" fill="black"/>
</svg>
