<svg width="77" height="9" viewBox="0 0 77 9" fill="none" xmlns="http://www.w3.org/2000/svg">
<path d="M38.9965 4.88568C38.9551 5.26008 38.893 5.62227 38.8102 5.97225C38.7275 6.32224 38.6033 6.65594 38.4378 6.97336C38.2806 7.28265 38.0778 7.57159 37.8295 7.84018C37.5895 8.10063 37.2957 8.32852 36.9481 8.52386C36.675 8.67851 36.3936 8.79652 36.1039 8.87791C35.8142 8.9593 35.5121 9 35.1976 9C34.6845 9 34.2252 8.93896 33.8196 8.81687C33.4224 8.68664 33.0706 8.52386 32.7644 8.32852C32.4665 8.12505 32.2099 7.90122 31.9947 7.65705C31.7878 7.40474 31.614 7.16056 31.4733 6.92453C31.3409 6.68036 31.2416 6.45653 31.1754 6.25305C31.1091 6.04957 31.0719 5.88679 31.0636 5.76471C31.0471 5.54495 31.0305 5.32519 31.014 5.10544C30.9891 4.88568 30.9974 4.66186 31.0388 4.43396C31.1216 4.03515 31.2581 3.64447 31.4485 3.26193C31.6471 2.87939 31.8954 2.53348 32.1933 2.2242C32.4996 1.91491 32.8596 1.65446 33.2734 1.44284C33.6872 1.22309 34.1507 1.08472 34.6638 1.02775C34.97 0.987052 35.2721 0.991121 35.5701 1.03996C35.8763 1.08879 36.1742 1.16611 36.4639 1.27192C36.9605 1.45912 37.3784 1.72364 37.7178 2.06548C38.0571 2.39919 38.3343 2.80614 38.5495 3.28635C38.6654 3.5468 38.773 3.80318 38.8723 4.05549C38.9716 4.30781 39.013 4.58454 38.9965 4.88568Z" fill="white"/>
<path d="M37 4.91586C37 4.8123 36.9956 4.73463 36.9869 4.68285C36.9869 4.62244 36.9826 4.57497 36.9739 4.54045C36.9652 4.50593 36.9564 4.47573 36.9477 4.44984C36.939 4.41532 36.9303 4.37217 36.9216 4.32039C36.8955 4.19094 36.8214 4.05286 36.6994 3.90615C36.5862 3.75081 36.4425 3.60841 36.2682 3.47896C36.1027 3.34089 35.9154 3.22869 35.7063 3.14239C35.5059 3.04746 35.3099 3 35.1183 3C34.7262 3 34.3952 3.07767 34.1251 3.23301C33.8638 3.38835 33.6503 3.58252 33.4848 3.81553C33.328 4.03991 33.2104 4.28587 33.132 4.5534C33.0536 4.82093 33.01 5.06688 33.0013 5.29126C32.9926 5.43797 33.0274 5.61057 33.1058 5.80906C33.193 5.99892 33.3193 6.18447 33.4848 6.3657C33.659 6.5383 33.8681 6.68932 34.1121 6.81877C34.3647 6.93959 34.6478 7 34.9614 7C35.3099 7 35.6105 6.93096 35.8631 6.79288C36.1158 6.64617 36.3248 6.46926 36.4904 6.26214C36.6646 6.05502 36.7909 5.83064 36.8693 5.589C36.9564 5.34736 37 5.12298 37 4.91586Z" fill="black"/>
<path d="M3.64799 1.092C4.07999 1.108 4.50799 1.132 4.93199 1.164C5.36399 1.196 5.78799 1.296 6.20399 1.464C6.41199 1.552 6.59999 1.66 6.76799 1.788C6.93599 1.908 7.07999 2.06 7.19999 2.244C7.38399 2.516 7.51199 2.804 7.58399 3.108C7.65599 3.404 7.67999 3.7 7.65599 3.996C7.63199 4.284 7.56799 4.564 7.46399 4.836C7.35999 5.1 7.22399 5.34 7.05599 5.556C6.97599 5.652 6.87599 5.74 6.75599 5.82C6.64399 5.892 6.53199 5.964 6.41999 6.036C6.35599 6.076 6.31599 6.116 6.29999 6.156C6.29199 6.196 6.30799 6.248 6.34799 6.312C6.48399 6.544 6.61999 6.776 6.75599 7.008C6.89999 7.232 7.04399 7.46 7.18799 7.692C7.24399 7.78 7.31199 7.9 7.39199 8.052C7.47199 8.204 7.54399 8.324 7.60799 8.412C7.66399 8.508 7.67199 8.604 7.63199 8.7C7.60799 8.764 7.57199 8.8 7.52399 8.808C7.48399 8.816 7.43599 8.82 7.37999 8.82C7.12399 8.804 6.87199 8.8 6.62399 8.808C6.37599 8.816 6.12399 8.82 5.86799 8.82C5.77999 8.82 5.71599 8.804 5.67599 8.772C5.63599 8.74 5.59599 8.692 5.55599 8.628C5.40399 8.348 5.23599 8.036 5.05199 7.692C4.87599 7.34 4.70799 7.024 4.54799 6.744C4.51599 6.688 4.48399 6.636 4.45199 6.588C4.41999 6.54 4.38799 6.492 4.35599 6.444C4.29199 6.324 4.18399 6.264 4.03199 6.264C3.94399 6.264 3.85999 6.26 3.77999 6.252C3.70799 6.236 3.62799 6.228 3.53999 6.228C3.41199 6.22 3.32399 6.236 3.27599 6.276C3.23599 6.308 3.21599 6.392 3.21599 6.528C3.22399 6.84 3.23199 7.152 3.23999 7.464C3.24799 7.776 3.25599 8.088 3.26399 8.4C3.27199 8.512 3.25999 8.592 3.22799 8.64C3.19599 8.688 3.12799 8.724 3.02399 8.748C2.98399 8.764 2.93999 8.772 2.89199 8.772C2.84399 8.772 2.79999 8.772 2.75999 8.772C2.55199 8.772 2.34799 8.772 2.14799 8.772C1.95599 8.78 1.75599 8.784 1.54799 8.784C1.48399 8.784 1.42399 8.78 1.36799 8.772C1.31199 8.772 1.25199 8.768 1.18799 8.76C1.05199 8.744 0.971994 8.668 0.947994 8.532C0.939994 8.468 0.927994 8.404 0.911994 8.34C0.903994 8.268 0.899994 8.2 0.899994 8.136C0.907994 7.816 0.911994 7.496 0.911994 7.176C0.911994 6.856 0.919994 6.536 0.935994 6.216C0.943994 5.912 0.947994 5.616 0.947994 5.328C0.947994 5.032 0.947994 4.732 0.947994 4.428C0.955994 3.94 0.955994 3.456 0.947994 2.976C0.939994 2.488 0.935994 2 0.935994 1.512C0.935994 1.336 0.959994 1.228 1.00799 1.188C1.05599 1.14 1.17199 1.12 1.35599 1.128H2.36399C2.36399 1.128 2.40799 1.128 2.49599 1.128C2.59199 1.12 2.70799 1.112 2.84399 1.104C2.97999 1.096 3.11999 1.092 3.26399 1.092C3.40799 1.084 3.53599 1.084 3.64799 1.092ZM3.23999 3.792C3.23199 3.904 3.22799 4.012 3.22799 4.116V4.608C3.22799 4.744 3.29999 4.812 3.44399 4.812C3.60399 4.796 3.75999 4.788 3.91199 4.788C4.07199 4.78 4.23199 4.768 4.39199 4.752C4.55199 4.728 4.70399 4.684 4.84799 4.62C4.99999 4.556 5.13599 4.46 5.25599 4.332C5.34399 4.236 5.39999 4.12 5.42399 3.984C5.45599 3.848 5.45599 3.716 5.42399 3.588C5.39999 3.452 5.34799 3.336 5.26799 3.24C5.18799 3.136 5.08799 3.068 4.96799 3.036C4.42399 2.9 3.89199 2.844 3.37199 2.868C3.34799 2.876 3.31999 2.9 3.28799 2.94C3.26399 2.972 3.25199 3 3.25199 3.024C3.24399 3.136 3.23999 3.264 3.23999 3.408C3.23999 3.552 3.23999 3.68 3.23999 3.792Z" fill="white"/>
<path d="M8.81099 3.576C8.81099 3.272 8.80299 2.972 8.78699 2.676C8.77899 2.372 8.76699 2.068 8.75099 1.764C8.75099 1.724 8.74699 1.684 8.73899 1.644C8.73899 1.596 8.73899 1.548 8.73899 1.5C8.73899 1.364 8.75499 1.264 8.78699 1.2C8.81899 1.136 8.92699 1.108 9.11099 1.116C9.31899 1.124 9.57899 1.128 9.89099 1.128C10.211 1.128 10.543 1.128 10.887 1.128C11.239 1.128 11.595 1.128 11.955 1.128C12.315 1.128 12.643 1.128 12.939 1.128C13.243 1.12 13.503 1.116 13.719 1.116C13.935 1.116 14.079 1.116 14.151 1.116C14.311 1.116 14.395 1.192 14.403 1.344C14.411 1.552 14.415 1.78 14.415 2.028C14.415 2.276 14.415 2.504 14.415 2.712C14.415 2.736 14.395 2.764 14.355 2.796C14.323 2.828 14.295 2.844 14.271 2.844C14.159 2.86 14.047 2.876 13.935 2.892C13.831 2.9 13.723 2.904 13.611 2.904C13.219 2.912 12.839 2.916 12.471 2.916C12.103 2.916 11.723 2.92 11.331 2.928C11.195 2.928 11.087 2.932 11.007 2.94C10.935 2.948 10.883 2.972 10.851 3.012C10.819 3.044 10.803 3.1 10.803 3.18C10.803 3.252 10.807 3.36 10.815 3.504C10.815 3.584 10.811 3.636 10.803 3.66C10.803 3.684 10.807 3.732 10.815 3.804C10.823 3.9 10.831 3.976 10.839 4.032C10.847 4.088 10.863 4.132 10.887 4.164C10.911 4.188 10.951 4.204 11.007 4.212C11.063 4.22 11.143 4.228 11.247 4.236C11.327 4.252 11.435 4.256 11.571 4.248C11.715 4.24 11.831 4.24 11.919 4.248C12.015 4.256 12.083 4.272 12.123 4.296C12.171 4.312 12.203 4.34 12.219 4.38C12.235 4.42 12.239 4.472 12.231 4.536C12.231 4.6 12.231 4.68 12.231 4.776C12.231 4.808 12.227 4.84 12.219 4.872C12.219 4.896 12.223 4.924 12.231 4.956C12.231 5.1 12.159 5.172 12.015 5.172C11.775 5.188 11.539 5.188 11.307 5.172C11.179 5.172 11.079 5.176 11.007 5.184C10.935 5.184 10.883 5.2 10.851 5.232C10.827 5.264 10.811 5.316 10.803 5.388C10.803 5.452 10.803 5.544 10.803 5.664V6.552C10.811 6.72 10.895 6.804 11.055 6.804H13.971C14.115 6.788 14.215 6.8 14.271 6.84C14.327 6.872 14.359 6.96 14.367 7.104C14.383 7.328 14.391 7.576 14.391 7.848C14.399 8.12 14.399 8.368 14.391 8.592C14.391 8.624 14.371 8.66 14.331 8.7C14.299 8.732 14.267 8.752 14.235 8.76C14.187 8.768 14.075 8.772 13.899 8.772C13.731 8.772 13.523 8.772 13.275 8.772C13.035 8.772 12.771 8.768 12.483 8.76C12.195 8.76 11.911 8.756 11.631 8.748C11.351 8.748 11.087 8.748 10.839 8.748C10.591 8.748 10.391 8.748 10.239 8.748C10.055 8.756 9.86699 8.756 9.67499 8.748C9.48299 8.74 9.29499 8.732 9.11099 8.724C8.95899 8.716 8.85899 8.692 8.81099 8.652C8.77099 8.604 8.75099 8.504 8.75099 8.352C8.75099 8.088 8.75099 7.824 8.75099 7.56C8.75099 7.296 8.75499 7.032 8.76299 6.768C8.76299 6.584 8.76299 6.408 8.76299 6.24C8.77099 6.064 8.77899 5.884 8.78699 5.7C8.77899 5.7 8.77499 5.624 8.77499 5.472C8.78299 5.312 8.78699 5.124 8.78699 4.908C8.79499 4.684 8.79899 4.452 8.79899 4.212C8.80699 3.964 8.81099 3.752 8.81099 3.576Z" fill="white"/>
<path d="M15.8311 2.424C15.8391 2.288 15.8391 2.152 15.8311 2.016C15.8231 1.872 15.8191 1.728 15.8191 1.584C15.8271 1.416 15.8591 1.3 15.9151 1.236C15.9711 1.172 16.0831 1.132 16.2511 1.116C16.3871 1.1 16.5191 1.092 16.6471 1.092C16.7751 1.092 16.9031 1.092 17.0311 1.092C17.4631 1.1 17.8951 1.104 18.3271 1.104C18.7591 1.104 19.1911 1.112 19.6231 1.128C20.0711 1.152 20.4911 1.236 20.8831 1.38C20.9951 1.42 21.1351 1.508 21.3031 1.644C21.4791 1.772 21.6431 1.94 21.7951 2.148C21.9551 2.348 22.0911 2.58 22.2031 2.844C22.3151 3.1 22.3711 3.372 22.3711 3.66C22.3711 4.108 22.2951 4.488 22.1431 4.8C21.9911 5.112 21.7951 5.38 21.5551 5.604C21.3151 5.82 21.0471 6 20.7511 6.144C20.4631 6.28 20.1791 6.392 19.8991 6.48C19.4271 6.624 18.9391 6.672 18.4351 6.624C18.2671 6.608 18.1671 6.624 18.1351 6.672C18.1031 6.72 18.0871 6.836 18.0871 7.02C18.0791 7.26 18.0751 7.484 18.0751 7.692C18.0831 7.892 18.0951 8.108 18.1111 8.34C18.1191 8.508 18.0951 8.628 18.0391 8.7C17.9831 8.772 17.8711 8.804 17.7031 8.796C17.4551 8.796 17.1951 8.8 16.9231 8.808C16.6511 8.824 16.3911 8.824 16.1431 8.808C16.0311 8.8 15.9551 8.776 15.9151 8.736C15.8831 8.688 15.8591 8.604 15.8431 8.484C15.8271 8.268 15.8231 8.052 15.8311 7.836C15.8391 7.62 15.8391 7.404 15.8311 7.188C15.8151 6.78 15.8031 6.38 15.7951 5.988C15.7951 5.588 15.7871 5.184 15.7711 4.776C15.7711 4.776 15.7711 4.692 15.7711 4.524C15.7791 4.348 15.7831 4.14 15.7831 3.9C15.7911 3.652 15.7991 3.392 15.8071 3.12C15.8151 2.848 15.8231 2.616 15.8311 2.424ZM18.3991 2.508C18.2391 2.524 18.1431 2.548 18.1111 2.58C18.0791 2.612 18.0671 2.708 18.0751 2.868C18.0751 3.084 18.0751 3.34 18.0751 3.636C18.0831 3.932 18.0911 4.188 18.0991 4.404C18.1071 4.516 18.1271 4.592 18.1591 4.632C18.1911 4.672 18.2591 4.688 18.3631 4.68C18.4431 4.672 18.5791 4.664 18.7711 4.656C18.9711 4.648 19.1711 4.612 19.3711 4.548C19.5791 4.484 19.7591 4.384 19.9111 4.248C20.0631 4.112 20.1391 3.912 20.1391 3.648C20.1391 3.44 20.0951 3.268 20.0071 3.132C19.9271 2.988 19.8231 2.872 19.6951 2.784C19.5751 2.696 19.4391 2.632 19.2871 2.592C19.1431 2.552 19.0071 2.528 18.8791 2.52C18.7511 2.504 18.6431 2.5 18.5551 2.508C18.4671 2.508 18.4151 2.508 18.3991 2.508Z" fill="white"/>
<path d="M26.1363 1.092C26.5683 1.108 26.9963 1.132 27.4203 1.164C27.8523 1.196 28.2763 1.296 28.6923 1.464C28.9003 1.552 29.0883 1.66 29.2563 1.788C29.4243 1.908 29.5683 2.06 29.6883 2.244C29.8723 2.516 30.0003 2.804 30.0723 3.108C30.1443 3.404 30.1683 3.7 30.1443 3.996C30.1203 4.284 30.0563 4.564 29.9523 4.836C29.8483 5.1 29.7123 5.34 29.5443 5.556C29.4643 5.652 29.3643 5.74 29.2443 5.82C29.1323 5.892 29.0203 5.964 28.9083 6.036C28.8443 6.076 28.8043 6.116 28.7883 6.156C28.7803 6.196 28.7963 6.248 28.8363 6.312C28.9723 6.544 29.1083 6.776 29.2443 7.008C29.3883 7.232 29.5323 7.46 29.6763 7.692C29.7323 7.78 29.8003 7.9 29.8803 8.052C29.9603 8.204 30.0323 8.324 30.0963 8.412C30.1523 8.508 30.1603 8.604 30.1203 8.7C30.0963 8.764 30.0603 8.8 30.0123 8.808C29.9723 8.816 29.9243 8.82 29.8683 8.82C29.6123 8.804 29.3603 8.8 29.1123 8.808C28.8643 8.816 28.6123 8.82 28.3563 8.82C28.2683 8.82 28.2043 8.804 28.1643 8.772C28.1243 8.74 28.0843 8.692 28.0443 8.628C27.8923 8.348 27.7243 8.036 27.5403 7.692C27.3643 7.34 27.1963 7.024 27.0363 6.744C27.0043 6.688 26.9723 6.636 26.9403 6.588C26.9083 6.54 26.8763 6.492 26.8443 6.444C26.7803 6.324 26.6723 6.264 26.5203 6.264C26.4323 6.264 26.3483 6.26 26.2683 6.252C26.1963 6.236 26.1163 6.228 26.0283 6.228C25.9003 6.22 25.8123 6.236 25.7643 6.276C25.7243 6.308 25.7043 6.392 25.7043 6.528C25.7123 6.84 25.7203 7.152 25.7283 7.464C25.7363 7.776 25.7443 8.088 25.7523 8.4C25.7603 8.512 25.7483 8.592 25.7163 8.64C25.6843 8.688 25.6163 8.724 25.5123 8.748C25.4723 8.764 25.4283 8.772 25.3803 8.772C25.3323 8.772 25.2883 8.772 25.2483 8.772C25.0403 8.772 24.8363 8.772 24.6363 8.772C24.4443 8.78 24.2443 8.784 24.0363 8.784C23.9723 8.784 23.9123 8.78 23.8563 8.772C23.8003 8.772 23.7403 8.768 23.6763 8.76C23.5403 8.744 23.4603 8.668 23.4363 8.532C23.4283 8.468 23.4163 8.404 23.4003 8.34C23.3923 8.268 23.3883 8.2 23.3883 8.136C23.3963 7.816 23.4003 7.496 23.4003 7.176C23.4003 6.856 23.4083 6.536 23.4243 6.216C23.4323 5.912 23.4363 5.616 23.4363 5.328C23.4363 5.032 23.4363 4.732 23.4363 4.428C23.4443 3.94 23.4443 3.456 23.4363 2.976C23.4283 2.488 23.4243 2 23.4243 1.512C23.4243 1.336 23.4483 1.228 23.4963 1.188C23.5443 1.14 23.6603 1.12 23.8443 1.128H24.8523C24.8523 1.128 24.8963 1.128 24.9843 1.128C25.0803 1.12 25.1963 1.112 25.3323 1.104C25.4683 1.096 25.6083 1.092 25.7523 1.092C25.8963 1.084 26.0243 1.084 26.1363 1.092ZM25.7283 3.792C25.7203 3.904 25.7163 4.012 25.7163 4.116V4.608C25.7163 4.744 25.7883 4.812 25.9323 4.812C26.0923 4.796 26.2483 4.788 26.4003 4.788C26.5603 4.78 26.7203 4.768 26.8803 4.752C27.0403 4.728 27.1923 4.684 27.3363 4.62C27.4883 4.556 27.6243 4.46 27.7443 4.332C27.8323 4.236 27.8883 4.12 27.9123 3.984C27.9443 3.848 27.9443 3.716 27.9123 3.588C27.8883 3.452 27.8363 3.336 27.7563 3.24C27.6763 3.136 27.5763 3.068 27.4563 3.036C26.9123 2.9 26.3803 2.844 25.8603 2.868C25.8363 2.876 25.8083 2.9 25.7763 2.94C25.7523 2.972 25.7403 3 25.7403 3.024C25.7323 3.136 25.7283 3.264 25.7283 3.408C25.7283 3.552 25.7283 3.68 25.7283 3.792Z" fill="white"/>
<path d="M38.7993 4.836C38.7593 5.204 38.6993 5.56 38.6193 5.904C38.5393 6.248 38.4193 6.576 38.2593 6.888C38.1073 7.192 37.9113 7.476 37.6713 7.74C37.4393 7.996 37.1553 8.22 36.8193 8.412C36.5553 8.564 36.2833 8.68 36.0033 8.76C35.7233 8.84 35.4313 8.88 35.1273 8.88C34.6313 8.88 34.1873 8.82 33.7953 8.7C33.4113 8.572 33.0713 8.412 32.7753 8.22C32.4873 8.02 32.2393 7.8 32.0313 7.56C31.8313 7.312 31.6633 7.072 31.5273 6.84C31.3993 6.6 31.3033 6.38 31.2393 6.18C31.1753 5.98 31.1393 5.82 31.1313 5.7C31.1153 5.484 31.0993 5.268 31.0833 5.052C31.0593 4.836 31.0673 4.616 31.1073 4.392C31.1873 4 31.3193 3.616 31.5033 3.24C31.6953 2.864 31.9353 2.524 32.2233 2.22C32.5193 1.916 32.8673 1.66 33.2673 1.452C33.6673 1.236 34.1153 1.1 34.6113 1.044C34.9073 1.004 35.1993 1.008 35.4873 1.056C35.7833 1.104 36.0713 1.18 36.3513 1.284C36.8313 1.468 37.2353 1.728 37.5633 2.064C37.8913 2.392 38.1593 2.792 38.3673 3.264C38.4793 3.52 38.5833 3.772 38.6793 4.02C38.7753 4.268 38.8153 4.54 38.7993 4.836ZM36.8073 4.788C36.8073 4.692 36.8033 4.62 36.7953 4.572C36.7953 4.516 36.7913 4.472 36.7833 4.44C36.7753 4.408 36.7673 4.38 36.7593 4.356C36.7513 4.324 36.7433 4.284 36.7353 4.236C36.7113 4.116 36.6433 3.988 36.5313 3.852C36.4273 3.708 36.2953 3.576 36.1353 3.456C35.9833 3.328 35.8113 3.224 35.6193 3.144C35.4353 3.056 35.2553 3.012 35.0793 3.012C34.7193 3.012 34.4153 3.084 34.1673 3.228C33.9273 3.372 33.7313 3.552 33.5793 3.768C33.4353 3.976 33.3273 4.204 33.2553 4.452C33.1833 4.7 33.1433 4.928 33.1353 5.136C33.1273 5.272 33.1593 5.432 33.2313 5.616C33.3113 5.792 33.4273 5.964 33.5793 6.132C33.7393 6.292 33.9313 6.432 34.1553 6.552C34.3873 6.664 34.6473 6.72 34.9353 6.72C35.2553 6.72 35.5313 6.656 35.7633 6.528C35.9953 6.392 36.1873 6.228 36.3393 6.036C36.4993 5.844 36.6153 5.636 36.6873 5.412C36.7673 5.188 36.8073 4.98 36.8073 4.788Z" fill="white"/>
<path d="M39.9695 1.5C39.9695 1.388 39.9895 1.304 40.0295 1.248C40.0695 1.192 40.1455 1.152 40.2575 1.128C40.3215 1.12 40.3855 1.116 40.4495 1.116C40.5135 1.116 40.5775 1.116 40.6415 1.116C40.9375 1.132 41.2375 1.132 41.5415 1.116C41.9495 1.108 42.3535 1.116 42.7535 1.14C43.1615 1.156 43.5695 1.188 43.9775 1.236C44.2255 1.268 44.4415 1.34 44.6255 1.452C44.8175 1.564 44.9895 1.712 45.1415 1.896C45.1895 1.952 45.2295 2.032 45.2615 2.136C45.3015 2.232 45.3375 2.332 45.3695 2.436C45.4015 2.54 45.4255 2.632 45.4415 2.712C45.4655 2.792 45.4775 2.836 45.4775 2.844C45.5095 3.124 45.4695 3.384 45.3575 3.624C45.2535 3.856 45.1095 4.072 44.9255 4.272C44.8535 4.352 44.8215 4.404 44.8295 4.428C44.8375 4.444 44.8935 4.476 44.9975 4.524C45.1095 4.58 45.2175 4.636 45.3215 4.692C45.4335 4.74 45.5375 4.8 45.6335 4.872C46.0015 5.16 46.1935 5.544 46.2095 6.024C46.2175 6.736 46.0015 7.388 45.5615 7.98C45.4975 8.068 45.4135 8.148 45.3095 8.22C45.2135 8.284 45.1175 8.348 45.0215 8.412C44.8775 8.508 44.7215 8.58 44.5535 8.628C44.3935 8.676 44.2255 8.708 44.0495 8.724C43.9135 8.732 43.7375 8.74 43.5215 8.748C43.3055 8.748 43.0695 8.748 42.8135 8.748C42.5655 8.748 42.3095 8.748 42.0455 8.748C41.7815 8.748 41.5335 8.748 41.3015 8.748C41.0775 8.74 40.8815 8.736 40.7135 8.736C40.5455 8.728 40.4295 8.724 40.3655 8.724C40.2055 8.716 40.0975 8.684 40.0415 8.628C39.9935 8.564 39.9695 8.452 39.9695 8.292V4.896C39.9695 4.896 39.9695 4.772 39.9695 4.524C39.9775 4.276 39.9815 3.976 39.9815 3.624C39.9815 3.272 39.9775 2.904 39.9695 2.52C39.9695 2.128 39.9695 1.788 39.9695 1.5ZM41.9855 7.068C41.9855 7.212 42.0535 7.28 42.1895 7.272C42.2855 7.264 42.3815 7.264 42.4775 7.272C42.5735 7.272 42.6655 7.264 42.7535 7.248C42.9135 7.216 43.0695 7.176 43.2215 7.128C43.3735 7.072 43.5135 6.984 43.6415 6.864C43.8255 6.68 43.9015 6.488 43.8695 6.288C43.8455 6.08 43.7175 5.92 43.4855 5.808C43.2775 5.72 43.0575 5.664 42.8255 5.64C42.6015 5.608 42.3735 5.596 42.1415 5.604C42.0135 5.604 41.9495 5.68 41.9495 5.832C41.9495 5.88 41.9495 5.964 41.9495 6.084C41.9575 6.196 41.9615 6.316 41.9615 6.444C41.9695 6.572 41.9735 6.696 41.9735 6.816C41.9815 6.928 41.9855 7.012 41.9855 7.068ZM41.9735 3.66C41.9735 3.812 42.0375 3.884 42.1655 3.876C42.3015 3.868 42.4375 3.864 42.5735 3.864C42.7095 3.856 42.8455 3.844 42.9815 3.828C43.1015 3.804 43.2135 3.764 43.3175 3.708C43.4215 3.644 43.4855 3.54 43.5095 3.396C43.5735 3.1 43.4895 2.872 43.2575 2.712C42.9855 2.512 42.6775 2.416 42.3335 2.424C42.1735 2.424 42.0775 2.44 42.0455 2.472C42.0135 2.504 41.9935 2.6 41.9855 2.76C41.9855 2.784 41.9855 2.836 41.9855 2.916C41.9855 2.996 41.9815 3.084 41.9735 3.18C41.9735 3.276 41.9735 3.368 41.9735 3.456C41.9735 3.544 41.9735 3.612 41.9735 3.66Z" fill="white"/>
<path d="M52.7944 1.092C52.9384 1.084 53.0304 1.096 53.0704 1.128C53.1184 1.16 53.1584 1.244 53.1904 1.38C53.2544 1.644 53.3104 1.9 53.3584 2.148C53.4144 2.396 53.4744 2.652 53.5384 2.916C53.6744 3.492 53.8104 4.06 53.9464 4.62C54.0824 5.18 54.2184 5.744 54.3544 6.312C54.4184 6.568 54.4784 6.828 54.5344 7.092C54.5984 7.348 54.6624 7.604 54.7264 7.86C54.7504 7.964 54.7744 8.068 54.7984 8.172C54.8224 8.268 54.8464 8.364 54.8704 8.46C54.9184 8.644 54.8544 8.752 54.6784 8.784H54.5944C54.3064 8.8 54.0184 8.8 53.7304 8.784C53.4424 8.776 53.1584 8.78 52.8784 8.796C52.7584 8.796 52.6824 8.776 52.6504 8.736C52.6264 8.696 52.6064 8.608 52.5904 8.472C52.5664 8.12 52.5024 7.768 52.3984 7.416C52.3824 7.336 52.3464 7.292 52.2904 7.284C52.2424 7.276 52.1984 7.272 52.1584 7.272C51.8704 7.264 51.5824 7.264 51.2944 7.272C51.0064 7.28 50.7224 7.288 50.4424 7.296C50.3784 7.296 50.3304 7.312 50.2984 7.344C50.2664 7.376 50.2424 7.42 50.2264 7.476C50.1784 7.66 50.1264 7.832 50.0704 7.992C50.0224 8.152 49.9744 8.324 49.9264 8.508C49.9024 8.596 49.8704 8.66 49.8304 8.7C49.7984 8.732 49.7264 8.748 49.6144 8.748C49.5584 8.748 49.4344 8.748 49.2424 8.748C49.0504 8.748 48.8504 8.748 48.6424 8.748C48.4344 8.748 48.2424 8.748 48.0664 8.748C47.8984 8.74 47.8104 8.736 47.8024 8.736C47.6104 8.72 47.5464 8.62 47.6104 8.436C47.6904 8.188 47.7704 7.948 47.8504 7.716C47.9304 7.484 48.0144 7.248 48.1024 7.008C48.2704 6.472 48.4384 5.94 48.6064 5.412C48.7744 4.876 48.9464 4.34 49.1224 3.804C49.1784 3.62 49.2464 3.396 49.3264 3.132C49.4064 2.868 49.4824 2.612 49.5544 2.364C49.6344 2.116 49.7024 1.904 49.7584 1.728C49.8144 1.552 49.8464 1.456 49.8544 1.44C49.8784 1.36 49.8944 1.296 49.9024 1.248C49.9184 1.2 49.9384 1.164 49.9624 1.14C49.9944 1.116 50.0384 1.1 50.0944 1.092C50.1584 1.084 50.2464 1.08 50.3584 1.08C50.4544 1.08 50.6144 1.084 50.8384 1.092C51.0704 1.092 51.3104 1.092 51.5584 1.092C51.8144 1.092 52.0584 1.092 52.2904 1.092C52.5224 1.092 52.6904 1.092 52.7944 1.092ZM51.8944 5.832C52.0224 5.824 52.0704 5.756 52.0384 5.628C51.9744 5.348 51.9064 5.064 51.8344 4.776C51.7704 4.488 51.7064 4.204 51.6424 3.924C51.6344 3.9 51.6224 3.876 51.6064 3.852C51.5904 3.82 51.5664 3.804 51.5344 3.804C51.5024 3.804 51.4824 3.816 51.4744 3.84C51.4744 3.864 51.4704 3.884 51.4624 3.9C51.3744 4.156 51.2864 4.416 51.1984 4.68C51.1104 4.936 51.0224 5.192 50.9344 5.448C50.8944 5.568 50.8664 5.66 50.8504 5.724C50.8344 5.78 50.8344 5.82 50.8504 5.844C50.8744 5.868 50.9144 5.88 50.9704 5.88C51.0344 5.88 51.1224 5.88 51.2344 5.88C51.2344 5.88 51.2584 5.88 51.3064 5.88C51.3624 5.872 51.4224 5.868 51.4864 5.868C51.5584 5.86 51.6304 5.856 51.7024 5.856C51.7824 5.848 51.8464 5.84 51.8944 5.832Z" fill="white"/>
<path d="M63.3266 3.576C63.3266 3.272 63.3186 2.972 63.3026 2.676C63.2946 2.372 63.2826 2.068 63.2666 1.764C63.2666 1.724 63.2626 1.684 63.2546 1.644C63.2546 1.596 63.2546 1.548 63.2546 1.5C63.2546 1.364 63.2706 1.264 63.3026 1.2C63.3346 1.136 63.4426 1.108 63.6266 1.116C63.8346 1.124 64.0946 1.128 64.4066 1.128C64.7266 1.128 65.0586 1.128 65.4026 1.128C65.7546 1.128 66.1106 1.128 66.4706 1.128C66.8306 1.128 67.1586 1.128 67.4546 1.128C67.7586 1.12 68.0186 1.116 68.2346 1.116C68.4506 1.116 68.5946 1.116 68.6666 1.116C68.8266 1.116 68.9106 1.192 68.9186 1.344C68.9266 1.552 68.9306 1.78 68.9306 2.028C68.9306 2.276 68.9306 2.504 68.9306 2.712C68.9306 2.736 68.9106 2.764 68.8706 2.796C68.8386 2.828 68.8106 2.844 68.7866 2.844C68.6746 2.86 68.5626 2.876 68.4506 2.892C68.3466 2.9 68.2386 2.904 68.1266 2.904C67.7346 2.912 67.3546 2.916 66.9866 2.916C66.6186 2.916 66.2386 2.92 65.8466 2.928C65.7106 2.928 65.6026 2.932 65.5226 2.94C65.4506 2.948 65.3986 2.972 65.3666 3.012C65.3346 3.044 65.3186 3.1 65.3186 3.18C65.3186 3.252 65.3226 3.36 65.3306 3.504C65.3306 3.584 65.3266 3.636 65.3186 3.66C65.3186 3.684 65.3226 3.732 65.3306 3.804C65.3386 3.9 65.3466 3.976 65.3546 4.032C65.3626 4.088 65.3786 4.132 65.4026 4.164C65.4266 4.188 65.4666 4.204 65.5226 4.212C65.5786 4.22 65.6586 4.228 65.7626 4.236C65.8426 4.252 65.9506 4.256 66.0866 4.248C66.2306 4.24 66.3466 4.24 66.4346 4.248C66.5306 4.256 66.5986 4.272 66.6386 4.296C66.6866 4.312 66.7186 4.34 66.7346 4.38C66.7506 4.42 66.7546 4.472 66.7466 4.536C66.7466 4.6 66.7466 4.68 66.7466 4.776C66.7466 4.808 66.7426 4.84 66.7346 4.872C66.7346 4.896 66.7386 4.924 66.7466 4.956C66.7466 5.1 66.6746 5.172 66.5306 5.172C66.2906 5.188 66.0546 5.188 65.8226 5.172C65.6946 5.172 65.5946 5.176 65.5226 5.184C65.4506 5.184 65.3986 5.2 65.3666 5.232C65.3426 5.264 65.3266 5.316 65.3186 5.388C65.3186 5.452 65.3186 5.544 65.3186 5.664V6.552C65.3266 6.72 65.4106 6.804 65.5706 6.804H68.4866C68.6306 6.788 68.7306 6.8 68.7866 6.84C68.8426 6.872 68.8746 6.96 68.8826 7.104C68.8986 7.328 68.9066 7.576 68.9066 7.848C68.9146 8.12 68.9146 8.368 68.9066 8.592C68.9066 8.624 68.8866 8.66 68.8466 8.7C68.8146 8.732 68.7826 8.752 68.7506 8.76C68.7026 8.768 68.5906 8.772 68.4146 8.772C68.2466 8.772 68.0386 8.772 67.7906 8.772C67.5506 8.772 67.2866 8.768 66.9986 8.76C66.7106 8.76 66.4266 8.756 66.1466 8.748C65.8666 8.748 65.6026 8.748 65.3546 8.748C65.1066 8.748 64.9066 8.748 64.7546 8.748C64.5706 8.756 64.3826 8.756 64.1906 8.748C63.9986 8.74 63.8106 8.732 63.6266 8.724C63.4746 8.716 63.3746 8.692 63.3266 8.652C63.2866 8.604 63.2666 8.504 63.2666 8.352C63.2666 8.088 63.2666 7.824 63.2666 7.56C63.2666 7.296 63.2706 7.032 63.2786 6.768C63.2786 6.584 63.2786 6.408 63.2786 6.24C63.2866 6.064 63.2946 5.884 63.3026 5.7C63.2946 5.7 63.2906 5.624 63.2906 5.472C63.2986 5.312 63.3026 5.124 63.3026 4.908C63.3106 4.684 63.3146 4.452 63.3146 4.212C63.3226 3.964 63.3266 3.752 63.3266 3.576Z" fill="white"/>
<path d="M74.8227 1.176C75.0307 1.264 75.2067 1.384 75.3507 1.536C75.4947 1.688 75.6427 1.84 75.7947 1.992C75.8427 2.04 75.8587 2.096 75.8427 2.16C75.8267 2.224 75.7987 2.276 75.7587 2.316C75.6147 2.476 75.4707 2.636 75.3267 2.796C75.1827 2.948 75.0347 3.1 74.8827 3.252C74.8187 3.324 74.7387 3.332 74.6427 3.276C74.5627 3.212 74.4827 3.148 74.4027 3.084C74.3227 3.02 74.2387 2.964 74.1507 2.916C74.0387 2.852 73.9267 2.792 73.8147 2.736C73.7027 2.672 73.5907 2.62 73.4787 2.58C73.3427 2.532 73.2187 2.528 73.1067 2.568C73.0027 2.6 72.9227 2.672 72.8667 2.784C72.8187 2.88 72.8027 2.996 72.8187 3.132C72.8427 3.26 72.9027 3.36 72.9987 3.432C73.1267 3.52 73.2547 3.604 73.3827 3.684C73.5187 3.756 73.6547 3.828 73.7907 3.9C73.9827 4.012 74.1747 4.124 74.3667 4.236C74.5667 4.34 74.7587 4.448 74.9427 4.56C75.1267 4.672 75.2907 4.808 75.4347 4.968C75.5867 5.12 75.7307 5.28 75.8667 5.448C76.0267 5.656 76.1227 5.88 76.1547 6.12C76.1947 6.36 76.1987 6.604 76.1667 6.852C76.0547 7.812 75.5307 8.456 74.5947 8.784C74.2267 8.912 73.8627 8.968 73.5027 8.952C73.1507 8.944 72.7907 8.888 72.4227 8.784C72.0867 8.696 71.7787 8.572 71.4987 8.412C71.2187 8.244 70.9387 8.072 70.6587 7.896C70.6107 7.872 70.5627 7.836 70.5147 7.788C70.4427 7.724 70.3867 7.676 70.3467 7.644C70.3147 7.604 70.2947 7.564 70.2867 7.524C70.2787 7.484 70.2827 7.44 70.2987 7.392C70.3227 7.336 70.3587 7.264 70.4067 7.176C70.4947 7.008 70.5747 6.836 70.6467 6.66C70.7267 6.484 70.8067 6.308 70.8867 6.132C70.9187 6.068 70.9467 6.008 70.9707 5.952C70.9947 5.896 71.0267 5.84 71.0667 5.784C71.0907 5.744 71.1227 5.72 71.1627 5.712C71.2027 5.696 71.2427 5.708 71.2827 5.748C71.3707 5.836 71.4587 5.924 71.5467 6.012C71.6347 6.1 71.7227 6.188 71.8107 6.276C72.0187 6.476 72.2467 6.636 72.4947 6.756C72.7507 6.868 73.0107 6.968 73.2747 7.056C73.3787 7.088 73.4987 7.092 73.6347 7.068C73.7547 7.044 73.8547 6.996 73.9347 6.924C74.0147 6.852 74.0667 6.768 74.0907 6.672C74.1227 6.576 74.1267 6.476 74.1027 6.372C74.0787 6.268 74.0227 6.172 73.9347 6.084C73.8307 5.98 73.7187 5.888 73.5987 5.808C73.4787 5.72 73.3547 5.64 73.2267 5.568C73.0187 5.44 72.8067 5.32 72.5907 5.208C72.3747 5.088 72.1547 4.976 71.9307 4.872C71.5947 4.712 71.3307 4.504 71.1387 4.248C70.9547 3.984 70.8147 3.68 70.7187 3.336C70.5987 2.84 70.6827 2.392 70.9707 1.992C71.0827 1.832 71.1947 1.7 71.3067 1.596C71.4187 1.484 71.5947 1.368 71.8347 1.248C72.1627 1.088 72.4827 0.988002 72.7947 0.948002C73.1067 0.900002 73.3907 0.888002 73.6467 0.912001C73.9107 0.928002 74.1427 0.964002 74.3427 1.02C74.5507 1.076 74.7107 1.128 74.8227 1.176Z" fill="white"/>
<path d="M59.6711 8.51142C59.6678 8.67704 59.6449 8.78428 59.6024 8.83315C59.5669 8.87388 59.4797 8.89704 59.3409 8.90262L58.8001 8.89208C58.6266 8.89699 58.4497 8.89769 58.2694 8.89417C58.1583 8.90029 58.0892 8.88652 58.0621 8.85286C58.0351 8.8192 58.0193 8.73605 58.015 8.60343C58.0182 8.08161 58.0248 7.56399 58.0348 7.05059C58.0448 6.53719 58.0514 6.01958 58.0547 5.49776C58.0534 5.2078 58.0526 4.88885 58.0525 4.54093C58.0594 4.18486 58.0588 3.86178 58.0506 3.57168C58.0423 3.28159 58.0595 3.11021 58.0595 3.11021C58.0732 2.40902 58.0697 1.21116 58.0697 1.21116C58.0713 1.12835 58.0931 1.07493 58.1352 1.0509C58.1775 1.01859 58.2263 1.00297 58.2818 1.00405C58.4932 1.00817 58.6509 1.02607 58.9122 1.03116C59.0703 1.03424 59.08 1.03202 59.3947 1.03815C59.5124 1.04873 59.6053 1.08781 59.6734 1.15541C59.7414 1.22301 59.7778 1.31484 59.7824 1.4309C59.7824 1.4309 59.7888 3.00075 59.7872 3.0829L59.7823 3.33204L59.7702 3.95309C59.7649 4.22636 59.7555 4.53268 59.7419 4.87205L59.7211 5.94026C59.721 6.30475 59.7141 6.65668 59.7006 6.99605L59.6829 7.90279L59.6711 8.51142Z" fill="white"/>
<path d="M57.7938 2.98963C57.6657 2.99368 57.649 2.97659 57.533 2.97485L56.4133 2.9581C56.3336 2.95691 56.2684 2.95231 56.2178 2.9443C56.1744 2.9364 56.1384 2.92137 56.1097 2.89919C56.0883 2.87712 56.0707 2.84424 56.0568 2.80053C56.0502 2.75694 56.0439 2.69523 56.0378 2.6154C56.0266 2.39775 56.019 2.18016 56.015 1.96263L56.0249 1.29948C56.026 1.227 56.0484 1.18022 56.0922 1.15913C56.1362 1.13079 56.1871 1.11705 56.2451 1.11792C57.1151 1.10919 57.9814 1.11128 58.8438 1.12418C59.7063 1.13709 60.5722 1.16454 61.4414 1.20654C61.5645 1.21563 61.6619 1.24971 61.7335 1.30878C61.8051 1.36784 61.8438 1.44816 61.8495 1.54974C61.8607 1.76738 61.8647 1.98491 61.8615 2.20234L61.8738 2.8332C61.8718 2.96366 61.8021 3.02061 61.6646 3.00405C61.5198 2.99463 61.3786 2.98527 61.241 2.97596C61.1034 2.96666 60.9657 2.96097 60.828 2.95891C60.5455 2.94744 60.2628 2.94321 59.9801 2.94623L57.7938 2.98963Z" fill="white"/>
</svg>
