<svg width="41" height="9" viewBox="0 0 41 9" fill="none" xmlns="http://www.w3.org/2000/svg">
<path d="M11.2178 1.07527C11.6498 1.09127 12.0778 1.11527 12.5018 1.14727C12.9338 1.17927 13.3578 1.27927 13.7738 1.44727C13.9818 1.53527 14.1698 1.64327 14.3378 1.77127C14.5058 1.89127 14.6498 2.04327 14.7698 2.22727C14.9538 2.49927 15.0818 2.78727 15.1538 3.09127C15.2258 3.38727 15.2498 3.68327 15.2258 3.97927C15.2018 4.26727 15.1378 4.54727 15.0338 4.81927C14.9298 5.08327 14.7938 5.32327 14.6258 5.53927C14.5458 5.63527 14.4458 5.72327 14.3258 5.80327C14.2138 5.87527 14.1018 5.94727 13.9898 6.01927C13.9258 6.05927 13.8858 6.09927 13.8698 6.13927C13.8618 6.17927 13.8778 6.23127 13.9178 6.29527C14.0538 6.52727 14.1898 6.75927 14.3258 6.99127C14.4698 7.21527 14.6138 7.44327 14.7578 7.67527C14.8138 7.76327 14.8818 7.88327 14.9618 8.03527C15.0418 8.18727 15.1138 8.30727 15.1778 8.39527C15.2338 8.49127 15.2418 8.58727 15.2018 8.68327C15.1778 8.74727 15.1418 8.78327 15.0938 8.79127C15.0538 8.79927 15.0058 8.80327 14.9498 8.80327C14.6938 8.78727 14.4418 8.78327 14.1938 8.79127C13.9458 8.79927 13.6938 8.80327 13.4378 8.80327C13.3498 8.80327 13.2858 8.78727 13.2458 8.75527C13.2058 8.72327 13.1658 8.67527 13.1258 8.61127C12.9738 8.33127 12.8058 8.01927 12.6218 7.67527C12.4458 7.32327 12.2778 7.00727 12.1178 6.72727C12.0858 6.67127 12.0538 6.61927 12.0218 6.57127C11.9898 6.52327 11.9578 6.47527 11.9258 6.42727C11.8618 6.30727 11.7538 6.24727 11.6018 6.24727C11.5138 6.24727 11.4298 6.24327 11.3498 6.23527C11.2778 6.21927 11.1978 6.21127 11.1098 6.21127C10.9818 6.20327 10.8938 6.21927 10.8458 6.25927C10.8058 6.29127 10.7858 6.37527 10.7858 6.51127C10.7938 6.82327 10.8018 7.13527 10.8098 7.44727C10.8178 7.75927 10.8258 8.07127 10.8338 8.38327C10.8418 8.49527 10.8298 8.57527 10.7978 8.62327C10.7658 8.67127 10.6978 8.70727 10.5938 8.73127C10.5538 8.74727 10.5098 8.75527 10.4618 8.75527C10.4138 8.75527 10.3698 8.75527 10.3298 8.75527C10.1218 8.75527 9.91782 8.75527 9.71782 8.75527C9.52582 8.76327 9.32582 8.76727 9.11782 8.76727C9.05382 8.76727 8.99382 8.76327 8.93782 8.75527C8.88182 8.75527 8.82182 8.75127 8.75782 8.74327C8.62182 8.72727 8.54182 8.65127 8.51782 8.51527C8.50982 8.45127 8.49782 8.38727 8.48182 8.32327C8.47382 8.25127 8.46982 8.18327 8.46982 8.11927C8.47782 7.79927 8.48182 7.47927 8.48182 7.15927C8.48182 6.83927 8.48982 6.51927 8.50582 6.19927C8.51382 5.89527 8.51782 5.59927 8.51782 5.31127C8.51782 5.01527 8.51782 4.71527 8.51782 4.41127C8.52582 3.92327 8.52582 3.43927 8.51782 2.95927C8.50982 2.47127 8.50582 1.98327 8.50582 1.49527C8.50582 1.31927 8.52982 1.21127 8.57782 1.17127C8.62582 1.12327 8.74182 1.10327 8.92582 1.11127H9.93382C9.93382 1.11127 9.97782 1.11127 10.0658 1.11127C10.1618 1.10327 10.2778 1.09527 10.4138 1.08727C10.5498 1.07927 10.6898 1.07527 10.8338 1.07527C10.9778 1.06727 11.1058 1.06727 11.2178 1.07527ZM10.8098 3.77527C10.8018 3.88727 10.7978 3.99527 10.7978 4.09927V4.59127C10.7978 4.72727 10.8698 4.79527 11.0138 4.79527C11.1738 4.77927 11.3298 4.77127 11.4818 4.77127C11.6418 4.76327 11.8018 4.75127 11.9618 4.73527C12.1218 4.71127 12.2738 4.66727 12.4178 4.60327C12.5698 4.53927 12.7058 4.44327 12.8258 4.31527C12.9138 4.21927 12.9698 4.10327 12.9938 3.96727C13.0258 3.83127 13.0258 3.69927 12.9938 3.57127C12.9698 3.43527 12.9178 3.31927 12.8378 3.22327C12.7578 3.11927 12.6578 3.05127 12.5378 3.01927C11.9938 2.88327 11.4618 2.82727 10.9418 2.85127C10.9178 2.85927 10.8898 2.88327 10.8578 2.92327C10.8338 2.95527 10.8218 2.98327 10.8218 3.00727C10.8138 3.11927 10.8098 3.24727 10.8098 3.39127C10.8098 3.53527 10.8098 3.66327 10.8098 3.77527Z" fill="white"/>
<path d="M23.8568 4.81927C23.8168 5.18727 23.7568 5.54327 23.6768 5.88727C23.5968 6.23127 23.4768 6.55927 23.3168 6.87127C23.1648 7.17527 22.9688 7.45927 22.7288 7.72327C22.4968 7.97927 22.2128 8.20327 21.8768 8.39527C21.6128 8.54727 21.3408 8.66327 21.0608 8.74327C20.7808 8.82327 20.4888 8.86327 20.1848 8.86327C19.6888 8.86327 19.2448 8.80327 18.8528 8.68327C18.4688 8.55527 18.1288 8.39527 17.8328 8.20327C17.5448 8.00327 17.2968 7.78327 17.0888 7.54327C16.8888 7.29527 16.7208 7.05527 16.5848 6.82327C16.4568 6.58327 16.3608 6.36327 16.2968 6.16327C16.2328 5.96327 16.1968 5.80327 16.1888 5.68327C16.1728 5.46727 16.1568 5.25127 16.1408 5.03527C16.1168 4.81927 16.1248 4.59927 16.1648 4.37527C16.2448 3.98327 16.3768 3.59927 16.5608 3.22327C16.7528 2.84727 16.9928 2.50727 17.2808 2.20327C17.5768 1.89927 17.9248 1.64327 18.3248 1.43527C18.7248 1.21927 19.1728 1.08327 19.6688 1.02727C19.9648 0.987273 20.2568 0.991273 20.5448 1.03927C20.8408 1.08727 21.1288 1.16327 21.4088 1.26727C21.8888 1.45127 22.2928 1.71127 22.6208 2.04727C22.9488 2.37527 23.2168 2.77527 23.4248 3.24727C23.5368 3.50327 23.6408 3.75527 23.7368 4.00327C23.8328 4.25127 23.8728 4.52327 23.8568 4.81927ZM21.8648 4.77127C21.8648 4.67527 21.8608 4.60327 21.8528 4.55527C21.8528 4.49927 21.8488 4.45527 21.8408 4.42327C21.8328 4.39127 21.8248 4.36327 21.8168 4.33927C21.8088 4.30727 21.8008 4.26727 21.7928 4.21927C21.7688 4.09927 21.7008 3.97127 21.5888 3.83527C21.4848 3.69127 21.3528 3.55927 21.1928 3.43927C21.0408 3.31127 20.8688 3.20727 20.6768 3.12727C20.4928 3.03927 20.3128 2.99527 20.1368 2.99527C19.7768 2.99527 19.4728 3.06727 19.2248 3.21127C18.9848 3.35527 18.7888 3.53527 18.6368 3.75127C18.4928 3.95927 18.3848 4.18727 18.3128 4.43527C18.2408 4.68327 18.2008 4.91127 18.1928 5.11927C18.1848 5.25527 18.2168 5.41527 18.2888 5.59927C18.3688 5.77527 18.4848 5.94727 18.6368 6.11527C18.7968 6.27527 18.9888 6.41527 19.2128 6.53527C19.4448 6.64727 19.7048 6.70327 19.9928 6.70327C20.3128 6.70327 20.5888 6.63927 20.8208 6.51127C21.0528 6.37527 21.2448 6.21127 21.3968 6.01927C21.5568 5.82727 21.6728 5.61927 21.7448 5.39527C21.8248 5.17127 21.8648 4.96327 21.8648 4.77127Z" fill="white"/>
<path d="M31.8553 8.32327V8.59927C31.8393 8.75927 31.7553 8.83127 31.6033 8.81527H30.0793C29.9353 8.80727 29.8393 8.77927 29.7913 8.73127C29.7433 8.68327 29.7193 8.59127 29.7193 8.45527C29.7193 8.23927 29.7193 8.02327 29.7193 7.80727C29.7193 7.58327 29.7233 7.36327 29.7313 7.14727C29.7313 7.01127 29.7313 6.87527 29.7313 6.73927C29.7393 6.59527 29.7433 6.45127 29.7433 6.30727C29.7433 6.18727 29.7273 6.11527 29.6953 6.09127C29.6713 6.06727 29.5993 6.04727 29.4793 6.03127C29.2393 5.98327 29.0553 6.06327 28.9273 6.27127C28.7033 6.61527 28.4713 6.95527 28.2313 7.29127C27.9993 7.62727 27.7793 7.97127 27.5713 8.32327C27.5153 8.41927 27.4633 8.49927 27.4153 8.56327C27.3753 8.61927 27.3233 8.66727 27.2593 8.70727C27.2033 8.74727 27.1273 8.77527 27.0313 8.79127C26.9353 8.80727 26.8113 8.81527 26.6593 8.81527C26.5473 8.81527 26.4113 8.81527 26.2513 8.81527C26.0913 8.81527 25.9393 8.81127 25.7953 8.80327C25.6273 8.80327 25.4513 8.79927 25.2673 8.79127C25.2193 8.77527 25.1793 8.75527 25.1473 8.73127C25.0833 8.68327 25.0793 8.61927 25.1353 8.53927C25.2473 8.37927 25.3673 8.22327 25.4953 8.07127C25.6233 7.91127 25.7473 7.74727 25.8673 7.57927C26.0593 7.30727 26.2513 7.03927 26.4433 6.77527C26.6353 6.50327 26.8273 6.22727 27.0193 5.94727C27.0913 5.83527 27.1233 5.76327 27.1153 5.73127C27.1153 5.69127 27.0593 5.64727 26.9473 5.59927C26.6673 5.47127 26.4473 5.29927 26.2873 5.08327C26.1273 4.85927 25.9913 4.61527 25.8793 4.35127C25.7673 4.07127 25.6913 3.79127 25.6513 3.51127C25.6193 3.22327 25.6473 2.92727 25.7353 2.62327C25.7753 2.47927 25.8393 2.35127 25.9273 2.23927C26.0153 2.11927 26.1153 2.01127 26.2273 1.91527C26.6193 1.58727 27.0713 1.35927 27.5833 1.23127C27.9433 1.14327 28.2913 1.09927 28.6273 1.09927C28.9633 1.09127 29.2913 1.08327 29.6113 1.07527C29.7473 1.08327 29.9153 1.08727 30.1153 1.08727C30.3233 1.08727 30.5193 1.08727 30.7033 1.08727C30.8953 1.07927 31.0593 1.07527 31.1953 1.07527C31.3313 1.07527 31.4073 1.07527 31.4233 1.07527C31.5913 1.09927 31.7033 1.14327 31.7593 1.20727C31.8153 1.27127 31.8433 1.38727 31.8433 1.55527C31.8433 1.65127 31.8433 1.84327 31.8433 2.13127C31.8433 2.41927 31.8433 2.76727 31.8433 3.17527C31.8433 3.58327 31.8433 4.02727 31.8433 4.50727C31.8513 4.98727 31.8553 5.46327 31.8553 5.93527C31.8553 6.40727 31.8553 6.85527 31.8553 7.27927C31.8553 7.69527 31.8553 8.04327 31.8553 8.32327ZM29.8873 3.47527C29.8793 3.44327 29.8753 3.39527 29.8753 3.33127C29.8753 3.25927 29.8713 3.18727 29.8633 3.11527C29.8473 2.99527 29.7913 2.93127 29.6953 2.92327C29.5753 2.91527 29.3993 2.90727 29.1673 2.89927C28.9433 2.88327 28.7193 2.88727 28.4953 2.91127C28.2793 2.92727 28.0873 2.97527 27.9193 3.05527C27.7513 3.12727 27.6633 3.24727 27.6553 3.41527C27.6473 3.71127 27.7153 3.92727 27.8593 4.06327C28.0033 4.19127 28.1673 4.27527 28.3513 4.31527C28.5353 4.35527 28.7113 4.37127 28.8793 4.36327C29.0553 4.34727 29.1753 4.34327 29.2393 4.35127C29.4153 4.36727 29.5433 4.36327 29.6233 4.33927C29.7113 4.31527 29.7713 4.27127 29.8033 4.20727C29.8353 4.14327 29.8513 4.05127 29.8513 3.93127C29.8593 3.81127 29.8713 3.65927 29.8873 3.47527Z" fill="white"/>
<path d="M33.2896 1.51927V1.25527C33.3056 1.11927 33.3736 1.06327 33.4936 1.08727C33.7976 1.07927 34.0816 1.07927 34.3456 1.08727C34.6176 1.09527 34.8936 1.09127 35.1736 1.07527C35.2776 1.06727 35.3536 1.08327 35.4016 1.12327C35.4576 1.15527 35.5136 1.20727 35.5696 1.27927C35.7856 1.59127 36.0016 1.92327 36.2176 2.27527C36.4336 2.62727 36.6536 2.97927 36.8776 3.33127C37.1096 3.67527 37.3416 4.01927 37.5736 4.36327C37.8136 4.69927 38.0576 5.01127 38.3056 5.29927C38.3616 5.36327 38.4296 5.43927 38.5096 5.52727C38.5896 5.60727 38.6456 5.64727 38.6776 5.64727C38.7096 5.64727 38.7296 5.58727 38.7376 5.46727C38.7456 5.34727 38.7496 5.24327 38.7496 5.15527C38.7416 4.89127 38.7336 4.60327 38.7256 4.29127C38.7256 3.97927 38.7216 3.66727 38.7136 3.35527C38.7056 3.03527 38.6976 2.71927 38.6896 2.40727C38.6896 2.09527 38.6856 1.80727 38.6776 1.54327C38.6696 1.36727 38.6816 1.25527 38.7136 1.20727C38.7536 1.15927 38.8576 1.13127 39.0256 1.12327C39.2576 1.10727 39.4856 1.09527 39.7096 1.08727C39.9336 1.07927 40.1616 1.07927 40.3936 1.08727C40.6016 1.08727 40.7296 1.11527 40.7776 1.17127C40.8256 1.21927 40.8496 1.34327 40.8496 1.54327C40.8496 1.71127 40.8456 1.90327 40.8376 2.11927C40.8376 2.33527 40.8336 2.55527 40.8256 2.77927C40.8256 3.00327 40.8216 3.22327 40.8136 3.43927C40.8136 3.65527 40.8136 3.84727 40.8136 4.01527C40.8296 4.45527 40.8416 4.89527 40.8496 5.33527C40.8656 5.77527 40.8816 6.21927 40.8976 6.66727C40.9136 6.97127 40.9216 7.27527 40.9216 7.57927C40.9216 7.87527 40.9256 8.17527 40.9336 8.47927C40.9336 8.58327 40.9216 8.65127 40.8976 8.68327C40.8736 8.70727 40.8096 8.71927 40.7056 8.71927C40.3696 8.71927 40.0296 8.71927 39.6856 8.71927C39.3496 8.71927 39.0096 8.71127 38.6656 8.69527C38.6176 8.69527 38.5656 8.68327 38.5096 8.65927C38.4536 8.62727 38.4056 8.59127 38.3656 8.55127C38.1336 8.33527 37.9336 8.11927 37.7656 7.90327C37.6776 7.79927 37.5696 7.65927 37.4416 7.48327C37.3136 7.30727 37.1776 7.11527 37.0336 6.90727C36.8976 6.69127 36.7536 6.47127 36.6016 6.24727C36.4576 6.01527 36.3216 5.80327 36.1936 5.61127C36.0656 5.41927 35.9536 5.25527 35.8576 5.11927C35.7696 4.97527 35.7096 4.87927 35.6776 4.83127C35.6696 4.81527 35.6536 4.80727 35.6296 4.80727C35.6056 4.80727 35.5856 4.80327 35.5696 4.79527C35.5616 4.80327 35.5576 4.81127 35.5576 4.81927C35.5496 4.82727 35.5456 4.84727 35.5456 4.87927C35.5456 5.02327 35.5456 5.21127 35.5456 5.44327C35.5456 5.66727 35.5496 5.85127 35.5576 5.99527C35.5656 6.37927 35.5736 6.76327 35.5816 7.14727C35.5896 7.53127 35.6016 7.91527 35.6176 8.29927C35.6176 8.48327 35.5896 8.60327 35.5336 8.65927C35.4776 8.71527 35.3576 8.73927 35.1736 8.73127C35.0456 8.72327 34.9176 8.71527 34.7896 8.70727C34.6696 8.69927 34.5456 8.69527 34.4176 8.69527C34.2896 8.70327 34.1376 8.70327 33.9616 8.69527C33.7936 8.68727 33.6416 8.69527 33.5056 8.71927C33.4016 8.74327 33.3376 8.70327 33.3136 8.59927C33.2976 8.53527 33.2936 8.48327 33.3016 8.44327C33.3096 8.40327 33.3136 8.35127 33.3136 8.28727C33.2896 7.74327 33.2816 7.20327 33.2896 6.66727C33.2976 6.13127 33.2936 5.59527 33.2776 5.05927C33.2696 4.77127 33.2696 4.48327 33.2776 4.19527C33.2856 3.90727 33.2896 3.61927 33.2896 3.33127C33.2896 3.33127 33.2856 3.26327 33.2776 3.12727C33.2776 2.98327 33.2776 2.81527 33.2776 2.62327C33.2776 2.43127 33.2776 2.23527 33.2776 2.03527C33.2856 1.82727 33.2896 1.65527 33.2896 1.51927Z" fill="white"/>
<path d="M4.65608 8.50737C4.65285 8.67298 4.62996 8.78023 4.58739 8.8291C4.55191 8.86983 4.46476 8.89298 4.32593 8.89856L3.78511 8.88803C3.61161 8.89294 3.43472 8.89363 3.25445 8.89012C3.14335 8.89624 3.07425 8.88247 3.04716 8.84881C3.02007 8.81515 3.00435 8.732 3 8.59938C3.00323 8.07756 3.00984 7.55994 3.01984 7.04654C3.02984 6.53314 3.03645 6.01552 3.03968 5.4937C3.03839 5.20374 3.03766 4.8848 3.0375 4.53688C3.04444 4.18081 3.04379 3.85773 3.03557 3.56763C3.02735 3.27754 3.04456 3.10616 3.04456 3.10616C3.05821 2.40497 3.05469 1.20711 3.05469 1.20711C3.0563 1.1243 3.07815 1.07088 3.12024 1.04685C3.16249 1.01454 3.21134 0.99892 3.26681 1C3.47817 1.00412 3.6359 1.02202 3.89726 1.02711C4.05527 1.03019 4.06505 1.02797 4.37975 1.0341C4.49746 1.04468 4.59033 1.08376 4.65838 1.15136C4.72642 1.21895 4.76278 1.31079 4.76746 1.42685C4.76746 1.42685 4.77381 2.9967 4.77221 3.07885L4.76735 3.32799L4.75526 3.94904C4.74994 4.22231 4.7405 4.52863 4.72696 4.868L4.70615 5.93621C4.70599 6.3007 4.69914 6.65263 4.68559 6.992L4.66793 7.89874L4.65608 8.50737Z" fill="white"/>
<path d="M2.7788 2.98558C2.65071 2.98962 2.63401 2.97254 2.51805 2.9708L1.39831 2.95405C1.31858 2.95286 1.25341 2.94826 1.20279 2.94025C1.15941 2.93235 1.12339 2.91731 1.09472 2.89514C1.07331 2.87307 1.05568 2.84018 1.04183 2.79648C1.03523 2.75289 1.02891 2.69118 1.02285 2.61135C1.01161 2.3937 1.00399 2.17611 1 1.95858L1.00992 1.29543C1.01101 1.22295 1.03345 1.17617 1.07726 1.15508C1.12118 1.12674 1.17213 1.113 1.23011 1.11387C2.10014 1.10514 2.96639 1.10723 3.82885 1.12013C4.6913 1.13304 5.55717 1.16049 6.42644 1.20249C6.54954 1.21158 6.64689 1.24566 6.7185 1.30473C6.79011 1.36379 6.82878 1.44411 6.83451 1.54568C6.84575 1.76333 6.84974 1.98086 6.84649 2.19829L6.8588 2.82915C6.85685 2.95961 6.78713 3.01656 6.64964 3C6.5048 2.99058 6.36358 2.98122 6.22598 2.97191C6.08839 2.96261 5.95074 2.95692 5.81304 2.95486C5.53049 2.94338 5.24784 2.93916 4.96508 2.94217L2.7788 2.98558Z" fill="white"/>
<path d="M23.9965 4.88568C23.9551 5.26008 23.893 5.62227 23.8102 5.97225C23.7275 6.32224 23.6033 6.65594 23.4378 6.97336C23.2806 7.28265 23.0778 7.57159 22.8295 7.84018C22.5895 8.10063 22.2957 8.32852 21.9481 8.52386C21.675 8.67851 21.3936 8.79652 21.1039 8.87791C20.8142 8.9593 20.5121 9 20.1976 9C19.6845 9 19.2252 8.93896 18.8196 8.81687C18.4224 8.68664 18.0706 8.52386 17.7644 8.32852C17.4665 8.12505 17.2099 7.90122 16.9947 7.65705C16.7878 7.40474 16.614 7.16056 16.4733 6.92453C16.3409 6.68036 16.2416 6.45653 16.1754 6.25305C16.1091 6.04957 16.0719 5.88679 16.0636 5.76471C16.0471 5.54495 16.0305 5.32519 16.014 5.10544C15.9891 4.88568 15.9974 4.66186 16.0388 4.43396C16.1216 4.03515 16.2581 3.64447 16.4485 3.26193C16.6471 2.87939 16.8954 2.53348 17.1933 2.2242C17.4996 1.91491 17.8596 1.65446 18.2734 1.44284C18.6872 1.22309 19.1507 1.08472 19.6638 1.02775C19.97 0.987052 20.2721 0.991121 20.5701 1.03996C20.8763 1.08879 21.1742 1.16611 21.4639 1.27192C21.9605 1.45912 22.3784 1.72364 22.7178 2.06548C23.0571 2.39919 23.3343 2.80614 23.5495 3.28635C23.6654 3.5468 23.773 3.80318 23.8723 4.05549C23.9716 4.30781 24.013 4.58454 23.9965 4.88568Z" fill="white"/>
<path d="M22 4.91586C22 4.8123 21.9956 4.73463 21.9869 4.68285C21.9869 4.62244 21.9826 4.57497 21.9739 4.54045C21.9652 4.50593 21.9564 4.47573 21.9477 4.44984C21.939 4.41532 21.9303 4.37217 21.9216 4.32039C21.8955 4.19094 21.8214 4.05286 21.6994 3.90615C21.5862 3.75081 21.4425 3.60841 21.2682 3.47896C21.1027 3.34089 20.9154 3.22869 20.7063 3.14239C20.5059 3.04746 20.3099 3 20.1183 3C19.7262 3 19.3952 3.07767 19.1251 3.23301C18.8638 3.38835 18.6503 3.58252 18.4848 3.81553C18.328 4.03991 18.2104 4.28587 18.132 4.5534C18.0536 4.82093 18.01 5.06688 18.0013 5.29126C17.9926 5.43797 18.0274 5.61057 18.1058 5.80906C18.193 5.99892 18.3193 6.18447 18.4848 6.3657C18.659 6.5383 18.8681 6.68932 19.1121 6.81877C19.3647 6.93959 19.6478 7 19.9614 7C20.3099 7 20.6105 6.93096 20.8631 6.79288C21.1158 6.64617 21.3248 6.46926 21.4904 6.26214C21.6646 6.05502 21.7909 5.83064 21.8693 5.589C21.9564 5.34736 22 5.12298 22 4.91586Z" fill="black"/>
</svg>
