<svg width="156" height="158" viewBox="0 0 156 158" fill="none" xmlns="http://www.w3.org/2000/svg">
<path fill-rule="evenodd" clip-rule="evenodd" d="M0.000105789 46.6607V110.653C0.000105789 124.539 3.08155 137.635 9.30028 145.347C15.1893 152.649 28.0818 157.313 41.3278 157.313H114.652C141.763 157.313 155.98 143.028 155.98 115.986V42.662C155.98 12.245 140.281 0.0012207 110.652 0.0012207H45.3271C13.1522 0.0012207 -0.000488281 14.5904 -0.000488281 46.6619L0.000105789 46.6607Z" fill="#FEFEFE"/>
<path fill-rule="evenodd" clip-rule="evenodd" d="M53.646 24.2137C48.098 25.0109 48.1343 24.4543 42.253 26.4617C38.9921 27.5749 35.8251 29.4379 33.437 31.481C20.4518 42.5907 22.7716 59.2983 22.7716 75.5604C22.7716 81.2201 22.5167 98.7963 22.9053 103.093C24.3904 119.498 32.828 129.449 48.2608 132.487C55.3718 133.887 78.8542 133.277 88.72 133.277C100.786 133.277 112.722 134.127 122.565 125.843C127.531 121.664 130.917 115.671 132.36 108.214C133.822 100.656 133.224 90.048 133.224 81.756C133.224 72.9631 133.641 62.8924 133.061 54.3574C131.942 37.8714 122.949 27.8809 107.753 24.8274C100.767 23.4236 77.0637 24.0396 67.2746 24.0396C63.3389 24.0396 57.2027 23.7028 53.6449 24.2149L53.646 24.2137ZM105.773 44.2101C98.1692 46.3957 101.361 57.0664 108.627 55.3982C111.358 54.7715 113.573 51.9069 112.881 48.51C112.27 45.5099 109.139 43.2424 105.773 44.2101V44.2101ZM74.268 49.8324C66.434 51.2065 60.4517 54.1745 55.5203 60.2286C45.3397 72.7255 47.0418 90.7496 59.579 101.136C68.6243 108.63 81.8335 110.098 92.6432 103.776C110.055 93.594 112.166 69.0797 96.4274 56.18C91.4782 52.1237 82.9902 48.3021 74.268 49.8324ZM74.852 60.2162C69.2861 61.3164 65.9279 63.7033 63.1838 67.1697C60.3614 70.7348 58.5531 76.0042 59.5095 81.9508C60.9727 91.0448 70.2349 99.0381 81.2472 97.1323C90.7149 95.4938 98.2928 86.4194 96.4857 75.3644C95.0498 66.5786 85.8352 58.0448 74.8514 60.2162H74.852ZM64.6969 34.2737C56.5855 34.9266 51.969 33.543 44.7029 36.5609C39.5606 38.6965 36.1115 43.1723 34.2942 48.4922C32.386 54.077 32.8797 62.9679 32.8839 69.6037C32.8886 77.0699 32.8987 84.5344 32.9302 92.0013C32.9617 99.4183 32.5316 105.81 35.5435 111.832C38.2335 117.209 41.7248 120.011 48.0024 121.822C53.6799 123.46 62.6706 123.061 69.1822 123.072C76.6443 123.085 84.1183 123.126 91.5798 123.043C98.7372 122.962 105.589 123.26 111.452 120.676C124.566 114.897 123.033 99.7462 123.033 87.4739C123.033 80.0076 123.033 72.5419 123.033 65.0762C123.033 57.3141 123.503 51.3924 120.382 45.3246C117.568 39.855 113.905 37.0694 107.817 35.4315C102.343 33.9588 93.1743 34.1668 86.8148 34.1709C79.8731 34.1757 71.3612 33.7361 64.6975 34.2731L64.6969 34.2737Z" fill="black"/>
</svg>
