<svg xmlns="http://www.w3.org/2000/svg" xmlns:xlink="http://www.w3.org/1999/xlink" width="50" height="50" viewBox="0 0 50 50"><defs><linearGradient id="a" x1="-0.134" y1="1.307" x2="1.061" y2="-0.07" gradientUnits="objectBoundingBox"><stop offset="0" stop-color="#5b4fe9"/><stop offset="0.188" stop-color="#8f39ce"/><stop offset="0.397" stop-color="#d53692"/><stop offset="0.611" stop-color="#f75274"/><stop offset="0.807" stop-color="#f5c878"/><stop offset="1" stop-color="#fbe18a"/></linearGradient></defs><g transform="translate(-654.32 -193.02)"><rect width="50" height="50" rx="10" transform="translate(654.32 193.02)" fill="url(#a)"/><g transform="translate(667.064 205.764)"><circle cx="1.437" cy="1.437" r="1.437" transform="translate(17.309 4.377)" fill="#fff"/><path d="M147.895,29.818a6.037,6.037,0,1,0,6.037,6.037A6.044,6.044,0,0,0,147.895,29.818Zm0,9.9a3.867,3.867,0,1,1,3.867-3.867A3.871,3.871,0,0,1,147.895,39.722Z" transform="translate(-135.538 -23.599)" fill="#fff"/><path d="M155.615,50.992h-9.786a7.371,7.371,0,0,1-7.363-7.363V33.842a7.371,7.371,0,0,1,7.363-7.363h9.786a7.371,7.371,0,0,1,7.363,7.363v9.786A7.371,7.371,0,0,1,155.615,50.992Zm-9.786-22.207a5.063,5.063,0,0,0-5.057,5.057v9.786a5.063,5.063,0,0,0,5.057,5.057h9.786a5.063,5.063,0,0,0,5.057-5.057V33.842a5.063,5.063,0,0,0-5.057-5.057Z" transform="translate(-138.465 -26.479)" fill="#fff"/></g></g></svg>