<svg width="948" height="113" viewBox="0 0 948 113" fill="none" xmlns="http://www.w3.org/2000/svg">
<g clip-path="url(#clip0_130_2)">
<path d="M28.208 111.028H0V1.64H80.196V26.24H28.208V43.296H59.048V67.896H28.208V111.028Z" fill="#041022"/>
<path d="M147.277 112.996C130.221 112.996 117.32 108.787 108.573 100.368C99.8265 91.9493 95.4531 80.7427 95.4531 66.748V1.64H124.153V65.764C124.153 72.4333 126.121 77.8453 130.057 82C134.102 86.0453 139.842 88.068 147.277 88.068C154.602 88.068 160.233 86.0453 164.169 82C168.214 77.8453 170.237 72.4333 170.237 65.764V1.64H198.773V66.584C198.773 80.688 194.4 91.9493 185.653 100.368C177.016 108.787 164.224 112.996 147.277 112.996Z" fill="#041022"/>
<path d="M320.133 111.028H292.909L246.661 47.724V111.028H218.453V1.64H247.481L291.761 61.828V1.64H320.133V111.028Z" fill="#041022"/>
<path d="M436.776 111.028H405.288L398.728 104.304C389.981 110.099 380.469 112.996 370.192 112.996C359.368 112.996 350.457 110.208 343.46 104.632C336.462 99.056 332.964 91.0747 332.964 80.688C332.964 73.144 334.986 66.9667 339.032 62.156C343.186 57.3453 348.872 53.1907 356.088 49.692C351.714 40.9453 349.528 33.292 349.528 26.732C349.528 19.188 352.644 12.8467 358.876 7.708C365.108 2.56933 373.034 0 382.656 0C391.074 0 398.29 2.18667 404.304 6.56001C410.317 10.9333 413.324 16.728 413.324 23.944C413.324 31.488 411.028 37.392 406.436 41.656C401.844 45.92 395.338 49.9107 386.92 53.628C389.106 56.4707 391.73 59.8053 394.792 63.632C396.541 66.0373 399.056 69.1533 402.336 72.98C406.162 66.8573 409.169 60.4067 411.356 53.628L431.2 62.976C426.608 72.816 421.469 81.2893 415.784 88.396C421.688 95.0653 428.685 102.609 436.776 111.028ZM373.8 93.48C377.626 93.48 381.562 92.332 385.608 90.036C380.36 84.2413 376.916 80.196 375.276 77.9C371.23 72.7613 368.005 68.4973 365.6 65.108C361.445 68.716 359.368 73.0893 359.368 78.228C359.368 82.7107 360.789 86.3733 363.632 89.216C366.474 92.0587 369.864 93.48 373.8 93.48ZM374.456 27.224C374.456 30.7227 375.713 34.9867 378.228 40.016C382.71 37.9387 386.1 35.8067 388.396 33.62C390.692 31.324 391.84 28.5907 391.84 25.42C391.84 23.124 391.074 21.32 389.544 20.008C388.122 18.5867 386.264 17.876 383.968 17.876C381.234 17.876 378.938 18.7507 377.08 20.5C375.33 22.2493 374.456 24.4907 374.456 27.224Z" fill="#041022"/>
<path d="M474.563 111.028H446.355V1.64H526.551V26.24H474.563V43.296H505.403V67.896H474.563V111.028Z" fill="#041022"/>
<path d="M635.125 111.028H602.817L584.449 74.292H570.017V111.028H541.809V1.64H596.585C608.393 1.64 617.686 5.084 624.465 11.972C631.243 18.86 634.633 27.552 634.633 38.048C634.633 46.7947 632.446 53.956 628.073 59.532C623.809 64.9987 618.725 68.7707 612.821 70.848L635.125 111.028ZM592.321 49.692C596.147 49.692 599.373 48.6533 601.997 46.576C604.621 44.4987 605.933 41.6013 605.933 37.884C605.933 34.276 604.621 31.4333 601.997 29.356C599.373 27.2787 596.147 26.24 592.321 26.24H570.017V49.692H592.321Z" fill="#041022"/>
<path d="M730.43 111.028H650.234V1.64H730.43V26.24H678.442V43.296H729.282V67.896H678.442V86.428H730.43V111.028Z" fill="#041022"/>
<path d="M787.481 112.996C767.254 112.996 751.073 107.201 738.937 95.612L753.861 74.456C763.482 84.0773 775.126 88.888 788.793 88.888C793.603 88.888 797.375 88.068 800.109 86.428C802.951 84.6787 804.373 82.492 804.373 79.868C804.373 77.572 802.842 75.7133 799.781 74.292C796.719 72.7613 792.893 71.668 788.301 71.012C783.709 70.2467 778.734 69.0987 773.377 67.568C768.019 65.928 763.045 64.0693 758.453 61.992C753.861 59.8053 750.034 56.3613 746.973 51.66C743.911 46.9587 742.381 41.328 742.381 34.768C742.381 25.1467 746.262 16.9467 754.025 10.168C761.897 3.38934 772.557 0 786.005 0C803.826 0 818.641 5.084 830.449 15.252L815.033 35.424C805.849 27.88 795.189 24.108 783.053 24.108C775.181 24.108 771.245 26.732 771.245 31.98C771.245 34.0573 772.775 35.8613 775.837 37.392C778.898 38.8133 782.725 39.9067 787.317 40.672C791.909 41.4373 796.829 42.64 802.077 44.28C807.434 45.8107 812.409 47.6693 817.001 49.856C821.593 52.0427 825.419 55.432 828.481 60.024C831.542 64.616 833.073 70.0827 833.073 76.424C833.073 87.576 829.082 96.4867 821.101 103.156C813.119 109.716 801.913 112.996 787.481 112.996Z" fill="#041022"/>
<path d="M948.11 111.028H919.902V67.076H874.474V111.028H846.266V1.64H874.474V42.476H919.902V1.64H948.11V111.028Z" fill="#041022"/>
</g>
<defs>
<clipPath id="clip0_130_2">
<rect width="948" height="113" fill="white"/>
</clipPath>
</defs>
</svg>
