<svg width="363" height="119" viewBox="0 0 363 119" fill="none" xmlns="http://www.w3.org/2000/svg">
<path d="M25 47C25 52.5 28.5 79 29 77C28.8333 70.3333 22.5 61.5 34 53.5C35.7365 52.292 40.5 47 42 48.5C45 50 48.5 67 49.5 76.5" stroke="black" stroke-width="8" stroke-linecap="round"/>
<path d="M72.2335 63.6667C80.7335 60.6667 89.2335 49.7149 89.2335 46.1667C89.2335 39.6667 75.7335 43.6667 69.2335 53.6667C62.7335 63.6667 67.2334 73.6667 72.2335 76.1667C75.0619 77.5809 87.2335 77.1667 92.2335 66.1667" stroke="black" stroke-width="8" stroke-linecap="round"/>
<path d="M106 51.5C108 62.5 114.9 75.3 116.5 76.5C118.1 77.7 121.5 65 123 66.5L130.5 76C131.5 77.5 135 59.5 140 51" stroke="black" stroke-width="8" stroke-linecap="round"/>
</svg>
