<svg width="74" height="9" viewBox="0 0 74 9" fill="none" xmlns="http://www.w3.org/2000/svg">
<path d="M7.7295 3.936C7.6895 4.304 7.6295 4.66 7.5495 5.004C7.4695 5.348 7.3495 5.676 7.1895 5.988C7.0375 6.292 6.8415 6.576 6.6015 6.84C6.3695 7.096 6.0855 7.32 5.7495 7.512C5.4855 7.664 5.2135 7.78 4.9335 7.86C4.6535 7.94 4.3615 7.98 4.0575 7.98C3.5615 7.98 3.1175 7.92 2.7255 7.8C2.3415 7.672 2.0015 7.512 1.7055 7.32C1.4175 7.12 1.1695 6.9 0.9615 6.66C0.7615 6.412 0.5935 6.172 0.4575 5.94C0.3295 5.7 0.2335 5.48 0.1695 5.28C0.1055 5.08 0.0695 4.92 0.0615 4.8C0.0455 4.584 0.0295 4.368 0.0135 4.152C-0.0105 3.936 -0.0025 3.716 0.0375 3.492C0.1175 3.1 0.2495 2.716 0.4335 2.34C0.6255 1.964 0.8655 1.624 1.1535 1.32C1.4495 1.016 1.7975 0.76 2.1975 0.552C2.5975 0.336 3.0455 0.2 3.5415 0.144C3.8375 0.104 4.1295 0.108 4.4175 0.156C4.7135 0.204 5.0015 0.28 5.2815 0.384C5.7615 0.568 6.1655 0.828 6.4935 1.164C6.8215 1.492 7.0895 1.892 7.2975 2.364C7.4095 2.62 7.5135 2.872 7.6095 3.12C7.7055 3.368 7.7455 3.64 7.7295 3.936ZM5.7375 3.888C5.7375 3.792 5.7335 3.72 5.7255 3.672C5.7255 3.616 5.7215 3.572 5.7135 3.54C5.7055 3.508 5.6975 3.48 5.6895 3.456C5.6815 3.424 5.6735 3.384 5.6655 3.336C5.6415 3.216 5.5735 3.088 5.4615 2.952C5.3575 2.808 5.2255 2.676 5.0655 2.556C4.9135 2.428 4.7415 2.324 4.5495 2.244C4.3655 2.156 4.1855 2.112 4.0095 2.112C3.6495 2.112 3.3455 2.184 3.0975 2.328C2.8575 2.472 2.6615 2.652 2.5095 2.868C2.3655 3.076 2.2575 3.304 2.1855 3.552C2.1135 3.8 2.0735 4.028 2.0655 4.236C2.0575 4.372 2.0895 4.532 2.1615 4.716C2.2415 4.892 2.3575 5.064 2.5095 5.232C2.6695 5.392 2.8615 5.532 3.0855 5.652C3.3175 5.764 3.5775 5.82 3.8655 5.82C4.1855 5.82 4.4615 5.756 4.6935 5.628C4.9255 5.492 5.1175 5.328 5.2695 5.136C5.4295 4.944 5.5455 4.736 5.6175 4.512C5.6975 4.288 5.7375 4.08 5.7375 3.888Z" fill="white"/>
<path d="M8.94797 0.516C8.94797 0.372 8.96397 0.284 8.99597 0.252C9.02797 0.22 9.12397 0.204 9.28397 0.204C9.52397 0.22 9.76397 0.224 10.004 0.216C10.244 0.2 10.484 0.196 10.724 0.204C10.86 0.212 10.94 0.228 10.964 0.252C10.988 0.268 11 0.344 11 0.48C10.992 0.728 10.984 0.976 10.976 1.224C10.968 1.464 10.96 1.708 10.952 1.956C10.944 2.316 10.94 2.672 10.94 3.024C10.948 3.368 10.952 3.716 10.952 4.068C10.952 4.268 10.976 4.464 11.024 4.656C11.072 4.84 11.152 5.016 11.264 5.184C11.56 5.672 11.98 5.868 12.524 5.772C12.708 5.748 12.852 5.66 12.956 5.508C13.3 5.044 13.46 4.54 13.436 3.996C13.42 3.516 13.416 3.036 13.424 2.556C13.44 2.076 13.44 1.596 13.424 1.116C13.424 1.076 13.42 1.02 13.412 0.948C13.412 0.868 13.408 0.788 13.4 0.708C13.4 0.62 13.396 0.536 13.388 0.456C13.388 0.376 13.388 0.316 13.388 0.276C13.388 0.228 13.456 0.2 13.592 0.192C13.736 0.176 13.904 0.168 14.096 0.168C14.288 0.168 14.476 0.176 14.66 0.192C14.852 0.2 14.996 0.208 15.092 0.216C15.164 0.224 15.22 0.228 15.26 0.228C15.308 0.22 15.344 0.22 15.368 0.228C15.4 0.228 15.42 0.244 15.428 0.276C15.444 0.3 15.456 0.348 15.464 0.42C15.48 0.628 15.492 0.856 15.5 1.104C15.516 1.344 15.528 1.564 15.536 1.764C15.552 2.06 15.552 2.356 15.536 2.652C15.528 2.94 15.52 3.232 15.512 3.528C15.512 3.728 15.504 3.928 15.488 4.128C15.48 4.328 15.46 4.528 15.428 4.728C15.34 5.312 15.168 5.844 14.912 6.324C14.656 6.796 14.268 7.196 13.748 7.524C13.588 7.628 13.404 7.708 13.196 7.764C12.996 7.82 12.796 7.86 12.596 7.884C12.404 7.908 12.224 7.92 12.056 7.92C11.888 7.92 11.756 7.916 11.66 7.908C11.596 7.9 11.484 7.88 11.324 7.848C11.172 7.824 10.996 7.772 10.796 7.692C10.604 7.612 10.4 7.504 10.184 7.368C9.96797 7.232 9.77197 7.056 9.59597 6.84C9.41997 6.624 9.27197 6.364 9.15197 6.06C9.03997 5.748 8.98397 5.38 8.98397 4.956C8.97597 4.58 8.97197 4.208 8.97197 3.84C8.97197 3.464 8.97197 3.088 8.97197 2.712C8.97197 2.712 8.96797 2.636 8.95997 2.484C8.95997 2.324 8.95597 2.132 8.94797 1.908C8.94797 1.676 8.94797 1.436 8.94797 1.188C8.94797 0.932 8.94797 0.708 8.94797 0.516Z" fill="white"/>
<path d="M19.571 0.192C20.003 0.208 20.431 0.232 20.855 0.264C21.287 0.296 21.711 0.396 22.127 0.564C22.335 0.652 22.523 0.76 22.691 0.888C22.859 1.008 23.003 1.16 23.123 1.344C23.307 1.616 23.435 1.904 23.507 2.208C23.579 2.504 23.603 2.8 23.579 3.096C23.555 3.384 23.491 3.664 23.387 3.936C23.283 4.2 23.147 4.44 22.979 4.656C22.899 4.752 22.799 4.84 22.679 4.92C22.567 4.992 22.455 5.064 22.343 5.136C22.279 5.176 22.239 5.216 22.223 5.256C22.215 5.296 22.231 5.348 22.271 5.412C22.407 5.644 22.543 5.876 22.679 6.108C22.823 6.332 22.967 6.56 23.111 6.792C23.167 6.88 23.235 7 23.315 7.152C23.395 7.304 23.467 7.424 23.531 7.512C23.587 7.608 23.595 7.704 23.555 7.8C23.531 7.864 23.495 7.9 23.447 7.908C23.407 7.916 23.359 7.92 23.303 7.92C23.047 7.904 22.795 7.9 22.547 7.908C22.299 7.916 22.047 7.92 21.791 7.92C21.703 7.92 21.639 7.904 21.599 7.872C21.559 7.84 21.519 7.792 21.479 7.728C21.327 7.448 21.159 7.136 20.975 6.792C20.799 6.44 20.631 6.124 20.471 5.844C20.439 5.788 20.407 5.736 20.375 5.688C20.343 5.64 20.311 5.592 20.279 5.544C20.215 5.424 20.107 5.364 19.955 5.364C19.867 5.364 19.783 5.36 19.703 5.352C19.631 5.336 19.551 5.328 19.463 5.328C19.335 5.32 19.247 5.336 19.199 5.376C19.159 5.408 19.139 5.492 19.139 5.628C19.147 5.94 19.155 6.252 19.163 6.564C19.171 6.876 19.179 7.188 19.187 7.5C19.195 7.612 19.183 7.692 19.151 7.74C19.119 7.788 19.051 7.824 18.947 7.848C18.907 7.864 18.863 7.872 18.815 7.872C18.767 7.872 18.723 7.872 18.683 7.872C18.475 7.872 18.271 7.872 18.071 7.872C17.879 7.88 17.679 7.884 17.471 7.884C17.407 7.884 17.347 7.88 17.291 7.872C17.235 7.872 17.175 7.868 17.111 7.86C16.975 7.844 16.895 7.768 16.871 7.632C16.863 7.568 16.851 7.504 16.835 7.44C16.827 7.368 16.823 7.3 16.823 7.236C16.831 6.916 16.835 6.596 16.835 6.276C16.835 5.956 16.843 5.636 16.859 5.316C16.867 5.012 16.871 4.716 16.871 4.428C16.871 4.132 16.871 3.832 16.871 3.528C16.879 3.04 16.879 2.556 16.871 2.076C16.863 1.588 16.859 1.1 16.859 0.612C16.859 0.436 16.883 0.328 16.931 0.288C16.979 0.24 17.095 0.22 17.279 0.228H18.287C18.287 0.228 18.331 0.228 18.419 0.228C18.515 0.22 18.631 0.212 18.767 0.204C18.903 0.196 19.043 0.192 19.187 0.192C19.331 0.184 19.459 0.184 19.571 0.192ZM19.163 2.892C19.155 3.004 19.151 3.112 19.151 3.216V3.708C19.151 3.844 19.223 3.912 19.367 3.912C19.527 3.896 19.683 3.888 19.835 3.888C19.995 3.88 20.155 3.868 20.315 3.852C20.475 3.828 20.627 3.784 20.771 3.72C20.923 3.656 21.059 3.56 21.179 3.432C21.267 3.336 21.323 3.22 21.347 3.084C21.379 2.948 21.379 2.816 21.347 2.688C21.323 2.552 21.271 2.436 21.191 2.34C21.111 2.236 21.011 2.168 20.891 2.136C20.347 2 19.815 1.944 19.295 1.968C19.271 1.976 19.243 2 19.211 2.04C19.187 2.072 19.175 2.1 19.175 2.124C19.167 2.236 19.163 2.364 19.163 2.508C19.163 2.652 19.163 2.78 19.163 2.892Z" fill="white"/>
<path d="M34.2049 3.504C34.4369 3.504 34.6689 3.504 34.9009 3.504C35.1329 3.504 35.3649 3.508 35.5969 3.516C35.7329 3.524 35.8129 3.54 35.8369 3.564C35.8689 3.588 35.8969 3.664 35.9209 3.792C35.9609 4.048 35.9569 4.3 35.9089 4.548C35.8689 4.788 35.8089 5.024 35.7289 5.256C35.6329 5.552 35.5009 5.824 35.3329 6.072C35.1649 6.32 34.9769 6.556 34.7689 6.78C34.5129 7.06 34.2289 7.292 33.9169 7.476C33.6049 7.66 33.2569 7.784 32.8729 7.848C32.4729 7.912 32.0769 7.936 31.6849 7.92C31.3009 7.904 30.9169 7.808 30.5329 7.632C30.3249 7.544 30.1289 7.456 29.9449 7.368C29.7609 7.28 29.5809 7.164 29.4049 7.02C29.3009 6.932 29.2129 6.836 29.1409 6.732C29.0689 6.628 28.9889 6.52 28.9009 6.408C28.8449 6.296 28.7809 6.18 28.7089 6.06C28.6449 5.932 28.5929 5.804 28.5529 5.676C28.3049 4.964 28.2329 4.28 28.3369 3.624C28.4409 2.96 28.6809 2.316 29.0569 1.692C29.2729 1.332 29.5489 1.04 29.8849 0.816C30.2209 0.592 30.5929 0.42 31.0009 0.3C31.4409 0.164 31.8769 0.1 32.3089 0.108C32.7489 0.108 33.1889 0.152 33.6289 0.24C33.8369 0.28 34.0289 0.348 34.2049 0.444C34.3809 0.54 34.5609 0.632 34.7449 0.72C34.8089 0.752 34.8409 0.792 34.8409 0.84C34.8409 0.888 34.8169 0.932 34.7689 0.972C34.5609 1.156 34.3569 1.34 34.1569 1.524C33.9649 1.7 33.7649 1.88 33.5569 2.064C33.5249 2.088 33.4809 2.108 33.4249 2.124C33.3769 2.14 33.3449 2.14 33.3289 2.124C33.1689 2.012 33.0009 1.964 32.8249 1.98C32.6569 1.996 32.4889 2.012 32.3209 2.028C32.1849 2.044 32.0489 2.068 31.9129 2.1C31.7849 2.132 31.6609 2.176 31.5409 2.232C31.3089 2.344 31.1009 2.512 30.9169 2.736C30.7409 2.952 30.6129 3.2 30.5329 3.48C30.4529 3.752 30.4289 4.04 30.4609 4.344C30.5009 4.648 30.6209 4.944 30.8209 5.232C31.0049 5.496 31.2289 5.684 31.4929 5.796C31.7649 5.908 32.0649 5.944 32.3929 5.904C32.5449 5.888 32.6929 5.86 32.8369 5.82C32.9809 5.78 33.1129 5.708 33.2329 5.604C33.2889 5.564 33.3409 5.52 33.3889 5.472C33.4369 5.424 33.4809 5.372 33.5209 5.316C33.5609 5.252 33.6009 5.18 33.6409 5.1C33.6809 5.012 33.6929 4.936 33.6769 4.872C33.6689 4.832 33.6489 4.804 33.6169 4.788C33.5929 4.772 33.5609 4.764 33.5209 4.764C33.4809 4.764 33.4369 4.768 33.3889 4.776C33.3489 4.776 33.3129 4.772 33.2809 4.764C33.2249 4.756 33.1729 4.752 33.1249 4.752C33.0769 4.752 33.0249 4.748 32.9689 4.74C32.7929 4.724 32.6809 4.692 32.6329 4.644C32.5849 4.588 32.5569 4.472 32.5489 4.296C32.5409 4.192 32.5369 4.092 32.5369 3.996C32.5369 3.9 32.5289 3.804 32.5129 3.708C32.5049 3.548 32.5689 3.468 32.7049 3.468C32.8889 3.468 33.0769 3.472 33.2689 3.48C33.4609 3.48 33.6489 3.48 33.8329 3.48C33.8969 3.488 33.9569 3.496 34.0129 3.504C34.0769 3.504 34.1409 3.504 34.2049 3.504Z" fill="white"/>
<path d="M42.3502 0.192C42.4942 0.184 42.5862 0.196 42.6262 0.228C42.6742 0.26 42.7142 0.344 42.7462 0.48C42.8102 0.744 42.8662 1 42.9142 1.248C42.9702 1.496 43.0302 1.752 43.0942 2.016C43.2302 2.592 43.3662 3.16 43.5022 3.72C43.6382 4.28 43.7742 4.844 43.9102 5.412C43.9742 5.668 44.0342 5.928 44.0902 6.192C44.1542 6.448 44.2182 6.704 44.2822 6.96C44.3062 7.064 44.3302 7.168 44.3542 7.272C44.3782 7.368 44.4022 7.464 44.4262 7.56C44.4742 7.744 44.4102 7.852 44.2342 7.884H44.1502C43.8622 7.9 43.5742 7.9 43.2862 7.884C42.9982 7.876 42.7142 7.88 42.4342 7.896C42.3142 7.896 42.2382 7.876 42.2062 7.836C42.1822 7.796 42.1622 7.708 42.1462 7.572C42.1222 7.22 42.0582 6.868 41.9542 6.516C41.9382 6.436 41.9022 6.392 41.8462 6.384C41.7982 6.376 41.7542 6.372 41.7142 6.372C41.4262 6.364 41.1382 6.364 40.8502 6.372C40.5622 6.38 40.2782 6.388 39.9982 6.396C39.9342 6.396 39.8862 6.412 39.8542 6.444C39.8222 6.476 39.7982 6.52 39.7822 6.576C39.7342 6.76 39.6822 6.932 39.6262 7.092C39.5782 7.252 39.5302 7.424 39.4822 7.608C39.4582 7.696 39.4262 7.76 39.3862 7.8C39.3542 7.832 39.2822 7.848 39.1702 7.848C39.1142 7.848 38.9902 7.848 38.7982 7.848C38.6062 7.848 38.4062 7.848 38.1982 7.848C37.9902 7.848 37.7982 7.848 37.6222 7.848C37.4542 7.84 37.3662 7.836 37.3582 7.836C37.1662 7.82 37.1022 7.72 37.1662 7.536C37.2462 7.288 37.3262 7.048 37.4062 6.816C37.4862 6.584 37.5702 6.348 37.6582 6.108C37.8262 5.572 37.9942 5.04 38.1622 4.512C38.3302 3.976 38.5022 3.44 38.6782 2.904C38.7342 2.72 38.8022 2.496 38.8822 2.232C38.9622 1.968 39.0382 1.712 39.1102 1.464C39.1902 1.216 39.2582 1.004 39.3142 0.828C39.3702 0.652 39.4022 0.556 39.4102 0.54C39.4342 0.46 39.4502 0.396 39.4582 0.348C39.4742 0.3 39.4942 0.264 39.5182 0.24C39.5502 0.216 39.5942 0.2 39.6502 0.192C39.7142 0.184 39.8022 0.18 39.9142 0.18C40.0102 0.18 40.1702 0.184 40.3942 0.192C40.6262 0.192 40.8662 0.192 41.1142 0.192C41.3702 0.192 41.6142 0.192 41.8462 0.192C42.0782 0.192 42.2462 0.192 42.3502 0.192ZM41.4502 4.932C41.5782 4.924 41.6262 4.856 41.5942 4.728C41.5302 4.448 41.4622 4.164 41.3902 3.876C41.3262 3.588 41.2622 3.304 41.1982 3.024C41.1902 3 41.1782 2.976 41.1622 2.952C41.1462 2.92 41.1222 2.904 41.0902 2.904C41.0582 2.904 41.0382 2.916 41.0302 2.94C41.0302 2.964 41.0262 2.984 41.0182 3C40.9302 3.256 40.8422 3.516 40.7542 3.78C40.6662 4.036 40.5782 4.292 40.4902 4.548C40.4502 4.668 40.4222 4.76 40.4062 4.824C40.3902 4.88 40.3902 4.92 40.4062 4.944C40.4302 4.968 40.4702 4.98 40.5262 4.98C40.5902 4.98 40.6782 4.98 40.7902 4.98C40.7902 4.98 40.8142 4.98 40.8622 4.98C40.9182 4.972 40.9782 4.968 41.0422 4.968C41.1142 4.96 41.1862 4.956 41.2582 4.956C41.3382 4.948 41.4022 4.94 41.4502 4.932Z" fill="white"/>
<path d="M47.7863 4.26C47.7863 4.316 47.7823 4.352 47.7743 4.368C47.7743 4.376 47.7783 4.396 47.7863 4.428C47.8103 4.956 47.8342 5.48 47.8582 6C47.8822 6.52 47.9063 7.044 47.9303 7.572C47.9383 7.684 47.9302 7.752 47.9062 7.776C47.8822 7.8 47.8062 7.82 47.6782 7.836C47.5422 7.852 47.4102 7.86 47.2822 7.86C47.1542 7.86 47.0263 7.86 46.8983 7.86C46.7143 7.86 46.5342 7.86 46.3582 7.86C46.1822 7.86 46.0062 7.856 45.8302 7.848C45.7102 7.848 45.6622 7.788 45.6862 7.668C45.6782 7.212 45.6743 6.76 45.6743 6.312C45.6823 5.856 45.6862 5.4 45.6862 4.944C45.6622 3.472 45.6502 2 45.6502 0.528C45.6422 0.392 45.6542 0.308 45.6862 0.276C45.7182 0.244 45.7983 0.224 45.9263 0.216C45.9903 0.216 46.0943 0.216 46.2383 0.216C46.3903 0.216 46.5503 0.216 46.7183 0.216C46.8863 0.216 47.0462 0.216 47.1982 0.216C47.3582 0.216 47.4742 0.216 47.5462 0.216C47.6742 0.2 47.7742 0.216 47.8462 0.264C47.9262 0.312 47.9983 0.392 48.0623 0.504C48.2943 0.952 48.5302 1.396 48.7702 1.836C49.0182 2.268 49.2623 2.704 49.5023 3.144L50.3662 4.728C50.4302 4.84 50.4823 4.896 50.5223 4.896C50.5623 4.888 50.6142 4.828 50.6782 4.716C50.7902 4.532 50.8983 4.352 51.0023 4.176C51.1063 4 51.2143 3.82 51.3263 3.636C51.4863 3.364 51.6502 3.1 51.8182 2.844C51.9942 2.58 52.1623 2.308 52.3223 2.028C52.4663 1.78 52.6023 1.536 52.7303 1.296C52.8663 1.048 52.9983 0.796 53.1263 0.54C53.1903 0.428 53.2582 0.34 53.3302 0.276C53.4103 0.204 53.5183 0.176 53.6543 0.192C53.7023 0.2 53.8023 0.204 53.9543 0.204C54.1143 0.204 54.2783 0.204 54.4463 0.204C54.6223 0.204 54.7823 0.204 54.9263 0.204C55.0703 0.196 55.1503 0.192 55.1663 0.192C55.3023 0.192 55.4062 0.196 55.4782 0.204C55.5502 0.212 55.6023 0.236 55.6343 0.276C55.6743 0.308 55.6943 0.364 55.6943 0.444C55.7023 0.516 55.7062 0.624 55.7062 0.768C55.7062 1.56 55.7102 2.348 55.7183 3.132C55.7263 3.916 55.7382 4.704 55.7542 5.496C55.7622 5.848 55.7622 6.188 55.7542 6.516C55.7542 6.836 55.7623 7.168 55.7783 7.512C55.7863 7.696 55.7743 7.804 55.7423 7.836C55.7183 7.868 55.6182 7.88 55.4422 7.872C55.3702 7.872 55.2583 7.868 55.1063 7.86C54.9623 7.86 54.8102 7.86 54.6502 7.86C54.4902 7.86 54.3383 7.86 54.1943 7.86C54.0503 7.86 53.9502 7.86 53.8942 7.86C53.7822 7.868 53.7063 7.856 53.6663 7.824C53.6343 7.792 53.6183 7.716 53.6183 7.596C53.6103 7.044 53.6022 6.5 53.5942 5.964C53.5942 5.428 53.5903 4.884 53.5823 4.332C53.5823 4.268 53.5783 4.224 53.5703 4.2C53.5703 4.16 53.5543 4.124 53.5223 4.092C53.5063 4.076 53.4903 4.076 53.4743 4.092C53.4663 4.108 53.4583 4.12 53.4503 4.128C53.4103 4.184 53.3743 4.236 53.3423 4.284C53.3103 4.332 53.2783 4.384 53.2463 4.44C52.9423 4.96 52.6343 5.488 52.3223 6.024C52.0183 6.552 51.7143 7.08 51.4103 7.608C51.3703 7.672 51.3263 7.728 51.2783 7.776C51.2303 7.824 51.1502 7.848 51.0382 7.848H49.9943C49.8183 7.848 49.7023 7.816 49.6463 7.752C49.5903 7.68 49.5303 7.576 49.4663 7.44C49.2423 6.96 49.0142 6.488 48.7822 6.024C48.5502 5.56 48.3142 5.092 48.0742 4.62C48.0422 4.556 48.0063 4.492 47.9663 4.428C47.9343 4.364 47.8982 4.3 47.8582 4.236C47.8502 4.22 47.8342 4.208 47.8102 4.2C47.7942 4.184 47.7863 4.204 47.7863 4.26Z" fill="white"/>
<path d="M57.4879 2.676C57.4879 2.372 57.4799 2.072 57.4639 1.776C57.4559 1.472 57.4439 1.168 57.4279 0.864C57.4279 0.824 57.4239 0.784 57.4159 0.744C57.4159 0.696 57.4159 0.648 57.4159 0.6C57.4159 0.464 57.4319 0.364 57.4639 0.3C57.4959 0.236 57.6039 0.208 57.7879 0.216C57.9959 0.224 58.2559 0.228 58.5679 0.228C58.8879 0.228 59.2199 0.228 59.5639 0.228C59.9159 0.228 60.2719 0.228 60.6319 0.228C60.9919 0.228 61.3199 0.228 61.6159 0.228C61.9199 0.22 62.1799 0.216 62.3959 0.216C62.6119 0.216 62.7559 0.216 62.8279 0.216C62.9879 0.216 63.0719 0.292 63.0799 0.444C63.0879 0.652 63.0919 0.88 63.0919 1.128C63.0919 1.376 63.0919 1.604 63.0919 1.812C63.0919 1.836 63.0719 1.864 63.0319 1.896C62.9999 1.928 62.9719 1.944 62.9479 1.944C62.8359 1.96 62.7239 1.976 62.6119 1.992C62.5079 2 62.3999 2.004 62.2879 2.004C61.8959 2.012 61.5159 2.016 61.1479 2.016C60.7799 2.016 60.3999 2.02 60.0079 2.028C59.8719 2.028 59.7639 2.032 59.6839 2.04C59.6119 2.048 59.5599 2.072 59.5279 2.112C59.4959 2.144 59.4799 2.2 59.4799 2.28C59.4799 2.352 59.4839 2.46 59.4919 2.604C59.4919 2.684 59.4879 2.736 59.4799 2.76C59.4799 2.784 59.4839 2.832 59.4919 2.904C59.4999 3 59.5079 3.076 59.5159 3.132C59.5239 3.188 59.5399 3.232 59.5639 3.264C59.5879 3.288 59.6279 3.304 59.6839 3.312C59.7399 3.32 59.8199 3.328 59.9239 3.336C60.0039 3.352 60.1119 3.356 60.2479 3.348C60.3919 3.34 60.5079 3.34 60.5959 3.348C60.6919 3.356 60.7599 3.372 60.7999 3.396C60.8479 3.412 60.8799 3.44 60.8959 3.48C60.9119 3.52 60.9159 3.572 60.9079 3.636C60.9079 3.7 60.9079 3.78 60.9079 3.876C60.9079 3.908 60.9039 3.94 60.8959 3.972C60.8959 3.996 60.8999 4.024 60.9079 4.056C60.9079 4.2 60.8359 4.272 60.6919 4.272C60.4519 4.288 60.2159 4.288 59.9839 4.272C59.8559 4.272 59.7559 4.276 59.6839 4.284C59.6119 4.284 59.5599 4.3 59.5279 4.332C59.5039 4.364 59.4879 4.416 59.4799 4.488C59.4799 4.552 59.4799 4.644 59.4799 4.764V5.652C59.4879 5.82 59.5719 5.904 59.7319 5.904H62.6479C62.7919 5.888 62.8919 5.9 62.9479 5.94C63.0039 5.972 63.0359 6.06 63.0439 6.204C63.0599 6.428 63.0679 6.676 63.0679 6.948C63.0759 7.22 63.0759 7.468 63.0679 7.692C63.0679 7.724 63.0479 7.76 63.0079 7.8C62.9759 7.832 62.9439 7.852 62.9119 7.86C62.8639 7.868 62.7519 7.872 62.5759 7.872C62.4079 7.872 62.1999 7.872 61.9519 7.872C61.7119 7.872 61.4479 7.868 61.1599 7.86C60.8719 7.86 60.5879 7.856 60.3079 7.848C60.0279 7.848 59.7639 7.848 59.5159 7.848C59.2679 7.848 59.0679 7.848 58.9159 7.848C58.7319 7.856 58.5439 7.856 58.3519 7.848C58.1599 7.84 57.9719 7.832 57.7879 7.824C57.6359 7.816 57.5359 7.792 57.4879 7.752C57.4479 7.704 57.4279 7.604 57.4279 7.452C57.4279 7.188 57.4279 6.924 57.4279 6.66C57.4279 6.396 57.4319 6.132 57.4399 5.868C57.4399 5.684 57.4399 5.508 57.4399 5.34C57.4479 5.164 57.4559 4.984 57.4639 4.8C57.4559 4.8 57.4519 4.724 57.4519 4.572C57.4599 4.412 57.4639 4.224 57.4639 4.008C57.4719 3.784 57.4759 3.552 57.4759 3.312C57.4839 3.064 57.4879 2.852 57.4879 2.676Z" fill="white"/>
<path d="M68.984 0.276C69.192 0.364 69.368 0.484 69.512 0.636C69.656 0.788 69.804 0.94 69.956 1.092C70.004 1.14 70.02 1.196 70.004 1.26C69.988 1.324 69.96 1.376 69.92 1.416C69.776 1.576 69.632 1.736 69.488 1.896C69.344 2.048 69.196 2.2 69.044 2.352C68.98 2.424 68.9 2.432 68.804 2.376C68.724 2.312 68.644 2.248 68.564 2.184C68.484 2.12 68.4 2.064 68.312 2.016C68.2 1.952 68.088 1.892 67.976 1.836C67.864 1.772 67.752 1.72 67.64 1.68C67.504 1.632 67.38 1.628 67.268 1.668C67.164 1.7 67.084 1.772 67.028 1.884C66.98 1.98 66.964 2.096 66.98 2.232C67.004 2.36 67.064 2.46 67.16 2.532C67.288 2.62 67.416 2.704 67.544 2.784C67.68 2.856 67.816 2.928 67.952 3C68.144 3.112 68.336 3.224 68.528 3.336C68.728 3.44 68.92 3.548 69.104 3.66C69.288 3.772 69.452 3.908 69.596 4.068C69.748 4.22 69.892 4.38 70.028 4.548C70.188 4.756 70.284 4.98 70.316 5.22C70.356 5.46 70.36 5.704 70.328 5.952C70.216 6.912 69.692 7.556 68.756 7.884C68.388 8.012 68.024 8.068 67.664 8.052C67.312 8.044 66.952 7.988 66.584 7.884C66.248 7.796 65.94 7.672 65.66 7.512C65.38 7.344 65.1 7.172 64.82 6.996C64.772 6.972 64.724 6.936 64.676 6.888C64.604 6.824 64.548 6.776 64.508 6.744C64.476 6.704 64.456 6.664 64.448 6.624C64.44 6.584 64.444 6.54 64.46 6.492C64.484 6.436 64.52 6.364 64.568 6.276C64.656 6.108 64.736 5.936 64.808 5.76C64.888 5.584 64.968 5.408 65.048 5.232C65.08 5.168 65.108 5.108 65.132 5.052C65.156 4.996 65.188 4.94 65.228 4.884C65.252 4.844 65.284 4.82 65.324 4.812C65.364 4.796 65.404 4.808 65.444 4.848C65.532 4.936 65.62 5.024 65.708 5.112C65.796 5.2 65.884 5.288 65.972 5.376C66.18 5.576 66.408 5.736 66.656 5.856C66.912 5.968 67.172 6.068 67.436 6.156C67.54 6.188 67.66 6.192 67.796 6.168C67.916 6.144 68.016 6.096 68.096 6.024C68.176 5.952 68.228 5.868 68.252 5.772C68.284 5.676 68.288 5.576 68.264 5.472C68.24 5.368 68.184 5.272 68.096 5.184C67.992 5.08 67.88 4.988 67.76 4.908C67.64 4.82 67.516 4.74 67.388 4.668C67.18 4.54 66.968 4.42 66.752 4.308C66.536 4.188 66.316 4.076 66.092 3.972C65.756 3.812 65.492 3.604 65.3 3.348C65.116 3.084 64.976 2.78 64.88 2.436C64.76 1.94 64.844 1.492 65.132 1.092C65.244 0.932 65.356 0.8 65.468 0.696C65.58 0.584 65.756 0.468 65.996 0.348C66.324 0.188 66.644 0.088 66.956 0.048C67.268 1.60187e-07 67.552 -0.0119999 67.808 0.0119998C68.072 0.028 68.304 0.064 68.504 0.12C68.712 0.176 68.872 0.228 68.984 0.276Z" fill="white"/>
<path d="M73.2318 3.588C73.1918 3.892 73.0398 4.124 72.7758 4.284C72.6718 4.348 72.5518 4.384 72.4158 4.392C72.2798 4.392 72.1478 4.372 72.0198 4.332C71.8998 4.284 71.7878 4.22 71.6838 4.14C71.5798 4.052 71.5078 3.952 71.4678 3.84C71.4198 3.712 71.4078 3.588 71.4318 3.468C71.4638 3.34 71.5198 3.22 71.5998 3.108C71.7038 2.956 71.8478 2.844 72.0318 2.772C72.2158 2.692 72.3918 2.68 72.5598 2.736C72.7518 2.792 72.9118 2.9 73.0398 3.06C73.1678 3.22 73.2318 3.396 73.2318 3.588ZM72.2838 7.848C71.9958 7.832 71.7798 7.752 71.6358 7.608C71.4918 7.456 71.4278 7.244 71.4438 6.972C71.4518 6.86 71.4758 6.756 71.5158 6.66C71.5638 6.556 71.6238 6.468 71.6958 6.396C71.7758 6.324 71.8638 6.268 71.9598 6.228C72.0558 6.188 72.1558 6.172 72.2598 6.18C72.8438 6.22 73.1238 6.516 73.0998 7.068C73.0918 7.3 73.0078 7.492 72.8478 7.644C72.6958 7.796 72.5078 7.864 72.2838 7.848Z" fill="white"/>
<path d="M7.99645 3.88568C7.95507 4.26008 7.893 4.62227 7.81023 4.97225C7.72747 5.32224 7.60333 5.65594 7.4378 5.97336C7.28055 6.28265 7.07778 6.57159 6.8295 6.84018C6.58948 7.10063 6.29567 7.32852 5.94807 7.52386C5.67495 7.67851 5.39356 7.79652 5.10389 7.87791C4.81422 7.9593 4.51213 8 4.19763 8C3.6845 8 3.22517 7.93896 2.81963 7.81687C2.42237 7.68664 2.07062 7.52386 1.7644 7.32852C1.46645 7.12505 1.20989 6.90122 0.994707 6.65705C0.7878 6.40474 0.613997 6.16056 0.4733 5.92453C0.34088 5.68036 0.241563 5.45653 0.175352 5.25305C0.109142 5.04957 0.0719021 4.88679 0.0636258 4.76471C0.0470732 4.54495 0.0305173 4.32519 0.0139648 4.10544C-0.0108641 3.88568 -0.00258313 3.66186 0.0387983 3.43396C0.121561 3.03515 0.258118 2.64447 0.448473 2.26193C0.647104 1.87939 0.895393 1.53348 1.19334 1.2242C1.49956 0.914909 1.85958 0.654458 2.2734 0.442841C2.68721 0.223085 3.15068 0.0847205 3.66381 0.027747C3.97004 -0.0129485 4.27212 -0.00887913 4.57007 0.0399554C4.87629 0.0887898 5.17424 0.166111 5.46391 0.27192C5.96048 0.459119 6.37844 0.723641 6.71776 1.06548C7.05709 1.39919 7.33434 1.80614 7.54953 2.28635C7.6654 2.5468 7.77299 2.80318 7.8723 3.05549C7.97162 3.30781 8.01301 3.58454 7.99645 3.88568Z" fill="white"/>
<path d="M6 3.91586C6 3.8123 5.99565 3.73463 5.98694 3.68285C5.98694 3.62244 5.98258 3.57497 5.97387 3.54045C5.96515 3.50593 5.95644 3.47573 5.94773 3.44984C5.93902 3.41532 5.93031 3.37217 5.9216 3.32039C5.89546 3.19094 5.82141 3.05286 5.69945 2.90615C5.58619 2.75081 5.44245 2.60841 5.26822 2.47896C5.10269 2.34089 4.91539 2.22869 4.7063 2.14239C4.50593 2.04746 4.30992 2 4.11827 2C3.72624 2 3.39519 2.07767 3.12512 2.23301C2.86377 2.38835 2.65033 2.58252 2.48481 2.81553C2.328 3.03991 2.21039 3.28587 2.13198 3.5534C2.05358 3.82093 2.01002 4.06688 2.00131 4.29126C1.9926 4.43797 2.02744 4.61057 2.10585 4.80906C2.19297 4.99892 2.31929 5.18447 2.48481 5.3657C2.65905 5.5383 2.86812 5.68932 3.11205 5.81877C3.36469 5.93959 3.64783 6 3.96145 6C4.30992 6 4.61048 5.93096 4.86312 5.79288C5.11576 5.64617 5.32484 5.46926 5.49036 5.26214C5.6646 5.05502 5.79092 4.83064 5.86932 4.589C5.95644 4.34736 6 4.12298 6 3.91586Z" fill="black"/>
</svg>
