<svg width="56" height="52" viewBox="0 0 56 52" fill="none" xmlns="http://www.w3.org/2000/svg">
<circle cx="27.6774" cy="26" r="24.9935" fill="#BE141B"/>
<rect x="17.4451" y="48.6452" width="3.35484" height="3.35484" fill="#BE141B"/>
<rect x="10.3999" y="45.2903" width="3.35484" height="3.35484" fill="#BE141B"/>
<rect x="10.3999" y="45.2903" width="3.35484" height="3.35484" fill="#BE141B"/>
<rect x="10.3999" y="45.2903" width="3.35484" height="3.35484" fill="#BE141B"/>
<rect x="3.69043" y="31.5355" width="3.35484" height="3.35484" fill="#BE141B"/>
<rect x="3.69043" y="31.5355" width="3.35484" height="3.35484" fill="#BE141B"/>
<rect x="3.69043" y="31.5355" width="3.35484" height="3.35484" fill="#BE141B"/>
<rect x="3.69043" y="31.5355" width="3.35484" height="3.35484" fill="#BE141B"/>
<rect y="17.4452" width="3.35484" height="3.35484" fill="#BE141B"/>
<rect y="18.1161" width="3.35484" height="3.35484" fill="#BE141B"/>
<rect x="14.0903" y="3.69031" width="3.35484" height="3.35484" fill="#BE141B"/>
<rect x="14.0903" y="3.69031" width="3.35484" height="3.35484" fill="#BE141B"/>
<rect x="14.0903" y="3.69031" width="3.35484" height="3.35484" fill="#BE141B"/>
<rect x="14.0903" y="3.69031" width="3.35484" height="3.35484" fill="#BE141B"/>
<rect x="34.8904" width="3.35484" height="3.35484" fill="#BE141B"/>
<rect x="33.8838" width="3.35484" height="3.35484" fill="#BE141B"/>
<rect x="48.6453" y="14.0903" width="3.35484" height="3.35484" fill="#BE141B"/>
<rect x="52" y="31.2" width="3.35484" height="3.35484" fill="#BE141B"/>
<rect x="38.5806" y="45.2903" width="3.35484" height="3.35484" fill="#BE141B"/>
<rect x="41.9355" y="45.2903" width="3.35484" height="3.35484" fill="#BE141B"/>
<rect x="41.9355" y="41.9355" width="3.35484" height="3.35484" fill="#BE141B"/>
<rect x="45.2903" y="41.9355" width="3.35484" height="3.35484" fill="#BE141B"/>
<rect x="45.2903" y="39.5871" width="3.35484" height="3.35484" fill="#BE141B"/>
<rect x="48.6453" y="31.5355" width="3.35484" height="3.35484" fill="#BE141B"/>
<rect x="48.6453" y="34.8903" width="3.35484" height="3.35484" fill="#BE141B"/>
<rect x="48.6453" y="38.2452" width="3.35484" height="3.35484" fill="#BE141B"/>
<rect x="52" y="27.8452" width="3.35484" height="3.35484" fill="#BE141B"/>
<rect x="52" y="24.4903" width="3.35484" height="3.35484" fill="#BE141B"/>
<rect x="52" y="21.1355" width="3.35484" height="3.35484" fill="#BE141B"/>
<rect x="52" y="17.7806" width="3.35484" height="3.35484" fill="#BE141B"/>
<rect x="48.6453" y="17.4452" width="3.35484" height="3.35484" fill="#BE141B"/>
<rect x="48.6453" y="10.7355" width="3.35484" height="3.35484" fill="#BE141B"/>
<rect x="45.2903" y="10.4" width="3.35484" height="3.35484" fill="#BE141B"/>
<rect x="45.2903" y="7.04517" width="3.35484" height="3.35484" fill="#BE141B"/>
<rect x="43.9485" y="7.04517" width="3.35484" height="3.35484" fill="#BE141B"/>
<rect x="38.5806" y="3.69031" width="3.35484" height="3.35484" fill="#BE141B"/>
<rect x="41.9355" y="3.69031" width="3.35484" height="3.35484" fill="#BE141B"/>
<rect x="30.8645" width="3.35484" height="3.35484" fill="#BE141B"/>
<rect x="27.5098" width="3.35484" height="3.35484" fill="#BE141B"/>
<rect x="24.1548" width="3.35484" height="3.35484" fill="#BE141B"/>
<rect x="20.8" width="3.35484" height="3.35484" fill="#BE141B"/>
<rect x="17.4451" width="3.35484" height="3.35484" fill="#BE141B"/>
<rect x="10.7356" y="3.69031" width="3.35484" height="3.35484" fill="#BE141B"/>
<rect x="10.0645" y="7.04517" width="3.35484" height="3.35484" fill="#BE141B"/>
<rect x="7.04517" y="7.04517" width="3.35484" height="3.35484" fill="#BE141B"/>
<rect x="6.70972" y="10.4" width="3.35484" height="3.35484" fill="#BE141B"/>
<rect x="3.35474" y="16.7742" width="3.35484" height="3.35484" fill="#BE141B"/>
<rect x="3.35474" y="13.7549" width="3.35484" height="3.35484" fill="#BE141B"/>
<rect x="3.35474" y="10.4" width="3.35484" height="3.35484" fill="#BE141B"/>
<rect y="21.1355" width="3.35484" height="3.35484" fill="#BE141B"/>
<rect y="24.4903" width="3.35484" height="3.35484" fill="#BE141B"/>
<rect y="27.8452" width="3.35484" height="3.35484" fill="#BE141B"/>
<rect y="31.2" width="3.35484" height="3.35484" fill="#BE141B"/>
<rect x="0.335449" y="31.2" width="3.35484" height="3.35484" fill="#BE141B"/>
<rect x="3.69043" y="34.8903" width="3.35484" height="3.35484" fill="#BE141B"/>
<rect x="3.69043" y="38.2452" width="3.35484" height="3.35484" fill="#BE141B"/>
<rect x="7.04517" y="38.5807" width="3.35484" height="3.35484" fill="#BE141B"/>
<rect x="7.04517" y="41.9355" width="3.35484" height="3.35484" fill="#BE141B"/>
<rect x="8.72266" y="41.9355" width="3.35484" height="3.35484" fill="#BE141B"/>
<rect x="13.7549" y="45.2903" width="3.35484" height="3.35484" fill="#BE141B"/>
<rect x="32.542" y="48.6452" width="3.35484" height="3.35484" fill="#BE141B"/>
<rect x="30.8645" y="48.6452" width="3.35484" height="3.35484" fill="#BE141B"/>
<rect x="34.8904" y="48.6452" width="3.35484" height="3.35484" fill="#BE141B"/>
<rect x="27.5098" y="48.6452" width="3.35484" height="3.35484" fill="#BE141B"/>
<rect x="24.1548" y="48.6452" width="3.35484" height="3.35484" fill="#BE141B"/>
<rect x="20.8" y="48.6452" width="3.35484" height="3.35484" fill="#BE141B"/>
<rect x="21.4709" y="34.8903" width="3.35484" height="3.35484" fill="white"/>
<rect x="21.4709" y="34.8903" width="3.35484" height="3.35484" fill="white"/>
<rect x="21.4709" y="34.8903" width="3.35484" height="3.35484" fill="white"/>
<rect x="28.1807" y="17.4452" width="3.35484" height="3.35484" fill="white"/>
<rect x="28.1807" y="19.1226" width="3.35484" height="3.35484" fill="white"/>
<rect x="28.1807" y="28.1806" width="3.35484" height="3.35484" fill="white"/>
<rect x="28.1807" y="31.5355" width="3.35484" height="3.35484" fill="white"/>
<rect x="28.1807" y="21.471" width="3.35484" height="3.35484" fill="white"/>
<rect x="28.1807" y="24.8258" width="3.35484" height="3.35484" fill="white"/>
<rect x="24.8259" y="31.5355" width="3.35484" height="3.35484" fill="white"/>
<rect x="21.4709" y="31.5355" width="3.35484" height="3.35484" fill="white"/>
<rect x="24.8259" y="34.8903" width="3.35484" height="3.35484" fill="white"/>
<rect x="31.5354" y="28.1806" width="3.35484" height="3.35484" fill="white"/>
<rect x="31.5354" y="28.1806" width="3.35484" height="3.35484" fill="white"/>
<rect x="31.5354" y="28.1806" width="3.35484" height="3.35484" fill="white"/>
<rect x="31.5354" y="28.1806" width="3.35484" height="3.35484" fill="white"/>
<rect x="31.5354" y="28.1806" width="3.35484" height="3.35484" fill="white"/>
<rect x="31.5354" y="28.1806" width="3.35484" height="3.35484" fill="white"/>
<rect x="31.5354" y="28.1806" width="3.35484" height="3.35484" fill="white"/>
<rect x="24.8259" y="24.8258" width="3.35484" height="3.35484" fill="white"/>
<rect x="31.5354" y="24.8258" width="3.35484" height="3.35484" fill="white"/>
<rect x="24.8259" y="28.1806" width="3.35484" height="3.35484" fill="white"/>
<rect x="31.5354" y="24.1548" width="3.35484" height="3.35484" fill="white"/>
<rect x="31.5354" y="24.1548" width="3.35484" height="3.35484" fill="white"/>
<rect x="31.5354" y="24.1548" width="3.35484" height="3.35484" fill="white"/>
<rect x="31.5354" y="24.1548" width="3.35484" height="3.35484" fill="white"/>
<rect x="31.5354" y="24.1548" width="3.35484" height="3.35484" fill="white"/>
<rect x="31.5354" y="24.1548" width="3.35484" height="3.35484" fill="white"/>
<rect x="31.5354" y="24.1548" width="3.35484" height="3.35484" fill="white"/>
<rect x="34.8904" y="24.1548" width="3.35484" height="3.35484" fill="white"/>
<rect x="24.8259" y="20.8" width="3.35484" height="3.35484" fill="white"/>
<rect x="31.5354" y="20.8" width="3.35484" height="3.35484" fill="white"/>
<rect x="21.4709" y="28.1806" width="3.35484" height="3.35484" fill="white"/>
<rect x="21.4709" y="28.1806" width="3.35484" height="3.35484" fill="white"/>
<rect x="21.4709" y="28.1806" width="3.35484" height="3.35484" fill="white"/>
<rect x="21.4709" y="28.1806" width="3.35484" height="3.35484" fill="white"/>
<rect x="21.4709" y="28.1806" width="3.35484" height="3.35484" fill="white"/>
<rect x="21.4709" y="28.1806" width="3.35484" height="3.35484" fill="white"/>
<rect x="21.4709" y="28.1806" width="3.35484" height="3.35484" fill="white"/>
<rect x="21.4709" y="24.8258" width="3.35484" height="3.35484" fill="white"/>
<rect x="21.4709" y="24.1548" width="3.35484" height="3.35484" fill="white"/>
<rect x="21.4709" y="24.1548" width="3.35484" height="3.35484" fill="white"/>
<rect x="21.4709" y="24.1548" width="3.35484" height="3.35484" fill="white"/>
<rect x="21.4709" y="24.1548" width="3.35484" height="3.35484" fill="white"/>
<rect x="21.4709" y="24.1548" width="3.35484" height="3.35484" fill="white"/>
<rect x="21.4709" y="24.1548" width="3.35484" height="3.35484" fill="white"/>
<rect x="21.4709" y="24.1548" width="3.35484" height="3.35484" fill="white"/>
<rect x="21.4709" y="20.8" width="3.35484" height="3.35484" fill="white"/>
<rect x="24.8259" y="24.1548" width="3.35484" height="3.35484" fill="white"/>
<rect x="21.4709" y="17.4452" width="3.35484" height="3.35484" fill="white"/>
<rect x="21.4709" y="17.4452" width="3.35484" height="3.35484" fill="white"/>
<rect x="21.4709" y="17.4452" width="3.35484" height="3.35484" fill="white"/>
<rect x="21.4709" y="17.4452" width="3.35484" height="3.35484" fill="white"/>
<rect x="21.4709" y="17.4452" width="3.35484" height="3.35484" fill="white"/>
<rect x="21.4709" y="17.4452" width="3.35484" height="3.35484" fill="white"/>
<rect x="21.4709" y="17.4452" width="3.35484" height="3.35484" fill="white"/>
<rect x="24.8259" y="14.0903" width="3.35484" height="3.35484" fill="white"/>
<rect x="21.4709" y="14.0903" width="3.35484" height="3.35484" fill="white"/>
<rect x="24.8259" y="17.4452" width="3.35484" height="3.35484" fill="white"/>
</svg>
