<svg width="400" height="119" viewBox="0 0 400 119" fill="none" xmlns="http://www.w3.org/2000/svg">
<path d="M34 51.6659C47.5 43.1659 50.2 42.1659 52 39.1659C53.5 36.6659 45 63.1659 44.5 68.6659C44.1 73.0659 43.8333 76.4992 44 77.6659" stroke="black" stroke-width="8" stroke-linecap="round"/>
<path d="M35 81.1659C39.5 80.8326 52 81.6659 56 83.6659" stroke="black" stroke-width="8" stroke-linecap="round"/>
<path d="M92 39C87.8333 40.1667 77.6 42.4 70 42" stroke="black" stroke-width="8" stroke-linecap="round" stroke-linejoin="round"/>
<path d="M71 42C72 49.1667 74.3 64.3 75.5 67.5C78 63.1667 83.9 54.7 87.5 55.5C92 56.5 101 66.5 96 79C91 91.5 81 85 80.5 80.5" stroke="black" stroke-width="8" stroke-linecap="round" stroke-linejoin="round"/>
<path d="M118.403 41.5C118.403 42.1561 118.403 42.5 117.724 45.8439C117.403 47.4253 109.635 67.6479 114.724 78.8439C119.724 89.8439 130.958 84.4504 134.724 75.8439C138.224 67.8439 137.724 51.3439 134.724 45.3439C133.111 42.119 125.724 32.8439 120.724 45.3439" stroke="black" stroke-width="8" stroke-linecap="round"/>
<path d="M176.403 41.5C176.403 42.1561 176.403 42.5 175.724 45.8439C175.403 47.4253 167.635 67.6479 172.724 78.8439C177.724 89.8439 188.958 84.4504 192.724 75.8439C196.224 67.8439 195.724 51.3439 192.724 45.3439C191.111 42.119 183.724 32.8439 178.724 45.3439" stroke="black" stroke-width="8" stroke-linecap="round"/>
<path d="M217.403 41.5C217.403 42.1561 217.403 42.5 216.724 45.8439C216.403 47.4253 208.635 67.6479 213.724 78.8439C218.724 89.8439 229.958 84.4504 233.724 75.8439C237.224 67.8439 236.724 51.3439 233.724 45.3439C232.111 42.119 224.724 32.8439 219.724 45.3439" stroke="black" stroke-width="8" stroke-linecap="round"/>
<path d="M258.403 41.5C258.403 42.1561 258.403 42.5 257.724 45.8439C257.403 47.4253 249.635 67.6479 254.724 78.8439C259.724 89.8439 270.958 84.4504 274.724 75.8439C278.224 67.8439 277.724 51.3439 274.724 45.3439C273.111 42.119 265.724 32.8439 260.724 45.3439" stroke="black" stroke-width="8" stroke-linecap="round"/>
<path d="M316.5 87.1872C315 70.3539 312 35.5247 316.5 35.1872C356.5 32.187 353.5 66.2836 308.5 63.2835" stroke="black" stroke-width="8" stroke-linecap="round"/>
<path d="M308 78.7837C316.167 77.117 319.5 75.2837 332.5 75.2837" stroke="black" stroke-width="8" stroke-linecap="round"/>
</svg>
