<svg width="400" height="119" viewBox="0 0 400 119" fill="none" xmlns="http://www.w3.org/2000/svg">
<path d="M76.4029 41.5C76.4029 42.1561 76.4027 42.5 75.7239 45.8439C75.4028 47.4253 67.6347 67.6479 72.7238 78.8439C77.7238 89.8439 88.9584 84.4504 92.7238 75.8439C96.2238 67.8439 95.7238 51.3439 92.7238 45.3439C91.1113 42.119 83.7238 32.8439 78.7238 45.3439" stroke="black" stroke-width="8" stroke-linecap="round"/>
<path d="M116.403 41.5C116.403 42.1561 116.403 42.5 115.724 45.8439C115.403 47.4253 107.635 67.6479 112.724 78.8439C117.724 89.8439 128.958 84.4504 132.724 75.8439C136.224 67.8439 135.724 51.3439 132.724 45.3439C131.111 42.119 123.724 32.8439 118.724 45.3439" stroke="black" stroke-width="8" stroke-linecap="round"/>
<path d="M176.403 41.5C176.403 42.1561 176.403 42.5 175.724 45.8439C175.403 47.4253 167.635 67.6479 172.724 78.8439C177.724 89.8439 188.958 84.4504 192.724 75.8439C196.224 67.8439 195.724 51.3439 192.724 45.3439C191.111 42.119 183.724 32.8439 178.724 45.3439" stroke="black" stroke-width="8" stroke-linecap="round"/>
<path d="M217.403 41.5C217.403 42.1561 217.403 42.5 216.724 45.8439C216.403 47.4253 208.635 67.6479 213.724 78.8439C218.724 89.8439 229.958 84.4504 233.724 75.8439C237.224 67.8439 236.724 51.3439 233.724 45.3439C232.111 42.119 224.724 32.8439 219.724 45.3439" stroke="black" stroke-width="8" stroke-linecap="round"/>
<path d="M258.403 41.5C258.403 42.1561 258.403 42.5 257.724 45.8439C257.403 47.4253 249.635 67.6479 254.724 78.8439C259.724 89.8439 270.958 84.4504 274.724 75.8439C278.224 67.8439 277.724 51.3439 274.724 45.3439C273.111 42.119 265.724 32.8439 260.724 45.3439" stroke="black" stroke-width="8" stroke-linecap="round"/>
<path d="M316.5 87.1872C315 70.3539 312 35.5247 316.5 35.1872C356.5 32.187 353.5 66.2836 308.5 63.2835" stroke="black" stroke-width="8" stroke-linecap="round"/>
<path d="M308 78.7836C316.167 77.1169 319.5 75.2836 332.5 75.2836" stroke="black" stroke-width="8" stroke-linecap="round"/>
<path d="M40.7395 38C41.7394 47 38.9215 53.0754 35.7395 60.5C29.7394 74.5 31.2395 71.5 38.2395 71.5C43.0395 71.5 48.0729 70.6667 49.7395 70M49.2394 57C48.7394 71.5 51.9394 86.2 52.7394 87" stroke="black" stroke-width="8" stroke-linecap="round"/>
</svg>
