<svg width="363" height="119" viewBox="0 0 363 119" fill="none" xmlns="http://www.w3.org/2000/svg">
<path d="M26 47C26 52.5 29.5 79 30 77C29.8333 70.3333 23.5 61.5 35 53.5C36.7365 52.292 41.5 47 43 48.5C46 50 49.5 67 50.5 76.5" stroke="black" stroke-width="8" stroke-linecap="round"/>
<path d="M65 45C65 53.6667 65.5 76.5 73 94C73 95 61.4801 61.1266 70 54.5C74.5 51 82.15 43.5 86 54.5C93 74.5 76.5 78.5 73.5 70.5" stroke="black" stroke-width="8" stroke-linecap="round"/>
<path d="M102.061 58.9173C102.483 63.7652 105.894 68.584 108.061 71.4173C116.061 79.0173 125.96 77.4173 128.061 72.2803C129.46 65.9173 125.561 54.8459 119.561 51.4173C112.561 47.4173 101.061 47.4173 102.061 58.9173Z" stroke="black" stroke-width="8" stroke-linecap="round"/>
<path d="M143 77.1705C144.5 69.5039 147 55.1705 146 47.1705C145.702 44.7891 159.5 68.1706 159.5 66.1705L169 50.1705C170 48.1706 175.5 74.6706 175.5 77.1705" stroke="black" stroke-width="8" stroke-linecap="round"/>
<path d="M190.061 58.9173C190.483 63.7652 193.894 68.584 196.061 71.4173C204.061 79.0173 213.96 77.4173 216.061 72.2803C217.46 65.9173 213.561 54.8459 207.561 51.4173C200.561 47.4173 189.061 47.4173 190.061 58.9173Z" stroke="black" stroke-width="8" stroke-linecap="round"/>
</svg>
