<svg width="1280" height="119" viewBox="0 0 1280 119" fill="none" xmlns="http://www.w3.org/2000/svg">
<path d="M41.6569 47.9367C38.3236 44.2701 31.7891 39.1976 26.7892 47.3171C18.2747 61.144 25.3451 78.9633 35.7891 72.3171C46.7891 65.3171 41.6569 37.4367 43.1569 42.4367L46.2891 59.8171L49.1569 76.4367C50.7891 85.8171 46.7891 97.3171 36.7891 97.8171C24.2152 98.4458 24.7891 78.8171 37.7891 83.3171" stroke="black" stroke-width="8" stroke-linecap="round"/>
<path d="M62.2891 72.3174C66.7891 58.8174 77.7891 44.8174 77.7891 44.8174C82.2891 55.8174 83.2891 61.3174 88.2891 72.8174" stroke="black" stroke-width="8" stroke-linecap="round" stroke-linejoin="round"/>
<path d="M101.789 72.8172L122.789 54.9451C116.789 57.8172 105.554 58.3172 104.289 54.9451C102.789 50.9451 106.789 44.8172 115.789 42.3172C120.046 41.1347 121.789 41.4451 121.789 41.9451L122.289 72.8172" stroke="black" stroke-width="8" stroke-linecap="round"/>
<path d="M160 40.5C160 56.5 165 74 165 73C163.833 67.8333 160.886 53.5 179 46M172 55C177.5 58.5 186.7 68.9 187.5 70.5" stroke="black" stroke-width="8" stroke-linecap="round"/>
<path d="M202 40.5C202 49.1667 202.5 72 210 89.5C210 90.5 198.48 56.6266 207 50C211.5 46.5 219.15 39 223 50C230 70 213.5 74 210.5 66" stroke="black" stroke-width="8" stroke-linecap="round"/>
<path d="M239.5 46C237.5 55.5 245.3 70.1 248.5 70.5C252.5 71 255.5 60 255 49C254.791 44.3865 265.773 82 264 88.5C262.091 95.5 251.106 97.0161 247 92.5C242 87 246 83.5 248.5 84.5" stroke="black" stroke-width="8" stroke-linecap="round"/>
<path d="M277 41.5C277 47 280.5 73.5 281 71.5C280.833 64.8333 274.5 56 286 48C287.736 46.792 292.5 41.5 294 43C297 44.5 300.5 61.5 301.5 71" stroke="black" stroke-width="8" stroke-linecap="round"/>
<path d="M319.5 72.9739C317.5 67.9739 316 46.9739 316 40.9739" stroke="black" stroke-width="8" stroke-linecap="round"/>
<path d="M317.711 60.1055C322.878 58.1055 334.411 54.1055 337.211 54.1055C340.011 54.1055 337.711 39.1055 337.711 40.6054C337.711 47.6055 339.711 65.1055 342.211 71.6055" stroke="black" stroke-width="8" stroke-linecap="round"/>
<path d="M365.997 39.5C366.497 39.6667 365.778 42.1346 363.997 45.5C359.497 54 358.997 63 361.497 66.5C363.997 70 373.317 75.6472 375.997 66C378.677 56.3528 369.997 50.5 362.497 60" stroke="black" stroke-width="8" stroke-linecap="round"/>
<path d="M392 38.5L388 73" stroke="black" stroke-width="8" stroke-linecap="round"/>
<path d="M408 39.5C418.333 50.3333 439.2 72 440 72" stroke="black" stroke-width="8" stroke-linecap="round"/>
<path d="M411.5 70C417.833 62.6667 430 48 437 42.5" stroke="black" stroke-width="8" stroke-linecap="round"/>
<path d="M475 40.5C475 56.5 480 74 480 73C478.833 67.8333 475.886 53.5 494 46M487 55C492.5 58.5 501.7 68.9 502.5 70.5" stroke="black" stroke-width="8" stroke-linecap="round"/>
<path d="M515.061 54.4173C515.483 59.2652 518.894 64.084 521.061 66.9173C529.061 74.5173 538.96 72.9173 541.061 67.7803C542.46 61.4173 538.561 50.3459 532.561 46.9173C525.561 42.9173 514.061 42.9173 515.061 54.4173Z" stroke="black" stroke-width="8" stroke-linecap="round"/>
<path d="M556 72.0001C557.5 64.3335 560 50.0001 559 42.0001C558.702 39.6187 572.5 63.0002 572.5 61.0001L582 45.0001C583 43.0002 588.5 69.5002 588.5 72.0001" stroke="black" stroke-width="8" stroke-linecap="round"/>
<path d="M603 41.5C603 47 606.5 73.5 607 71.5C606.833 64.8333 600.5 56 612 48C613.736 46.792 618.5 41.5 620 43C623 44.5 626.5 61.5 627.5 71" stroke="black" stroke-width="8" stroke-linecap="round"/>
<path d="M661.59 48.1361C661.424 44.4694 659.49 37.436 655.09 38.636C649.59 40.136 642.09 50.136 643.091 61.1361C644.051 71.6991 649.59 74.6361 653.59 70.6361C657.59 66.6361 664.59 53.6361 665.59 49.1361C666.39 45.5361 667.09 41.9694 666.59 42.1361C665.757 47.3027 665.39 63.9361 666.59 69.1361" stroke="black" stroke-width="8" stroke-linecap="round"/>
<path d="M685.5 72.9739C683.5 67.9739 682 46.9739 682 40.9739" stroke="black" stroke-width="8" stroke-linecap="round"/>
<path d="M683.711 60.1055C688.878 58.1055 700.411 54.1055 703.211 54.1055C706.011 54.1055 703.711 39.1055 703.711 40.6054C703.711 47.6055 705.711 65.1055 708.211 71.6055" stroke="black" stroke-width="8" stroke-linecap="round"/>
<path d="M725.739 43.5C725.239 55.5 720.161 71.1537 725.239 72C728.239 72.5 733.739 64.5 746.239 51C746.739 49.5 745.739 69 748.739 72" stroke="black" stroke-width="8" stroke-linecap="round"/>
<path d="M766.739 43.5C766.239 55.5 761.161 71.1537 766.239 72C769.239 72.5 774.739 64.5 787.239 51C787.739 49.5 786.739 69 789.739 72" stroke="black" stroke-width="8" stroke-linecap="round"/>
<path d="M779 38C782.5 36.5 785.5 35.5 790 35" stroke="black" stroke-width="8" stroke-linecap="round"/>
</svg>
