<svg width="1280" height="119" viewBox="0 0 1280 119" fill="none" xmlns="http://www.w3.org/2000/svg">
<path d="M46.6569 51.9367C43.3236 48.2701 36.7891 43.1976 31.7892 51.3171C23.2747 65.144 30.3451 82.9633 40.7891 76.3171C51.7891 69.3171 46.6569 41.4367 48.1569 46.4367L51.2891 63.8171L54.1569 80.4367C55.7891 89.8171 51.7891 101.317 41.7891 101.817C29.2152 102.446 29.7891 82.8171 42.7891 87.3171" stroke="black" stroke-width="8" stroke-linecap="round"/>
<path d="M67.2891 76.3174C71.7891 62.8174 82.7891 48.8174 82.7891 48.8174C87.2891 59.8174 88.2891 65.3174 93.2891 76.8174" stroke="black" stroke-width="8" stroke-linecap="round" stroke-linejoin="round"/>
<path d="M106.789 76.8172L127.789 58.9451C121.789 61.8172 110.554 62.3172 109.289 58.9451C107.789 54.9451 111.789 48.8172 120.789 46.3172C125.046 45.1347 126.789 45.4451 126.789 45.9451L127.289 76.8172" stroke="black" stroke-width="8" stroke-linecap="round"/>
<path d="M168.5 77.4739C166.5 72.4739 165 51.4739 165 45.4739" stroke="black" stroke-width="8" stroke-linecap="round"/>
<path d="M166.711 64.6055C171.878 62.6055 183.411 58.6055 186.211 58.6055C189.011 58.6055 186.711 43.6055 186.711 45.1054C186.711 52.1055 188.711 69.6055 191.211 76.1055" stroke="black" stroke-width="8" stroke-linecap="round"/>
<path d="M205.061 58.9173C205.483 63.7652 208.894 68.584 211.061 71.4173C219.061 79.0173 228.96 77.4173 231.061 72.2803C232.46 65.9173 228.561 54.8459 222.561 51.4173C215.561 47.4173 204.061 47.4173 205.061 58.9173Z" stroke="black" stroke-width="8" stroke-linecap="round"/>
<path d="M245 49.4738C254.5 44.9738 264.367 34.0685 267 28.4737C271 19.9738 264 12.9739 255.5 26.9738C246.517 41.769 250 62.9738 254 72.9738C255.352 76.3534 263 82.4738 271 68.4738C281.539 50.0299 275 41.5027 266 47.9738C257.933 53.774 259 59.4738 259 63.9738" stroke="black" stroke-width="8" stroke-linecap="round"/>
<path d="M290.061 58.9173C290.483 63.7652 293.894 68.584 296.061 71.4173C304.061 79.0173 313.96 77.4173 316.061 72.2803C317.46 65.9173 313.561 54.8459 307.561 51.4173C300.561 47.4173 289.061 47.4173 290.061 58.9173Z" stroke="black" stroke-width="8" stroke-linecap="round"/>
<path d="M331 52.5C339.5 45 351 40 353 44.5C356.558 52.5065 338.921 62.5 336.5 74C335.237 80 346 75 354.5 69.5" stroke="black" stroke-width="8" stroke-linecap="round"/>
<path d="M369.061 58.9173C369.483 63.7652 372.894 68.584 375.061 71.4173C383.061 79.0173 392.96 77.4173 395.061 72.2803C396.46 65.9173 392.561 54.8459 386.561 51.4173C379.561 47.4173 368.061 47.4173 369.061 58.9173Z" stroke="black" stroke-width="8" stroke-linecap="round"/>
<path d="M430 49.4738C439.5 44.9738 449.367 34.0685 452 28.4737C456 19.9738 449 12.9739 440.5 26.9738C431.517 41.769 435 62.9738 439 72.9738C440.352 76.3534 448 82.4738 456 68.4738C466.539 50.0299 460 41.5027 451 47.9738C442.933 53.774 444 59.4738 444 63.9738" stroke="black" stroke-width="8" stroke-linecap="round"/>
<path d="M479.739 48C479.239 60 474.161 75.6537 479.239 76.5C482.239 77 487.739 69 500.239 55.5C500.739 54 499.739 73.5 502.739 76.5" stroke="black" stroke-width="8" stroke-linecap="round"/>
<path d="M516 58C519.5 48.5 534.4 41.3 536 48.5C538.111 58 525.029 67.3868 527 66.5C537 62 547.5 62 543 78C537.135 98.8531 521.076 101.626 519.5 101.5C505.5 100.38 522 80.5 531 76.5" stroke="black" stroke-width="8" stroke-linecap="round"/>
<path d="M558.323 51C556.323 60.5 564.123 75.1 567.323 75.5C571.323 76 574.323 65 573.823 54C573.614 49.3865 584.596 87 582.823 93.5C580.914 100.5 569.929 102.016 565.823 97.5C560.823 92 564.823 88.5 567.323 89.5" stroke="black" stroke-width="8" stroke-linecap="round"/>
<path d="M614.59 52.6361C614.424 48.9694 612.49 41.936 608.09 43.136C602.59 44.636 595.09 54.636 596.091 65.6361C597.051 76.1991 602.59 79.1361 606.59 75.1361C610.59 71.1361 617.59 58.1361 618.59 53.6361C619.39 50.0361 620.09 46.4694 619.59 46.6361C618.757 51.8027 618.39 68.4361 619.59 73.6361" stroke="black" stroke-width="8" stroke-linecap="round"/>
<path d="M635 76.5C639.5 63 650.5 49 650.5 49C655 60 656 65.5 661 77" stroke="black" stroke-width="8" stroke-linecap="round" stroke-linejoin="round"/>
<path d="M679.997 45C680.497 45.1667 679.778 47.6346 677.997 51C673.497 59.5 672.997 68.5 675.497 72C677.997 75.5 687.317 81.1472 689.997 71.5C692.677 61.8528 683.997 56 676.497 65.5" stroke="black" stroke-width="8" stroke-linecap="round"/>
<path d="M708.5 77.4739C706.5 72.4739 705 51.4739 705 45.4739" stroke="black" stroke-width="8" stroke-linecap="round"/>
<path d="M706.711 64.6055C711.878 62.6055 723.411 58.6055 726.211 58.6055C729.011 58.6055 726.711 43.6055 726.711 45.1054C726.711 52.1055 728.711 69.6055 731.211 76.1055" stroke="black" stroke-width="8" stroke-linecap="round"/>
<path d="M745.061 58.9173C745.483 63.7652 748.894 68.584 751.061 71.4173C759.061 79.0173 768.96 77.4173 771.061 72.2803C772.46 65.9173 768.561 54.8459 762.561 51.4173C755.561 47.4173 744.061 47.4173 745.061 58.9173Z" stroke="black" stroke-width="8" stroke-linecap="round"/>
<path d="M785 52.5C793.5 45 805 40 807 44.5C810.558 52.5065 792.921 62.5 790.5 74C789.237 80 800 75 808.5 69.5" stroke="black" stroke-width="8" stroke-linecap="round"/>
<path d="M823.061 58.9173C823.483 63.7652 826.894 68.584 829.061 71.4173C837.061 79.0173 846.96 77.4173 849.061 72.2803C850.46 65.9173 846.561 54.8459 840.561 51.4173C833.561 47.4173 822.061 47.4173 823.061 58.9173Z" stroke="black" stroke-width="8" stroke-linecap="round"/>
<path d="M907.058 55.843C908.058 50.343 901.558 49.343 897.587 50.343C890.314 52.1745 885.572 62.343 886.031 67.843C886.326 71.3881 889.846 79.5069 900.502 76.843C902.531 76.3358 908.058 73.843 910.058 68.843" stroke="black" stroke-width="8" stroke-linecap="round"/>
<path d="M923.558 56.843C931.724 55.1764 937.058 53.343 948.558 52.343" stroke="black" stroke-width="8" stroke-linecap="round"/>
<path d="M933.058 55.343C933.558 60.5097 934.058 71.843 932.558 77.343" stroke="black" stroke-width="8" stroke-linecap="round"/>
<path d="M963.739 48C963.239 60 958.161 75.6537 963.239 76.5C966.239 77 971.739 69 984.239 55.5C984.739 54 983.739 73.5 986.739 76.5" stroke="black" stroke-width="8" stroke-linecap="round"/>
<path d="M1001 77.5C1005.5 64 1016.5 50 1016.5 50C1021 61 1022 66.5 1027 78" stroke="black" stroke-width="8" stroke-linecap="round" stroke-linejoin="round"/>
<path d="M1041 76.8172L1062 58.9451C1056 61.8172 1044.76 62.3172 1043.5 58.9451C1042 54.9451 1046 48.8172 1055 46.3172C1059.26 45.1347 1061 45.4451 1061 45.9451L1061.5 76.8172" stroke="black" stroke-width="8" stroke-linecap="round"/>
</svg>
