<svg width="1280" height="119" viewBox="0 0 1280 119" fill="none" xmlns="http://www.w3.org/2000/svg">
<path d="M38.6569 51.5935C35.3236 47.9268 28.7891 42.8543 23.7892 50.9739C15.2747 64.8007 22.3451 82.6201 32.7891 75.9739C43.7891 68.9739 38.6569 41.0935 40.1569 46.0935L43.2891 63.4739L46.1569 80.0935C47.7891 89.4739 43.7891 100.974 33.7891 101.474C21.2152 102.103 21.7891 82.4739 34.7891 86.9739" stroke="black" stroke-width="8" stroke-linecap="round"/>
<path d="M59.2891 75.9739C63.7891 62.4739 74.7891 48.4739 74.7891 48.4739C79.2891 59.4739 80.2891 64.9739 85.2891 76.4739" stroke="black" stroke-width="8" stroke-linecap="round" stroke-linejoin="round"/>
<path d="M98.7891 76.474L119.789 58.6019C113.789 61.4739 102.554 61.9739 101.289 58.6019C99.7891 54.6019 103.789 48.474 112.789 45.9739C117.046 44.7914 118.789 45.1018 118.789 45.6018L119.289 76.474" stroke="black" stroke-width="8" stroke-linecap="round"/>
<path d="M177.289 54.9738C178.289 49.4738 171.789 48.4738 167.818 49.4738C160.545 51.3054 155.804 61.4739 156.262 66.9738C156.557 70.519 160.077 78.6378 170.733 75.9739C172.762 75.4666 178.289 72.9738 180.289 67.9738" stroke="black" stroke-width="8" stroke-linecap="round"/>
<path d="M193.789 55.9739C201.956 54.3072 207.289 52.4739 218.789 51.4739" stroke="black" stroke-width="8" stroke-linecap="round"/>
<path d="M203.289 54.4739C203.789 59.6405 204.289 70.9739 202.789 76.4739" stroke="black" stroke-width="8" stroke-linecap="round"/>
<path d="M250.789 51.974C250.623 48.3073 248.689 41.2739 244.289 42.4739C238.789 43.9739 231.289 53.9739 232.289 64.974C233.25 75.537 238.789 78.4739 242.789 74.4739C246.789 70.4739 253.789 57.474 254.789 52.974C255.589 49.374 256.289 45.8073 255.789 45.974C254.956 51.1406 254.589 67.774 255.789 72.974" stroke="black" stroke-width="8" stroke-linecap="round"/>
<path d="M272.289 44.4739C272.289 53.1405 272.789 75.9739 280.289 93.4739C280.289 94.4739 268.769 60.6005 277.289 53.9739C281.789 50.4739 289.439 42.9739 293.289 53.9739C300.289 73.9739 283.789 77.9739 280.789 69.9739" stroke="black" stroke-width="8" stroke-linecap="round"/>
<path d="M308.789 55.9739C316.956 54.3072 322.289 52.4739 333.789 51.4739" stroke="black" stroke-width="8" stroke-linecap="round"/>
<path d="M318.289 54.4739C318.789 59.6405 319.289 70.9739 317.789 76.4739" stroke="black" stroke-width="8" stroke-linecap="round"/>
<path d="M365.38 51.974C365.213 48.3073 363.28 41.2739 358.88 42.4739C353.38 43.9739 345.88 53.9739 346.88 64.974C347.84 75.537 353.38 78.4739 357.38 74.4739C361.38 70.4739 368.38 57.474 369.38 52.974C370.18 49.374 370.88 45.8073 370.38 45.974C369.546 51.1406 369.18 67.774 370.38 72.974" stroke="black" stroke-width="8" stroke-linecap="round"/>
<path d="M386.289 45.9739C386.289 51.4739 389.789 77.9739 390.289 75.9739C390.122 69.3072 383.789 60.4738 395.289 52.4739C397.026 51.2659 401.789 45.9739 403.289 47.4738C406.289 48.9738 409.789 65.9738 410.789 75.4738" stroke="black" stroke-width="8" stroke-linecap="round"/>
<path d="M425.289 58.4737C425.711 63.3216 429.122 68.1404 431.289 70.9737C439.289 78.5737 449.188 76.9737 451.289 71.8367C452.688 65.4737 448.789 54.4023 442.789 50.9737C435.789 46.9737 424.289 46.9737 425.289 58.4737Z" stroke="black" stroke-width="8" stroke-linecap="round"/>
<path d="M465.289 48.4738C474.789 43.9738 484.656 33.0685 487.289 27.4737C491.289 18.9738 484.289 11.9739 475.789 25.9738C466.806 40.769 470.289 61.9738 474.289 71.9738C475.641 75.3534 483.289 81.4738 491.289 67.4738C501.828 49.0299 495.289 40.5027 486.289 46.9738C478.222 52.774 479.289 58.4738 479.289 62.9738" stroke="black" stroke-width="8" stroke-linecap="round"/>
<path d="M535.789 47.4739C535.289 59.4739 530.211 75.1276 535.289 75.9739C538.289 76.4739 543.789 68.4739 556.289 54.9739C556.789 53.4739 555.789 72.9739 558.789 75.9739" stroke="black" stroke-width="8" stroke-linecap="round"/>
<path d="M598.789 77.4739C596.789 72.4739 595.289 51.4739 595.289 45.4739" stroke="black" stroke-width="8" stroke-linecap="round"/>
<path d="M596.789 64.4739C601.956 62.4739 613.489 58.4739 616.289 58.4739C619.089 58.4739 616.789 43.4739 616.789 44.9738C616.789 51.9739 618.789 69.4739 621.289 75.9739" stroke="black" stroke-width="8" stroke-linecap="round"/>
<path d="M641.789 62.9738C650.289 59.9738 658.789 49.0221 658.789 45.4738C658.789 38.9738 645.289 42.9738 638.789 52.9738C632.289 62.9738 636.789 72.9738 641.789 75.4738C644.618 76.888 656.789 76.4738 661.789 65.4738" stroke="black" stroke-width="8" stroke-linecap="round"/>
<path d="M689.289 52.4739C685.789 47.9739 675.289 53.4739 676.289 67.9739C677.02 78.5769 687.701 77.9739 694.201 72.9739C698.201 68.9739 700.989 64.7739 695.789 53.9739C689.289 40.4739 679.789 28.4739 681.289 28.4739C682.489 28.4739 693.956 27.9739 699.789 27.9739" stroke="black" stroke-width="8" stroke-linecap="round"/>
<path d="M713.85 58.4737C714.272 63.3216 717.684 68.1404 719.85 70.9737C727.85 78.5737 737.749 76.9737 739.85 71.8367C741.249 65.4737 737.35 54.4023 731.35 50.9737C724.35 46.9737 712.85 46.9737 713.85 58.4737Z" stroke="black" stroke-width="8" stroke-linecap="round"/>
<path d="M753.789 75.9739C758.289 62.4739 769.289 48.4739 769.289 48.4739C773.789 59.4739 774.789 64.9739 779.789 76.4739" stroke="black" stroke-width="8" stroke-linecap="round" stroke-linejoin="round"/>
<path d="M799.789 44.4739C800.289 44.6405 799.571 47.1085 797.789 50.4739C793.289 58.9739 792.789 67.9739 795.289 71.4739C797.789 74.9739 807.109 80.6211 809.789 70.9739C812.469 61.3267 803.789 55.4739 796.289 64.9739" stroke="black" stroke-width="8" stroke-linecap="round"/>
<path d="M833.289 44.4739C835.289 54.4739 825.789 76.4739 826.789 76.4739C831.432 76.2007 838.014 75.9835 844.289 75.8223M867.289 44.9739C864.789 56.9739 865.289 75.4739 862.789 75.4739C861.733 75.4739 853.329 75.59 844.289 75.8223M844.289 75.8223C844.789 70.5395 845.789 60.9739 847.289 58.4739" stroke="black" stroke-width="8" stroke-linecap="round"/>
<path d="M886.528 47.4739C886.028 59.4739 880.95 75.1276 886.028 75.9739C889.028 76.4739 894.528 68.4739 907.028 54.9739C907.528 53.4739 906.528 72.9739 909.528 75.9739" stroke="black" stroke-width="8" stroke-linecap="round"/>
<path d="M922.789 43.9739C933.122 54.8072 953.989 76.4739 954.789 76.4739" stroke="black" stroke-width="8" stroke-linecap="round"/>
<path d="M926.289 74.4739C932.622 67.1405 944.789 52.4739 951.789 46.9739" stroke="black" stroke-width="8" stroke-linecap="round"/>
<path d="M1003.86 52.4739C1000.36 47.9739 989.856 53.4739 990.856 67.9739C991.587 78.5769 1002.27 77.9739 1008.77 72.9739C1012.77 68.9739 1015.56 64.7739 1010.36 53.9739C1003.86 40.4739 994.356 28.4739 995.856 28.4739C997.056 28.4739 1008.52 27.9739 1014.36 27.9739" stroke="black" stroke-width="8" stroke-linecap="round"/>
<path d="M1028.79 44.4739C1028.79 53.1405 1029.29 75.9739 1036.79 93.4739C1036.79 94.4739 1025.27 60.6005 1033.79 53.9739C1038.29 50.4739 1045.94 42.9739 1049.79 53.9739C1056.79 73.9739 1040.29 77.9739 1037.29 69.9739" stroke="black" stroke-width="8" stroke-linecap="round"/>
<path d="M1073.02 62.9738C1081.52 59.9738 1090.02 49.0221 1090.02 45.4738C1090.02 38.9738 1076.52 42.9738 1070.02 52.9738C1063.52 62.9738 1068.02 72.9738 1073.02 75.4738C1075.85 76.888 1088.02 76.4738 1093.02 65.4738" stroke="black" stroke-width="8" stroke-linecap="round"/>
<path d="M1111.29 77.4739C1109.29 72.4739 1107.79 51.4739 1107.79 45.4739" stroke="black" stroke-width="8" stroke-linecap="round"/>
<path d="M1109.29 64.4739C1114.46 62.4739 1125.99 58.4739 1128.79 58.4739C1131.59 58.4739 1129.29 43.4739 1129.29 44.9738C1129.29 51.9739 1131.29 69.4739 1133.79 75.9739" stroke="black" stroke-width="8" stroke-linecap="round"/>
<path d="M1166.45 51.5935C1163.11 47.9268 1156.58 42.8543 1151.58 50.9739C1143.06 64.8007 1150.13 82.6201 1160.58 75.9739C1171.58 68.9739 1166.45 41.0935 1167.95 46.0935L1171.08 63.4739L1173.95 80.0935C1175.58 89.4739 1171.58 100.974 1161.58 101.474C1149 102.103 1149.58 82.4739 1162.58 86.9739" stroke="black" stroke-width="8" stroke-linecap="round"/>
<path d="M1187.85 58.4737C1188.27 63.3216 1191.68 68.1404 1193.85 70.9737C1201.85 78.5737 1211.75 76.9737 1213.85 71.8367C1215.25 65.4737 1211.35 54.4023 1205.35 50.9737C1198.35 46.9737 1186.85 46.9737 1187.85 58.4737Z" stroke="black" stroke-width="8" stroke-linecap="round"/>
<path d="M1227.79 48.4738C1237.29 43.9738 1247.16 33.0685 1249.79 27.4737C1253.79 18.9738 1246.79 11.9739 1238.29 25.9738C1229.31 40.769 1232.79 61.9738 1236.79 71.9738C1238.14 75.3534 1245.79 81.4738 1253.79 67.4738C1264.33 49.0299 1257.79 40.5027 1248.79 46.9738C1240.72 52.774 1241.79 58.4738 1241.79 62.9738" stroke="black" stroke-width="8" stroke-linecap="round"/>
</svg>
