<svg width="363" height="119" viewBox="0 0 363 119" fill="none" xmlns="http://www.w3.org/2000/svg">
<path d="M47.2501 49.1255C42.7501 44.6256 32.2501 44.7257 30.2501 51.1257C28.2501 57.5257 38.7501 58.9591 43.7501 60.1257C49.7501 62.1257 56.9501 69.0257 53.7501 72.6257C49.7501 77.1257 38.2501 78.1257 32.7501 69.1257" stroke="black" stroke-width="8" stroke-linecap="round"/>
<path d="M71.2361 45C70.2361 57 72.7361 79.5 72.736 76.5C70.7361 59 70.2361 63 81.7361 52C86.9634 47 83.7361 64.5 86.236 71.5C86.236 72.5 89.2361 58.5 95.2361 54.5C98.4854 52.3338 95.2361 71.5 102.236 76" stroke="black" stroke-width="8" stroke-linecap="round"/>
<path d="M117.236 44C116.236 56 118.736 78.5 118.736 75.5C116.736 58 116.236 62 127.736 51C132.963 46 129.736 63.5 132.236 70.5C132.236 71.5 135.236 57.5 141.236 53.5C144.485 51.3338 141.236 70.5 148.236 75" stroke="black" stroke-width="8" stroke-linecap="round"/>
</svg>
