<svg xmlns="http://www.w3.org/2000/svg" xmlns:xlink="http://www.w3.org/1999/xlink" width="50" height="50" viewBox="0 0 50 50"><defs><linearGradient id="a" y1="1" x2="1" gradientUnits="objectBoundingBox"><stop offset="0" stop-color="#0f7dd1"/><stop offset="1" stop-color="#3ec0ff"/></linearGradient></defs><g transform="translate(-654.32 -193.02)"><rect width="50" height="50" rx="10" transform="translate(654.32 193.02)" fill="url(#a)"/><path d="M2411.151,1491.245c-.06.838-.539,3.773-1.018,6.947l-1.5,9.4s-.12,1.377-1.138,1.617-2.7-.839-2.995-1.078c-.24-.18-4.492-2.875-6.049-4.192a1.135,1.135,0,0,1,.06-1.917c2.156-1.976,4.731-4.432,6.288-5.989.719-.719,1.438-2.4-1.557-.359l-8.445,5.69a3.519,3.519,0,0,1-2.755.06c-1.8-.539-3.893-1.258-3.893-1.258s-1.437-.9,1.018-1.857h0l13.955-5.749c1.377-.6,6.049-2.515,6.049-2.515S2411.33,1489.208,2411.151,1491.245Z" transform="translate(-1721.816 -1281.14)" fill="#fff"/></g></svg>