<svg width="81" height="29" viewBox="0 0 81 29" fill="none" xmlns="http://www.w3.org/2000/svg">
<path d="M6.51737 26.4104C4.94693 20.6974 2.06599 7.92319 3.10575 2.52979C7.70859 2.69225 16.7193 5.5027 15.9396 15.4448C15.1598 25.3869 7.05878 27.1685 3.10575 26.8165" stroke="black" stroke-width="4" stroke-linecap="round" stroke-linejoin="round"/>
<path d="M32.9048 2.97656C34.4752 8.68952 37.3561 21.4638 36.3164 26.8572C31.7135 26.6947 22.7028 23.8843 23.4826 13.9422C24.2623 4.00004 32.3633 2.21848 36.3164 2.57046" stroke="black" stroke-width="4" stroke-linecap="round" stroke-linejoin="round"/>
<path d="M75.0612 2.97656C76.6317 8.68952 79.5126 21.4638 78.4729 26.8572C73.87 26.6947 64.8593 23.8843 65.6391 13.9422C66.4188 4.00004 74.5198 2.21848 78.4729 2.57046" stroke="black" stroke-width="4" stroke-linecap="round" stroke-linejoin="round"/>
<path d="M47.618 2.97656C46.0475 8.68952 43.1666 21.4638 44.2063 26.8572C48.8092 26.6947 57.8199 23.8843 57.0401 13.9422C56.2604 4.00004 48.1594 2.21848 44.2063 2.57046" stroke="black" stroke-width="4" stroke-linecap="round" stroke-linejoin="round"/>
</svg>
