<svg width="50" height="50" viewBox="0 0 50 50" fill="none" xmlns="http://www.w3.org/2000/svg">
<g clip-path="url(#clip0_3_14)">
<path d="M40 0H10C4.47715 0 0 4.47715 0 10V40C0 45.5228 4.47715 50 10 50H40C45.5228 50 50 45.5228 50 40V10C50 4.47715 45.5228 0 40 0Z" fill="#F2F2F2"/>
<path d="M35.344 18.671V22.694C35.144 22.7134 34.946 22.7233 34.75 22.7239C33.6784 22.7242 32.6237 22.4576 31.6809 21.9482C30.7382 21.4387 29.937 20.7025 29.35 19.806V29.743C29.35 31.1957 28.9193 32.6158 28.1122 33.8237C27.3051 35.0315 26.1579 35.9729 24.8158 36.5289C23.4737 37.0848 21.9968 37.2302 20.572 36.9468C19.1473 36.6634 17.8385 35.9639 16.8113 34.9367C15.7841 33.9095 15.0846 32.6008 14.8012 31.176C14.5178 29.7512 14.6632 28.2743 15.2191 26.9322C15.7751 25.5901 16.7165 24.4429 17.9243 23.6358C19.1322 22.8287 20.5523 22.398 22.005 22.398C22.158 22.398 22.305 22.412 22.459 22.421V26.04C21.9518 25.9765 21.4369 26.0176 20.9462 26.1608C20.4555 26.3041 19.9994 26.5465 19.606 26.873C19.2126 27.1994 18.8902 27.603 18.659 28.0589C18.4277 28.5148 18.2923 29.0132 18.2613 29.5235C18.2302 30.0338 18.304 30.545 18.4782 31.0256C18.6524 31.5062 18.9233 31.946 19.2742 32.3178C19.625 32.6896 20.0484 32.9855 20.5181 33.1873C20.9878 33.3891 21.4938 33.4925 22.005 33.491C23.01 33.5074 23.9813 33.1291 24.7105 32.4373C25.4396 31.7455 25.8685 30.7954 25.9051 29.791L25.9411 12.914H29.4041C29.5624 14.4176 30.2439 15.8178 31.3296 16.8701C32.4153 17.9223 33.8362 18.5597 35.344 18.671Z" fill="#1E1E1E"/>
</g>
<defs>
<clipPath id="clip0_3_14">
<rect width="50" height="50" rx="13" fill="white"/>
</clipPath>
</defs>
</svg>
