<svg width="156" height="158" viewBox="0 0 156 158" fill="none" xmlns="http://www.w3.org/2000/svg">
<path fill-rule="evenodd" clip-rule="evenodd" d="M2.33578e-05 46.6611V110.653C2.33578e-05 124.538 3.08156 137.636 9.30062 145.347C15.19 152.65 28.0822 157.314 41.3277 157.314H114.651C141.762 157.314 155.979 143.029 155.979 115.986V42.6627C155.979 12.2454 140.28 0.00134277 110.652 0.00134277H45.3261C13.151 0.00134277 -0.0012207 14.5904 -0.0012207 46.6623L2.33578e-05 46.6611Z" fill="#FEFEFE"/>
<path fill-rule="evenodd" clip-rule="evenodd" d="M63.7918 133.408H86.3901L86.4013 78.6446L101.514 78.6334L103.421 60.0161L86.5046 59.8917C86.2259 56.835 86.2495 51.8948 86.4511 48.7959C86.7285 44.5586 88.2425 43.0172 92.5619 43.0769L103.375 42.9687L103.488 24.0266H102.993C95.5178 24.0266 85.6462 23.3411 78.458 25.2172C73.0476 26.6292 68.9994 29.488 66.5225 34.6832C62.4892 43.1416 64.5432 50.4803 63.6872 59.8966L52.523 59.9601L52.4919 78.6297L63.7806 78.6285L63.7918 133.407V133.408Z" fill="black"/>
</svg>
