<svg width="854" height="252" viewBox="0 0 854 252" fill="none" xmlns="http://www.w3.org/2000/svg">
<g clip-path="url(#clip0_103_2)">
<path d="M95.266 245.588L98.7815 233.21C101.26 235.274 103.965 236.856 106.93 237.972C109.894 239.074 112.875 239.631 115.872 239.631C117.992 239.631 119.613 239.307 120.714 238.655C121.833 238.003 122.382 237.057 122.382 235.816C122.382 233.784 120.147 232.264 115.676 231.256C114.218 230.931 113.036 230.636 112.163 230.404C107.093 229.069 103.431 227.318 101.131 225.146C98.8468 222.989 97.6967 220.167 97.6967 216.724C97.6967 212.257 99.4454 208.705 102.946 206.037C106.444 203.371 111.173 202.034 117.151 202.034C120.228 202.034 123.356 202.375 126.53 203.058C129.704 203.741 132.96 204.795 136.282 206.222L132.767 217.389C130.53 215.931 128.247 214.815 125.93 214.054C123.615 213.295 121.315 212.922 118.997 212.922C117.07 212.922 115.612 213.217 114.624 213.792C113.636 214.366 113.149 215.203 113.149 216.288C113.149 217.916 115.368 219.298 119.807 220.43C120.828 220.693 121.588 220.895 122.091 221.019C127.938 222.616 132.004 224.509 134.305 226.665C136.59 228.836 137.74 231.767 137.74 235.458C137.74 240.142 135.86 243.942 132.085 246.828C128.329 249.728 123.338 251.169 117.151 251.169C112.939 251.169 109.035 250.704 105.423 249.789C101.811 248.858 98.4269 247.464 95.2667 245.587V245.588H95.266ZM741.017 113.589C741.598 108.24 742.471 103.064 743.634 98.0643C744.797 93.0634 746.512 88.325 748.779 83.8465C751.049 79.3709 753.898 75.242 757.328 71.4626C760.758 67.6831 764.916 64.3968 769.8 61.6072C773.638 59.3973 777.591 57.7117 781.661 56.5486C785.731 55.3855 789.976 54.8028 794.394 54.8028C801.605 54.8028 808.031 55.7042 813.67 57.5076C819.311 59.3107 824.253 61.6369 828.498 64.4849C832.741 67.3336 836.347 70.5333 839.314 74.0792C842.278 77.6266 844.72 81.1142 846.639 84.5455C848.558 87.9754 849.982 91.1458 850.912 94.0528C851.843 96.9588 852.367 99.2844 852.481 101.029C852.715 104.17 852.976 107.311 853.267 110.448C853.559 113.589 853.412 116.787 852.831 120.044C851.67 125.743 849.721 131.324 846.988 136.789C844.254 142.255 840.765 147.198 836.522 151.616C832.275 156.036 827.246 159.786 821.433 162.866C815.617 165.95 809.106 167.897 801.896 168.712C797.592 169.293 793.318 169.235 789.074 168.537C784.831 167.839 780.672 166.734 776.602 165.223C769.625 162.548 763.751 158.797 758.983 153.971C754.216 149.146 750.32 143.302 747.297 136.441C745.668 132.718 744.158 129.056 742.761 125.45C741.366 121.845 740.785 117.891 741.017 113.589L741.017 113.589ZM769.972 114.286C769.972 115.683 770.003 116.758 770.061 117.515C770.118 118.27 770.206 118.881 770.322 119.345C770.438 119.81 770.555 120.247 770.67 120.654C770.787 121.061 770.903 121.613 771.019 122.311C771.369 124.055 772.329 125.945 773.899 127.98C775.468 130.015 777.386 131.934 779.654 133.736C781.925 135.538 784.423 137.051 787.156 138.271C789.889 139.493 792.533 140.104 795.093 140.104C800.324 140.104 804.715 139.057 808.262 136.963C811.809 134.871 814.658 132.283 816.809 129.2C818.962 126.119 820.559 122.776 821.608 119.171C822.653 115.566 823.235 112.251 823.351 109.229C823.468 107.253 822.974 104.956 821.868 102.338C820.764 99.7227 819.077 97.2224 816.809 94.8378C814.542 92.4543 811.751 90.4195 808.437 88.7325C805.123 87.0455 801.373 86.2039 797.185 86.2039C792.533 86.2039 788.522 87.1629 785.149 89.0806C781.778 91.0011 778.957 93.3549 776.688 96.146C774.421 98.9374 772.736 101.961 771.63 105.217C770.526 108.473 769.972 111.496 769.972 114.287V114.286L769.972 114.286ZM549.575 162.6C549.412 164.92 548.944 166.373 548.169 166.96C547.393 167.547 545.675 167.804 543.016 167.734C539.567 167.49 536.152 167.277 532.764 167.096C529.378 166.916 525.961 166.704 522.514 166.461C520.383 166.427 519.069 166.158 518.571 165.658C518.073 165.157 517.824 163.973 517.822 162.107C518.205 154.79 518.65 147.535 519.158 140.343C519.666 133.15 520.113 125.896 520.495 118.578C520.619 115.335 520.781 111.819 520.985 108.027L520.154 107.914C515.658 107.301 511.113 107.158 506.582 106.955C504.379 106.799 502.17 106.702 499.957 106.661C497.746 106.623 495.476 106.579 493.147 106.53C490.927 106.607 489.889 105.602 490.037 103.513C490.391 100.157 490.717 96.7699 491.018 93.3516C491.318 89.9333 491.705 86.4929 492.182 83.0293C492.414 81.4126 493.141 80.1838 494.367 79.3361C495.593 78.4902 497.195 78.078 499.176 78.1012C506.939 78.3887 514.682 78.7502 522.399 79.1788L522.429 78.8793C522.424 78.6135 522.433 78.3488 522.455 78.0802C522.859 73.3291 523.209 68.3702 523.507 63.2032C523.804 58.0373 524.153 53.1053 524.55 48.4125C524.949 43.7198 525.283 39.4589 525.553 35.6308C525.823 31.8025 526.023 28.9599 526.154 27.1043C526.318 24.7856 526.787 23.3321 527.562 22.7462C528.337 22.1574 530.055 21.9003 532.714 21.9725C535.993 22.2031 539.243 22.4072 542.467 22.5816C543.126 22.4833 543.779 22.5138 544.418 22.6874C547.329 22.8502 550.262 23.0366 553.217 23.2454C555.347 23.2777 556.661 23.5464 557.159 24.0471C557.657 24.5478 557.907 25.7312 557.908 27.5977C557.525 34.9158 557.08 42.1694 556.572 49.3614C556.249 53.9395 555.949 58.5471 555.676 63.1771C555.792 68.686 555.713 74.7681 555.404 81.4358C564.37 82.1497 573.356 82.9364 582.362 83.7997C583.289 83.8657 584.087 84.1242 584.755 84.5796C585.422 85.0361 585.715 85.8439 585.633 87.0038C585.388 90.4841 585.111 93.9901 584.804 97.523C584.495 101.057 584.103 104.557 583.625 108.02C583.418 109.287 583.205 110.264 582.982 110.947C582.759 111.631 582.433 112.133 582.001 112.452C581.571 112.771 580.975 112.961 580.211 113.024C579.449 113.087 578.43 113.074 577.155 112.982L559.233 111.717C557.073 111.565 555.125 111.434 553.301 111.31L553.274 111.62C552.872 116.372 552.523 121.332 552.224 126.498C551.926 131.665 551.578 136.596 551.181 141.288C550.782 145.981 550.449 150.242 550.179 154.07C549.907 157.898 549.708 160.741 549.575 162.597V162.599L549.575 162.6ZM630.993 113.463C630.76 113.463 630.555 113.201 630.381 112.68C630.207 112.156 630.062 111.517 629.945 110.759C629.829 110.004 629.742 109.248 629.683 108.494C629.624 107.739 629.538 107.127 629.422 106.661C628.141 99.3355 626.923 91.7473 625.759 83.8976C624.596 76.048 623.433 68.4594 622.271 61.134C622.154 60.5525 622.038 60.0296 621.92 59.563C621.806 59.0989 621.69 58.5746 621.573 57.9934C621.225 56.5983 620.292 55.901 618.781 55.901C614.711 56.1331 610.64 56.1886 606.571 56.074C602.502 55.958 598.43 56.0153 594.361 56.2491C592.266 56.4808 591.018 56.9184 590.61 57.5573C590.203 58.1961 590.173 59.563 590.523 61.6554C591.804 68.285 593.052 75.408 594.273 83.0256C595.495 90.6418 596.744 97.7645 598.023 104.394C599.418 112.186 600.785 119.921 602.123 127.594C603.46 135.269 604.769 142.944 606.048 150.619C606.397 152.597 606.83 154.603 607.356 156.636C607.88 158.673 608.315 160.621 608.665 162.48C609.13 164.342 609.537 165.476 609.885 165.882C610.234 166.29 611.34 166.552 613.2 166.668C617.271 166.784 621.311 166.755 625.323 166.58C629.334 166.407 633.377 166.435 637.447 166.668C639.307 166.784 640.733 166.435 641.72 165.621C642.71 164.806 643.495 163.586 644.075 161.958C645.589 158.352 647.07 154.777 648.522 151.231C649.977 147.682 651.461 144.166 652.97 140.677C654.484 137.188 655.995 133.726 657.506 130.299C659.019 126.867 660.531 123.406 662.041 119.92C662.275 119.687 662.479 119.367 662.652 118.959C662.827 118.552 663.147 118.348 663.611 118.348C663.962 118.348 664.251 118.581 664.483 119.045C664.717 119.51 664.95 119.92 665.182 120.268C669.135 127.126 672.712 134.164 675.911 141.374C679.108 148.584 682.218 155.851 685.241 163.179C685.474 164.342 685.824 165.098 686.289 165.449C686.755 165.913 687.22 166.321 687.686 166.669C688.148 167.018 688.674 167.192 689.254 167.192C692.627 167.425 695.941 167.453 699.196 167.28C702.451 167.105 705.765 167.135 709.138 167.367C710.767 167.367 711.815 166.553 712.277 164.925C713.674 158.761 715.098 152.626 716.552 146.521C718.007 140.417 719.43 134.282 720.826 128.12C722.107 122.071 723.413 116.082 724.751 110.151C726.089 104.221 727.454 98.2902 728.851 92.3596C729.316 90.2673 729.781 87.9399 730.244 85.3791C730.709 82.8212 731.177 80.178 731.642 77.4439C732.106 74.7112 732.601 72.0666 733.125 69.5076C733.646 66.9496 734.142 64.6227 734.606 62.5303C734.722 62.0647 734.838 61.6565 734.954 61.3084C735.071 60.9603 735.187 60.5535 735.303 60.0869C735.538 58.4583 735.274 57.3542 734.521 56.773C733.765 56.1915 732.572 55.9594 730.944 56.0754C729.897 56.1915 728.211 56.2796 725.885 56.3369C723.559 56.3956 721.09 56.4235 718.47 56.4235C715.855 56.4235 713.413 56.3956 711.145 56.3369C708.878 56.2796 707.22 56.1915 706.173 56.0754C705.244 56.0754 704.634 56.2502 704.342 56.5997C704.051 56.9478 703.79 57.4721 703.559 58.1693C703.094 59.799 702.658 61.5992 702.251 63.5759C701.844 65.5537 701.436 67.587 701.029 69.6809C700.623 71.7747 700.216 73.8396 699.809 75.8743C699.402 77.9112 699.024 79.6835 698.674 81.1939C697.513 85.4976 696.407 89.7709 695.36 94.0155C694.313 98.259 693.209 102.476 692.048 106.662C691.93 107.01 691.785 107.389 691.61 107.796C691.435 108.203 691.058 108.407 690.475 108.407C690.127 108.407 689.72 107.941 689.255 107.01C686.813 102.824 684.371 98.8127 681.93 94.9745C679.488 91.1363 677.115 87.0911 674.952 82.765C672.929 78.7169 667.154 70.0373 662.762 69.4724C660.063 69.1258 658.181 67.8557 654.765 69.2433C651.619 70.5235 648.072 77.6611 647.04 79.9739C644.731 85.1615 642.565 90.2952 640.239 95.2355C637.912 100.18 635.587 105.208 633.262 110.326C633.03 110.907 632.71 111.575 632.302 112.331C631.895 113.088 631.459 113.465 630.995 113.465L630.993 113.462L630.993 113.463ZM25.9484 94.8266L8.00555 95.7602C6.72821 95.828 5.70903 95.8222 4.94836 95.7457C4.18623 95.6677 3.59452 95.4665 3.17031 95.1391C2.74429 94.8132 2.42886 94.3048 2.21712 93.6178C2.00574 92.9292 1.81031 91.9499 1.62685 90.6784C1.21461 87.2057 0.885758 83.7007 0.643561 80.1617C0.401002 76.6219 0.188173 73.1112 0.00761311 69.6279C-0.0525735 68.4666 0.255974 67.6632 0.931442 67.2201C1.60691 66.7781 2.40855 66.533 3.33782 66.4845C11.7339 65.8355 20.1136 65.2525 28.4744 64.7343C28.1485 59.7729 27.9048 55.0214 27.7406 50.4857C27.5702 45.7784 27.3838 41.5081 27.1855 37.6761C26.9861 33.8437 26.8378 30.9979 26.7406 29.139C26.6206 26.8175 26.9491 25.3157 27.7275 24.6355C28.5074 23.9528 30.3707 23.4771 33.3173 23.2085C36.9676 23.0192 40.5843 22.8035 44.1654 22.5653C44.8818 22.3832 45.6073 22.3307 46.3357 22.4202C49.5691 22.2085 52.833 22.0178 56.1237 21.8474C58.4807 21.6081 59.9662 21.7052 60.58 22.1385C61.1953 22.5732 61.6253 23.7139 61.8693 25.5655C62.3998 32.8735 62.8504 40.1285 63.2261 47.3277C63.4639 51.9135 63.7326 56.5196 64.0339 61.1478L64.3025 62.9393C71.7207 62.6691 79.1592 62.465 86.6169 62.3254C88.5962 62.337 90.1908 62.7804 91.4007 63.6481C92.6105 64.5157 93.3154 65.7597 93.5181 67.3807C93.9307 70.852 94.2552 74.2997 94.4916 77.722C94.728 81.1446 94.9923 84.5383 95.2845 87.9008C95.3929 89.9902 94.3375 90.9768 92.1189 90.8593C89.7901 90.864 87.5201 90.8669 85.3069 90.8655C83.0945 90.864 80.8847 90.9213 78.6777 91.0359C74.7351 91.1389 70.7853 91.1987 66.859 91.5587L67.1233 96.6246C67.3213 100.455 67.5095 104.755 67.6828 109.519C67.8557 114.285 68.1142 119.25 68.4579 124.414C68.8017 129.578 69.0584 134.515 69.2291 139.221C69.3995 143.928 69.5859 148.198 69.7853 152.03C69.9836 155.863 70.1319 158.709 70.2291 160.567C70.3491 162.889 70.0206 164.391 69.2422 165.071C68.4623 165.754 66.5991 166.229 63.6524 166.498C59.8128 166.698 56.0124 166.925 52.2507 167.179C48.4876 167.433 44.6857 167.661 40.8475 167.86C38.4894 168.1 37.0032 168.001 36.3897 167.568C35.7748 167.135 35.3444 165.993 35.1004 164.141C34.5721 156.833 34.1197 149.578 33.744 142.379C33.3695 135.178 32.9185 127.923 32.3902 120.614C32.032 116.556 31.6868 112.063 31.3551 107.13C31.0498 102.582 30.6705 98.4077 30.2141 94.6105L25.9499 94.8266H25.9484ZM337.212 109.627C337.212 108.231 337.183 107.154 337.124 106.398C337.067 105.643 336.979 105.033 336.863 104.567C336.747 104.103 336.63 103.666 336.515 103.259C336.398 102.852 336.282 102.3 336.166 101.603C335.816 99.858 334.856 97.9671 333.286 95.9317C331.717 93.898 329.799 91.9789 327.531 90.1773C325.26 88.3743 322.763 86.8616 320.029 85.6416C317.296 84.4201 314.651 83.8092 312.094 83.8092C306.861 83.8092 302.47 84.8563 298.923 86.9483C295.377 89.0421 292.527 91.6291 290.376 94.7113C288.225 97.7931 286.626 101.136 285.579 104.741C284.532 108.346 283.95 111.662 283.835 114.683C283.717 116.66 284.212 118.956 285.317 121.574C286.422 124.19 288.109 126.69 290.376 129.075C292.646 131.458 295.434 133.493 298.748 135.18C302.063 136.865 305.813 137.708 310 137.708C314.652 137.708 318.663 136.749 322.036 134.831C325.407 132.912 328.228 130.557 330.497 127.766C332.767 124.975 334.451 121.952 335.555 118.695C336.659 115.438 337.213 112.417 337.213 109.625V109.627L337.212 109.627ZM366.168 110.325C365.586 115.673 364.716 120.849 363.551 125.849C362.388 130.85 360.673 135.587 358.406 140.066C356.136 144.543 353.289 148.672 349.857 152.45C346.427 156.23 342.269 159.515 337.385 162.306C333.547 164.516 329.594 166.202 325.524 167.365C321.454 168.528 317.209 169.111 312.791 169.111C305.58 169.111 299.154 168.208 293.514 166.406C287.876 164.603 282.932 162.277 278.689 159.429C274.443 156.578 270.838 153.381 267.871 149.834C264.908 146.287 262.465 142.798 260.546 139.368C258.627 135.937 257.203 132.768 256.273 129.861C255.342 126.954 254.818 124.628 254.702 122.883C254.47 119.744 254.209 116.603 253.919 113.464C253.629 110.325 253.774 107.127 254.356 103.87C255.519 98.1713 257.465 92.5902 260.198 87.1249C262.932 81.658 266.421 76.7158 270.664 72.2976C274.911 67.8782 279.94 64.1278 285.753 61.0459C291.569 57.9637 298.081 56.0153 305.292 55.202C309.595 54.6204 313.867 54.6792 318.112 55.3768C322.357 56.074 326.514 57.1784 330.584 58.6907C337.562 61.3661 343.434 65.1161 348.2 69.9427C352.969 74.7677 356.865 80.6117 359.889 87.4733C361.516 91.1954 363.028 94.8574 364.423 98.4639C365.82 102.069 366.4 106.023 366.168 110.325V110.325ZM208.044 113.464C208.276 113.464 208.48 113.202 208.655 112.681C208.828 112.157 208.975 111.518 209.091 110.76C209.207 110.005 209.294 109.249 209.352 108.495C209.411 107.74 209.498 107.128 209.614 106.662C210.894 99.3366 212.114 91.7484 213.277 83.8987C214.44 76.0487 215.603 68.4605 216.764 61.1351C216.883 60.5535 216.997 60.0307 217.115 59.5641C217.231 59.1 217.346 58.5757 217.463 57.9945C217.811 56.5994 218.743 55.9021 220.254 55.9021C224.324 56.1342 228.396 56.1896 232.465 56.0751C236.535 55.9591 240.606 56.0163 244.676 56.2498C246.77 56.4819 248.019 56.9195 248.427 57.5584C248.834 58.1972 248.862 59.5641 248.514 61.6565C247.232 68.2861 245.984 75.4091 244.764 83.0267C243.542 90.6429 242.291 97.7656 241.012 104.396C239.617 112.187 238.25 119.922 236.913 127.595C235.577 135.27 234.268 142.945 232.989 150.62C232.64 152.598 232.204 154.604 231.681 156.638C231.157 158.674 230.721 160.622 230.372 162.481C229.906 164.343 229.499 165.477 229.151 165.883C228.803 166.29 227.698 166.553 225.837 166.669C221.767 166.785 217.724 166.756 213.713 166.581C209.703 166.408 205.661 166.436 201.59 166.669C199.73 166.785 198.304 166.436 197.316 165.622C196.328 164.807 195.541 163.587 194.961 161.959C193.449 158.354 191.967 154.778 190.514 151.232C189.06 147.683 187.577 144.167 186.066 140.678C184.552 137.189 183.041 133.727 181.531 130.3C180.018 126.868 178.505 123.407 176.995 119.921C176.763 119.688 176.559 119.368 176.384 118.96C176.211 118.553 175.89 118.349 175.425 118.349C175.074 118.349 174.786 118.582 174.552 119.046C174.319 119.511 174.087 119.921 173.854 120.269C169.901 127.128 166.324 134.165 163.125 141.375C159.928 148.586 156.818 155.853 153.795 163.18C153.562 164.343 153.214 165.099 152.748 165.45C152.283 165.914 151.817 166.322 151.35 166.67C150.888 167.019 150.363 167.193 149.782 167.193C146.409 167.426 143.097 167.454 139.84 167.281C136.583 167.106 133.269 167.136 129.898 167.368C128.268 167.368 127.221 166.555 126.757 164.926C125.36 158.762 123.936 152.627 122.482 146.522C121.027 140.418 119.605 134.283 118.208 128.12C116.927 122.072 115.621 116.083 114.283 110.152C112.945 104.222 111.58 98.2913 110.185 92.3607C109.72 90.2683 109.252 87.941 108.79 85.3802C108.324 82.8222 107.859 80.1791 107.393 77.445C106.928 74.7123 106.433 72.0677 105.91 69.5087C105.388 66.9507 104.893 64.6234 104.427 62.531C104.312 62.0658 104.196 61.6576 104.08 61.3095C103.962 60.9614 103.848 60.5546 103.73 60.088C103.497 58.4593 103.76 57.3553 104.513 56.7738C105.27 56.1926 106.461 55.9605 108.09 56.0765C109.137 56.1926 110.822 56.2807 113.148 56.3379C115.474 56.3967 117.946 56.4246 120.563 56.4246C123.179 56.4246 125.622 56.3967 127.889 56.3379C130.156 56.2807 131.814 56.1926 132.861 56.0765C133.79 56.0765 134.401 56.2513 134.692 56.6008C134.983 56.9489 135.244 57.4731 135.477 58.1704C135.941 59.8001 136.379 61.6003 136.786 63.577C137.193 65.5548 137.599 67.5881 138.006 69.682C138.413 71.7758 138.819 73.8403 139.226 75.8754C139.634 77.9123 140.012 79.6846 140.361 81.195C141.524 85.4987 142.631 89.7716 143.675 94.0166C144.722 98.2601 145.828 102.477 146.989 106.663C147.106 107.011 147.252 107.39 147.426 107.797C147.6 108.204 147.979 108.408 148.56 108.408C148.908 108.408 149.315 107.943 149.78 107.011C152.222 102.825 154.665 98.8138 157.106 94.9756C159.549 91.1374 161.92 87.0919 164.083 82.766C166.108 78.7179 171.881 70.0384 176.275 69.4735C178.974 69.1269 180.853 67.8568 184.27 69.2443C187.416 70.5246 190.964 77.6621 191.996 79.975C194.306 85.1626 196.471 90.2959 198.796 95.2366C201.123 100.181 203.449 105.209 205.774 110.327C206.007 110.908 206.327 111.576 206.735 112.333C207.14 113.089 207.576 113.466 208.042 113.466L208.043 113.463L208.044 113.464ZM422.064 -0.000739704C429.943 -0.000739704 437.823 0.0507453 445.701 0.151902C453.579 0.251609 461.464 0.324848 469.34 0.606928C472.775 0.725851 476.363 0.75812 480.097 0.454286C483.832 0.151902 487.42 0.247258 490.857 0.606928C493.277 0.855288 495.103 1.56593 496.312 2.87988C497.522 4.1913 498.19 5.96789 498.435 8.18356C498.793 11.418 499.516 12.6457 499.213 16.2826C498.911 19.9196 497.795 22.1062 498.118 25.3295C498.198 26.1576 498.168 26.9959 497.661 27.9048C497.158 28.8152 496.702 29.6724 496.299 30.4816C489.227 41.3928 483.014 52.6035 477.661 64.1212C472.306 75.6375 467.003 87.255 461.752 98.9722C455.285 112.914 448.82 126.804 442.355 140.642C435.891 154.483 434.589 158.722 428.074 172.634C427.117 174.683 425.849 176.374 424.437 177.788C423.023 179.202 421.001 179.909 418.376 179.909H375.947C372.514 179.909 371.467 178.376 372.916 175.364C374.094 172.922 375.393 170.516 376.704 168.09C378.018 165.668 379.328 163.262 380.493 160.814C389.831 141.241 393.916 131.552 403.108 112.457C412.301 93.369 421.545 74.0205 430.839 54.4243C433.263 49.3719 434.172 46.3415 433.567 45.3325C432.959 44.3206 429.726 43.8155 423.867 43.8155C413.766 43.8155 403.613 43.8155 393.411 43.8155C383.209 43.8155 373.055 43.917 362.953 44.1197C360.732 44.1197 359.014 43.7655 357.801 43.0595C356.588 42.3518 355.882 40.8863 355.681 38.663C355.277 32.8042 355.126 26.8943 355.226 20.9359C355.324 14.9774 355.625 12.5253 355.388 6.66765C355.227 2.6239 357.288 -0.00146484 361.754 -0.00146484H367.817C372.261 -0.00146484 377.616 0.0500201 383.878 0.151177C390.138 0.250884 396.101 0.302369 401.759 0.302369C407.416 0.302369 412.214 0.250884 416.153 0.151177C420.091 0.0500201 422.065 -0.00146484 422.065 -0.00146484L422.064 -0.000739704ZM216.916 249.405V214.974H209.724V203.527H216.916V189.848H233.538V203.527H240.729V214.974H233.538V249.405H216.916V249.405ZM365.313 203.527V226.947C365.313 232.127 364.876 235.974 364.001 238.47C363.142 240.968 361.667 243.185 359.612 245.125C357.489 247.156 354.848 248.677 351.69 249.669C348.514 250.677 344.805 251.173 340.529 251.173C336.284 251.173 332.591 250.677 329.449 249.669C326.291 248.677 323.617 247.156 321.398 245.125C319.342 243.248 317.883 241.046 317.025 238.517C316.167 235.989 315.745 232.127 315.745 226.947V203.527H331.877V228.001C331.877 231.832 332.541 234.609 333.869 236.331C335.199 238.035 337.352 238.888 340.333 238.888C343.347 238.888 345.501 238.052 346.812 236.376C348.125 234.686 348.788 231.895 348.788 228.002V203.528H365.312L365.313 203.527V203.527ZM481.588 226.511C481.588 222.944 480.6 220.121 478.623 218.059C476.663 215.996 473.958 214.973 470.556 214.973C467.139 214.973 464.451 215.996 462.49 218.059C460.529 220.12 459.558 222.944 459.558 226.511C459.558 230.109 460.529 232.932 462.473 234.98C464.418 237.027 467.107 238.05 470.556 238.05C473.958 238.05 476.663 237.027 478.623 234.964C480.6 232.901 481.588 230.079 481.588 226.511V226.511ZM496.585 178.958V249.404H481.018V241.959C478.866 245.045 476.452 247.357 473.762 248.876C471.073 250.412 468.093 251.171 464.805 251.171C458.067 251.171 452.706 248.938 448.719 244.488C444.736 240.035 442.742 234.033 442.742 226.496C442.742 219.191 444.736 213.281 448.704 208.783C452.672 204.287 457.839 202.036 464.222 202.036C468.27 202.036 471.575 202.734 474.12 204.13C476.661 205.527 478.93 207.869 480.923 211.14C480.728 210.055 480.599 208.814 480.5 207.434C480.405 206.054 480.355 204.549 480.355 202.951V178.959H496.586L496.585 178.958ZM576.284 189.194C576.284 186.744 577.191 184.666 579.022 182.943C580.836 181.223 583.025 180.353 585.597 180.353C588.255 180.353 590.474 181.206 592.256 182.898C594.053 184.588 594.945 186.682 594.945 189.194C594.945 191.706 594.036 193.831 592.206 195.584C590.393 197.337 588.189 198.221 585.597 198.221C583.054 198.221 580.868 197.321 579.038 195.537C577.209 193.755 576.285 191.645 576.285 189.194H576.284V189.194ZM577.159 249.404V203.525H594.07V249.404H577.159ZM708.547 226.574C708.547 223.161 707.64 220.463 705.841 218.492C704.044 216.523 701.598 215.531 698.536 215.531C695.441 215.531 692.996 216.523 691.197 218.492C689.416 220.463 688.525 223.161 688.525 226.574C688.525 230.001 689.416 232.7 691.183 234.654C692.947 236.608 695.41 237.585 698.536 237.585C701.631 237.585 704.076 236.608 705.873 234.654C707.656 232.7 708.547 230.001 708.547 226.574H708.547ZM725.36 226.574C725.36 229.876 724.681 233.026 723.336 235.987C721.991 238.965 720.049 241.633 717.472 243.991C714.88 246.348 711.98 248.146 708.774 249.356C705.551 250.566 702.149 251.171 698.536 251.171C694.858 251.171 691.426 250.566 688.219 249.356C684.995 248.146 682.128 246.348 679.599 243.991C677.058 241.68 675.13 239.043 673.802 236.065C672.473 233.071 671.809 229.908 671.809 226.574C671.809 223.223 672.473 220.059 673.784 217.081C675.097 214.119 677.025 211.451 679.599 209.078C682.095 206.751 684.945 204.983 688.17 203.804C691.375 202.625 694.826 202.036 698.536 202.036C702.245 202.036 705.696 202.625 708.887 203.804C712.079 204.983 714.945 206.751 717.472 209.078C720.08 211.482 722.04 214.165 723.369 217.128C724.696 220.089 725.36 223.254 725.36 226.574H725.36Z" fill="#FEFEFE"/>
</g>
<defs>
<clipPath id="clip0_103_2">
<rect width="853.414" height="251.174" fill="white"/>
</clipPath>
</defs>
</svg>
