<svg width="39" height="22" viewBox="0 0 39 22" fill="none" xmlns="http://www.w3.org/2000/svg">
<path d="M1.47559 9.92949C0.713199 9.60538 0.357906 8.72459 0.682021 7.9622C1.00614 7.19981 1.88692 6.84451 2.64931 7.16863L1.47559 9.92949ZM37.506 5.88624C38.2589 6.2319 38.589 7.12244 38.2434 7.8753L32.6104 20.144C32.2648 20.8968 31.3742 21.2269 30.6214 20.8813C29.8685 20.5356 29.5384 19.6451 29.8841 18.8922L34.8911 7.98673L23.9856 2.97969C23.2327 2.63402 22.9026 1.74349 23.2483 0.990623C23.594 0.237757 24.4845 -0.0923463 25.2374 0.253318L37.506 5.88624ZM2.64931 7.16863C7.16619 9.08888 20.5395 11.7069 36.3588 5.84294L37.4015 8.6559C20.848 14.792 6.68181 12.1428 1.47559 9.92949L2.64931 7.16863Z" fill="#041022"/>
</svg>
