<svg width="50" height="50" viewBox="0 0 50 50" fill="none" xmlns="http://www.w3.org/2000/svg">
<g clip-path="url(#clip0_3_6)">
<path d="M40 0H10C4.47715 0 0 4.47715 0 10V40C0 45.5228 4.47715 50 10 50H40C45.5228 50 50 45.5228 50 40V10C50 4.47715 45.5228 0 40 0Z" fill="#F2F2F2"/>
<path d="M35.954 18.988C36.122 18.419 35.954 18 35.144 18H32.464C32.2135 17.9823 31.964 18.0469 31.7537 18.1841C31.5434 18.3213 31.3837 18.5236 31.299 18.76C30.468 20.7359 29.3584 22.5826 28.004 24.244C27.381 24.867 27.094 25.068 26.753 25.068C26.585 25.068 26.325 24.868 26.325 24.299V18.988C26.325 18.305 26.134 18 25.57 18H21.356C21.2708 17.9952 21.1854 18.0072 21.1049 18.0355C21.0243 18.0638 20.9502 18.1077 20.8867 18.1648C20.8232 18.2219 20.7716 18.291 20.7349 18.3681C20.6983 18.4452 20.6772 18.5287 20.673 18.614C20.673 19.26 21.638 19.414 21.738 21.231V25.181C21.738 26.046 21.583 26.205 21.238 26.205C20.328 26.205 18.116 22.865 16.806 19.042C16.542 18.3 16.283 18 15.596 18H12.919C12.155 18 12 18.36 12 18.76C12 19.47 12.91 22.997 16.237 27.66C18.453 30.838 21.574 32.562 24.414 32.562C26.12 32.562 26.33 32.18 26.33 31.52C26.33 28.48 26.175 28.193 27.03 28.193C27.43 28.193 28.108 28.393 29.701 29.927C31.521 31.747 31.822 32.562 32.841 32.562H35.521C36.285 32.562 36.672 32.18 36.449 31.424C35.941 29.836 32.496 26.569 32.346 26.351C31.946 25.841 32.064 25.614 32.346 25.159C32.346 25.154 35.618 20.548 35.954 18.988Z" fill="#1E1E1E"/>
</g>
<defs>
<clipPath id="clip0_3_6">
<rect width="50" height="50" rx="13" fill="white"/>
</clipPath>
</defs>
</svg>
