<?xml version="1.0" encoding="UTF-8"?>
<!DOCTYPE svg PUBLIC "-//W3C//DTD SVG 1.1//EN" "http://www.w3.org/Graphics/SVG/1.1/DTD/svg11.dtd">
<!-- Creator: CorelDRAW 2020 (64-Bit) -->
<svg xmlns="http://www.w3.org/2000/svg" xml:space="preserve" width="28.973mm" height="18.108mm" version="1.1" style="shape-rendering:geometricPrecision; text-rendering:geometricPrecision; image-rendering:optimizeQuality; fill-rule:evenodd; clip-rule:evenodd"
viewBox="0 0 1854.84 1159.27"
 xmlns:xlink="http://www.w3.org/1999/xlink"
 xmlns:xodm="http://www.corel.com/coreldraw/odm/2003">

  <path class="fil0" d="M1059.47 1157.25l0.59 -410.24c227.71,12.02 416.83,217.53 466.26,410.83l328.52 0.76c-28.62,-177.46 -175.07,-368.51 -303.06,-476.23 -55.17,-46.43 -140.41,-94.12 -152.39,-105.87 23.02,-21.18 38.28,-27.75 63.9,-47.14 151.53,-114.69 294.16,-327.21 323.2,-529.26l-292.42 0.09c-20.48,29.99 -140.33,426.92 -434.05,456.71l0 -455.05 -305.02 -1.84 -0.13 800.82c-146.96,-29.78 -267.06,-171.34 -326.03,-288.38 -72.24,-143.38 -106.89,-324.78 -111.32,-511.93l-317.53 -0.44c8.68,356.95 96.04,626.16 273.01,839.98 145.65,175.98 429.79,339.37 786.48,317.2z"/>

</svg>
