<svg width="268" height="66" viewBox="0 0 268 66" fill="none" xmlns="http://www.w3.org/2000/svg">
<path d="M91.9864 31.0846C102.082 28.1557 113.561 18.9618 117.051 13.8579C122.354 6.10396 116.559 -1.92187 105.937 10.5449C94.7118 23.7199 94.7716 45.2087 97.1272 55.7182C97.9234 59.2701 104.499 66.5308 114.627 53.9843C127.97 37.4553 122.873 27.9951 112.957 32.9495C104.069 37.3904 104.214 43.1873 103.497 47.6298" stroke="black" stroke-width="8" stroke-linecap="round"/>
<path d="M58.2335 47.7981C66.7335 44.7981 75.2335 33.8463 75.2335 30.2981C75.2335 23.7981 61.7335 27.7981 55.2335 37.7981C48.7335 47.7981 53.2334 57.7981 58.2335 60.2981C61.0619 61.7123 73.2335 61.2981 78.2335 50.2981" stroke="black" stroke-width="8" stroke-linecap="round"/>
<path d="M243.233 47.7981C251.733 44.7981 260.233 33.8463 260.233 30.2981C260.233 23.7981 246.733 27.7981 240.233 37.7981C233.733 47.7981 238.233 57.7981 243.233 60.2981C246.062 61.7123 258.233 61.2981 263.233 50.2981" stroke="black" stroke-width="8" stroke-linecap="round"/>
<path d="M4 35.6314C6 46.6314 12.9 59.4314 14.5 60.6314C16.1 61.8314 19.5 49.1314 21 50.6314L28.5 60.1314C29.5 61.6314 33 43.6314 38 35.1314" stroke="black" stroke-width="8" stroke-linecap="round"/>
<path d="M155 34.1312C150.5 29.6312 140 29.7314 138 36.1314C136 42.5314 146.5 43.9647 151.5 45.1314C157.5 47.1314 164.7 54.0314 161.5 57.6314C157.5 62.1314 146 63.1314 140.5 54.1314" stroke="black" stroke-width="8" stroke-linecap="round"/>
<path d="M178 29.1314C178 41.1314 176 60.6314 185 60.6314" stroke="black" stroke-width="8" stroke-linecap="round"/>
<path d="M198 22.1314C197 39.1314 207.277 64.6569 213.5 60.1314C219 56.1314 221 53.1314 222.5 48.6314" stroke="black" stroke-width="8" stroke-linecap="round"/>
<path d="M195.5 42.6314C200 41.6314 207.4 35.4314 211 34.6314" stroke="black" stroke-width="8" stroke-linecap="round"/>
<path d="M178 17.1314H178.1" stroke="black" stroke-width="9" stroke-linecap="round"/>
</svg>
