<svg xmlns="http://www.w3.org/2000/svg" xmlns:xlink="http://www.w3.org/1999/xlink" width="50" height="50" viewBox="0 0 50 50"><defs><linearGradient id="a" y1="1" x2="1" gradientUnits="objectBoundingBox"><stop offset="0" stop-color="#4ab161"/><stop offset="1" stop-color="#60fc7c"/></linearGradient></defs><g transform="translate(-654.32 -193.02)"><rect width="50" height="50" rx="10" transform="translate(654.32 193.02)" fill="url(#a)"/><path d="M7874.551-7963.171a11.305,11.305,0,0,1-1.424-5.479,11.354,11.354,0,0,1,11.341-11.341,11.354,11.354,0,0,1,11.341,11.341,11.354,11.354,0,0,1-11.341,11.341,11.286,11.286,0,0,1-5.39-1.376l-6.173,1.657Zm5.223,2.418a9.186,9.186,0,0,0,4.694,1.3,9.206,9.206,0,0,0,9.2-9.2,9.206,9.206,0,0,0-9.2-9.2,9.206,9.206,0,0,0-9.2,9.2,9.164,9.164,0,0,0,1.344,4.768l.239.393-.92,3.431,3.448-.926Zm5.777-3.255a9.282,9.282,0,0,1-1.946-.925,11.039,11.039,0,0,1-3.12-2.9,11.845,11.845,0,0,1-.72-1.093,5.864,5.864,0,0,1-.689-1.588,3.083,3.083,0,0,1-.089-.72,2.854,2.854,0,0,1,.989-2.264,1.3,1.3,0,0,1,1.409-.21,3.03,3.03,0,0,1,.943,1.426,2.341,2.341,0,0,1,.3,1.28,2.5,2.5,0,0,1-.668,1.086.447.447,0,0,0-.057.612,7.369,7.369,0,0,0,3.67,3.146.408.408,0,0,0,.524-.115c.271-.337.541-1,.963-1.17a1.913,1.913,0,0,1,1.625.365c.435.262,1.162.578,1.277,1.118a1.285,1.285,0,0,1-.095.78,2.742,2.742,0,0,1-2.053,1.526,2.733,2.733,0,0,1-.5.048A5.55,5.55,0,0,1,7885.551-7964.008Z" transform="translate(-7204.133 8186.833)" fill="#fff" stroke="rgba(0,0,0,0)" stroke-width="1"/></g></svg>