<svg width="1248" height="93" viewBox="0 0 1248 93" fill="none" xmlns="http://www.w3.org/2000/svg">
<path d="M22.6569 38.5935C19.3236 34.9268 12.7891 29.8543 7.78915 37.9739C-0.725292 51.8007 6.34509 69.6201 16.7891 62.9739C27.7891 55.9739 22.6569 28.0935 24.1569 33.0935L27.2891 50.4739L30.1569 67.0935C31.7891 76.4739 27.7891 87.9739 17.7891 88.4739C5.21515 89.1026 5.78912 69.4739 18.7891 73.9739" stroke="black" stroke-width="8" stroke-linecap="round"/>
<path d="M1150.45 38.5935C1147.11 34.9268 1140.58 29.8543 1135.58 37.9739C1127.06 51.8007 1134.13 69.6201 1144.58 62.9739C1155.58 55.9739 1150.45 28.0935 1151.95 33.0935L1155.08 50.4739L1157.95 67.0935C1159.58 76.4739 1155.58 87.9739 1145.58 88.4739C1133 89.1026 1133.58 69.4739 1146.58 73.9739" stroke="black" stroke-width="8" stroke-linecap="round"/>
<path d="M82.7891 63.4738L103.789 45.6017C97.7891 48.4738 86.5536 48.9738 85.2891 45.6017C83.7891 41.6017 87.7891 35.4738 96.7891 32.9738C101.046 31.7913 102.789 32.1017 102.789 32.6017L103.289 63.4738" stroke="black" stroke-width="8" stroke-linecap="round"/>
<path d="M161.289 41.9738C162.289 36.4738 155.789 35.4738 151.818 36.4738C144.545 38.3054 139.804 48.4739 140.262 53.9738C140.557 57.519 144.077 65.6378 154.733 62.9739C156.762 62.4666 162.289 59.9738 164.289 54.9738" stroke="black" stroke-width="8" stroke-linecap="round"/>
<path d="M177.789 42.9739C185.956 41.3072 191.289 39.4739 202.789 38.4739" stroke="black" stroke-width="8" stroke-linecap="round"/>
<path d="M292.789 42.9739C300.956 41.3072 306.289 39.4739 317.789 38.4739" stroke="black" stroke-width="8" stroke-linecap="round"/>
<path d="M187.289 41.4739C187.789 46.6405 188.289 57.9739 186.789 63.4739" stroke="black" stroke-width="8" stroke-linecap="round"/>
<path d="M302.289 41.4739C302.789 46.6405 303.289 57.9739 301.789 63.4739" stroke="black" stroke-width="8" stroke-linecap="round"/>
<path d="M234.789 38.9738C234.623 35.3072 232.689 28.2738 228.289 29.4738C222.789 30.9738 215.289 40.9738 216.289 51.9738C217.25 62.5369 222.789 65.4738 226.789 61.4738C230.789 57.4738 237.789 44.4738 238.789 39.9738C239.589 36.3738 240.289 32.8072 239.789 32.9738C238.956 38.1405 238.589 54.7738 239.789 59.9738" stroke="black" stroke-width="8" stroke-linecap="round"/>
<path d="M349.38 38.9738C349.213 35.3072 347.28 28.2738 342.88 29.4738C337.38 30.9738 329.88 40.9738 330.88 51.9738C331.84 62.5369 337.38 65.4738 341.38 61.4738C345.38 57.4738 352.38 44.4738 353.38 39.9738C354.18 36.3738 354.88 32.8072 354.38 32.9738C353.546 38.1405 353.18 54.7738 354.38 59.9738" stroke="black" stroke-width="8" stroke-linecap="round"/>
<path d="M256.289 31.4739C256.289 40.1405 256.789 62.9739 264.289 80.4739C264.289 81.4739 252.769 47.6005 261.289 40.9739C265.789 37.4739 273.439 29.9739 277.289 40.9739C284.289 60.9739 267.789 64.9739 264.789 56.9739" stroke="black" stroke-width="8" stroke-linecap="round"/>
<path d="M1012.79 31.4739C1012.79 40.1405 1013.29 62.9739 1020.79 80.4739C1020.79 81.4739 1009.27 47.6005 1017.79 40.9739C1022.29 37.4739 1029.94 29.9739 1033.79 40.9739C1040.79 60.9739 1024.29 64.9739 1021.29 56.9739" stroke="black" stroke-width="8" stroke-linecap="round"/>
<path d="M370.289 32.9739C370.289 38.4739 373.789 64.9739 374.289 62.9739C374.122 56.3072 367.789 47.4738 379.289 39.4739C381.026 38.2659 385.789 32.9739 387.289 34.4738C390.289 35.9738 393.789 52.9738 394.789 62.4738" stroke="black" stroke-width="8" stroke-linecap="round"/>
<path d="M409.289 45.4738C409.711 50.3217 413.122 55.1405 415.289 57.9738C423.289 65.5738 433.188 63.9738 435.289 58.8368C436.688 52.4738 432.789 41.4024 426.789 37.9739C419.789 33.9738 408.289 33.9739 409.289 45.4738Z" stroke="black" stroke-width="8" stroke-linecap="round"/>
<path d="M697.85 45.4738C698.272 50.3217 701.684 55.1405 703.85 57.9738C711.85 65.5738 721.749 63.9738 723.85 58.8368C725.249 52.4738 721.35 41.4024 715.35 37.9739C708.35 33.9738 696.85 33.9739 697.85 45.4738Z" stroke="black" stroke-width="8" stroke-linecap="round"/>
<path d="M1171.85 45.4738C1172.27 50.3217 1175.68 55.1405 1177.85 57.9738C1185.85 65.5738 1195.75 63.9738 1197.85 58.8368C1199.25 52.4738 1195.35 41.4024 1189.35 37.9739C1182.35 33.9738 1170.85 33.9739 1171.85 45.4738Z" stroke="black" stroke-width="8" stroke-linecap="round"/>
<path d="M449.289 35.4738C458.789 30.9738 468.656 20.0685 471.289 14.4737C475.289 5.97385 468.289 -1.0261 459.789 12.9738C450.806 27.769 454.289 48.9738 458.289 58.9738C459.641 62.3534 467.289 68.4738 475.289 54.4738C485.828 36.0299 479.289 27.5027 470.289 33.9738C462.222 39.774 463.289 45.4738 463.289 49.9738" stroke="black" stroke-width="8" stroke-linecap="round"/>
<path d="M1211.79 35.4738C1221.29 30.9738 1231.16 20.0685 1233.79 14.4737C1237.79 5.97385 1230.79 -1.0261 1222.29 12.9738C1213.31 27.769 1216.79 48.9738 1220.79 58.9738C1222.14 62.3534 1229.79 68.4738 1237.79 54.4738C1248.33 36.0299 1241.79 27.5027 1232.79 33.9738C1224.72 39.774 1225.79 45.4738 1225.79 49.9738" stroke="black" stroke-width="8" stroke-linecap="round"/>
<path d="M519.789 34.4739C519.289 46.4739 514.211 62.1276 519.289 62.9739C522.289 63.4739 527.789 55.4739 540.289 41.9739C540.789 40.4739 539.789 59.9739 542.789 62.9739" stroke="black" stroke-width="8" stroke-linecap="round"/>
<path d="M870.528 34.4739C870.028 46.4739 864.95 62.1276 870.028 62.9739C873.028 63.4739 878.528 55.4739 891.028 41.9739C891.528 40.4739 890.528 59.9739 893.528 62.9739" stroke="black" stroke-width="8" stroke-linecap="round"/>
<path d="M582.789 64.4739C580.789 59.4739 579.289 38.4739 579.289 32.4739" stroke="black" stroke-width="8" stroke-linecap="round"/>
<path d="M1095.29 64.4739C1093.29 59.4739 1091.79 38.4739 1091.79 32.4739" stroke="black" stroke-width="8" stroke-linecap="round"/>
<path d="M580.789 51.4739C585.956 49.4739 597.489 45.4739 600.289 45.4739C603.089 45.4739 600.789 30.4739 600.789 31.9738C600.789 38.9739 602.789 56.4739 605.289 62.9739" stroke="black" stroke-width="8" stroke-linecap="round"/>
<path d="M1093.29 51.4739C1098.46 49.4739 1109.99 45.4739 1112.79 45.4739C1115.59 45.4739 1113.29 30.4739 1113.29 31.9738C1113.29 38.9739 1115.29 56.4739 1117.79 62.9739" stroke="black" stroke-width="8" stroke-linecap="round"/>
<path d="M625.789 49.9738C634.289 46.9738 642.789 36.0221 642.789 32.4738C642.789 25.9738 629.289 29.9738 622.789 39.9738C616.289 49.9738 620.789 59.9738 625.789 62.4738C628.618 63.888 640.789 63.4738 645.789 52.4738" stroke="black" stroke-width="8" stroke-linecap="round"/>
<path d="M1057.02 49.9738C1065.52 46.9738 1074.02 36.0221 1074.02 32.4738C1074.02 25.9738 1060.52 29.9738 1054.02 39.9738C1047.52 49.9738 1052.02 59.9738 1057.02 62.4738C1059.85 63.888 1072.02 63.4738 1077.02 52.4738" stroke="black" stroke-width="8" stroke-linecap="round"/>
<path d="M673.289 39.4739C669.789 34.9739 659.289 40.4739 660.289 54.9739C661.02 65.5769 671.701 64.9739 678.201 59.9739C682.201 55.9739 684.989 51.7739 679.789 40.9739C673.289 27.4739 663.789 15.4739 665.289 15.4739C666.489 15.4739 677.956 14.9739 683.789 14.9739" stroke="black" stroke-width="8" stroke-linecap="round"/>
<path d="M987.856 39.4739C984.356 34.9739 973.856 40.4739 974.856 54.9739C975.587 65.5769 986.268 64.9739 992.767 59.9739C996.768 55.9739 999.556 51.7739 994.356 40.9739C987.856 27.4739 978.356 15.4739 979.856 15.4739C981.056 15.4739 992.523 14.9739 998.356 14.9739" stroke="black" stroke-width="8" stroke-linecap="round"/>
<path d="M43.2891 62.9739C47.7891 49.4739 58.7891 35.4739 58.7891 35.4739C63.2891 46.4739 64.2891 51.9739 69.2891 63.4739" stroke="black" stroke-width="8" stroke-linecap="round" stroke-linejoin="round"/>
<path d="M737.789 62.9739C742.289 49.4739 753.289 35.4739 753.289 35.4739C757.789 46.4739 758.789 51.9739 763.789 63.4739" stroke="black" stroke-width="8" stroke-linecap="round" stroke-linejoin="round"/>
<path d="M783.789 31.4739C784.289 31.6405 783.571 34.1085 781.789 37.4739C777.289 45.9739 776.789 54.9739 779.289 58.4739C781.789 61.9739 791.11 67.6211 793.789 57.9739C796.469 48.3267 787.789 42.4739 780.289 51.9739" stroke="black" stroke-width="8" stroke-linecap="round"/>
<path d="M817.289 31.4739C819.289 41.4739 809.789 63.4739 810.789 63.4739C815.432 63.2007 822.014 62.9835 828.289 62.8223M851.289 31.9739C848.789 43.9739 849.289 62.4739 846.789 62.4739C845.733 62.4739 837.329 62.59 828.289 62.8223M828.289 62.8223C828.789 57.5395 829.789 47.9739 831.289 45.4739" stroke="black" stroke-width="8" stroke-linecap="round"/>
<path d="M910.289 61.4739C916.622 54.1405 928.789 39.4739 935.789 33.9739" stroke="black" stroke-width="8" stroke-linecap="round"/>
<path d="M906.789 30.9739C917.122 41.8072 937.989 63.4739 938.789 63.4739" stroke="black" stroke-width="8" stroke-linecap="round"/>
</svg>
