<svg width="775" height="71" viewBox="0 0 775 71" fill="none" xmlns="http://www.w3.org/2000/svg">
<path d="M22.6569 16.9368C19.3236 13.2702 12.7891 8.19767 7.78915 16.3173C-0.725292 30.1441 6.34509 47.9635 16.7891 41.3173C27.7891 34.3173 22.6569 6.43686 24.1569 11.4369L27.2891 28.8173L30.1569 45.4369C31.7891 54.8173 27.7891 66.3173 17.7891 66.8173C5.21515 67.446 5.78912 47.8173 18.7891 52.3173" stroke="black" stroke-width="8" stroke-linecap="round"/>
<path d="M82.7891 41.8172L103.789 23.9451C97.7891 26.8172 86.5536 27.3172 85.2891 23.9451C83.7891 19.9451 87.7891 13.8172 96.7891 11.3172C101.046 10.1347 102.789 10.4451 102.789 10.9451L103.289 41.8172" stroke="black" stroke-width="8" stroke-linecap="round"/>
<path d="M642.59 17.1361C642.424 13.4694 640.49 6.43605 636.09 7.63605C630.59 9.13605 623.09 19.136 624.091 30.1361C625.051 40.6991 630.59 43.6361 634.59 39.6361C638.59 35.6361 645.59 22.6361 646.59 18.1361C647.39 14.5361 648.09 10.9694 647.59 11.1361C646.757 16.3027 646.39 32.9361 647.59 38.1361" stroke="black" stroke-width="8" stroke-linecap="round"/>
<path d="M183 9.5C183 18.1667 183.5 41 191 58.5C191 59.5 179.48 25.6266 188 19C192.5 15.5 200.15 8 204 19C211 39 194.5 43 191.5 35" stroke="black" stroke-width="8" stroke-linecap="round"/>
<path d="M258 10.5C258 16 261.5 42.5 262 40.5C261.833 33.8333 255.5 25 267 17C268.736 15.792 273.5 10.5 275 12C278 13.5 281.5 30.5 282.5 40" stroke="black" stroke-width="8" stroke-linecap="round"/>
<path d="M584 10.5C584 16 587.5 42.5 588 40.5C587.833 33.8333 581.5 25 593 17C594.736 15.792 599.5 10.5 601 12C604 13.5 607.5 30.5 608.5 40" stroke="black" stroke-width="8" stroke-linecap="round"/>
<path d="M496.061 23.4173C496.483 28.2652 499.894 33.084 502.061 35.9173C510.061 43.5173 519.96 41.9173 522.061 36.7803C523.46 30.4173 519.561 19.3459 513.561 15.9173C506.561 11.9173 495.061 11.9173 496.061 23.4173Z" stroke="black" stroke-width="8" stroke-linecap="round"/>
<path d="M706.739 12.5C706.239 24.5 701.161 40.1537 706.239 41C709.239 41.5 714.739 33.5 727.239 20C727.739 18.5 726.739 38 729.739 41" stroke="black" stroke-width="8" stroke-linecap="round"/>
<path d="M747.739 12.5C747.239 24.5 742.161 40.1537 747.239 41C750.239 41.5 755.739 33.5 768.239 20C768.739 18.5 767.739 38 770.739 41" stroke="black" stroke-width="8" stroke-linecap="round"/>
<path d="M300.5 41.9739C298.5 36.9739 297 15.9739 297 9.97388" stroke="black" stroke-width="8" stroke-linecap="round"/>
<path d="M666.5 41.9739C664.5 36.9739 663 15.9739 663 9.97388" stroke="black" stroke-width="8" stroke-linecap="round"/>
<path d="M298.711 29.1055C303.878 27.1055 315.411 23.1055 318.211 23.1055C321.011 23.1055 318.711 8.10547 318.711 9.60544C318.711 16.6055 320.711 34.1055 323.211 40.6055" stroke="black" stroke-width="8" stroke-linecap="round"/>
<path d="M664.711 29.1055C669.878 27.1055 681.411 23.1055 684.211 23.1055C687.011 23.1055 684.711 8.10547 684.711 9.60544C684.711 16.6055 686.711 34.1055 689.211 40.6055" stroke="black" stroke-width="8" stroke-linecap="round"/>
<path d="M43.2891 41.3173C47.7891 27.8173 58.7891 13.8173 58.7891 13.8173C63.2891 24.8173 64.2891 30.3173 69.2891 41.8173" stroke="black" stroke-width="8" stroke-linecap="round" stroke-linejoin="round"/>
<path d="M346.997 8.5C347.497 8.66667 346.778 11.1346 344.997 14.5C340.497 23 339.997 32 342.497 35.5C344.997 39 354.317 44.6472 356.997 35C359.677 25.3528 350.997 19.5 343.497 29" stroke="black" stroke-width="8" stroke-linecap="round"/>
<path d="M392.5 39C398.833 31.6667 411 17 418 11.5" stroke="black" stroke-width="8" stroke-linecap="round"/>
<path d="M389 8.5C399.333 19.3333 420.2 41 421 41" stroke="black" stroke-width="8" stroke-linecap="round"/>
<path d="M141 9.5C141 25.5 146 43 146 42C144.833 36.8333 141.886 22.5 160 15M153 24C158.5 27.5 167.7 37.9 168.5 39.5" stroke="black" stroke-width="8" stroke-linecap="round"/>
<path d="M456 9.5C456 25.5 461 43 461 42C459.833 36.8333 456.886 22.5 475 15M468 24C473.5 27.5 482.7 37.9 483.5 39.5" stroke="black" stroke-width="8" stroke-linecap="round"/>
<path d="M373 7.5L369 42" stroke="black" stroke-width="8" stroke-linecap="round"/>
<path d="M220.5 15C218.5 24.5 226.3 39.1 229.5 39.5C233.5 40 236.5 29 236 18C235.791 13.3865 246.773 51 245 57.5C243.091 64.5 232.106 66.0161 228 61.5C223 56 227 52.5 229.5 53.5" stroke="black" stroke-width="8" stroke-linecap="round"/>
<path d="M760 7C763.5 5.5 766.5 4.5 771 4" stroke="black" stroke-width="8" stroke-linecap="round"/>
<path d="M537 41C538.5 33.3333 541 19 540 11C539.702 8.61854 553.5 32 553.5 30L563 14C564 12 569.5 38.5 569.5 41" stroke="black" stroke-width="8" stroke-linecap="round"/>
</svg>
