<svg width="1042" height="92" viewBox="0 0 1042 92" fill="none" xmlns="http://www.w3.org/2000/svg">
<path d="M883.058 41.843C884.058 36.343 877.558 35.343 873.587 36.343C866.314 38.1745 861.572 48.343 862.031 53.843C862.326 57.3881 865.846 65.5069 876.502 62.843C878.531 62.3358 884.058 59.843 886.058 54.843" stroke="black" stroke-width="8" stroke-linecap="round"/>
<path d="M899.558 42.843C907.724 41.1764 913.058 39.343 924.558 38.343" stroke="black" stroke-width="8" stroke-linecap="round"/>
<path d="M909.058 41.343C909.558 46.5097 910.058 57.843 908.558 63.343" stroke="black" stroke-width="8" stroke-linecap="round"/>
<path d="M22.6569 37.9368C19.3236 34.2702 12.7891 29.1977 7.78915 37.3173C-0.725292 51.1441 6.34509 68.9635 16.7891 62.3173C27.7891 55.3173 22.6569 27.4369 24.1569 32.4369L27.2891 49.8173L30.1569 66.4369C31.7891 75.8173 27.7891 87.3173 17.7891 87.8173C5.21515 88.446 5.78912 68.8173 18.7891 73.3173" stroke="black" stroke-width="8" stroke-linecap="round"/>
<path d="M82.7891 62.8172L103.789 44.9451C97.7891 47.8172 86.5536 48.3172 85.2891 44.9451C83.7891 40.9451 87.7891 34.8172 96.7891 32.3172C101.046 31.1347 102.789 31.4451 102.789 31.9451L103.289 62.8172" stroke="black" stroke-width="8" stroke-linecap="round"/>
<path d="M1017 62.8172L1038 44.9451C1032 47.8172 1020.76 48.3172 1019.5 44.9451C1018 40.9451 1022 34.8172 1031 32.3172C1035.26 31.1347 1037 31.4451 1037 31.9451L1037.5 62.8172" stroke="black" stroke-width="8" stroke-linecap="round"/>
<path d="M590.59 38.6361C590.424 34.9694 588.49 27.936 584.09 29.136C578.59 30.636 571.09 40.636 572.091 51.6361C573.051 62.1991 578.59 65.1361 582.59 61.1361C586.59 57.1361 593.59 44.1361 594.59 39.6361C595.39 36.0361 596.09 32.4694 595.59 32.6361C594.757 37.8027 594.39 54.4361 595.59 59.6361" stroke="black" stroke-width="8" stroke-linecap="round"/>
<path d="M181.061 44.9173C181.483 49.7652 184.894 54.584 187.061 57.4173C195.061 65.0173 204.96 63.4173 207.061 58.2803C208.46 51.9173 204.561 40.8459 198.561 37.4173C191.561 33.4173 180.061 33.4173 181.061 44.9173Z" stroke="black" stroke-width="8" stroke-linecap="round"/>
<path d="M266.061 44.9173C266.483 49.7652 269.894 54.584 272.061 57.4173C280.061 65.0173 289.96 63.4173 292.061 58.2803C293.46 51.9173 289.561 40.8459 283.561 37.4173C276.561 33.4173 265.061 33.4173 266.061 44.9173Z" stroke="black" stroke-width="8" stroke-linecap="round"/>
<path d="M345.061 44.9173C345.483 49.7652 348.894 54.584 351.061 57.4173C359.061 65.0173 368.96 63.4173 371.061 58.2803C372.46 51.9173 368.561 40.8459 362.561 37.4173C355.561 33.4173 344.061 33.4173 345.061 44.9173Z" stroke="black" stroke-width="8" stroke-linecap="round"/>
<path d="M721.061 44.9173C721.483 49.7652 724.894 54.584 727.061 57.4173C735.061 65.0173 744.96 63.4173 747.061 58.2803C748.46 51.9173 744.561 40.8459 738.561 37.4173C731.561 33.4173 720.061 33.4173 721.061 44.9173Z" stroke="black" stroke-width="8" stroke-linecap="round"/>
<path d="M799.061 44.9173C799.483 49.7652 802.894 54.584 805.061 57.4173C813.061 65.0173 822.96 63.4173 825.061 58.2803C826.46 51.9173 822.561 40.8459 816.561 37.4173C809.561 33.4173 798.061 33.4173 799.061 44.9173Z" stroke="black" stroke-width="8" stroke-linecap="round"/>
<path d="M221 35.4738C230.5 30.9738 240.367 20.0685 243 14.4737C247 5.97385 240 -1.0261 231.5 12.9738C222.517 27.769 226 48.9738 230 58.9738C231.352 62.3534 239 68.4738 247 54.4738C257.539 36.0299 251 27.5027 242 33.9738C233.933 39.774 235 45.4738 235 49.9738" stroke="black" stroke-width="8" stroke-linecap="round"/>
<path d="M406 35.4738C415.5 30.9738 425.367 20.0685 428 14.4737C432 5.97385 425 -1.0261 416.5 12.9738C407.517 27.769 411 48.9738 415 58.9738C416.352 62.3534 424 68.4738 432 54.4738C442.539 36.0299 436 27.5027 427 33.9738C418.933 39.774 420 45.4738 420 49.9738" stroke="black" stroke-width="8" stroke-linecap="round"/>
<path d="M455.739 34C455.239 46 450.161 61.6537 455.239 62.5C458.239 63 463.739 55 476.239 41.5C476.739 40 475.739 59.5 478.739 62.5" stroke="black" stroke-width="8" stroke-linecap="round"/>
<path d="M939.739 34C939.239 46 934.161 61.6537 939.239 62.5C942.239 63 947.739 55 960.239 41.5C960.739 40 959.739 59.5 962.739 62.5" stroke="black" stroke-width="8" stroke-linecap="round"/>
<path d="M144.5 63.4739C142.5 58.4739 141 37.4739 141 31.4739" stroke="black" stroke-width="8" stroke-linecap="round"/>
<path d="M684.5 63.4739C682.5 58.4739 681 37.4739 681 31.4739" stroke="black" stroke-width="8" stroke-linecap="round"/>
<path d="M142.711 50.6055C147.878 48.6055 159.411 44.6055 162.211 44.6055C165.011 44.6055 162.711 29.6055 162.711 31.1054C162.711 38.1055 164.711 55.6055 167.211 62.1055" stroke="black" stroke-width="8" stroke-linecap="round"/>
<path d="M682.711 50.6055C687.878 48.6055 699.411 44.6055 702.211 44.6055C705.011 44.6055 702.711 29.6055 702.711 31.1054C702.711 38.1055 704.711 55.6055 707.211 62.1055" stroke="black" stroke-width="8" stroke-linecap="round"/>
<path d="M43.2891 62.3173C47.7891 48.8173 58.7891 34.8173 58.7891 34.8173C63.2891 45.8173 64.2891 51.3173 69.2891 62.8173" stroke="black" stroke-width="8" stroke-linecap="round" stroke-linejoin="round"/>
<path d="M977 63.5C981.5 50 992.5 36 992.5 36C997 47 998 52.5 1003 64" stroke="black" stroke-width="8" stroke-linecap="round" stroke-linejoin="round"/>
<path d="M611 62.5C615.5 49 626.5 35 626.5 35C631 46 632 51.5 637 63" stroke="black" stroke-width="8" stroke-linecap="round" stroke-linejoin="round"/>
<path d="M655.997 31C656.497 31.1667 655.778 33.6346 653.997 37C649.497 45.5 648.997 54.5 651.497 58C653.997 61.5 663.317 67.1472 665.997 57.5C668.677 47.8528 659.997 42 652.497 51.5" stroke="black" stroke-width="8" stroke-linecap="round"/>
<path d="M534.323 37C532.323 46.5 540.123 61.1 543.323 61.5C547.323 62 550.323 51 549.823 40C549.614 35.3865 560.596 73 558.823 79.5C556.914 86.5 545.929 88.0161 541.823 83.5C536.823 78 540.823 74.5 543.323 75.5" stroke="black" stroke-width="8" stroke-linecap="round"/>
<path d="M307 38.5C315.5 31 327 26 329 30.5C332.558 38.5065 314.921 48.5 312.5 60C311.237 66 322 61 330.5 55.5" stroke="black" stroke-width="8" stroke-linecap="round"/>
<path d="M761 38.5C769.5 31 781 26 783 30.5C786.558 38.5065 768.921 48.5 766.5 60C765.237 66 776 61 784.5 55.5" stroke="black" stroke-width="8" stroke-linecap="round"/>
<path d="M492 44C495.5 34.5 510.4 27.3 512 34.5C514.111 44 501.029 53.3868 503 52.5C513 48 523.5 48 519 64C513.135 84.8531 497.076 87.6261 495.5 87.5C481.5 86.38 498 66.5 507 62.5" stroke="black" stroke-width="8" stroke-linecap="round"/>
</svg>
