<svg width="363" height="119" viewBox="0 0 363 119" fill="none" xmlns="http://www.w3.org/2000/svg">
<path d="M54.0577 56.843C55.0577 51.343 48.5577 50.343 44.5866 51.343C37.3137 53.1745 32.5722 63.343 33.0305 68.843C33.326 72.3881 36.846 80.5069 47.5017 77.843C49.5306 77.3358 55.0577 74.843 57.0577 69.843" stroke="black" stroke-width="8" stroke-linecap="round"/>
<path d="M89.5905 53.6361C89.4238 49.9694 87.4905 42.936 83.0905 44.136C77.5905 45.636 70.0905 55.636 71.0905 66.6361C72.0508 77.1991 77.5905 80.1361 81.5905 76.1361C85.5905 72.1361 92.5905 59.1361 93.5905 54.6361C94.3905 51.0361 95.0905 47.4694 94.5905 47.6361C93.7571 52.8027 93.3905 69.4361 94.5905 74.6361" stroke="black" stroke-width="8" stroke-linecap="round"/>
<path d="M112.739 49.5C112.239 61.5 107.161 77.1537 112.239 78C115.239 78.5 120.739 70.5 133.239 57C133.739 55.5 132.739 75 135.739 78" stroke="black" stroke-width="8" stroke-linecap="round"/>
<path d="M125 44C128.5 42.5 131.5 41.5 136 41" stroke="black" stroke-width="8" stroke-linecap="round"/>
<path d="M152 55.5C160.167 53.8333 165.5 52 177 51" stroke="black" stroke-width="8" stroke-linecap="round"/>
<path d="M161.5 54C162 59.1667 162.5 70.5 161 76" stroke="black" stroke-width="8" stroke-linecap="round"/>
</svg>
